<svg height="512pt" viewBox="0 0 512 512.08926" width="512pt" xmlns="http://www.w3.org/2000/svg"><path d="m32.042969 216.089844h352c13.257812 0 24 10.746094 24 24v240c0 13.253906-10.742188 24-24 24h-352c-13.253907 0-24-10.746094-24-24v-240c0-13.253906 10.746093-24 24-24zm0 0" fill="#cfd8dc"/><path d="m40.042969 248.089844h336v144h-336zm0 0" fill="#a6e7ff"/><path d="m197.132812 156.609375 28.289063 28.289063 90.503906-90.511719-50.914062-5.65625zm0 0" fill="#e2fc85"/><path d="m144.042969 312.089844 144-144 55.996093 55.996094-144 144.003906zm0 0" fill="#2ac3f2"/><path d="m355.523438 315-28.285157-28.285156 90.511719-90.503906 5.65625 50.910156zm0 0" fill="#e2fc85"/><path d="m502.605469 9.527344c-57.109375-7.136719-114.3125 12.492187-155.007813 53.1875l-88.242187 88.238281 101.824219 101.824219 88.242187-88.238282c40.695313-40.699218 60.320313-97.902343 53.183594-155.011718zm0 0" fill="#ff8a65"/><path d="m502.605469 9.527344c-39.285157-4.894532-79.105469 2.832031-113.703125 22.066406l91.636718 91.640625c19.238282-34.601563 26.964844-74.421875 22.066407-113.707031zm0 0" fill="#e2fc85"/><path d="m240.042969 424.089844h120v48h-120zm0 0" fill="#e2fc85"/><path d="m312.042969 424.089844h48v48h-48zm0 0" fill="#8edf78"/><g fill="#fff"><path d="m383.808594 117.007812 11.316406-11.3125 11.3125 11.3125-11.3125 11.3125zm0 0"/><path d="m146.390625 354.433594 112-112 11.3125 11.3125-112 112zm0 0"/><path d="m32.042969 456.089844h176v16h-176zm0 0"/><path d="m32.042969 424.089844h32v16h-32zm0 0"/><path d="m80.042969 424.089844h32v16h-32zm0 0"/><path d="m128.042969 424.089844h80v16h-80zm0 0"/></g><path d="m455.078125 170.191406c42.605469-42.335937 63.105469-102.078125 55.460937-161.652344l-.796874-6.179687-6.175782-.796875c-59.574218-7.621094-119.304687 12.886719-161.632812 55.496094l-28.945313 28.949218-50.910156-5.65625-76.257813 76.257813 39.601563 39.601563 33.933594-33.945313 11.601562 11.601563-34.222656 34.222656h-204.691406c-17.671875 0-32.0000002 14.328125-32.0000002 32v240c0 17.671875 14.3281252 32 32.0000002 32h352c17.675781 0 32-14.328125 32-32v-214.296875l15.738281-15.734375-5.65625-50.90625zm40.253906-153.398437c2.945313 31.992187-2.863281 64.183593-16.800781 93.128906l-76.320312-76.328125c28.949218-13.929688 61.132812-19.734375 93.121093-16.800781zm-247.289062 134.160156-22.621094 22.632813-16.976563-16.976563 59.503907-59.511719 30.550781 3.398438-27.679688 27.671875zm34.226562 34.222656 16.6875 16.691407-22.632812 22.621093 11.3125 11.3125 22.632812-22.625 16.6875 16.691407-66.632812 66.621093 11.3125 11.3125 66.632812-66.625 11.597657 11.601563-33.941407 33.945312 39.597657 39.589844 12.519531-12.527344v70.304688h-320v-128h140.691406l-16.410156 16.398437 11.3125 11.3125zm117.773438 294.914063c0 8.835937-7.160157 16-16 16h-352c-8.835938 0-16-7.164063-16-16v-240c0-8.835938 7.164062-16 16-16h188.691406l-16 16h-172.691406v160h352v-102.296875l16-16zm-44.519531-176.402344-16.976563-16.964844 22.632813-22.632812 50.449218-50.457032 3.390625 30.550782zm5.65625-62.230469-39.597657-39.589843 33.941407-33.945313-11.3125-11.3125-33.941407 33.9375-39.601562-39.59375 82.578125-82.582031c10.304687-10.296875 21.828125-19.296875 34.308594-26.808594l83.019531 83.015625c-7.515625 12.476563-16.515625 23.996094-26.808594 34.304687zm0 0"/><path d="m186.382812 66.429688 64.003907-64 11.3125 11.3125-64.003907 64zm0 0"/><path d="m122.382812 66.429688 48-47.996094 11.3125 11.3125-48 48zm0 0"/><path d="m434.386719 314.429688 64.003906-64 11.3125 11.3125-64 64zm0 0"/><path d="m434.386719 378.429688 47.996093-47.996094 11.316407 11.3125-48 48zm0 0"/><path d="m138.386719 306.429688 22.628906-22.625 11.3125 11.3125-22.628906 22.628906zm0 0"/><path d="m226.390625 330.429688 22.628906-22.625 11.3125 11.3125-22.628906 22.628906zm0 0"/><path d="m232.042969 480.089844h136v-64h-136zm88-48h32v32h-32zm-72 0h56v32h-56zm0 0"/></svg>