<svg xmlns="http://www.w3.org/2000/svg" width="50" height="50" viewBox="0 0 50 50">
  <path id="Icon_material-bug-report" data-name="Icon material-bug-report" d="M56,18.389H47.219a17.582,17.582,0,0,0-5.687-5.444l5.094-4.528L42.219,4.5l-6.781,6.028A21.213,21.213,0,0,0,31,10.056a20.7,20.7,0,0,0-4.406.472L19.781,4.5,15.375,8.417l5.063,4.528a17.794,17.794,0,0,0-5.656,5.444H6v5.556h6.531a16.449,16.449,0,0,0-.281,2.778V29.5H6v5.556h6.25v2.778a16.449,16.449,0,0,0,.281,2.778H6v5.556h8.781A19.263,19.263,0,0,0,31,54.5a19.263,19.263,0,0,0,16.219-8.333H56V40.611H49.469a16.448,16.448,0,0,0,.281-2.778V35.056H56V29.5H49.75V26.722a16.448,16.448,0,0,0-.281-2.778H56ZM37.25,40.611H24.75V35.056h12.5Zm0-11.111H24.75V23.944h12.5Z" transform="translate(-6 -4.5)" fill="#1da976"/>
</svg>
