<svg xmlns="http://www.w3.org/2000/svg" width="75.004" height="75.003" viewBox="0 0 75.004 75.003">
  <g id="dark-logo" transform="translate(0 0)">
    <g id="Layer_1" data-name="Layer 1" transform="translate(0 0)">
      <path id="Path_208" data-name="Path 208" d="M99.06,73.17a10.081,10.081,0,0,1,2.6,1.192q8.424,4.637,16.85,9.252a3.536,3.536,0,0,1,2.061,3.337q-.02,8.988,0,17.975a3.534,3.534,0,0,1-2.046,3.311q-8.934,4.881-17.829,9.8a4.225,4.225,0,0,1-4.424,0q-8.926-4.94-17.88-9.823a3.493,3.493,0,0,1-2.016-3.252q.012-9.029,0-18.051A3.508,3.508,0,0,1,78.4,83.636q8.968-4.905,17.916-9.833a13.978,13.978,0,0,1,1.573-.631Zm-11.8,13.474c.133.083.23.149.333.2l10.6,5.833a.526.526,0,0,0,.591,0q5.295-2.924,10.6-5.835c.1-.054.2-.121.308-.192-.081-.054-.121-.087-.167-.113q-5.393-2.964-10.779-5.932a.534.534,0,0,0-.6.044q-3.331,1.839-6.666,3.668Zm-3.492,6c0,.129-.016.214-.016.3v10.049a.48.48,0,0,0,.315.47q5.182,2.837,10.357,5.688c.1.054.2.1.355.169.012-.155.028-.264.028-.373V99.01a.51.51,0,0,0-.325-.506q-5.184-2.837-10.357-5.688C84.028,92.762,83.919,92.717,83.763,92.647Zm18.412,16.678c.159-.077.266-.125.369-.181l10.359-5.686a.5.5,0,0,0,.3-.512q-.012-4.97,0-9.936c0-.107-.012-.216-.02-.365-.153.073-.262.119-.365.175q-5.178,2.847-10.357,5.688a.506.506,0,0,0-.315.51q.012,4.952,0,9.9c.006.121.02.242.03.409Z" transform="translate(-60.98 -58.417)"/>
      <path id="Path_209" data-name="Path 209" d="M130.32,115.814l4.234-2.323q3.335-1.833,6.666-3.668a.534.534,0,0,1,.6-.044q5.383,2.974,10.779,5.932c.046.026.087.058.167.113-.115.071-.2.137-.308.192q-5.3,2.915-10.6,5.835a.526.526,0,0,1-.591,0l-10.611-5.835C130.55,115.963,130.457,115.9,130.32,115.814Z" transform="translate(-104.045 -87.587)" fill="#1da977"/>
      <path id="Path_210" data-name="Path 210" d="M112.943,169.77c.149.071.258.115.359.169q5.178,2.847,10.357,5.688a.51.51,0,0,1,.325.506q0,4.966,0,9.936c0,.109-.016.218-.028.373-.147-.071-.254-.115-.355-.169q-5.178-2.847-10.357-5.688a.48.48,0,0,1-.315-.47q.012-5.024,0-10.049A1.779,1.779,0,0,0,112.943,169.77Z" transform="translate(-90.159 -135.541)" fill="#1da977"/>
      <path id="Path_211" data-name="Path 211" d="M204.248,186.464c0-.167-.024-.288-.024-.4v-9.9a.506.506,0,0,1,.315-.51q5.184-2.837,10.357-5.688c.1-.056.212-.1.365-.175,0,.149.02.258.02.365v9.936a.5.5,0,0,1-.3.512q-5.188,2.835-10.359,5.686C204.514,186.339,204.407,186.388,204.248,186.464Z" transform="translate(-163.046 -135.557)" fill="#1da977"/>
      <path id="Path_212" data-name="Path 212" d="M37.516,75A37.5,37.5,0,1,1,75,37.457,37.588,37.588,0,0,1,37.516,75Zm.022-67.745a30.193,30.193,0,1,0,21.389,8.869A30.243,30.243,0,0,0,37.538,7.258Z" transform="translate(0 0)"/>
    </g>
  </g>
</svg>
