<svg id="Layer_1" enable-background="new 0 0 256 256" height="512" viewBox="0 0 256 256" width="512" xmlns="http://www.w3.org/2000/svg"><path d="m161.284 102.888c-.081 0-.158-.015-.237-.024v11.266c1.886-2.552 4.923-4.215 8.36-4.215.072 0 .143.009.215.011v-3.182c0-1.304.079-2.59.225-3.855h-8.563z" fill="#4671c6"/><path d="m245.925 102.888h-8.562c.146 1.266.225 2.551.225 3.855v3.182c.072-.001.142-.011.215-.011 3.436 0 6.473 1.664 8.36 4.215v-11.266c-.079.009-.156.025-.238.025z" fill="#4671c6"/><path d="m224.493 159.268h-5.508c-.012-.001-.024-.002-.036-.002l-.002.002h-36.232c-9.572 0-17.331 7.759-17.331 17.331v8.694 2.469 4.572h76.439v-4.572-2.469-8.694c.001-9.572-7.758-17.331-17.33-17.331z" fill="#e0ebfc"/><path d="m203.6 178.729c10.869 0 19.746-8.673 20.087-19.461h-4.702c-.012 0-.024-.002-.036-.002l-.002.002h-35.434c.342 10.788 9.218 19.461 20.087 19.461z" fill="#a4c9ff"/><path d="m237.803 109.914c-.072 0-.143.009-.215.011v-3.182c0-18.599-15.215-33.677-33.983-33.677-18.768 0-33.983 15.078-33.983 33.677v3.182c-.072-.001-.142-.011-.215-.011-5.726 0-10.368 4.6-10.368 10.274s4.642 10.274 10.368 10.274c.376 0 .747-.022 1.112-.061 3.507 14.899 16.983 26 33.086 26 16.102 0 29.579-11.102 33.086-26 .366.039.736.061 1.112.061 5.726 0 10.368-4.6 10.368-10.274-.001-5.674-4.642-10.274-10.368-10.274z" fill="#f9cfcf"/><path d="m186.718 126.515c-2.262 0-4.103-1.84-4.103-4.102v-6.837c0-2.262 1.84-4.102 4.103-4.102 2.262 0 4.102 1.84 4.102 4.102v6.837c0 2.262-1.841 4.102-4.102 4.102z" fill="#3762cc"/><path d="m220.332 126.515c-2.262 0-4.103-1.84-4.103-4.102v-6.837c0-2.262 1.84-4.102 4.103-4.102 2.262 0 4.102 1.84 4.102 4.102v6.837c0 2.262-1.841 4.102-4.102 4.102z" fill="#3762cc"/><path d="m203.604 158.402c-16.252 0-30.258-10.588-34.618-25.946-6.626-.221-11.947-5.639-11.947-12.268 0-6.167 4.605-11.285 10.583-12.146v-1.299c0-19.672 16.142-35.677 35.982-35.677 19.842 0 35.983 16.005 35.983 35.677v1.299c5.978.861 10.583 5.98 10.583 12.146 0 6.628-5.321 12.047-11.947 12.268-4.361 15.358-18.366 25.946-34.619 25.946zm-33.083-30c.917 0 1.73.63 1.945 1.542 3.389 14.401 16.193 24.458 31.138 24.458s27.75-10.058 31.139-24.458c.232-.982 1.158-1.639 2.16-1.531.295.032.596.05.899.05 4.614 0 8.368-3.712 8.368-8.274 0-4.553-3.739-8.259-8.341-8.274-.054.003-.18.01-.201.01-.562.017-1.057-.194-1.44-.571-.384-.376-.601-.891-.601-1.428v-3.182c0-17.467-14.348-31.677-31.983-31.677s-31.982 14.21-31.982 31.677v3.182c0 .538-.217 1.052-.601 1.428s-.889.591-1.44.571c-.033 0-.165-.007-.198-.01h-.001c-4.589 0-8.343 3.711-8.343 8.273 0 4.563 3.754 8.274 8.368 8.274.305 0 .604-.018.9-.05.072-.007.143-.01.214-.01z" fill="#3762cc"/><path d="m204.351 141.583h-1.491c-1.101 0-2.064-.14-2.945-.428-1.281-.419-2.413-1.101-3.276-1.971-1.188-1.197-1.842-2.717-1.842-4.279 0-1.104.896-2 2-2s2 .896 2 2c0 .64.371 1.148.682 1.462.419.422 1 .763 1.681.986.472.154 1.029.229 1.701.229h1.491c.672 0 1.229-.075 1.703-.23.678-.222 1.259-.563 1.68-.987.31-.312.68-.82.68-1.461 0-1.104.896-2 2-2s2 .896 2 2c0 1.563-.653 3.082-1.841 4.279-.865.871-1.997 1.552-3.274 1.971-.885.289-1.849.429-2.949.429z" fill="#3762cc"/><path d="m196.499 102.888h-35.215c-1.24 0-2.245-1.005-2.245-2.245v-8.986c0-16.931 13.726-30.657 30.657-30.657h16.345c4.65 0 8.419 3.769 8.419 8.419v15.508c0 9.92-8.041 17.961-17.961 17.961z" fill="#4671c6"/><path d="m245.925 102.888h-13.505c-9.919 0-17.96-8.041-17.96-17.96v-15.509c0-4.65 3.769-8.419 8.419-8.419 13.968 0 25.292 11.323 25.292 25.292v14.351c-.001 1.24-1.006 2.245-2.246 2.245z" fill="#4671c6"/><path d="m203.605 156.402c-5.553 0-10.793-1.321-15.42-3.662v5.885c0 8.514 6.902 15.416 15.416 15.416s15.416-6.902 15.416-15.416v-5.881c-4.625 2.339-9.863 3.658-15.412 3.658z" fill="#f9cfcf"/><path d="m241.824 194.333h-76.438c-1.104 0-2-.896-2-2v-15.735c0-10.659 8.672-19.331 19.331-19.331h3.468v-4.527c0-.695.36-1.34.952-1.704.591-.365 1.329-.396 1.951-.081 4.521 2.287 9.404 3.447 14.517 3.447 5.109 0 9.991-1.158 14.51-3.442.619-.314 1.358-.284 1.95.081.592.364.952 1.009.952 1.704v4.523h3.477c10.659 0 19.331 8.672 19.331 19.331v15.735c-.001 1.104-.896 1.999-2.001 1.999zm-74.438-4h72.438v-13.735c0-8.454-6.878-15.331-15.331-15.331h-5.493c-.545 0-1.065-.222-1.443-.615-.377-.393-.577-.923-.555-1.467.008-.186.015-.372.015-.56v-2.784c-4.249 1.7-8.747 2.561-13.412 2.561-4.668 0-9.168-.861-13.42-2.564v2.787c0 .188.007.374.015.56.022.544-.178 1.074-.555 1.467-.378.393-.898.615-1.443.615h-5.484c-8.453 0-15.331 6.877-15.331 15.331v13.735z" fill="#3762cc"/><path d="m196.499 104.888h-35.215c-2.341 0-4.245-1.904-4.245-4.245v-8.986c0-18.007 14.65-32.657 32.657-32.657h16.345c5.745 0 10.419 4.674 10.419 10.419v15.508c0 11.007-8.954 19.961-19.961 19.961zm-6.803-41.888c-15.802 0-28.657 12.855-28.657 28.657v8.986c0 .135.11.245.245.245h35.215c8.801 0 15.961-7.16 15.961-15.96v-15.509c0-3.54-2.88-6.419-6.419-6.419z" fill="#3762cc"/><path d="m245.926 104.888h-13.506c-11.006 0-19.96-8.954-19.96-19.96v-15.509c0-5.745 4.674-10.419 10.419-10.419 15.049 0 27.292 12.243 27.292 27.292v14.351c0 2.34-1.904 4.245-4.245 4.245zm-23.047-41.888c-3.539 0-6.419 2.879-6.419 6.419v15.508c0 8.801 7.159 15.96 15.96 15.96h13.506c.135 0 .245-.11.245-.245v-14.35c0-12.843-10.449-23.292-23.292-23.292z" fill="#3762cc"/><path d="m10.075 102.736c-.081 0-.158-.015-.237-.024v11.266c1.886-2.552 4.923-4.215 8.36-4.215.073 0 .143.009.215.011v-3.182c0-1.304.079-2.59.225-3.855h-8.563z" fill="#4671c6"/><path d="m94.716 102.736h-8.562c.146 1.266.225 2.551.225 3.855v3.182c.072-.001.142-.011.215-.011 3.436 0 6.473 1.664 8.36 4.215v-11.266c-.08.009-.157.025-.238.025z" fill="#4671c6"/><path d="m73.284 159.116h-5.508c-.012-.001-.024-.002-.036-.002l-.002.002h-36.231c-9.572 0-17.331 7.759-17.331 17.331v8.694 2.469 4.572h76.439v-4.572-2.469-8.694c0-9.572-7.76-17.331-17.331-17.331z" fill="#e0ebfc"/><path d="m52.391 178.577c10.869 0 19.746-8.673 20.087-19.461h-4.702c-.012 0-.024-.002-.036-.002l-.002.002h-35.434c.341 10.788 9.217 19.461 20.087 19.461z" fill="#a4c9ff"/><path d="m86.593 109.762c-.072 0-.143.009-.215.011v-3.182c0-18.599-15.215-33.677-33.983-33.677-18.768 0-33.983 15.078-33.983 33.677v3.182c-.072-.001-.142-.011-.215-.011-5.726 0-10.368 4.6-10.368 10.274s4.642 10.274 10.368 10.274c.376 0 .747-.022 1.112-.061 3.507 14.899 16.983 26 33.086 26 16.102 0 29.579-11.102 33.086-26 .366.039.736.061 1.112.061 5.726 0 10.368-4.6 10.368-10.274s-4.642-10.274-10.368-10.274z" fill="#f9cfcf"/><path d="m35.508 126.363c-2.262 0-4.103-1.84-4.103-4.102v-6.837c0-2.262 1.84-4.102 4.103-4.102 2.262 0 4.102 1.84 4.102 4.102v6.837c0 2.262-1.84 4.102-4.102 4.102z" fill="#3762cc"/><path d="m69.122 126.363c-2.262 0-4.103-1.84-4.103-4.102v-6.837c0-2.262 1.84-4.102 4.103-4.102 2.262 0 4.102 1.84 4.102 4.102v6.837c0 2.262-1.84 4.102-4.102 4.102z" fill="#3762cc"/><path d="m52.396 158.25c-16.253 0-30.258-10.588-34.619-25.946-6.626-.221-11.947-5.639-11.947-12.268 0-6.167 4.605-11.286 10.583-12.147v-1.298c0-19.672 16.142-35.677 35.983-35.677s35.982 16.005 35.982 35.677v1.298c5.978.861 10.583 5.98 10.583 12.147 0 6.628-5.321 12.047-11.947 12.268-4.362 15.359-18.367 25.946-34.618 25.946zm-33.084-30c.917 0 1.73.631 1.945 1.542 3.39 14.401 16.194 24.458 31.139 24.458s27.748-10.058 31.138-24.458c.231-.981 1.157-1.64 2.157-1.531.297.031.598.05.902.05 4.614 0 8.368-3.712 8.368-8.274 0-4.554-3.739-8.26-8.341-8.274-.054.003-.18.01-.201.01-.541.016-1.057-.194-1.44-.571-.384-.376-.601-.891-.601-1.428v-3.182c0-17.467-14.348-31.677-31.982-31.677-17.636 0-31.983 14.21-31.983 31.677v3.182c0 .538-.217 1.052-.601 1.428s-.907.591-1.44.571c-.033 0-.165-.007-.198-.01h-.001c-4.589 0-8.343 3.712-8.343 8.274 0 4.563 3.754 8.274 8.368 8.274.305 0 .606-.019.902-.05.071-.008.141-.011.212-.011z" fill="#3762cc"/><path d="m53.141 141.431h-1.491c-1.102 0-2.065-.14-2.946-.429-1.277-.418-2.41-1.099-3.274-1.969-1.188-1.198-1.842-2.718-1.842-4.28 0-1.104.896-2 2-2s2 .896 2 2c0 .641.37 1.149.681 1.462.42.422 1.001.763 1.68.985.474.155 1.03.23 1.702.23h1.491c.672 0 1.229-.075 1.702-.23.68-.222 1.261-.563 1.68-.985.311-.314.682-.822.682-1.462 0-1.104.896-2 2-2s2 .896 2 2c0 1.562-.654 3.082-1.842 4.279-.863.871-1.996 1.552-3.275 1.971-.883.288-1.847.428-2.948.428z" fill="#3762cc"/><path d="m45.29 102.736h-35.215c-1.24 0-2.245-1.005-2.245-2.245v-8.986c0-16.931 13.726-30.657 30.657-30.657h16.345c4.65 0 8.419 3.769 8.419 8.419v15.508c-.001 9.92-8.042 17.961-17.961 17.961z" fill="#4671c6"/><path d="m94.716 102.736h-13.506c-9.919 0-17.96-8.041-17.96-17.96v-15.509c0-4.65 3.769-8.419 8.419-8.419 13.968 0 25.292 11.323 25.292 25.292v14.351c0 1.24-1.005 2.245-2.245 2.245z" fill="#4671c6"/><path d="m52.395 156.25c-5.553 0-10.793-1.321-15.42-3.662v5.885c0 8.514 6.902 15.416 15.416 15.416s15.416-6.902 15.416-15.416v-5.881c-4.625 2.339-9.862 3.658-15.412 3.658z" fill="#f9cfcf"/><path d="m90.614 194.181h-76.438c-1.104 0-2-.896-2-2v-15.734c0-10.659 8.672-19.331 19.331-19.331h3.468v-4.527c0-.695.36-1.34.952-1.704.592-.365 1.328-.396 1.951-.081 4.521 2.287 9.405 3.447 14.518 3.447 5.109 0 9.99-1.158 14.509-3.442.618-.315 1.357-.284 1.95.081.592.364.952 1.009.952 1.704v4.523h3.477c10.659 0 19.331 8.672 19.331 19.331v15.734c-.001 1.104-.896 1.999-2.001 1.999zm-74.438-4h72.438v-13.734c0-8.454-6.878-15.331-15.331-15.331h-5.492c-.545 0-1.065-.222-1.443-.615-.377-.393-.577-.923-.555-1.467.008-.186.014-.372.014-.56v-2.784c-4.248 1.701-8.746 2.561-13.411 2.561-4.669 0-9.169-.861-13.421-2.564v2.787c0 .188.007.374.015.56.022.544-.178 1.074-.555 1.467-.378.393-.898.615-1.443.615h-5.484c-8.453 0-15.331 6.877-15.331 15.331v13.734z" fill="#3762cc"/><path d="m45.29 104.736h-35.216c-2.341 0-4.245-1.904-4.245-4.245v-8.986c0-18.007 14.65-32.657 32.657-32.657h16.345c5.745 0 10.419 4.674 10.419 10.419v15.508c0 11.007-8.954 19.961-19.96 19.961zm-6.804-41.888c-15.802 0-28.657 12.855-28.657 28.657v8.986c0 .135.11.245.245.245h35.216c8.801 0 15.96-7.16 15.96-15.96v-15.509c0-3.54-2.88-6.419-6.419-6.419z" fill="#3762cc"/><path d="m94.716 104.736h-13.505c-11.007 0-19.961-8.954-19.961-19.96v-15.509c0-5.745 4.674-10.419 10.419-10.419 15.049 0 27.292 12.243 27.292 27.292v14.351c0 2.341-1.904 4.245-4.245 4.245zm-23.047-41.888c-3.539 0-6.419 2.879-6.419 6.419v15.508c0 8.801 7.16 15.96 15.961 15.96h13.505c.135 0 .245-.11.245-.245v-14.35c0-12.843-10.449-23.292-23.292-23.292z" fill="#3762cc"/><path d="m156.319 145.765h-7.768c-.017-.001-.033-.003-.05-.003l-.003.003h-51.097c-13.499 0-24.442 10.928-24.442 24.408v12.244 3.477 6.439h107.801v-6.439-3.477-12.244c0-13.48-10.943-24.408-24.441-24.408z" fill="#a4c9ff"/><path d="m157.445 145.793c-.374-.017-.749-.028-1.127-.028h-7.768c-.017-.001-.033-.003-.05-.003l-.003.003h-21.644-21.644l-.003-.003c-.017 0-.033.003-.05.003h-7.768c-.378 0-.753.012-1.127.028.042.559.107 1.125.224 1.713.081.406.198.801.333 1.19l-.008-.003c.01.022.021.042.031.063.242.678.566 1.321.964 1.922 4.587 8.526 11.198 12.475 11.198 12.475l-.001-.003c5.181 3.777 11.442 5.926 17.85 5.991 6.408-.065 12.669-2.214 17.85-5.991l-.001.003s6.611-3.948 11.198-12.475c.398-.601.722-1.245.964-1.922.01-.022.021-.041.031-.063l-.008.003c.135-.389.253-.784.333-1.19.119-.588.184-1.153.226-1.713z" fill="#e0ebfc"/><path d="m126.866 140.882c-7.856 0-15.253-1.922-21.753-5.305v2.631 6.646c0 .343.049.68.12 1.012.002 0 .004 0 .006-.001.071.332.178.654.313.963.018.041.035.082.054.122.059.127.125.25.196.37.07.117.146.231.226.342.043.06.08.125.127.182l3.089 3.922c3.076 3.906 7.342 6.734 12.171 7.863.648.151 1.32.282 2.015.386 7.841 1.174 15.685-2.161 20.56-8.442l4.503-5.802c.062-.311.103-.627.103-.947v-9.237c-6.495 3.378-13.884 5.295-21.73 5.295z" fill="#f9cfcf"/><path d="m173.999 76.898c-.1 0-.197.013-.296.015v-4.38c0-25.599-20.97-46.351-46.837-46.351-25.867 0-46.837 20.752-46.837 46.351v4.38c-.099-.002-.196-.015-.296-.015-7.892 0-14.289 6.331-14.289 14.141s6.398 14.141 14.289 14.141c.518 0 1.029-.031 1.533-.084 4.833 20.506 23.407 35.786 45.6 35.786 22.193 0 40.767-15.28 45.6-35.786.504.053 1.015.084 1.533.084 7.892 0 14.289-6.331 14.289-14.141s-6.398-14.141-14.289-14.141z" fill="#f9cfcf"/><g fill="#3762cc"><path d="m126.865 142.882c-22.248 0-41.394-14.597-47.134-35.702-8.981-.001-16.288-7.241-16.288-16.141 0-8.33 6.401-15.206 14.585-16.053v-2.453c0-26.661 21.908-48.352 48.837-48.352 26.93 0 48.838 21.69 48.838 48.352v2.453c8.184.847 14.585 7.723 14.585 16.053 0 8.9-7.307 16.14-16.288 16.141-5.74 21.105-24.887 35.702-47.135 35.702zm-45.597-39.786c.917 0 1.73.63 1.944 1.541 4.753 20.163 22.703 34.245 43.653 34.245s38.901-14.082 43.654-34.245c.23-.98 1.149-1.64 2.156-1.53.465.049.897.073 1.323.073 6.776 0 12.289-5.446 12.289-12.141 0-6.689-5.504-12.132-12.271-12.141-.12.008-.196.013-.273.014-.566.019-1.058-.195-1.44-.571-.384-.376-.6-.891-.6-1.428v-4.379c0-24.456-20.114-44.352-44.838-44.352s-44.837 19.896-44.837 44.351v4.379c0 .537-.216 1.052-.6 1.428-.383.376-.878.591-1.439.571-.08-.001-.158-.006-.236-.012-.002 0-.004 0-.005 0-6.795 0-12.305 5.445-12.305 12.139 0 6.695 5.513 12.141 12.289 12.141.426 0 .858-.024 1.323-.073.072-.006.142-.01.213-.01z"/><path d="m126.859 120.93c-1.396 0-2.618-.166-3.737-.506-1.857-.564-3.491-1.518-4.724-2.759-1.58-1.591-2.45-3.6-2.45-5.656 0-1.104.896-2 2-2s2 .896 2 2c0 1.008.445 1.989 1.288 2.837.768.773 1.822 1.378 3.049 1.751.737.224 1.579.333 2.574.333.996 0 1.838-.109 2.574-.333 1.228-.373 2.282-.978 3.05-1.751.842-.848 1.287-1.829 1.287-2.837 0-1.104.896-2 2-2s2 .896 2 2c0 2.057-.87 4.066-2.449 5.656-1.232 1.242-2.866 2.196-4.725 2.76-1.117.34-2.341.505-3.737.505z"/><path d="m103.696 102.36c-3.118 0-5.654-2.533-5.654-5.646v-9.41c0-3.113 2.536-5.646 5.654-5.646 3.117 0 5.654 2.533 5.654 5.646v9.41c0 3.113-2.537 5.646-5.654 5.646z"/><path d="m150.024 102.36c-3.118 0-5.654-2.533-5.654-5.646v-9.41c0-3.113 2.536-5.646 5.654-5.646 3.117 0 5.654 2.533 5.654 5.646v9.41c0 3.113-2.537 5.646-5.654 5.646z"/><path d="m126.865 142.882c-22.248 0-41.394-14.597-47.134-35.702-8.981-.001-16.288-7.241-16.288-16.141 0-8.33 6.401-15.206 14.585-16.053v-2.453c0-26.661 21.908-48.352 48.837-48.352 26.93 0 48.838 21.69 48.838 48.352v2.453c8.184.847 14.585 7.723 14.585 16.053 0 8.9-7.307 16.14-16.288 16.141-5.74 21.105-24.887 35.702-47.135 35.702zm-45.597-39.786c.917 0 1.73.63 1.944 1.541 4.753 20.163 22.703 34.245 43.653 34.245s38.901-14.082 43.654-34.245c.23-.98 1.149-1.64 2.156-1.53.465.049.897.073 1.323.073 6.776 0 12.289-5.446 12.289-12.141 0-6.689-5.504-12.132-12.271-12.141-.12.008-.196.013-.273.014-.566.019-1.058-.195-1.44-.571-.384-.376-.6-.891-.6-1.428v-4.379c0-24.456-20.114-44.352-44.838-44.352s-44.837 19.896-44.837 44.351v4.379c0 .537-.216 1.052-.6 1.428-.383.376-.878.591-1.439.571-.08-.001-.158-.006-.236-.012-.002 0-.004 0-.005 0-6.795 0-12.305 5.445-12.305 12.139 0 6.695 5.513 12.141 12.289 12.141.426 0 .858-.024 1.323-.073.072-.006.142-.01.213-.01z"/></g><path d="m153.228 18.705c-5.171-3.048-11.812-5.838-19.769-6.947-9.568-3.224-21.901-4.108-37.589.014 0 0-11.643 4.985-28.688 3.492-1.093-.096-1.955.923-1.664 1.98.775 2.821 2.531 8.058 6.086 14.007.499.835.133 1.917-.771 2.278-3.468 1.385-7.427 2.679-11.843 3.682-1.07.243-1.571 1.475-.973 2.394 5.22 8.019 28.246 37.697 77.385 26.903.876-.193 1.747-.433 2.602-.701 8.211-2.571 14.946-8.497 18.64-16.258l3.587-7.537c4.004-8.414 1.029-18.574-7.003-23.307z" fill="#4671c6"/><path d="m114.738 70.867c-35.582 0-53.281-22.311-58.398-30.172-.638-.98-.756-2.21-.316-3.292.439-1.083 1.382-1.885 2.522-2.144 3.777-.858 7.505-2.004 11.088-3.408-3.559-6.065-5.312-11.402-6.046-14.079-.309-1.125-.046-2.331.702-3.228.751-.901 1.903-1.376 3.066-1.274 16.354 1.43 27.612-3.291 27.726-3.339.091-.039.184-.071.279-.096 14.338-3.766 27.31-3.778 38.558-.033 7.133 1.019 13.969 3.434 20.324 7.179 8.809 5.191 12.231 16.563 7.793 25.888l-3.587 7.537c-3.942 8.284-11.178 14.592-19.849 17.308-.986.309-1.893.553-2.771.746-7.634 1.677-14.657 2.407-21.091 2.407zm-54.71-31.845c6.192 9.25 28.479 35.743 74.944 25.531.763-.167 1.559-.382 2.433-.656 7.612-2.384 13.966-7.927 17.433-15.209l3.587-7.537c3.556-7.472.827-16.574-6.213-20.723-5.953-3.508-12.355-5.759-19.03-6.689-.123-.017-.244-.046-.362-.085-10.502-3.539-22.718-3.532-36.31.017-1.464.6-12.699 4.924-28.896 3.636.784 2.697 2.474 7.507 5.706 12.918.539.902.655 1.989.318 2.984-.336.995-1.089 1.788-2.064 2.177-3.728 1.489-7.609 2.711-11.546 3.636z" fill="#3762cc"/><path d="m172.823 37.472c-1.929-2.511-5.215-3.566-8.248-2.649l-2.636.797c-.134 1.685-.507 3.368-1.127 5.004.001.001.001.002.002.002-.175.465-.366.927-.583 1.384l-3.587 7.537c-.264.556-.549 1.099-.844 1.635-.016.029-.033.056-.049.085-.288.52-.592 1.029-.908 1.53 0 .001-.001.001-.001.002.952 7.299 4.85 14.039 11.029 18.482l7.832 5.631c.099-.002.196-.015.296-.015 2.475 0 4.803.624 6.832 1.719l.993-7.277c1.644-12.036-1.597-24.229-9.001-33.867z" fill="#4671c6"/><path d="m180.831 80.617c-.327 0-.654-.08-.95-.24-1.793-.968-3.826-1.479-5.882-1.479-.097.008-.176.013-.256.015-.444.022-.856-.123-1.207-.375l-7.833-5.631c-6.492-4.668-10.809-11.902-11.846-19.847-.053-.403.02-.807.198-1.161.029-.057.061-.113.095-.167.297-.47.582-.946.853-1.434.006-.011.048-.085.055-.096.266-.483.532-.993.78-1.513l3.587-7.537c.192-.405.362-.816.519-1.23.544-1.445.882-2.944 1.002-4.458.065-.821.627-1.518 1.415-1.756l2.636-.797c3.808-1.151 7.991.192 10.413 3.345 7.676 9.992 11.101 22.879 9.396 35.357l-.993 7.277c-.089.65-.49 1.215-1.075 1.513-.286.142-.596.214-.907.214zm-6.5-5.716c1.661.034 3.308.32 4.874.842l.638-4.673c1.561-11.427-1.576-23.229-8.605-32.379-1.414-1.84-3.858-2.626-6.083-1.953l-1.379.417c-.213 1.42-.579 2.821-1.094 4.179-.207.558-.419 1.061-.645 1.536l-3.588 7.538c-.281.592-.583 1.169-.897 1.74-.001.002-.051.091-.053.093-.187.335-.378.666-.575.992 1.047 6.581 4.705 12.537 10.114 16.426z" fill="#3762cc"/><path d="m71.442 79.535c2.339-1.654 5.196-2.638 8.29-2.638.1 0 .197.013.296.015v-4.38c0-4.046.527-7.97 1.511-11.711-3.908-2.088-7.312-4.415-10.24-6.766-1.413 5.594-1.772 11.457-.977 17.285z" fill="#4671c6"/><path d="m71.442 81.535c-.271 0-.541-.055-.797-.166-.641-.278-1.09-.872-1.185-1.564l-1.119-8.195c-.823-6.035-.48-12.106 1.019-18.045.167-.661.658-1.19 1.304-1.407.647-.216 1.357-.089 1.888.337 3.1 2.489 6.44 4.697 9.931 6.561.817.437 1.228 1.377.992 2.273-.96 3.646-1.446 7.416-1.446 11.203v4.38c0 .537-.216 1.052-.6 1.428-.383.376-.878.591-1.439.571-.081-.001-.162-.006-.242-.012-.004 0-.008 0-.012 0-2.578 0-5.041.785-7.139 2.268-.343.244-.747.368-1.155.368zm1.147-23.976c-.803 4.471-.898 9.003-.284 13.511l.719 5.265c1.584-.714 3.269-1.169 5.005-1.35v-2.453c0-3.605.404-7.197 1.203-10.698-2.29-1.291-4.511-2.721-6.643-4.275z" fill="#3762cc"/><path d="m180.761 194.333h-107.802c-1.104 0-2-.896-2-2v-22.161c0-14.561 11.861-26.408 26.441-26.408h5.712v-8.188c0-.699.365-1.347.962-1.71.598-.362 1.343-.387 1.961-.064 6.386 3.323 13.588 5.079 20.83 5.079 7.338 0 14.339-1.705 20.807-5.067.62-.323 1.363-.298 1.961.065s.962 1.011.962 1.709v8.176h5.724c14.58 0 26.442 11.847 26.442 26.408v22.161c0 1.105-.896 2-2 2zm-105.802-4h103.802v-20.161c0-12.355-10.067-22.408-22.442-22.408h-7.768c-.018 0-.035 0-.053 0-.599 0-1.169-.269-1.549-.731-.38-.463-.534-1.072-.417-1.66.042-.212.063-.392.063-.548v-6.066c-6.185 2.704-12.941 4.122-19.729 4.122-6.796 0-13.562-1.422-19.753-4.133v6.104c0 .136.021.302.064.522.116.587-.036 1.196-.416 1.659s-.947.731-1.546.731h-7.815c-12.374 0-22.441 10.052-22.441 22.408z" fill="#3762cc"/><circle cx="127.889" cy="201.693" fill="#6bdddd" r="45.307"/><circle cx="127.889" cy="201.693" fill="#4671c6" r="33.225"/><path d="m127.889 249c-26.085 0-47.307-21.222-47.307-47.307s21.222-47.307 47.307-47.307 47.307 21.222 47.307 47.307-21.222 47.307-47.307 47.307zm0-90.613c-23.879 0-43.307 19.427-43.307 43.307s19.428 43.306 43.307 43.306 43.307-19.427 43.307-43.307-19.428-43.306-43.307-43.306z" fill="#3762cc"/><path d="m122.427 223.64c-.835 0-1.515-.68-1.515-1.515v-40.864c0-.835.68-1.515 1.515-1.515h10.925c.835 0 1.515.68 1.515 1.515v40.864c0 .835-.68 1.515-1.515 1.515z" fill="#ffea92"/><path d="m107.457 208.67c-.835 0-1.515-.68-1.515-1.515v-10.925c0-.835.68-1.515 1.515-1.515h40.864c.835 0 1.515.68 1.515 1.515v10.925c0 .835-.68 1.515-1.515 1.515z" fill="#ffea92"/></svg>