<svg xmlns="http://www.w3.org/2000/svg" xmlns:xlink="http://www.w3.org/1999/xlink" width="732.85" height="781.534" viewBox="0 0 732.85 781.534">
  <defs>
    <linearGradient id="linear-gradient" x1="-1.604" y1="6.792" x2="-1.604" y2="6.3" gradientUnits="objectBoundingBox">
      <stop offset="0.21" stop-color="#fff" stop-opacity="0"/>
      <stop offset="1" stop-color="#fff" stop-opacity="0.2"/>
    </linearGradient>
    <linearGradient id="linear-gradient-2" x1="0.175" y1="1.691" x2="0.175" y2="2.041" gradientUnits="objectBoundingBox">
      <stop offset="0" stop-color="#e9eaf2" stop-opacity="0.8"/>
      <stop offset="1" stop-color="#e9eaf2" stop-opacity="0"/>
    </linearGradient>
  </defs>
  <g id="Слой_2" data-name="Слой 2" transform="translate(-0.04 -0.003)">
    <g id="Слой_1" data-name="Слой 1" transform="translate(0.04 0.003)">
      <g id="Laptop" transform="translate(9.616 45.427)">
        <path id="Path_1" data-name="Path 1" d="M594.385,584.841,203.506,359.133c-5.486-3.126-9.926-11.661-9.926-18.96V37.763c0-7.315,4.439-10.676,9.926-7.5L594.385,255.969c5.486,3.126,9.926,11.661,9.926,18.96V577.339C604.373,584.654,599.934,588.014,594.385,584.841Z" transform="translate(99.323 -29.065)" fill="#b1b4c4"/>
        <path id="Path_2" data-name="Path 2" d="M451.33,392.154l4.33-2.5-1.876-12.833Z" transform="translate(244.456 166.749)" fill="#b1b4c4"/>
        <path id="Path_3" data-name="Path 3" d="M193.13,31.89l4.267-2.47,6.127,3.5s-6.534.985-6.69.953S193.13,31.89,193.13,31.89Z" transform="translate(99.069 -28.865)" fill="#b1b4c4"/>
        <path id="Path_4" data-name="Path 4" d="M592.163,586.211,201.221,360.44c-5.486-3.126-9.941-11.661-9.941-18.976V39.133c0-7.315,4.455-10.676,9.941-7.5L592.163,257.339c5.486,3.126,9.926,11.661,9.926,18.976V578.646C602.089,585.946,597.65,589.338,592.163,586.211Z" transform="translate(98.027 -28.294)" fill="#e4e7f2"/>
        <path id="Path_5" data-name="Path 5" d="M591.723,586.424,200.781,360.715c-5.486-3.126-9.941-11.661-9.941-18.976V39.33c0-7.3,4.455-10.66,9.941-7.5L591.723,257.536c5.471,3.126,9.926,11.661,9.926,18.976V578.921C601.649,586.236,597.194,589.6,591.723,586.424Z" transform="translate(97.78 -28.178)" fill="#d6d8e5"/>
        <path id="Path_6" data-name="Path 6" d="M594.492,565.67,194,334.475l.234-296.25c0-3.032,2.126-4.267,4.689-2.751L589.866,261.182a10.5,10.5,0,0,1,4.689,8.237Z" transform="translate(99.559 -25.822)" fill="#fff"/>
        <path id="Path_7" data-name="Path 7" d="M594.367,565.686,194,334.491l.125-296.266c0-3.032,2.126-4.267,4.689-2.751L589.756,261.182a10.519,10.519,0,0,1,4.689,8.237Z" transform="translate(99.559 -25.822)" opacity="0.5" fill="url(#linear-gradient)"/>
        <path id="Path_8" data-name="Path 8" d="M400.835,639.946,9.893,414.237c-5.486-3.126-4.8-8.691,1.563-12.348L273.351,250.676c6.252-3.642,15.912-4.048,21.383-.875L685.691,475.51c5.471,3.126,4.783,8.691-1.563,12.348L422.218,639.07C415.888,642.712,406.306,643.119,400.835,639.946Z" transform="translate(-6.192 94.022)" fill="#d6d8e5" opacity="0.4"/>
        <path id="Path_9" data-name="Path 9" d="M406.307,636.637,15.333,411.007c-5.486-3.126-4.8-8.691,1.563-12.348l261.894-151.2c6.252-3.658,15.912-4.064,21.4-.891L691.131,472.279c5.486,3.126,4.8,8.691-1.563,12.348L427.705,635.762C421.375,639.4,411.793,639.81,406.307,636.637Z" transform="translate(-3.129 92.203)" fill="#b1b4c4"/>
        <path id="Path_10" data-name="Path 10" d="M11.65,350.348V342.97l8.284,3.47Z" transform="translate(-3.119 147.688)" fill="#b1b4c4"/>
        <path id="Path_11" data-name="Path 11" d="M450.927,396.276V389.07l-6.127,2.11,4.064,5.971Z" transform="translate(240.779 173.646)" fill="#b1b4c4"/>
        <path id="Path_12" data-name="Path 12" d="M406.307,632.687,15.333,407.009c-5.486-3.126-4.8-8.691,1.563-12.348L278.791,243.448c6.252-3.658,15.912-4.048,21.4-.875L691.131,468.282c5.486,3.126,4.8,8.691-1.563,12.348L427.705,631.8C421.375,635.453,411.793,635.86,406.307,632.687Z" transform="translate(-3.129 89.949)" fill="#e4e7f2"/>
        <path id="Path_13" data-name="Path 13" d="M406.307,632.089,15.333,406.38c-5.486-3.126-4.8-8.706,1.563-12.348L278.791,242.819c6.252-3.658,15.912-4.048,21.4-.891L691.131,467.653c5.486,3.126,4.8,8.691-1.563,12.348L427.705,631.2C421.375,634.855,411.793,635.246,406.307,632.089Z" transform="translate(-3.129 89.593)" fill="#d6d8e5"/>
        <path id="Path_14" data-name="Path 14" d="M184.837,283.256l-18.194-10.5c-1.563-.86-1.3-2.36.406-3.345l17.381-10.035a6.424,6.424,0,0,1,5.783-.234l18.21,10.5c1.485.86,1.3,2.36-.422,3.345l-17.366,10.035a6.456,6.456,0,0,1-5.8.234Z" transform="translate(83.572 100.16)" fill="#2b303f"/>
        <path id="Path_15" data-name="Path 15" d="M201.321,292.776l-18.21-10.52c-1.485-.844-1.3-2.345.422-3.345L200.9,268.892a6.455,6.455,0,0,1,5.8-.234l18.194,10.5c1.563.86,1.3,2.36-.406,3.345L207.1,292.526a6.377,6.377,0,0,1-5.783.25Z" transform="translate(92.864 105.52)" fill="#2b303f"/>
        <path id="Path_16" data-name="Path 16" d="M218,302.411,199.8,291.892c-1.563-.86-1.3-2.36.406-3.345l17.381-10.019a6.377,6.377,0,0,1,5.783-.25l18.21,10.52c1.563.844,1.3,2.345-.422,3.345L223.8,302.161A6.518,6.518,0,0,1,218,302.411Z" transform="translate(102.244 110.937)" fill="#2b303f"/>
        <path id="Path_17" data-name="Path 17" d="M234.291,311.806l-18.21-10.5c-1.485-.86-1.3-2.36.422-3.345l17.366-10.035a6.455,6.455,0,0,1,5.8-.234l18.21,10.5c1.485.86,1.3,2.36-.422,3.345L240.09,311.572a6.456,6.456,0,0,1-5.8.234Z" transform="translate(111.428 116.235)" fill="#2b303f"/>
        <path id="Path_18" data-name="Path 18" d="M250.792,321.326l-18.21-10.5c-1.563-.86-1.3-2.36.422-3.345l17.366-10.035a6.456,6.456,0,0,1,5.8-.234l18.194,10.5c1.485.86,1.3,2.36-.422,3.345l-17.366,10.035A6.424,6.424,0,0,1,250.792,321.326Z" transform="translate(120.702 121.596)" fill="#2b303f"/>
        <path id="Path_19" data-name="Path 19" d="M267.257,330.9l-18.194-10.5c-1.485-.86-1.313-2.36.406-3.345l17.366-10.035a6.455,6.455,0,0,1,5.8-.234l18.21,10.5c1.485.86,1.3,2.36-.422,3.345l-17.366,10.035A6.456,6.456,0,0,1,267.257,330.9Z" transform="translate(129.996 126.985)" fill="#2b303f"/>
        <path id="Path_20" data-name="Path 20" d="M283.751,340.366l-18.21-10.5c-1.485-.86-1.3-2.36.422-3.345l17.366-10.035a6.455,6.455,0,0,1,5.8-.234l18.194,10.5c1.485.86,1.3,2.36-.406,3.345l-17.381,10.019a6.377,6.377,0,0,1-5.783.25Z" transform="translate(139.278 132.317)" fill="#2b303f"/>
        <path id="Path_21" data-name="Path 21" d="M300.226,349.9l-18.194-10.52c-1.485-.86-1.3-2.345.406-3.345l17.381-10.019a6.378,6.378,0,0,1,5.783-.25l18.21,10.52c1.563.86,1.3,2.345-.422,3.345l-17.4,10A6.409,6.409,0,0,1,300.226,349.9Z" transform="translate(148.563 137.678)" fill="#2b303f"/>
        <path id="Path_22" data-name="Path 22" d="M316.721,359.4l-18.21-10.5c-1.485-.86-1.3-2.36.422-3.345L316.3,335.527a6.409,6.409,0,0,1,5.8-.25l18.194,10.52c1.485.844,1.3,2.345-.406,3.345L322.52,359.161a6.456,6.456,0,0,1-5.8.234Z" transform="translate(157.843 143.033)" fill="#2b303f"/>
        <path id="Path_23" data-name="Path 23" d="M333.2,368.885,315,358.381c-1.485-.86-1.3-2.36.406-3.345l17.35-10a6.424,6.424,0,0,1,5.783-.234l18.21,10.5c1.485.86,1.3,2.36-.422,3.345L339.01,368.681A6.455,6.455,0,0,1,333.2,368.885Z" transform="translate(167.128 148.393)" fill="#2b303f"/>
        <path id="Path_24" data-name="Path 24" d="M349.691,378.436l-18.21-10.5c-1.485-.86-1.3-2.36.422-3.345l17.366-10.035a6.456,6.456,0,0,1,5.8-.234l18.21,10.5c1.485.86,1.3,2.36-.422,3.345L355.49,378.2A6.455,6.455,0,0,1,349.691,378.436Z" transform="translate(176.408 153.753)" fill="#2b303f"/>
        <path id="Path_25" data-name="Path 25" d="M366.181,387.956l-18.21-10.5c-1.485-.86-1.3-2.36.422-3.345l17.381-10.035a6.455,6.455,0,0,1,5.8-.234l18.194,10.5c1.563.86,1.3,2.36-.422,3.345l-17.319,10.035a6.424,6.424,0,0,1-5.846.234Z" transform="translate(185.693 159.114)" fill="#2b303f"/>
        <path id="Path_26" data-name="Path 26" d="M382.669,397.479l-18.194-10.52c-1.563-.86-1.313-2.345.406-3.345L382.247,373.6a6.456,6.456,0,0,1,5.8-.25l18.21,10.52c1.485.86,1.3,2.345-.422,3.345l-17.366,10.019a6.408,6.408,0,0,1-5.8.25Z" transform="translate(194.964 164.471)" fill="#2b303f"/>
        <path id="Path_27" data-name="Path 27" d="M411.562,414.16l-30.621-17.678c-1.485-.86-1.3-2.36.422-3.345l17.428-10.019a6.408,6.408,0,0,1,5.8-.25l30.543,17.725c1.485.86,1.3,2.36-.406,3.345l-17.381,10.035A6.424,6.424,0,0,1,411.562,414.16Z" transform="translate(204.258 169.83)" fill="#2b303f"/>
        <path id="Path_28" data-name="Path 28" d="M193.322,306.585l-18.21-10.473c-1.563-.86-1.3-2.36.422-3.345L192.9,282.732a6.455,6.455,0,0,1,5.8-.234l18.194,10.488c1.485.86,1.3,2.36-.406,3.345l-17.381,10.035a6.424,6.424,0,0,1-5.783.219Z" transform="translate(88.342 113.313)" fill="#2b303f"/>
        <path id="Path_29" data-name="Path 29" d="M209.816,316.113l-18.194-10.5c-1.485-.86-1.3-2.36.406-3.345l17.381-9.972a6.424,6.424,0,0,1,5.783-.234L233.418,302.5c1.485.86,1.3,2.36-.422,3.345L215.63,315.879a6.456,6.456,0,0,1-5.815.234Z" transform="translate(97.655 118.696)" fill="#2b303f"/>
        <path id="Path_30" data-name="Path 30" d="M226.352,325.666l-18.21-10.5c-1.563-.86-1.3-2.36.422-3.345l17.366-10.035a6.455,6.455,0,0,1,5.8-.235l18.194,10.5c1.485.86,1.3,2.36-.406,3.345l-17.381,10.035a6.424,6.424,0,0,1-5.783.234Z" transform="translate(106.94 124.04)" fill="#2b303f"/>
        <path id="Path_31" data-name="Path 31" d="M242.851,335.226l-18.21-10.52c-1.485-.844-1.3-2.345.422-3.345L242.429,311.3a6.456,6.456,0,0,1,5.8-.25l18.179,10.566c1.485.86,1.3,2.345-.422,3.345l-17.366,10.019A6.409,6.409,0,0,1,242.851,335.226Z" transform="translate(116.248 129.392)" fill="#2b303f"/>
        <path id="Path_32" data-name="Path 32" d="M259.226,344.694l-18.194-10.582c-1.485-.86-1.3-2.345.406-3.345l17.381-10.019a6.377,6.377,0,0,1,5.783-.25l18.21,10.52c1.563.844,1.3,2.345-.422,3.345l-17.4,10.082a6.455,6.455,0,0,1-5.768.25Z" transform="translate(125.477 134.711)" fill="#2b303f"/>
        <path id="Path_33" data-name="Path 33" d="M275.751,354.207l-18.21-10.5c-1.485-.86-1.3-2.36.422-3.345l17.366-10.066a6.456,6.456,0,0,1,5.8-.234l18.194,10.5c1.485.86,1.3,2.36-.406,3.345l-17.381,10.035A6.424,6.424,0,0,1,275.751,354.207Z" transform="translate(134.774 140.093)" fill="#2b303f"/>
        <path id="Path_34" data-name="Path 34" d="M292.261,363.726l-18.21-10.5c-1.485-.86-1.3-2.36.422-3.345l17.366-10.019a6.409,6.409,0,0,1,5.8-.25l18.21,10.52c1.485.844,1.3,2.345-.422,3.345L298.06,363.491a6.456,6.456,0,0,1-5.8.234Z" transform="translate(144.07 145.471)" fill="#2b303f"/>
        <path id="Path_35" data-name="Path 35" d="M308.765,373.266l-18.194-10.5c-1.485-.86-1.3-2.36.422-3.345l17.366-10.035a6.424,6.424,0,0,1,5.783-.234l18.21,10.5c1.485.86,1.3,2.36-.422,3.345l-17.366,10.035A6.456,6.456,0,0,1,308.765,373.266Z" transform="translate(153.372 150.842)" fill="#2b303f"/>
        <path id="Path_36" data-name="Path 36" d="M325.3,382.8l-18.21-10.5c-1.563-.86-1.3-2.36.422-3.345l17.366-10.035a6.455,6.455,0,0,1,5.8-.234l18.194,10.5c1.485.86,1.313,2.36-.406,3.345L331.1,382.562a6.455,6.455,0,0,1-5.8.235Z" transform="translate(162.657 156.208)" fill="#2b303f"/>
        <path id="Path_37" data-name="Path 37" d="M341.8,392.337,323.6,381.818c-1.485-.844-1.3-2.345.406-3.345l17.381-10.019a6.472,6.472,0,0,1,5.783-.25l18.257,10.52c1.485.86,1.3,2.36-.422,3.345l-17.366,10.019A6.409,6.409,0,0,1,341.8,392.337Z" transform="translate(171.97 161.579)" fill="#2b303f"/>
        <path id="Path_38" data-name="Path 38" d="M358.321,401.9l-18.21-10.5c-1.485-.86-1.3-2.36.422-3.345L357.9,378.012a6.456,6.456,0,0,1,5.8-.234l18.194,10.5c1.485.86,1.3,2.36-.406,3.345L364.1,401.662A6.424,6.424,0,0,1,358.321,401.9Z" transform="translate(181.267 166.963)" fill="#2b303f"/>
        <path id="Path_39" data-name="Path 39" d="M374.828,411.409l-18.194-10.52c-1.485-.86-1.313-2.345.406-3.345l17.366-10.019a6.455,6.455,0,0,1,5.8-.25l18.21,10.52c1.485.86,1.3,2.345-.422,3.345l-17.366,10.019a6.409,6.409,0,0,1-5.8.25Z" transform="translate(190.567 172.315)" fill="#2b303f"/>
        <path id="Path_40" data-name="Path 40" d="M181.256,299.65l-30.605-17.678c-1.485-.86-1.3-2.345.406-3.345l17.381-10.019a6.377,6.377,0,0,1,5.783-.25l30.683,17.678c1.485.86,1.3,2.36-.422,3.345l-17.428,10A6.456,6.456,0,0,1,181.256,299.65Z" transform="translate(74.586 105.352)" fill="#2b303f"/>
        <path id="Path_41" data-name="Path 41" d="M421.4,407.309,403.2,396.8a5.94,5.94,0,0,0-5.408,0l-18.351,10.6c-1.563.86-1.563,2.251,0,3.126l1.454.844c1.376.782,1.36,2.079,0,2.876L361.422,425.44c-1.563.875-1.563,2.266,0,3.126L373,435.256a5.955,5.955,0,0,0,5.393,0l18.163-10.473,3.751-2.173,2.7-1.563,2.72-1.563,15.631-9.019C422.883,409.559,422.883,408.168,421.4,407.309Z" transform="translate(193.171 177.635)" fill="#2b303f"/>
        <path id="Path_42" data-name="Path 42" d="M120.987,320.207l-18.194-10.5c-1.563-.86-1.3-2.36.406-3.345l17.381-10.066a6.424,6.424,0,0,1,5.783-.234l18.21,10.5c1.485.86,1.3,2.36-.422,3.345l-17.366,10.035A6.456,6.456,0,0,1,120.987,320.207Z" transform="translate(47.619 120.949)" fill="#2b303f"/>
        <path id="Path_43" data-name="Path 43" d="M137.427,329.686l-18.194-10.5c-1.563-.86-1.3-2.36.406-3.345L137.021,305.8a6.425,6.425,0,0,1,5.783-.234l18.21,10.5c1.485.86,1.3,2.36-.422,3.345l-17.366,10.035a6.456,6.456,0,0,1-5.8.234Z" transform="translate(56.876 126.303)" fill="#2b303f"/>
        <path id="Path_44" data-name="Path 44" d="M153.869,339.176l-18.194-10.5c-1.563-.86-1.313-2.36.406-3.345l17.366-10.035a6.455,6.455,0,0,1,5.8-.234l18.163,10.5c1.485.86,1.3,2.36-.422,3.345l-17.366,10.035a6.455,6.455,0,0,1-5.752.234Z" transform="translate(66.132 131.647)" fill="#2b303f"/>
        <path id="Path_45" data-name="Path 45" d="M293.872,420.009l-18.21-10.52c-1.563-.844-1.3-2.345.422-3.345l17.366-10.019a6.456,6.456,0,0,1,5.8-.25l18.163,10.52c1.563.86,1.3,2.345-.422,3.345l-17.335,10.1A6.378,6.378,0,0,1,293.872,420.009Z" transform="translate(144.96 177.158)" fill="#2b303f"/>
        <path id="Path_46" data-name="Path 46" d="M310.3,429.5l-18.194-10.5c-1.563-.86-1.3-2.36.406-3.345l17.381-10.035a6.424,6.424,0,0,1,5.783-.234l18.21,10.5c1.563.86,1.3,2.36-.422,3.345L316.1,429.262a6.455,6.455,0,0,1-5.8.234Z" transform="translate(154.216 182.504)" fill="#2b303f"/>
        <path id="Path_47" data-name="Path 47" d="M326.726,438.986l-18.194-10.5c-1.485-.86-1.3-2.36.406-3.345L326.319,415.1a6.424,6.424,0,0,1,5.783-.234l18.21,10.5c1.563.86,1.3,2.36-.422,3.345l-17.366,10.035a6.455,6.455,0,0,1-5.8.234Z" transform="translate(163.485 187.848)" fill="#2b303f"/>
        <path id="Path_48" data-name="Path 48" d="M343.166,448.476l-18.194-10.5c-1.485-.86-1.3-2.36.406-3.345l17.4-10.035a6.424,6.424,0,0,1,5.783-.234l18.21,10.5c1.563.86,1.3,2.36-.422,3.345l-17.319,10.035A6.455,6.455,0,0,1,343.166,448.476Z" transform="translate(172.742 193.192)" fill="#2b303f"/>
        <path id="Path_49" data-name="Path 49" d="M176.912,352.5l-24.822-14.333c-1.485-.86-1.3-2.36.422-3.345l17.366-10.035a6.455,6.455,0,0,1,5.8-.234L200.5,338.881c1.563.86,1.3,2.345-.422,3.345l-17.366,10.019a6.408,6.408,0,0,1-5.8.25Z" transform="translate(75.397 136.991)" fill="#2b303f"/>
        <path id="Path_50" data-name="Path 50" d="M279.814,411.9l-24.822-14.333c-1.563-.86-1.3-2.36.406-3.345l17.381-10.035a6.424,6.424,0,0,1,5.783-.234l24.822,14.333c1.485.86,1.3,2.345-.406,3.345L285.6,411.645a6.377,6.377,0,0,1-5.783.25Z" transform="translate(133.32 170.438)" fill="#2b303f"/>
        <path id="Path_51" data-name="Path 51" d="M293.769,419.95l-121-69.838c-1.485-.86-1.3-2.36.406-3.345l17.381-10.035a6.424,6.424,0,0,1,5.783-.234l121.014,69.885c1.485.86,1.3,2.36-.422,3.345l-17.366,10.035A6.456,6.456,0,0,1,293.769,419.95Z" transform="translate(87.041 143.719)" fill="#2b303f"/>
        <path id="Path_52" data-name="Path 52" d="M181.8,318.416l-18.194-10.5c-1.485-.86-1.3-2.36.422-3.345L181.4,294.532a6.424,6.424,0,0,1,5.783-.234l18.241,10.5c1.563.86,1.3,2.36-.422,3.345l-17.366,10.035A6.455,6.455,0,0,1,181.8,318.416Z" transform="translate(81.884 119.957)" fill="#2b303f"/>
        <path id="Path_53" data-name="Path 53" d="M198.276,327.9l-18.194-10.52c-1.485-.86-1.3-2.345.406-3.345l17.381-10.019a6.424,6.424,0,0,1,5.783-.25l18.21,10.52c1.563.86,1.3,2.345-.422,3.345l-17.366,10.019a6.408,6.408,0,0,1-5.8.25Z" transform="translate(91.157 125.292)" fill="#2b303f"/>
        <path id="Path_54" data-name="Path 54" d="M214.762,337.426l-18.21-10.5c-1.563-.86-1.3-2.36.422-3.345l17.366-10.035a6.456,6.456,0,0,1,5.8-.234l18.194,10.5c1.563.86,1.313,2.36-.406,3.345l-17.366,10.035A6.456,6.456,0,0,1,214.762,337.426Z" transform="translate(100.414 130.661)" fill="#2b303f"/>
        <path id="Path_55" data-name="Path 55" d="M231.232,346.874l-18.21-10.5c-1.563-.86-1.3-2.36.422-3.345l17.319-9.972a6.455,6.455,0,0,1,5.8-.234l18.194,10.5c1.563.86,1.3,2.36-.406,3.345L237.016,346.7A6.424,6.424,0,0,1,231.232,346.874Z" transform="translate(109.688 136.016)" fill="#2b303f"/>
        <path id="Path_56" data-name="Path 56" d="M247.687,356.446l-18.194-10.5c-1.563-.86-1.3-2.36.406-3.345l17.381-10.035a6.424,6.424,0,0,1,5.783-.234l18.21,10.5c1.563.86,1.3,2.36-.422,3.345l-17.366,10.035A6.455,6.455,0,0,1,247.687,356.446Z" transform="translate(118.962 141.371)" fill="#2b303f"/>
        <path id="Path_57" data-name="Path 57" d="M264.159,365.961l-18.194-10.52c-1.563-.86-1.313-2.345.406-3.345L263.8,342.077a6.408,6.408,0,0,1,5.8-.25l18.21,10.52c1.485.86,1.3,2.345-.422,3.345L270.02,365.711A6.409,6.409,0,0,1,264.159,365.961Z" transform="translate(128.234 146.721)" fill="#2b303f"/>
        <path id="Path_58" data-name="Path 58" d="M280.621,375.456l-18.21-10.5c-1.485-.86-1.3-2.36.422-3.345L280.2,351.572a6.456,6.456,0,0,1,5.8-.234l18.194,10.5c1.563.86,1.3,2.36-.406,3.345L286.4,375.222a6.424,6.424,0,0,1-5.783.234Z" transform="translate(137.516 152.075)" fill="#2b303f"/>
        <path id="Path_59" data-name="Path 59" d="M297.091,384.966l-18.21-10.5c-1.485-.86-1.3-2.36.422-3.345l17.366-10.035a6.455,6.455,0,0,1,5.8-.234l18.194,10.5c1.485.86,1.3,2.36-.422,3.345l-17.366,10.035a6.424,6.424,0,0,1-5.783.235Z" transform="translate(146.79 157.43)" fill="#2b303f"/>
        <path id="Path_60" data-name="Path 60" d="M313.54,394.476l-18.179-10.5c-1.485-.86-1.3-2.36.406-3.345l17.381-10.035a6.424,6.424,0,0,1,5.783-.234l18.21,10.5c1.485.86,1.3,2.36-.422,3.345l-17.366,10.035a6.456,6.456,0,0,1-5.815.234Z" transform="translate(156.069 162.785)" fill="#2b303f"/>
        <path id="Path_61" data-name="Path 61" d="M330.021,403.991l-18.21-10.52c-1.485-.86-1.3-2.345.422-3.345L329.6,380.107a6.408,6.408,0,0,1,5.8-.25l18.21,10.52c1.485.844,1.3,2.345-.422,3.345L335.82,403.741A6.456,6.456,0,0,1,330.021,403.991Z" transform="translate(165.332 168.135)" fill="#2b303f"/>
        <path id="Path_62" data-name="Path 62" d="M346.491,413.486l-18.21-10.5c-1.485-.86-1.3-2.36.422-3.345L346.069,389.6a6.456,6.456,0,0,1,5.8-.234l18.194,10.5c1.563.86,1.3,2.36-.406,3.345l-17.381,10.035a6.424,6.424,0,0,1-5.783.234Z" transform="translate(174.606 173.489)" fill="#2b303f"/>
        <path id="Path_63" data-name="Path 63" d="M362.915,423l-18.194-10.5c-1.485-.86-1.3-2.36.422-3.345l17.366-10.035a6.424,6.424,0,0,1,5.783-.235l18.21,10.5c1.485.86,1.3,2.36-.422,3.345L368.761,422.84A6.455,6.455,0,0,1,362.915,423Z" transform="translate(183.863 178.844)" fill="#2b303f"/>
        <path id="Path_64" data-name="Path 64" d="M172.367,312.939l-37.655-21.727c-1.563-.86-1.3-2.36.422-3.345L152.5,277.832a6.455,6.455,0,0,1,5.8-.234l37.639,21.727c1.563.86,1.3,2.36-.406,3.345L178.15,312.7a6.425,6.425,0,0,1-5.783.235Z" transform="translate(65.593 110.554)" fill="#2b303f"/>
        <path id="Path_65" data-name="Path 65" d="M157.657,322.884l-18.194-10.473c-1.485-.86-1.313-2.345.406-3.345l17.366-10.019a6.408,6.408,0,0,1,5.8-.25l18.21,10.52c1.485.844,1.3,2.345-.422,3.345l-17.366,10.019A6.456,6.456,0,0,1,157.657,322.884Z" transform="translate(68.283 122.492)" fill="#2b303f"/>
        <path id="Path_66" data-name="Path 66" d="M174.131,332.426l-18.21-10.5c-1.485-.86-1.3-2.36.422-3.345l17.366-10.035a6.455,6.455,0,0,1,5.8-.234l18.194,10.5c1.563.86,1.3,2.36-.406,3.345l-17.381,10.035a6.424,6.424,0,0,1-5.783.234Z" transform="translate(77.554 127.846)" fill="#2b303f"/>
        <path id="Path_67" data-name="Path 67" d="M190.613,341.877,172.372,331.42c-1.563-.86-1.3-2.345.422-3.345l17.366-10.019a6.456,6.456,0,0,1,5.8-.25l18.21,10.52c1.563.86,1.3,2.345-.422,3.345l-17.366,10.019a6.409,6.409,0,0,1-5.768.188Z" transform="translate(86.799 133.198)" fill="#2b303f"/>
        <path id="Path_68" data-name="Path 68" d="M207.057,351.436l-18.194-10.5c-1.563-.86-1.3-2.36.422-3.345l17.366-10.035a6.424,6.424,0,0,1,5.783-.234l18.21,10.5c1.485.86,1.3,2.36-.422,3.345L212.856,351.2a6.456,6.456,0,0,1-5.8.235Z" transform="translate(96.084 138.55)" fill="#2b303f"/>
        <path id="Path_69" data-name="Path 69" d="M223.493,360.946l-18.132-10.5c-1.485-.86-1.3-2.36.422-3.345l17.366-10.035a6.455,6.455,0,0,1,5.8-.234l18.194,10.5c1.485.86,1.313,2.36-.406,3.345L229.37,360.7a6.409,6.409,0,0,1-5.877.25Z" transform="translate(105.392 143.905)" fill="#2b303f"/>
        <path id="Path_70" data-name="Path 70" d="M239.976,370.446l-18.194-10.5c-1.485-.86-1.3-2.36.406-3.345l17.381-10.035a6.424,6.424,0,0,1,5.783-.234l18.21,10.5c1.485.86,1.3,2.36-.422,3.345l-17.366,10.035A6.455,6.455,0,0,1,239.976,370.446Z" transform="translate(114.637 149.255)" fill="#2b303f"/>
        <path id="Path_71" data-name="Path 71" d="M256.451,379.956l-18.21-10.5c-1.485-.86-1.3-2.36.422-3.345l17.366-10.035a6.456,6.456,0,0,1,5.8-.235l18.194,10.5c1.485.86,1.3,2.36-.406,3.345L262.25,379.722A6.455,6.455,0,0,1,256.451,379.956Z" transform="translate(123.906 154.609)" fill="#2b303f"/>
        <path id="Path_72" data-name="Path 72" d="M272.916,389.471l-18.194-10.52c-1.485-.86-1.3-2.345.406-3.345l17.381-10.019a6.377,6.377,0,0,1,5.783-.25l18.21,10.52c1.485.844,1.3,2.345-.422,3.345l-17.366,10.019A6.456,6.456,0,0,1,272.916,389.471Z" transform="translate(133.185 159.959)" fill="#2b303f"/>
        <path id="Path_73" data-name="Path 73" d="M289.381,398.966l-18.21-10.5c-1.485-.86-1.3-2.36.422-3.345l17.366-10.035a6.455,6.455,0,0,1,5.8-.234l18.194,10.5c1.485.86,1.3,2.36-.406,3.345l-17.381,10.035a6.424,6.424,0,0,1-5.783.234Z" transform="translate(142.448 165.313)" fill="#2b303f"/>
        <path id="Path_74" data-name="Path 74" d="M305.836,408.479l-18.194-10.52c-1.485-.844-1.3-2.345.406-3.345L305.429,384.6a6.424,6.424,0,0,1,5.783-.25l18.194,10.52c1.485.86,1.3,2.345-.422,3.345l-17.366,10.019a6.409,6.409,0,0,1-5.783.25Z" transform="translate(151.722 170.665)" fill="#2b303f"/>
        <path id="Path_75" data-name="Path 75" d="M322.311,417.976l-18.21-10.5c-1.485-.86-1.3-2.36.422-3.345l17.366-10.035a6.455,6.455,0,0,1,5.8-.234l18.194,10.5c1.485.86,1.3,2.36-.406,3.345l-17.381,10.035a6.425,6.425,0,0,1-5.783.234Z" transform="translate(160.991 176.018)" fill="#2b303f"/>
        <path id="Path_76" data-name="Path 76" d="M370.612,445.883l-50.019-28.9c-1.485-.86-1.313-2.36.406-3.345L338.365,403.6a6.456,6.456,0,0,1,5.8-.235l50.019,28.9c1.485.844,1.3,2.345-.422,3.345L376.4,445.633a6.455,6.455,0,0,1-5.783.25Z" transform="translate(170.273 181.372)" fill="#2b303f"/>
        <path id="Path_77" data-name="Path 77" d="M143.594,314.795l-24.822-14.333c-1.563-.86-1.3-2.36.406-3.345L136.561,287.1a6.377,6.377,0,0,1,5.783-.25l24.822,14.333c1.485.86,1.3,2.36-.406,3.345l-17.35,10.035A6.424,6.424,0,0,1,143.594,314.795Z" transform="translate(56.617 115.763)" fill="#2b303f"/>
        <path id="Path_78" data-name="Path 78" d="M548.753,472.448,183.242,261.432c-1.563-.844-1.3-2.345.422-3.345l8.691-5a6.424,6.424,0,0,1,5.783-.25L563.649,463.851c1.485.86,1.3,2.345-.422,3.345l-8.675,5.049A6.456,6.456,0,0,1,548.753,472.448Z" transform="translate(92.92 96.615)" fill="#2b303f"/>
        <path id="Path_79" data-name="Path 79" d="M375.623,445.975a5.518,5.518,0,0,1-2.532,2.626L272.522,506.669a12.4,12.4,0,0,1-11.145.453L89.439,407.883a3.845,3.845,0,0,1-1.688-1.735c-.625-1.563.25-3.3,2.532-4.611l100.584-58.084A12.4,12.4,0,0,1,202.012,343l171.939,99.24A3.032,3.032,0,0,1,375.623,445.975Z" transform="translate(39.622 147.081)" fill="#b1b4c4"/>
        <path id="Path_80" data-name="Path 80" d="M375.552,445.251a5.518,5.518,0,0,1-2.532,2.626L272.452,505.945a12.4,12.4,0,0,1-11.145.453L89.368,407.159a3.845,3.845,0,0,1-1.688-1.735,5.642,5.642,0,0,1,2.532-2.61L190.8,344.745a12.411,12.411,0,0,1,11.145-.469L373.88,443.532A3.768,3.768,0,0,1,375.552,445.251Z" transform="translate(39.692 147.805)" fill="#c3c6d1"/>
        <path id="Path_81" data-name="Path 81" d="M567.121,463.156,201.61,252.14A6.44,6.44,0,0,1,199,247v-4.3c0-1.985,1.2-2.892,2.688-2.032L567.2,451.683a6.408,6.408,0,0,1,2.688,5.127v4.3C569.809,463.109,568.606,464.015,567.121,463.156Z" transform="translate(102.374 89.901)" fill="#2b303f"/>
        <path id="Path_82" data-name="Path 82" d="M251.958,264.226l-36.107-20.8c-4.517-2.61-8.191-9.629-8.191-15.631V189.073c0-6.033,3.673-8.8,8.191-6.252l36.107,20.867c4.533,2.61,8.191,9.629,8.191,15.631v38.718C260.086,264.07,256.428,266.837,251.958,264.226Z" transform="translate(107.251 56.979)" fill="#e9eaf2"/>
        <path id="Path_83" data-name="Path 83" d="M251.845,210.869l-36.045-20.8c-4.517-2.61-8.191-13.286-8.191-18.507v-45.2c0-6.034,3.673-8.8,8.191-6.252l36.045,20.8c4.533,2.61,8.191,9.629,8.191,15.631v45.2C260.036,207.055,256.378,213.479,251.845,210.869Z" transform="translate(107.223 21.662)" fill="#e9eaf2"/>
        <path id="Path_84" data-name="Path 84" d="M229.3,170.238C221.971,166,216,155.654,216,147.182s5.971-11.926,13.3-7.69,13.317,14.584,13.317,23.055S236.648,174.474,229.3,170.238Zm0-26.807c-5.455-3.126-9.894-.578-9.894,5.721a21.883,21.883,0,0,0,9.894,17.194c5.471,3.126,9.91.594,9.91-5.705A21.883,21.883,0,0,0,229.3,143.431Z" transform="translate(111.947 32.095)" fill="#1da977"/>
        <path id="Path_85" data-name="Path 85" d="M229.023,160.835l-6.033-9.6V143.25l3.408,1.969v6.205l4.877,7.737Z" transform="translate(115.883 35.23)" fill="#1da977"/>
        <path id="Path_86" data-name="Path 86" d="M251.815,148.313l-36.045-20.8c-4.517-2.626-8.191-14.38-8.191-19.617V66.282c0-5.221,3.673-7.346,8.191-4.689l36.045,20.82a18.069,18.069,0,0,1,8.191,14.177v41.625C260.006,143.389,256.348,150.923,251.815,148.313Z" transform="translate(107.206 -11.395)" fill="#e9eaf2"/>
        <path id="Path_87" data-name="Path 87" d="M229.052,88.976c-2.173-1.25-3.923-.234-3.923,2.282a8.66,8.66,0,0,0,3.923,6.8c2.173,1.25,3.939.234,3.939-2.266a8.738,8.738,0,0,0-3.939-6.815Zm10.488,1.563-3.126-1.813a2.563,2.563,0,0,1-1.032-1.454l-.813-3.3a2.657,2.657,0,0,0-1.047-1.454l-8.91-5.143c-.438-.25-.891-.141-1.032.266l-.813,2.345a.672.672,0,0,1-1.032.266l-3.126-1.813C217.172,77.6,216,78.285,216,80v13.63a5.8,5.8,0,0,0,2.61,4.533l20.976,12.114c1.438.828,2.626.156,2.626-1.563V95.041a5.831,5.831,0,0,0-2.673-4.549Zm-10.488,10.6A14.521,14.521,0,0,1,222.5,89.789c0-4.189,2.939-5.877,6.549-3.783A14.443,14.443,0,0,1,235.6,97.354c0,4.127-2.923,5.83-6.549,3.736Zm9.566-5.987a2,2,0,0,1-.907-1.563c0-.594.406-.828.907-.531a2,2,0,0,1,.922,1.563c0,.547-.406.782-.922.485Z" transform="translate(111.947 -1.936)" fill="#1da977"/>
        <path id="Path_88" data-name="Path 88" d="M239.6,217.8c0,7.049-11.051,16.209-11.051,16.209s-11.067-21.883-11.067-28.98,4.955-9.91,11.067-6.393A24.462,24.462,0,0,1,239.6,217.8Z" transform="translate(112.78 65.565)" fill="#1da977"/>
        <ellipse id="Ellipse_1" data-name="Ellipse 1" cx="5.908" cy="10.223" rx="5.908" ry="10.223" transform="translate(331.1 270.6) rotate(-30)" fill="#e9eaf2"/>
        <path id="Path_89" data-name="Path 89" d="M480.14,375.9l-218.222-126c-3.689-2.11-6.659-7.815-6.659-12.708V90.526c0-4.892,2.97-7.143,6.659-5.017L480.14,211.493c3.673,2.126,6.643,7.815,6.643,12.723V370.865C486.783,375.773,483.814,378.023,480.14,375.9Z" transform="translate(134.053 2.266)" fill="#e9eaf2"/>
        <path id="Path_90" data-name="Path 90" d="M446.605,249.4,277.465,151.75c-4.1-2.376-7.425-8.722-7.425-14.177V126.522c0-5.471,3.329-7.972,7.425-5.611l169.141,97.646c4.1,2.36,7.409,8.706,7.409,14.177v11.051C454.014,249.255,450.7,251.756,446.605,249.4Z" transform="translate(142.376 22.151)" fill="#fff"/>
        <path id="Path_91" data-name="Path 91" d="M354.618,228.055l-77.154-44.548c-4.1-2.36-7.425-8.706-7.425-14.177V158.342c0-5.471,3.329-7.972,7.425-5.611l77.154,44.548c4.1,2.36,7.409,8.706,7.409,14.177v10.973C362.027,227.9,358.714,230.415,354.618,228.055Z" transform="translate(142.376 40.068)" fill="#1da977"/>
        <path id="Path_92" data-name="Path 92" d="M524.957,335.06s-82.265,18.132-148.774-55.739-120.764-64.4-120.764-64.4v46.111l269.537,155.6Z" transform="translate(134.143 75.365)" fill="url(#linear-gradient-2)"/>
        <path id="Path_93" data-name="Path 93" d="M524.957,335.06s-82.265,18.132-148.774-55.739-120.764-64.4-120.764-64.4" transform="translate(134.143 75.365)" fill="none" stroke="#cccedd" stroke-miterlimit="10" stroke-width="1.06"/>
      </g>
      <g id="Men_12" transform="translate(363.291)">
        <path id="_Контур_" data-name="&lt;Контур&gt;" d="M260.8,59.28a60.242,60.242,0,0,1-8.706,11.879c-.938,1.094-8.175-1.672-6.659-2.454s6.252-7.378,8.628-11.786a150.338,150.338,0,0,0,5.064-16.084c1.485-5.393,2.767-13.3,3.861-17.022a7.268,7.268,0,0,1,5.533-5.643c2.61-.61,4.3.109,3.814,3.267C271.445,26.94,267.177,48.417,260.8,59.28Z" transform="translate(-225.271 10.116)" fill="#ffcea9"/>
        <path id="Path_94" data-name="Path 94" d="M264.028,98.25c-2.235,1.829-5.549.156-5.721.328a102.745,102.745,0,0,1-8.269,6.893c-1.407,1.094-3.579,2.563-3.126,4.689.7,3.767,6.753,2.61,9.035,1.454s4.158-3.126,6.252-4.408c1.563-.969,3.126-1.454,3.3-3.408C265.638,102.627,264.434,98.2,264.028,98.25Z" transform="translate(-224.357 55.318)" fill="#38226d"/>
        <path id="Path_95" data-name="Path 95" d="M265.455,101.3c-.3,1.86-1.8,2.376-3.329,3.329-2.188,1.36-4.127,3.329-6.409,4.486s-7.362,2.126-8.847-.578c.8,3.642,6.753,2.5,9,1.36s4.158-3.126,6.252-4.408c1.563-.969,3.126-1.454,3.3-3.408A4.808,4.808,0,0,0,265.455,101.3Z" transform="translate(-224.346 57.035)" fill="#9c73ff"/>
        <path id="Path_96" data-name="Path 96" d="M249.372,89.863c-2.235,1.829-6.159-.156-6.33,0a82.846,82.846,0,0,1-7.393,6.674c-1.407,1.11-3.579,2.579-3.126,4.689.7,3.783,6.753,2.626,9.05,1.469s4.142-3.126,6.252-4.424c1.563-.953,3.126-1.454,3.3-3.392C251.248,93.708,249.778,89.816,249.372,89.863Z" transform="translate(-232.459 50.591)" fill="#38226d"/>
        <path id="Path_97" data-name="Path 97" d="M251.045,92.74c-.3,1.86-1.8,2.376-3.329,3.329-2.188,1.36-4.127,3.329-6.409,4.486s-7.378,2.126-8.847-.578c.8,3.642,6.737,2.5,9,1.36s4.142-3.126,6.252-4.424c1.563-.953,3.126-1.438,3.3-3.392a4.815,4.815,0,0,0,.031-.782Z" transform="translate(-232.46 52.215)" fill="#9c73ff"/>
        <path id="_Контур_2" data-name="&lt;Контур&gt;" d="M300.41,54.2c2.485,15.537-4.408,21.336-13.38,24.634-6.44,2.376-15.631,6.033-15.631,6.033s.125,3.408.188,11.051c0,6.737-.813,31.262-.813,31.262a7.518,7.518,0,0,1-6.878,0s-3.611-18.835-4.377-27.338c-1.047-11.52-2.814-19.07-2.22-21.555.516-2.188,13.114-8.378,17.116-11.692l-26.4,8.847a46.624,46.624,0,0,1,.766,8.675c-.234,9.144-.75,28.948-.75,28.948s-3.611,2.61-6.706,0c0,0-6.643-39.186-5.83-44.376.766-4.924,24.025-14.99,28.135-18.46a6.565,6.565,0,0,1,5.158-1.391Z" transform="translate(-230.79 27.451)" fill="#1da977"/>
        <g id="_Группа_" data-name="&lt;Группа&gt;" transform="translate(1.823 66.364)">
          <g id="_Группа_2" data-name="&lt;Группа&gt;">
            <path id="_Контур_3" data-name="&lt;Контур&gt;" d="M236.54,60.119l17.741-10.238a.985.985,0,0,1,1.016,0L286.4,67.841,268.161,78.376Z" transform="translate(-231.986 -38.361)" fill="#b2b2b2"/>
            <path id="Path_98" data-name="Path 98" d="M257.947,65.667l1.36.782c.109,0,.094.172,0,.25l-1.3.75a.5.5,0,0,1-.422,0l-1.36-.782c-.109,0-.094-.172,0-.25l1.3-.75a.5.5,0,0,1,.422,0Z" transform="translate(-220.943 -29.419)" fill="#3a2c6d"/>
            <path id="Path_99" data-name="Path 99" d="M256.727,65.021l1.344.766c.109,0,.094.188,0,.25l-1.282.75a.484.484,0,0,1-.438,0l-1.344-.782c-.109,0-.094-.172,0-.25l1.282-.735A.438.438,0,0,1,256.727,65.021Z" transform="translate(-221.63 -29.789)" fill="#3a2c6d"/>
            <path id="Path_100" data-name="Path 100" d="M255.487,64.252l1.344.782c.109,0,.109.172,0,.25l-1.282.735a.484.484,0,0,1-.438,0l-1.344-.782c-.109,0-.094-.172,0-.25l1.282-.75a.484.484,0,0,1,.438.016Z" transform="translate(-222.328 -30.223)" fill="#3a2c6d"/>
            <path id="Path_101" data-name="Path 101" d="M254.277,63.547l1.344.782c.109,0,.109.172,0,.25l-1.282.75a.532.532,0,0,1-.438,0l-1.344-.782c-.109,0-.094-.172,0-.25l1.282-.75a.531.531,0,0,1,.438,0Z" transform="translate(-223.01 -30.613)" fill="#3a2c6d"/>
            <path id="Path_102" data-name="Path 102" d="M253.047,62.836l1.36.782c.109,0,.094.188,0,.25l-1.3.75a.453.453,0,0,1-.422,0l-1.36-.782c-.109,0-.094-.172,0-.25l1.3-.735A.453.453,0,0,1,253.047,62.836Z" transform="translate(-223.702 -31.012)" fill="#3a2c6d"/>
            <path id="Path_103" data-name="Path 103" d="M251.827,62.139l1.36.782c.109,0,.094.172,0,.25l-1.3.735a.453.453,0,0,1-.422,0l-1.36-.782c-.109,0-.094-.172,0-.234l1.3-.75a.453.453,0,0,1,.422,0Z" transform="translate(-224.389 -31.409)" fill="#3a2c6d"/>
            <path id="Path_104" data-name="Path 104" d="M250.649,61.427l1.344.782c.109,0,.094.172,0,.25l-1.282.75a.531.531,0,0,1-.438,0l-1.344-.782c-.109,0-.109-.172,0-.25l1.282-.75A.531.531,0,0,1,250.649,61.427Z" transform="translate(-225.056 -31.807)" fill="#3a2c6d"/>
            <path id="Path_105" data-name="Path 105" d="M249.377,60.716l1.36.782c.109,0,.094.188,0,.25l-1.3.75a.453.453,0,0,1-.422,0l-1.36-.782c-.109,0-.094-.172,0-.25l1.3-.735a.453.453,0,0,1,.422-.016Z" transform="translate(-225.769 -32.206)" fill="#3a2c6d"/>
            <path id="Path_106" data-name="Path 106" d="M248.157,60.019l1.344.782c.109,0,.094.172,0,.25l-1.282.735a.485.485,0,0,1-.438,0L246.437,61c-.109,0-.094-.172,0-.234l1.282-.75a.485.485,0,0,1,.438,0Z" transform="translate(-226.456 -32.602)" fill="#3a2c6d"/>
            <path id="Path_107" data-name="Path 107" d="M246.927,59.309l1.36.782c.109,0,.094.172,0,.25l-1.3.75a.5.5,0,0,1-.422,0l-1.36-.782c-.109,0-.094-.172,0-.25l1.3-.75a.453.453,0,0,1,.422,0Z" transform="translate(-227.148 -33.002)" fill="#3a2c6d"/>
            <path id="Path_108" data-name="Path 108" d="M245.707,58.6l1.344.782c.109,0,.109.172,0,.25l-1.282.75a.484.484,0,0,1-.438,0l-1.344-.782c-.109,0-.094-.172,0-.25l1.282-.735A.485.485,0,0,1,245.707,58.6Z" transform="translate(-227.835 -33.399)" fill="#3a2c6d"/>
            <path id="Path_109" data-name="Path 109" d="M244.493,57.9l1.344.782c.109,0,.094.172,0,.25l-1.3.735a.453.453,0,0,1-.422,0l-1.36-.782c-.109,0-.094-.172,0-.25l1.3-.735A.485.485,0,0,1,244.493,57.9Z" transform="translate(-228.528 -33.796)" fill="#3a2c6d"/>
            <path id="Path_110" data-name="Path 110" d="M243.257,57.192l1.36.782c.109,0,.094.172,0,.25l-1.3.735a.453.453,0,0,1-.422,0l-1.36-.782c-.109,0-.094-.188,0-.25l1.3-.75a.453.453,0,0,1,.422.016Z" transform="translate(-229.215 -34.199)" fill="#3a2c6d"/>
            <path id="Path_111" data-name="Path 111" d="M241.449,56.137l2.266,1.313c.109,0,.094.172,0,.25l-1.282.75a.532.532,0,0,1-.438,0l-2.266-1.313c-.109,0-.109-.172,0-.25l1.282-.75a.531.531,0,0,1,.438,0Z" transform="translate(-230.236 -34.785)" fill="#3a2c6d"/>
            <path id="Path_112" data-name="Path 112" d="M257.317,63.939l1.36.782c.109,0,.094.172,0,.25l-1.3.735a.406.406,0,0,1-.422,0l-1.36-.766c-.109,0-.094-.188,0-.25l1.3-.75a.453.453,0,0,1,.422,0Z" transform="translate(-221.298 -30.395)" fill="#3a2c6d"/>
            <path id="Path_113" data-name="Path 113" d="M256.1,63.229l1.344.782c.109,0,.094.172,0,.25l-1.282.75a.531.531,0,0,1-.438,0l-1.344-.782c-.109,0-.109-.172,0-.25l1.282-.75a.485.485,0,0,1,.438,0Z" transform="translate(-221.987 -30.795)" fill="#3a2c6d"/>
            <path id="Path_114" data-name="Path 114" d="M254.867,62.517l1.344.782c.125,0,.109.172,0,.25l-1.282.75a.531.531,0,0,1-.438,0l-1.344-.782c-.109,0-.094-.172,0-.25l1.282-.75A.532.532,0,0,1,254.867,62.517Z" transform="translate(-222.677 -31.193)" fill="#3a2c6d"/>
            <path id="Path_115" data-name="Path 115" d="M253.647,61.806l1.36.782c.109,0,.094.188,0,.25l-1.3.75a.453.453,0,0,1-.422,0l-1.36-.782c-.109,0-.094-.172,0-.25l1.3-.735a.453.453,0,0,1,.422-.016Z" transform="translate(-223.364 -31.592)" fill="#3a2c6d"/>
            <path id="Path_116" data-name="Path 116" d="M252.429,61.107l1.344.782c.109,0,.094.172,0,.25l-1.282.75a.532.532,0,0,1-.438,0l-1.344-.782c-.109,0-.109-.172,0-.25l1.282-.75a.532.532,0,0,1,.438,0Z" transform="translate(-224.053 -31.987)" fill="#3a2c6d"/>
            <path id="Path_117" data-name="Path 117" d="M251.2,60.4l1.36.782c.109,0,.094.188,0,.25l-1.3.75a.453.453,0,0,1-.422,0l-1.36-.782c-.109,0-.094-.172,0-.25l1.3-.735a.453.453,0,0,1,.422-.016Z" transform="translate(-224.744 -32.386)" fill="#3a2c6d"/>
            <path id="Path_118" data-name="Path 118" d="M249.967,59.7l1.36.782c.109,0,.094.172,0,.234l-1.3.75a.453.453,0,0,1-.422,0l-1.36-.782c-.109,0-.094-.172,0-.25l1.3-.735a.453.453,0,0,1,.422,0Z" transform="translate(-225.436 -32.783)" fill="#3a2c6d"/>
            <path id="Path_119" data-name="Path 119" d="M248.747,59.019l1.344.782c.109,0,.094.172,0,.25l-1.282.735a.485.485,0,0,1-.438,0L247.027,60c-.109,0-.094-.172,0-.234l1.282-.75a.485.485,0,0,1,.438,0Z" transform="translate(-226.123 -33.165)" fill="#3a2c6d"/>
            <path id="Path_120" data-name="Path 120" d="M247.517,58.282l1.36.782c.109,0,.094.172,0,.25l-1.3.735a.453.453,0,0,1-.422,0l-1.36-.782c-.109,0-.094-.188,0-.25l1.3-.75A.453.453,0,0,1,247.517,58.282Z" transform="translate(-226.816 -33.585)" fill="#3a2c6d"/>
            <path id="Path_121" data-name="Path 121" d="M246.3,57.567l1.344.782c.109,0,.094.172,0,.25l-1.3.75a.5.5,0,0,1-.422,0l-1.36-.782c-.109,0-.094-.172,0-.25l1.3-.75A.531.531,0,0,1,246.3,57.567Z" transform="translate(-227.509 -33.98)" fill="#3a2c6d"/>
            <path id="Path_122" data-name="Path 122" d="M245.067,56.857l1.344.782c.109,0,.109.172,0,.25l-1.282.75a.485.485,0,0,1-.438,0l-1.344-.782c-.109,0-.094-.172,0-.25l1.282-.75A.531.531,0,0,1,245.067,56.857Z" transform="translate(-228.195 -34.38)" fill="#3a2c6d"/>
            <path id="Path_123" data-name="Path 123" d="M243.837,56.161l1.36.766c.109,0,.094.188,0,.25l-1.3.75a.453.453,0,0,1-.422,0l-1.36-.782c-.109,0-.094-.172,0-.25l1.3-.735A.406.406,0,0,1,243.837,56.161Z" transform="translate(-228.888 -34.778)" fill="#3a2c6d"/>
            <path id="Path_124" data-name="Path 124" d="M258.547,64.649l2.266,1.313c.109,0,.109.172,0,.25l-1.282.735a.485.485,0,0,1-.438,0l-2.266-1.313c-.109,0-.094-.172,0-.25l1.282-.735a.485.485,0,0,1,.438,0Z" transform="translate(-220.605 -29.995)" fill="#3a2c6d"/>
            <path id="Path_125" data-name="Path 125" d="M240.875,56.823l1.344.782a.469.469,0,0,0,.406,0l1.36-.8a.125.125,0,0,0,0-.234h-.109c-.094,0-.094-.141,0-.2l1.438-.828c.125,0,.125-.172,0-.234l-.86-.5a.469.469,0,0,0-.406,0l-1.344.782-.281.156-.2.125-.2.109-1.157.672a.125.125,0,0,0,.016.172Z" transform="translate(-229.569 -35.534)" fill="#3a2c6d"/>
            <path id="Path_126" data-name="Path 126" d="M262.647,62.929l1.36.782c.109,0,.094.172,0,.25l-1.3.735a.406.406,0,0,1-.422,0l-1.36-.766a.141.141,0,0,1,0-.25l1.3-.75a.453.453,0,0,1,.422,0Z" transform="translate(-218.297 -30.964)" fill="#3a2c6d"/>
            <path id="Path_127" data-name="Path 127" d="M261.467,62.216l1.36.782c.109,0,.094.188,0,.25l-1.3.75a.453.453,0,0,1-.422,0l-1.36-.782c-.109,0-.094-.172,0-.25l1.3-.735a.453.453,0,0,1,.422-.016Z" transform="translate(-218.961 -31.361)" fill="#3a2c6d"/>
            <path id="Path_128" data-name="Path 128" d="M260.247,61.522l1.36.782c.109,0,.094.172,0,.25l-1.3.735a.453.453,0,0,1-.422,0l-1.36-.782c-.109,0-.094-.188,0-.25l1.3-.75a.453.453,0,0,1,.422.016Z" transform="translate(-219.648 -31.761)" fill="#3a2c6d"/>
            <path id="Path_129" data-name="Path 129" d="M249.861,55.519l1.344.782c.109,0,.094.172,0,.25l-1.282.735a.485.485,0,0,1-.438,0l-1.344-.782c-.125,0-.109-.172,0-.25l1.282-.735a.485.485,0,0,1,.438,0Z" transform="translate(-225.503 -35.136)" fill="#3a2c6d"/>
            <path id="Path_130" data-name="Path 130" d="M248.647,54.807l1.36.782c.109,0,.094.172,0,.25l-1.3.75a.5.5,0,0,1-.422,0l-1.36-.782c-.109,0-.094-.172,0-.25l1.3-.75a.5.5,0,0,1,.422,0Z" transform="translate(-226.18 -35.534)" fill="#3a2c6d"/>
            <path id="Path_131" data-name="Path 131" d="M247.407,54.109l1.36.782c.109,0,.094.172,0,.25l-1.3.735a.453.453,0,0,1-.422,0l-1.36-.782c-.109,0-.094-.172,0-.234l1.3-.75a.453.453,0,0,1,.422,0Z" transform="translate(-226.878 -35.93)" fill="#3a2c6d"/>
            <path id="Path_132" data-name="Path 132" d="M246.187,53.4l1.36.782c.109,0,.094.172,0,.25l-1.3.75a.5.5,0,0,1-.422,0l-1.36-.782c-.109,0-.094-.172,0-.25l1.3-.75a.5.5,0,0,1,.422,0Z" transform="translate(-227.565 -36.328)" fill="#3a2c6d"/>
            <path id="Path_133" data-name="Path 133" d="M258.7,60.621l1.844,1.063c.109,0,.094.188,0,.25l-1.3.75a.453.453,0,0,1-.422,0l-1.8-1.047c-.109,0-.109-.172,0-.25l1.282-.75a.532.532,0,0,1,.391-.016Z" transform="translate(-220.495 -32.251)" fill="#3a2c6d"/>
            <path id="Path_134" data-name="Path 134" d="M251.079,56.217l1.844,1.063c.109,0,.094.172,0,.25l-1.3.75a.5.5,0,0,1-.422,0l-1.844-1.063c-.109,0-.109-.172,0-.25l1.282-.75A.532.532,0,0,1,251.079,56.217Z" transform="translate(-224.813 -34.74)" fill="#3a2c6d"/>
            <path id="Path_135" data-name="Path 135" d="M252.647,57.109l8.988,5.189c.109,0,.094.172,0,.25l-1.282.735a.485.485,0,0,1-.438,0l-8.988-5.189c-.109,0-.094-.172,0-.234l1.3-.75a.453.453,0,0,1,.422,0Z" transform="translate(-223.927 -34.241)" fill="#3a2c6d"/>
            <path id="Path_136" data-name="Path 136" d="M258.179,63.017l1.344.782c.109,0,.094.172,0,.25l-1.282.75a.531.531,0,0,1-.438,0l-1.344-.782c-.109,0-.109-.172,0-.25l1.282-.75A.531.531,0,0,1,258.179,63.017Z" transform="translate(-220.816 -30.911)" fill="#3a2c6d"/>
            <path id="Path_137" data-name="Path 137" d="M256.947,62.346l1.36.782c.109,0,.094.188,0,.25l-1.3.75a.453.453,0,0,1-.422,0l-1.36-.782c-.109,0-.094-.172,0-.25l1.3-.735a.453.453,0,0,1,.422-.016Z" transform="translate(-221.506 -31.288)" fill="#3a2c6d"/>
            <path id="Path_138" data-name="Path 138" d="M255.727,61.652l1.36.782c.109,0,.094.172,0,.25l-1.3.735a.485.485,0,0,1-.438,0l-1.344-.782a.141.141,0,0,1,0-.25l1.3-.75a.453.453,0,0,1,.422.016Z" transform="translate(-222.193 -31.687)" fill="#3a2c6d"/>
            <path id="Path_139" data-name="Path 139" d="M254.507,60.937l1.344.782c.109,0,.094.172,0,.25l-1.282.75a.532.532,0,0,1-.438,0l-1.344-.782c-.109,0-.094-.172,0-.25l1.282-.75A.532.532,0,0,1,254.507,60.937Z" transform="translate(-222.88 -32.083)" fill="#3a2c6d"/>
            <path id="Path_140" data-name="Path 140" d="M253.277,60.239l1.36.782c.109,0,.094.172,0,.25l-1.3.735a.453.453,0,0,1-.422,0l-1.36-.782c-.109,0-.094-.172,0-.25l1.3-.735A.453.453,0,0,1,253.277,60.239Z" transform="translate(-223.573 -32.478)" fill="#3a2c6d"/>
            <path id="Path_141" data-name="Path 141" d="M252.057,59.527l1.36.782c.109,0,.094.172,0,.25l-1.3.75a.5.5,0,0,1-.422,0l-1.36-.782c-.109,0-.094-.172,0-.25l1.3-.75a.5.5,0,0,1,.422,0Z" transform="translate(-224.26 -32.876)" fill="#3a2c6d"/>
            <path id="Path_142" data-name="Path 142" d="M250.837,58.816l1.344.782c.109,0,.109.188,0,.25l-1.282.75a.485.485,0,0,1-.438,0l-1.344-.782c-.109,0-.094-.172,0-.25l1.282-.735A.485.485,0,0,1,250.837,58.816Z" transform="translate(-224.947 -33.275)" fill="#3a2c6d"/>
            <path id="Path_143" data-name="Path 143" d="M249.649,58.119l1.344.782c.109,0,.094.172,0,.25l-1.282.735a.438.438,0,0,1-.438,0l-1.344-.766c-.109,0-.109-.188,0-.25l1.282-.75a.485.485,0,0,1,.438,0Z" transform="translate(-225.619 -33.672)" fill="#3a2c6d"/>
            <path id="Path_144" data-name="Path 144" d="M248.387,57.407l1.36.782c.109,0,.094.172,0,.25l-1.3.75a.5.5,0,0,1-.422,0l-1.36-.782c-.109,0-.094-.172,0-.25l1.3-.75a.5.5,0,0,1,.422,0Z" transform="translate(-226.326 -34.07)" fill="#3a2c6d"/>
            <path id="Path_145" data-name="Path 145" d="M247.173,56.71l1.344.782c.125,0,.109.172,0,.234l-1.3.75a.485.485,0,0,1-.438,0l-1.344-.782c-.109,0-.094-.172,0-.25l1.282-.735a.485.485,0,0,1,.453,0Z" transform="translate(-227.019 -34.468)" fill="#3a2c6d"/>
            <path id="Path_146" data-name="Path 146" d="M245.947,56.022l1.344.782c.109,0,.094.172,0,.25l-1.282.75a.532.532,0,0,1-.438,0l-1.344-.782c-.109,0-.094-.172,0-.25l1.25-.75A.485.485,0,0,1,245.947,56.022Z" transform="translate(-227.7 -34.858)" fill="#3a2c6d"/>
            <path id="Path_147" data-name="Path 147" d="M244.717,55.286l1.36.782c.109,0,.094.188,0,.25l-1.3.75a.453.453,0,0,1-.422,0L243,56.286c-.109,0-.094-.172,0-.25l1.3-.735a.453.453,0,0,1,.422-.016Z" transform="translate(-228.393 -35.263)" fill="#3a2c6d"/>
            <path id="Path_148" data-name="Path 148" d="M259.4,63.766l2.8,1.563c.109,0,.094.172,0,.25l-1.3.75a.5.5,0,0,1-.422,0l-2.8-1.563c-.109,0-.094-.172,0-.25l1.282-.735A.485.485,0,0,1,259.4,63.766Z" transform="translate(-220.127 -30.488)" fill="#3a2c6d"/>
            <path id="Path_149" data-name="Path 149" d="M259.967,62.729l1.344.782c.125,0,.109.172,0,.234l-1.282.75a.485.485,0,0,1-.438,0l-1.344-.782c-.109,0-.094-.172,0-.25l1.282-.735a.485.485,0,0,1,.438,0Z" transform="translate(-219.806 -31.076)" fill="#3a2c6d"/>
            <path id="Path_150" data-name="Path 150" d="M258.747,62.019l1.344.782c.109,0,.094.172,0,.25l-1.282.75a.531.531,0,0,1-.438,0l-1.344-.782c-.109,0-.094-.172,0-.25l1.282-.75a.484.484,0,0,1,.438,0Z" transform="translate(-220.493 -31.476)" fill="#3a2c6d"/>
            <path id="Path_151" data-name="Path 151" d="M257.517,61.306l1.36.782c.109,0,.094.188,0,.25l-1.3.75a.453.453,0,0,1-.422,0l-1.36-.782c-.109,0-.094-.172,0-.25l1.3-.735a.453.453,0,0,1,.422-.016Z" transform="translate(-221.185 -31.873)" fill="#3a2c6d"/>
            <path id="Path_152" data-name="Path 152" d="M256.3,60.609l1.36.782c.109,0,.094.172,0,.25l-1.3.735a.406.406,0,0,1-.422,0l-1.36-.766a.141.141,0,0,1,0-.25l1.3-.75a.453.453,0,0,1,.422,0Z" transform="translate(-221.872 -32.27)" fill="#3a2c6d"/>
            <path id="Path_153" data-name="Path 153" d="M255.077,59.9l1.344.782c.109,0,.109.172,0,.25l-1.282.75a.532.532,0,0,1-.438,0l-1.344-.782c-.109,0-.094-.172,0-.25l1.282-.75a.531.531,0,0,1,.438,0Z" transform="translate(-222.559 -32.668)" fill="#3a2c6d"/>
            <path id="Path_154" data-name="Path 154" d="M253.859,59.2l1.344.782c.109,0,.094.172,0,.234l-1.282.75a.485.485,0,0,1-.438,0l-1.344-.782c-.109,0-.109-.172,0-.25l1.282-.735A.485.485,0,0,1,253.859,59.2Z" transform="translate(-223.248 -33.064)" fill="#3a2c6d"/>
            <path id="Path_155" data-name="Path 155" d="M252.647,58.487l1.36.782c.109,0,.094.172,0,.25l-1.3.75a.5.5,0,0,1-.422,0l-1.36-.782c-.109,0-.094-.172,0-.25l1.3-.75a.5.5,0,0,1,.422,0Z" transform="translate(-223.927 -33.462)" fill="#3a2c6d"/>
            <path id="Path_156" data-name="Path 156" d="M251.407,57.776l1.36.782c.109,0,.094.188,0,.25l-1.3.75a.453.453,0,0,1-.422,0l-1.36-.782c-.109,0-.094-.172,0-.25l1.3-.735a.453.453,0,0,1,.422-.016Z" transform="translate(-224.626 -33.861)" fill="#3a2c6d"/>
            <path id="Path_157" data-name="Path 157" d="M250.187,57.082l1.344.782c.109,0,.094.172,0,.25l-1.282.735a.484.484,0,0,1-.438,0l-1.344-.782c-.109,0-.094-.188,0-.25l1.282-.75a.485.485,0,0,1,.438.016Z" transform="translate(-225.313 -34.261)" fill="#3a2c6d"/>
            <path id="Path_158" data-name="Path 158" d="M248.971,56.367l1.344.782c.109,0,.094.172,0,.25l-1.282.75a.532.532,0,0,1-.438,0l-1.344-.782c-.125,0-.109-.172,0-.25l1.282-.75a.531.531,0,0,1,.438,0Z" transform="translate(-226.004 -34.656)" fill="#3a2c6d"/>
            <path id="Path_159" data-name="Path 159" d="M247.737,55.669l1.36.782c.109,0,.094.172,0,.25l-1.3.735a.453.453,0,0,1-.422,0l-1.36-.782c-.109,0-.094-.172,0-.234l1.3-.75a.453.453,0,0,1,.422,0Z" transform="translate(-226.692 -35.052)" fill="#3a2c6d"/>
            <path id="Path_160" data-name="Path 160" d="M245.009,54.089l3.72,2.141c.109,0,.094.172,0,.25l-1.3.75a.531.531,0,0,1-.438,0l-3.7-2.157c-.109,0-.109-.172,0-.234l1.282-.75a.485.485,0,0,1,.438,0Z" transform="translate(-228.231 -35.941)" fill="#3a2c6d"/>
            <path id="Path_161" data-name="Path 161" d="M261.187,63.427l1.844,1.063c.109,0,.094.188,0,.25l-1.282.75a.485.485,0,0,1-.438,0l-1.844-1.063c-.109,0-.094-.172,0-.25l1.3-.75a.5.5,0,0,1,.422,0Z" transform="translate(-219.119 -30.68)" fill="#3a2c6d"/>
            <path id="Path_162" data-name="Path 162" d="M239.986,56.85l27.135,15.631c.109,0,.109.172,0,.25l-.641.36a.453.453,0,0,1-.422,0L238.907,57.46c-.109,0-.094-.172,0-.25l.641-.375a.531.531,0,0,1,.438.016Z" transform="translate(-230.696 -34.388)" fill="#3a2c6d"/>
            <path id="_Контур_4" data-name="&lt;Контур&gt;" d="M264.71,59.048l-.188.094-4.689,2.72L251.5,57.047l-.172-.109,4.861-2.8Z" transform="translate(-223.658 -35.883)" fill="#bfbfbf"/>
            <path id="_Контур_5" data-name="&lt;Контур&gt;" d="M264.46,59.069l-4.689,2.72-8.331-4.814,4.689-2.7Z" transform="translate(-223.596 -35.81)" fill="#e5e5e5"/>
            <path id="_Контур_6" data-name="&lt;Контур&gt;" d="M286.4,64.107v.422a1.7,1.7,0,0,1-.844,1.485l-16.537,9.535a1.673,1.673,0,0,1-1.7,0L237.4,58.355a1.719,1.719,0,0,1-.86-1.563V56.37l31.621,18.257Z" transform="translate(-231.986 -34.628)" fill="#e5e5e5"/>
            <path id="_Контур_7" data-name="&lt;Контур&gt;" d="M269.333,82.612a2.032,2.032,0,0,1-1.751-.125l-29.7-17.194a2.016,2.016,0,0,1-.985-1.422l-3.267-19.445a2.324,2.324,0,0,1,0-.328,1.985,1.985,0,0,1,.61-1.438l30.949,17.866a1.563,1.563,0,0,1,.719,1.047Z" transform="translate(-233.626 -42.347)" fill="#b2b2b2"/>
            <path id="_Контур_8" data-name="&lt;Контур&gt;" d="M269.591,82.475l-.2.125-.266.125L265.59,61.686a1.563,1.563,0,0,0-.719-1.047L234,42.773a1.344,1.344,0,0,1,.406-.313l31.012,17.9a1.563,1.563,0,0,1,.735,1.047Z" transform="translate(-233.416 -42.46)" fill="#e5e5e5"/>
          </g>
        </g>
        <path id="_Контур_9" data-name="&lt;Контур&gt;" d="M277.09,14.83s-.391,7.393-.219,8.05,3.392,2.829,4.33,3.611-5.111,6.753-8.05,8.1-12.286-2.2-12.5-6.8,1.563-8.425,3.032-8.628S277.09,14.83,277.09,14.83Z" transform="translate(-216.599 8.346)" fill="#eecdb5"/>
        <path id="_Контур_10" data-name="&lt;Контур&gt;" d="M280.533,23.148s-5.361,8-12.849,8.753c-2.36-2.329-2.579-10.613.688-13.255,0,0-3-2.438-5.064-1.954a10.551,10.551,0,0,0-4.689,5.893,48.143,48.143,0,0,0-2.642,17.194c.125,7.815,0,27.682,0,27.682a16.9,16.9,0,0,0,7.894,11.364,24.368,24.368,0,0,0,17.835,2.47c3.8-.891,5.205-3,6.518-5.768-.344-5.486-2.517-16.819-1.563-23.743s2.376-12.083,2.751-17.663-.735-5.486-3.548-7.487a43.941,43.941,0,0,0-5.33-3.486Z" transform="translate(-219.229 9.359)" fill="#0c0c1a"/>
        <path id="_Контур_11" data-name="&lt;Контур&gt;" d="M266.865,83.011a35.953,35.953,0,0,1,4.2-2.407,8.925,8.925,0,0,0,3.6-2.188c1.313-1.282,3.47-6.159,5.017-10.942a48.77,48.77,0,0,0,1.8-16.522c-.641-6.674-3.048-16.006-3.658-19.835s.625-5.377,2.423-6.784c2.095-1.657,4.986-.922,6.534,4.455a103.163,103.163,0,0,1,3.439,22.774,51.865,51.865,0,0,1-2.61,16.834A60.774,60.774,0,0,1,281.2,81.62c-.735,1.235-.985,2.345-2.11,4.877a17.007,17.007,0,0,1-4.908,6.534c-1.876,1.344-2.767,1.563-3.22,1.282s-.438-.922.36-1.563a14.193,14.193,0,0,0,3.345-3.767s-1.641,1.657-2.72,2.563a14.066,14.066,0,0,1-3.126,2c-1.094.485-2.626-.453-1.844-1.188s1.563-1.11,3.126-2.47a13.519,13.519,0,0,0,2.235-2.423,26.12,26.12,0,0,1-3.486,2.266,5.955,5.955,0,0,1-3.126.86c-.578,0-1.282-.844-.188-1.563a21.428,21.428,0,0,0,4.173-2.954c1.2-1.188,1.876-2.2,1.563-2.22s-1,.719-2.407,1.172-2.923,0-3.126-.735S265.552,83.652,266.865,83.011Z" transform="translate(-214.158 13.255)" fill="#ffcea9"/>
        <path id="_Контур_12" data-name="&lt;Контур&gt;" d="M260.615,11.29h0c.891-5.737,5.033-10.082,10.942-9.754a11.379,11.379,0,0,1,5.8,20.789,11.647,11.647,0,0,1-.922,2.517c-2.079,2.438-8.409,4-10.254,3.689a5.393,5.393,0,0,1-4.689-3.861C259.521,20.168,260.13,14.135,260.615,11.29Z" transform="translate(-216.88 0.851)" fill="#eecdb5"/>
        <path id="Path_163" data-name="Path 163" d="M277.063,23.179h0l-.547-5.017s4.1-10.6-5.58-8.566c-6.377,1.344-7.987,1.938-9.926-2.345S265.871-.893,274.046.186a11.223,11.223,0,0,1,10.066,11.395C283.909,14.738,283.065,21.116,277.063,23.179Z" transform="translate(-216.572 -0.003)" fill="#bc974d"/>
        <path id="Path_164" data-name="Path 164" d="M287,38.913s-5.283,5.252-11.52,3.736c-.891-.61-3.048-12.88-3.048-12.88s0-6.8,5.221-6.627S287,38.913,287,38.913Z" transform="translate(-209.954 13.024)" fill="#0c0c1a"/>
        <path id="Path_165" data-name="Path 165" d="M257.658,32.363a5.736,5.736,0,0,1-3.908-1.735c.219-2.751,3.736-13.192,10.8-13.958A13.052,13.052,0,0,0,260.143,22a67.693,67.693,0,0,0-2.485,10.363Z" transform="translate(-220.472 9.382)" fill="#ededed"/>
      </g>
      <path id="Path_166" data-name="Path 166" d="M511.778,427.193,381.229,351.822c-8.206-4.689-14.849-17.428-14.849-28.354v-205.4c0-10.942,6.643-15.943,14.849-11.223l130.548,75.387c8.19,4.689,14.834,17.428,14.834,28.354V416.017C526.611,426.959,519.968,431.93,511.778,427.193Z" transform="translate(206.239 59.154)" fill="#211b49"/>
      <path id="Path_167" data-name="Path 167" d="M462.74,316l4.47-2.2-3.017-5.924Z" transform="translate(260.497 173.351)" fill="#211b49"/>
      <path id="Path_168" data-name="Path 168" d="M367.94,107.285a26.123,26.123,0,0,1,4.127-1.985l3.314,6.549Z" transform="translate(207.117 59.288)" fill="#211b49"/>
      <path id="Path_169" data-name="Path 169" d="M509.588,428.3,379.024,352.877c-8.191-4.689-14.834-17.428-14.834-28.354V119.166c0-10.942,6.643-15.959,14.834-11.223L509.588,183.33c8.191,4.689,14.834,17.413,14.834,28.339v205.4C524.421,428,517.778,433.032,509.588,428.3Z" transform="translate(205.006 59.771)" fill="#2e245b"/>
      <path id="Path_170" data-name="Path 170" d="M397.423,142.724,373.68,129.016V120.45l23.743,13.708Z" transform="translate(210.349 67.818)" fill="#a298e2"/>
      <path id="Path_171" data-name="Path 171" d="M492.6,197.676,391.72,139.42v-8.55L492.6,189.11Z" transform="translate(220.507 73.686)" fill="#c33afc"/>
      <path id="Path_172" data-name="Path 172" d="M397.423,160.264,373.68,146.556V137.99L397.423,151.7Z" transform="translate(210.349 77.695)" fill="#a298e2"/>
      <path id="Path_173" data-name="Path 173" d="M458.479,195.511,391.72,156.966V148.4l66.759,38.546Z" transform="translate(220.507 83.556)" fill="#f4ce2c"/>
      <path id="Path_174" data-name="Path 174" d="M397.423,169.018,373.68,155.326V146.76l23.743,13.693Z" transform="translate(210.349 82.633)" fill="#a298e2"/>
      <path id="Path_175" data-name="Path 175" d="M474.8,213.707,391.72,165.736V157.17L474.8,205.141Z" transform="translate(220.507 88.495)" fill="#ff8657"/>
      <path id="Path_176" data-name="Path 176" d="M397.423,177.794,373.68,164.086V155.52l23.743,13.708Z" transform="translate(210.349 87.566)" fill="#a298e2"/>
      <path id="Path_177" data-name="Path 177" d="M449.585,207.909l-57.865-33.4V165.94l57.865,33.4Z" transform="translate(220.507 93.433)" fill="#a298e2"/>
      <path id="Path_178" data-name="Path 178" d="M397.423,151.494,373.68,137.786V129.22l23.743,13.708Z" transform="translate(210.349 72.757)" fill="#a298e2"/>
      <path id="Path_179" data-name="Path 179" d="M442.161,177.331,391.72,148.2V139.63l50.441,29.12Z" transform="translate(220.507 78.618)" fill="#4d3bff"/>
      <path id="Path_180" data-name="Path 180" d="M397.423,186.564,373.68,172.856V164.29L397.423,178Z" transform="translate(210.349 92.504)" fill="#a298e2"/>
      <path id="Path_181" data-name="Path 181" d="M421.387,200.4,391.72,183.266V174.7l29.667,17.131Z" transform="translate(220.507 98.365)" fill="#c33afc"/>
      <path id="Path_182" data-name="Path 182" d="M397.423,204.088,373.68,190.4V181.83l23.743,13.708Z" transform="translate(210.349 102.38)" fill="#a298e2"/>
      <path id="Path_183" data-name="Path 183" d="M485.192,254.763,391.72,200.806V192.24L485.192,246.2Z" transform="translate(220.507 108.242)" fill="#f4ce2c"/>
      <path id="Path_184" data-name="Path 184" d="M397.423,212.864,373.68,199.156V190.59L397.423,204.3Z" transform="translate(210.349 107.313)" fill="#a298e2"/>
      <path id="Path_185" data-name="Path 185" d="M419.9,225.847,391.72,209.576V201.01L419.9,217.282Z" transform="translate(220.507 113.18)" fill="#ff8657"/>
      <path id="Path_186" data-name="Path 186" d="M397.423,221.634,373.68,207.926V199.36l23.743,13.708Z" transform="translate(210.349 112.251)" fill="#a298e2"/>
      <path id="Path_187" data-name="Path 187" d="M474.8,266.3,391.72,218.33v-8.55L474.8,257.735Z" transform="translate(220.507 118.118)" fill="#a298e2"/>
      <path id="Path_188" data-name="Path 188" d="M397.423,195.334,373.68,181.626V173.06l23.743,13.708Z" transform="translate(210.349 97.442)" fill="#a298e2"/>
      <path id="Path_189" data-name="Path 189" d="M470.343,237.443,391.72,192.036V183.47l78.623,45.407Z" transform="translate(220.507 103.304)" fill="#4d3bff"/>
      <path id="Path_190" data-name="Path 190" d="M397.423,230.4,373.68,216.7V208.13l23.743,13.708Z" transform="translate(210.349 117.189)" fill="#a298e2"/>
      <path id="Path_191" data-name="Path 191" d="M402.1,233.108l-10.379-6V218.54l10.379,6Z" transform="translate(220.507 123.051)" fill="#c33afc"/>
      <path id="Path_192" data-name="Path 192" d="M397.423,247.928,373.68,234.236V225.67l23.743,13.708Z" transform="translate(210.349 127.066)" fill="#a298e2"/>
      <path id="Path_193" data-name="Path 193" d="M411.008,255.775,391.72,244.646V236.08l19.288,11.129Z" transform="translate(220.507 132.927)" fill="#f4ce2c"/>
      <path id="Path_194" data-name="Path 194" d="M397.423,256.7,373.68,243V234.43l23.743,13.708Z" transform="translate(210.349 131.998)" fill="#a298e2"/>
      <path id="Path_195" data-name="Path 195" d="M442.161,282.536l-50.441-29.12V244.85l50.441,29.12Z" transform="translate(220.507 137.866)" fill="#ff8657"/>
      <path id="Path_196" data-name="Path 196" d="M397.423,265.474,373.68,251.766V243.2l23.743,13.708Z" transform="translate(210.349 136.936)" fill="#a298e2"/>
      <path id="Path_197" data-name="Path 197" d="M471.828,308.443,391.72,262.176V253.61l80.108,46.267Z" transform="translate(220.507 142.798)" fill="#a298e2"/>
      <path id="Path_198" data-name="Path 198" d="M397.423,239.174,373.68,225.466V216.9l23.743,13.708Z" transform="translate(210.349 122.127)" fill="#a298e2"/>
      <path id="Path_199" data-name="Path 199" d="M492.6,294.132,391.72,235.876V227.31L492.6,285.55Z" transform="translate(220.507 127.989)" fill="#4d3bff"/>
      <path id="Path_200" data-name="Path 200" d="M56.436,267.927l-14.255-7.315L12.31,277.806c-6.768,3.908-12.27.75-12.27-7.081V238.182a27.135,27.135,0,0,1,12.27-21.258L190.2,114.183c6.768-3.908,12.27-.735,12.27,7.081v32.653a27.135,27.135,0,0,1-12.27,21.258L70.6,244.168" transform="translate(-0.04 63.347)" fill="#b1b4c4"/>
      <path id="Path_201" data-name="Path 201" d="M127.781,112.77l6.721,2.72-5.69,5.846-4.033-6.456Z" transform="translate(70.199 63.494)" fill="#b1b4c4"/>
      <path id="Path_202" data-name="Path 202" d="M36.12,213.562l7.081,2.845.016-6.1-6.268-1.25Z" transform="translate(20.276 117.713)" fill="#b1b4c4"/>
      <path id="Path_203" data-name="Path 203" d="M10.478,224.378c.266.563-7.675-2.688-7.956-3.126S12.151,215,12.151,215Z" transform="translate(1.354 121.058)" fill="#b1b4c4"/>
      <path id="Path_204" data-name="Path 204" d="M75.15,245.967l119.607-69.041a27.182,27.182,0,0,0,12.27-21.258v-32.59c0-7.815-5.5-10.942-12.27-7.1L16.8,218.723A27.166,27.166,0,0,0,4.53,239.981v32.59c0,7.815,5.5,10.942,12.27,7.081l29.87-17.194,14.318,7.331Z" transform="translate(2.488 64.378)" fill="#e9eaf2"/>
      <path id="Path_205" data-name="Path 205" d="M185.319,137.618,14.74,236.092V224.76l170.579-98.49Z" transform="translate(8.237 71.096)" fill="#1da977"/>
      <path id="Path_206" data-name="Path 206" d="M126.422,172.068,14.74,236.545V225.2L126.422,160.72Z" transform="translate(8.237 90.494)" fill="#1da977"/>
    </g>
  </g>
</svg>
