<svg width="23" height="21" viewBox="0 0 23 21" fill="none" xmlns="http://www.w3.org/2000/svg">
<path d="M10.7091 5.44734L3.66723 12.5653V20.2477C3.66723 20.4466 3.73161 20.6373 3.84622 20.778C3.96082 20.9186 4.11626 20.9977 4.27834 20.9977L8.5584 20.9841C8.71994 20.9831 8.8746 20.9036 8.98854 20.7631C9.10249 20.6225 9.16645 20.4323 9.16645 20.2341V15.7477C9.16645 15.5487 9.23083 15.358 9.34544 15.2173C9.46004 15.0767 9.61548 14.9977 9.77756 14.9977H12.222C12.3841 14.9977 12.5395 15.0767 12.6541 15.2173C12.7687 15.358 12.8331 15.5487 12.8331 15.7477V20.2308C12.8329 20.3295 12.8485 20.4273 12.8791 20.5185C12.9097 20.6098 12.9546 20.6927 13.0114 20.7626C13.0682 20.8325 13.1356 20.888 13.2099 20.9258C13.2842 20.9637 13.3638 20.9831 13.4442 20.9831L17.7227 20.9977C17.8848 20.9977 18.0403 20.9186 18.1549 20.778C18.2695 20.6373 18.3339 20.4466 18.3339 20.2477V12.5602L11.2935 5.44734C11.2107 5.36546 11.1076 5.32082 11.0013 5.32082C10.895 5.32082 10.7919 5.36546 10.7091 5.44734ZM21.8325 10.2853L18.6394 7.05516V0.5625C18.6394 0.413316 18.5911 0.270242 18.5052 0.164753C18.4192 0.0592633 18.3026 0 18.1811 0H16.0422C15.9206 0 15.8041 0.0592633 15.7181 0.164753C15.6321 0.270242 15.5839 0.413316 15.5839 0.5625V3.96609L12.1643 0.513281C11.8362 0.181865 11.4244 0.000662506 10.9994 0.000662506C10.5744 0.000662506 10.1626 0.181865 9.83447 0.513281L0.166336 10.2853C0.119925 10.3324 0.0815273 10.3902 0.0533368 10.4555C0.0251463 10.5208 0.00771555 10.5923 0.0020404 10.6659C-0.00363475 10.7394 0.00255698 10.8137 0.0202618 10.8843C0.0379666 10.9549 0.0668375 11.0206 0.105225 11.0775L1.07918 12.5306C1.11746 12.5878 1.16455 12.6351 1.21775 12.6698C1.27095 12.7046 1.32921 12.7261 1.3892 12.7332C1.44919 12.7403 1.50974 12.7328 1.56737 12.7112C1.62499 12.6895 1.67858 12.6541 1.72505 12.607L10.7091 3.52547C10.7919 3.44359 10.895 3.39894 11.0013 3.39894C11.1076 3.39894 11.2107 3.44359 11.2935 3.52547L20.2779 12.607C20.3243 12.6541 20.3778 12.6896 20.4354 12.7113C20.4929 12.733 20.5534 12.7406 20.6133 12.7337C20.6733 12.7267 20.7315 12.7053 20.7847 12.6707C20.8379 12.6361 20.8851 12.589 20.9234 12.532L21.8974 11.0789C21.9357 11.0216 21.9645 10.9557 21.982 10.8847C21.9995 10.8138 22.0054 10.7393 21.9993 10.6655C21.9933 10.5918 21.9755 10.5202 21.9468 10.455C21.9182 10.3897 21.8793 10.3321 21.8325 10.2853Z" fill="white"/>
</svg>
