<svg width="478" height="442" viewBox="0 0 478 442" fill="none" xmlns="http://www.w3.org/2000/svg">
<path fill-rule="evenodd" clip-rule="evenodd" d="M444.996 206H253.004C232.484 184.131 220 155.211 220 123.5C220 55.2928 277.755 0 349 0C420.245 0 478 55.2928 478 123.5C478 155.211 465.516 184.131 444.996 206Z" fill="#ECE4F1"/>
<path d="M461.565 440.974H265.215V442H461.565V440.974Z" fill="#3F3D56"/>
<path d="M446.545 426.093H250.195V427.119H446.545V426.093Z" fill="#3F3D56"/>
<path d="M384.32 411.212H187.97V412.238H384.32V411.212Z" fill="#3F3D56"/>
<path d="M141.294 366.351C140.104 366.351 138.901 366.329 137.721 366.285L137.747 365.259C139.443 365.322 141.173 365.34 142.876 365.312L142.887 366.338C142.357 366.347 141.826 366.351 141.294 366.351ZM148.051 366.113L148.001 365.089C149.699 364.969 151.418 364.801 153.112 364.589L153.201 365.609C151.495 365.823 149.762 365.993 148.051 366.113H148.051ZM132.561 365.953C130.849 365.796 129.119 365.591 127.419 365.341L127.524 364.323C129.211 364.57 130.928 364.775 132.627 364.93L132.561 365.953ZM158.326 364.825L158.198 363.811C159.884 363.504 161.584 363.149 163.248 362.754L163.416 363.76C161.738 364.158 160.026 364.517 158.326 364.825ZM122.307 364.449C120.615 364.107 118.908 363.713 117.233 363.278L117.415 362.275C119.078 362.707 120.772 363.097 122.45 363.437L122.307 364.449ZM168.46 362.416L168.253 361.42C169.909 360.931 171.574 360.389 173.202 359.812L173.446 360.796C171.806 361.378 170.128 361.923 168.46 362.416ZM112.21 361.828C110.551 361.3 108.882 360.72 107.248 360.102L107.507 359.124C109.128 359.737 110.784 360.313 112.43 360.836L112.21 361.828ZM178.365 358.903L178.083 357.933C179.69 357.265 181.306 356.543 182.887 355.787L183.206 356.74C181.613 357.502 179.984 358.23 178.365 358.903ZM102.345 358.099C100.734 357.391 99.1129 356.627 97.5271 355.828L97.8603 354.882C99.4339 355.674 101.043 356.433 102.642 357.136L102.345 358.099ZM187.947 354.318L187.592 353.384C189.135 352.546 190.686 351.651 192.202 350.724L192.592 351.638C191.065 352.572 189.502 353.473 187.947 354.318ZM197.13 348.705L196.705 347.814C198.185 346.804 199.662 345.743 201.095 344.659L201.553 345.526C200.11 346.618 198.622 347.688 197.13 348.705ZM205.852 342.107L205.36 341.266C206.754 340.102 208.144 338.883 209.493 337.643L210.016 338.457C208.657 339.706 207.256 340.935 205.852 342.107ZM75.0395 340.662C73.6542 339.459 72.2704 338.199 70.9262 336.915L71.4618 336.114C72.7957 337.387 74.169 338.638 75.5436 339.831L75.0395 340.662ZM214.038 334.584L213.485 333.799C214.784 332.488 216.076 331.123 217.327 329.74L217.91 330.494C216.65 331.887 215.347 333.263 214.038 334.584ZM66.9609 332.949C65.6708 331.598 64.389 330.193 63.1515 328.772L63.7457 328.032C64.9741 329.442 66.246 330.836 67.5263 332.177L66.9609 332.949ZM221.622 326.195L221.011 325.475C222.209 324.024 223.393 322.523 224.531 321.013L225.169 321.699C224.022 323.221 222.829 324.734 221.622 326.195ZM59.5059 324.393C58.3222 322.905 57.1532 321.367 56.0313 319.821L56.6796 319.149C57.7929 320.683 58.9529 322.209 60.1278 323.686L59.5059 324.393ZM228.54 317.015L227.877 316.363C228.959 314.789 230.024 313.165 231.043 311.535L231.731 312.149C230.703 313.792 229.63 315.429 228.54 317.015ZM52.7351 315.066C51.6721 313.46 50.6254 311.802 49.624 310.138L50.3205 309.538C51.3144 311.19 52.353 312.835 53.4081 314.43L52.7351 315.066ZM234.732 307.114L234.022 306.538C234.979 304.853 235.917 303.118 236.808 301.382L237.54 301.919C236.641 303.668 235.696 305.416 234.732 307.114ZM46.7051 305.046C45.77 303.332 44.8547 301.568 43.9845 299.802L44.7237 299.281C45.5874 301.034 46.4958 302.784 47.4239 304.485L46.7051 305.046ZM240.146 296.574L239.395 296.078C240.219 294.295 241.019 292.464 241.775 290.635L242.544 291.091C241.783 292.933 240.976 294.778 240.146 296.574ZM244.729 285.48L243.943 285.068C244.627 283.2 245.284 281.287 245.895 279.383L246.696 279.751C246.08 281.67 245.418 283.597 244.729 285.48ZM37.0686 283.265C36.4107 281.377 35.7806 279.445 35.196 277.523L36.0027 277.172C36.5827 279.08 37.208 280.997 37.8607 282.87L37.0686 283.265ZM248.44 273.918L247.626 273.595C248.161 271.665 248.667 269.693 249.128 267.732L249.954 268.01C249.489 269.986 248.98 271.974 248.44 273.918ZM33.5427 271.669C33.032 269.713 32.5522 267.715 32.1166 265.73L32.9468 265.469C33.379 267.439 33.8553 269.422 34.362 271.363L33.5427 271.669ZM251.238 262.024L250.402 261.792C250.786 259.814 251.137 257.794 251.446 255.789L252.29 255.975C251.979 257.995 251.625 260.031 251.238 262.024ZM30.9214 259.718C30.5635 257.714 30.2395 255.672 29.9587 253.648L30.8053 253.479C31.0842 255.488 31.4056 257.515 31.7608 259.504L30.9214 259.718ZM253.108 249.874L252.257 249.735C252.488 247.725 252.683 245.676 252.837 243.643L253.692 243.735C253.537 245.784 253.34 247.849 253.108 249.874H253.108ZM29.23 247.531C29.0275 245.5 28.8614 243.431 28.7359 241.382L29.592 241.306C29.7163 243.34 29.8814 245.394 30.0824 247.41L29.23 247.531ZM254.041 237.572L253.184 237.526C253.26 235.492 253.299 233.429 253.299 231.395H254.158C254.158 233.445 254.119 235.523 254.041 237.572ZM28.4758 235.21C28.4465 233.952 28.4316 232.668 28.4314 231.395C28.4314 230.606 28.4371 229.817 28.4484 229.031L29.3066 229.049C29.2953 229.829 29.2897 230.612 29.2897 231.395C29.2899 232.659 29.3048 233.933 29.3337 235.182L28.4758 235.21ZM29.5103 222.922L28.6537 222.858C28.7608 220.807 28.9087 218.736 29.0929 216.702L29.9462 216.812C29.7632 218.831 29.6168 220.887 29.5103 222.922H29.5103ZM252.745 216.661C252.574 214.637 252.338 213.651 252.089 211.637L252.938 211.487C253.189 213.516 253.404 215.066 253.577 217.104L252.745 216.661ZM30.6144 210.733L29.7662 210.576C30.0291 208.546 30.3346 206.5 30.6743 204.494L31.5154 204.697C31.1785 206.688 30.8753 208.719 30.6144 210.733H30.6144ZM251.223 205.594C250.895 203.592 250.526 201.577 250.125 199.604L250.959 199.362C251.363 201.349 251.735 203.38 252.065 205.397L251.223 205.594ZM32.6473 198.717L31.8148 198.468C32.2316 196.48 32.6932 194.476 33.1869 192.51L34.0087 192.805C33.519 194.756 33.061 196.745 32.6473 198.717ZM248.797 193.681C248.318 191.727 247.795 189.762 247.243 187.838L248.054 187.505C248.611 189.443 249.139 191.424 249.621 193.393L248.797 193.681ZM35.6018 186.959L34.7922 186.619C35.3625 184.679 35.9784 182.73 36.6225 180.825L37.4183 181.21C36.779 183.1 36.1678 185.034 35.6018 186.959ZM245.464 182.087C244.838 180.198 244.168 178.303 243.471 176.453L244.254 176.032C244.956 177.896 245.631 179.806 246.262 181.709L245.464 182.087ZM39.454 175.569L38.6741 175.14C39.3909 173.274 40.1539 171.402 40.9417 169.577L41.7045 170.047C40.9225 171.859 40.1654 173.716 39.454 175.569ZM241.264 170.932C240.496 169.121 239.682 167.305 238.845 165.537L239.592 165.031C240.435 166.813 241.255 168.643 242.029 170.468L241.264 170.932ZM44.1647 164.657L43.4208 164.145C44.277 162.367 45.1799 160.588 46.1046 158.856L46.8279 159.409C45.9103 161.127 45.0142 162.893 44.1647 164.657ZM236.221 160.277C235.314 158.551 234.365 156.831 233.399 155.165L234.104 154.581C235.077 156.259 236.034 157.992 236.948 159.732L236.221 160.277ZM49.689 154.313L48.9874 153.721C49.9769 152.043 51.0114 150.371 52.0628 148.75L52.7409 149.379C51.6976 150.988 50.6707 152.648 49.689 154.313ZM230.383 150.212C229.349 148.592 228.272 146.981 227.181 145.425L227.839 144.766C228.938 146.334 230.023 147.957 231.065 149.589L230.383 150.212ZM55.9773 144.619L55.3239 143.953C56.4343 142.394 57.5916 140.842 58.7635 139.34L59.3909 140.04C58.2279 141.531 57.0794 143.071 55.9773 144.619ZM223.8 140.818C222.647 139.317 221.451 137.83 220.246 136.397L220.851 135.669C222.065 137.113 223.27 138.611 224.432 140.123L223.8 140.818ZM62.9742 135.653L62.3741 134.92C63.6014 133.484 64.8714 132.065 66.1485 130.701L66.7201 131.467C65.4526 132.82 64.1923 134.228 62.9742 135.653V135.653ZM216.527 132.174C215.264 130.804 213.959 129.452 212.65 128.157L213.197 127.367C214.516 128.672 215.831 130.033 217.104 131.414L216.527 132.174ZM70.6207 127.488L70.0789 126.693C71.4063 125.4 72.7781 124.125 74.1565 122.903L74.6678 123.728C73.2997 124.94 71.9381 126.206 70.6207 127.488V127.488ZM78.8525 120.193L78.3735 119.342C79.7941 118.199 81.2567 117.079 82.7208 116.014L83.1667 116.891C81.714 117.948 80.2625 119.059 78.8525 120.193ZM87.6016 113.829L87.1896 112.929C88.6926 111.945 90.2338 110.991 91.7702 110.093L92.1473 111.015C90.6227 111.906 89.0933 112.853 87.6016 113.829H87.6016ZM191.182 111.452C189.655 110.542 188.091 109.663 186.533 108.839L186.88 107.901C188.45 108.73 190.027 109.616 191.565 110.533L191.182 111.452ZM96.7945 108.453L96.4534 107.511C98.0241 106.697 99.6308 105.916 101.229 105.19L101.533 106.15C99.9477 106.87 98.3533 107.645 96.7945 108.453H96.7945ZM181.786 106.485C180.197 105.748 178.57 105.045 176.951 104.396L177.225 103.422C178.856 104.077 180.495 104.785 182.096 105.528L181.786 106.485ZM106.368 104.106L106.101 103.131C107.732 102.491 109.396 101.889 111.047 101.342L111.276 102.33C109.638 102.874 107.986 103.471 106.368 104.106ZM172.053 102.58C170.416 102.022 168.747 101.502 167.091 101.035L167.288 100.037C168.957 100.507 170.639 101.031 172.289 101.593L172.053 102.58ZM116.248 100.827L116.056 99.8267C117.729 99.37 119.432 98.9538 121.119 98.59L121.271 99.5997C119.597 99.961 117.907 100.374 116.248 100.827ZM162.074 99.7666C160.403 99.3915 158.701 99.0578 157.014 98.7746L157.133 97.7584C158.833 98.0438 160.548 98.38 162.232 98.7578L162.074 99.7666ZM126.338 98.6499L126.224 97.6326C127.923 97.3615 129.651 97.1335 131.359 96.9556L131.434 97.9779C129.738 98.1548 128.024 98.3808 126.338 98.6499ZM151.921 98.061C150.23 97.8706 148.51 97.7238 146.806 97.6253L146.848 96.6001C148.564 96.6995 150.298 96.8474 152.002 97.0393L151.921 98.061ZM136.552 97.5842L136.516 96.559C138.093 96.4803 139.701 96.4402 141.294 96.4397L141.683 96.4404L141.68 97.4667L141.294 97.466C139.713 97.4665 138.117 97.5063 136.552 97.5842Z" fill="#3F3D56"/>
<path d="M334.067 190.747L331.921 208.194C331.921 208.194 322.48 230.772 328.488 253.864L336.212 248.219C336.212 248.219 342.22 220.509 342.22 218.457C342.22 216.404 344.795 192.287 344.795 192.287L334.067 190.747Z" fill="#FFB9B9"/>
<path d="M338.358 246.679L328.059 254.89L333.208 285.165C333.208 285.165 334.496 326.216 334.067 327.756C333.637 329.295 325.913 391.898 325.913 391.898C325.913 391.898 334.925 397.029 343.078 393.951C343.078 393.951 351.232 347.768 351.232 334.426L360.673 287.731L375.264 341.097C375.264 341.097 376.122 377.017 377.839 388.819C379.555 400.621 379.555 402.161 379.555 402.161C379.555 402.161 393.287 406.779 396.721 402.161C396.721 402.161 395.004 341.61 393.717 335.453L390.713 262.074L338.358 246.679Z" fill="#2F2E41"/>
<path d="M329.346 391.898C329.346 391.898 328.488 390.358 325.913 394.463C323.338 398.569 315.185 406.266 315.185 406.266C315.185 406.266 292.869 425.252 309.606 426.278C326.342 427.304 329.346 417.042 329.346 417.042C329.346 417.042 343.508 413.963 343.937 410.371C344.366 406.779 342.22 392.411 342.22 392.411L329.346 391.898Z" fill="#2F2E41"/>
<path d="M380.413 401.135C380.413 401.135 377.409 413.45 378.268 418.581C379.126 423.713 376.551 442.699 388.567 441.159C400.583 439.62 396.721 423.2 396.721 423.2L392.858 402.161L380.413 401.135Z" fill="#2F2E41"/>
<path d="M363.462 132.506C371.284 132.506 377.624 124.924 377.624 115.572C377.624 106.22 371.284 98.6387 363.462 98.6387C355.641 98.6387 349.301 106.22 349.301 115.572C349.301 124.924 355.641 132.506 363.462 132.506Z" fill="#FFB9B9"/>
<path d="M355.094 124.552C355.094 124.552 359.386 142.512 355.953 149.183C352.519 155.854 379.126 150.209 380.842 144.052C380.842 144.052 372.26 132.763 373.547 121.987L355.094 124.552Z" fill="#FFB9B9"/>
<path d="M361.961 148.67C361.961 148.67 373.708 149.619 379.421 141.961L400.583 152.775L391.571 212.299C391.571 212.299 409.595 262.587 393.288 267.205C376.98 271.823 329.775 267.205 331.921 250.271C334.067 233.338 342.649 212.812 342.649 212.812C342.649 212.812 344.795 190.234 340.075 179.971C335.354 169.709 338.358 157.906 338.358 157.906L357.248 142.941C357.248 142.941 358.098 148.67 361.961 148.67Z" fill="#575A89"/>
<path d="M343.508 158.419H338.358C338.358 158.419 332.35 159.959 333.638 179.458L330.634 193.313C330.634 193.313 345.653 197.931 347.799 195.365C349.945 192.8 343.508 158.419 343.508 158.419Z" fill="#575A89"/>
<path d="M405.733 189.208L404.016 207.168C404.016 207.168 406.162 230.772 398.866 249.245L396.291 258.482C396.291 258.482 393.717 285.165 386.85 285.165C379.984 285.165 386.85 254.89 386.85 254.89L390.284 224.614C390.284 224.614 392.858 212.812 391.142 207.681C389.425 202.549 388.996 191.773 388.996 191.773L405.733 189.208Z" fill="#FFB9B9"/>
<path d="M359.983 104.492C362.085 104.099 364.203 103.848 366.329 103.74C367.869 103.661 369.473 103.674 370.864 104.466C372.963 105.661 374.138 108.362 374.908 110.984C375.677 113.606 376.223 116.408 377.651 118.601C380.027 115.636 380.501 111.227 380.855 107.143C381.104 104.27 381.324 101.207 380.213 98.6426C379.529 97.0631 378.4 95.8322 377.257 94.6942C371.798 89.2618 364.866 84.9872 357.838 86.2074L357.673 87.5048C356.474 87.4617 355.274 87.5519 354.088 87.7742L354.339 90.9931L350.606 91.2763L350.463 94.6311L346.688 94.7876C346.76 96.0767 347.23 97.2881 348.005 98.1883C347.424 98.69 346.764 99.0463 346.066 99.2356C346.695 102.15 347.306 105.071 347.957 107.978C348.436 110.12 348.35 112.012 350.272 110.967C351.734 110.171 352.724 107.64 354.203 106.595C355.945 105.363 358.008 104.861 359.983 104.492Z" fill="#2F2E41"/>
<path d="M394.575 153.288H400.583C400.583 153.288 410.453 192.8 408.736 193.313C407.02 193.826 386.85 195.366 386.85 195.366L394.575 153.288Z" fill="#575A89"/>
<path d="M138.5 272C161.972 272 181 252.972 181 229.5C181 206.028 161.972 187 138.5 187C115.028 187 96 206.028 96 229.5C96 252.972 115.028 272 138.5 272Z" fill="#0C0E1C"/>
<path d="M160.91 224.871H142.457V202.806H135.591V224.871H117.138V233.081H135.591V255.146H142.457V233.081H160.91V224.871Z" fill="white"/>
<path d="M78.0005 299.188H30.7299V365.041H78.0005V299.188Z" fill="#F2F2F2"/>
<path d="M96.358 365.59H30.2709V286.566H96.358V365.59ZM31.1887 364.492H95.4401V287.664H31.1887V364.492Z" fill="#3F3D56"/>
<path d="M84.4256 309.615H44.0391V310.712H84.4256V309.615Z" fill="#3F3D56"/>
<path d="M84.4256 321.688H44.0391V322.785H84.4256V321.688Z" fill="#3F3D56"/>
<path d="M84.4256 333.761H44.0391V334.858H84.4256V333.761Z" fill="#3F3D56"/>
<path d="M191.735 82.7173H96.4664V139.248H191.735V82.7173Z" fill="#F2F2F2"/>
<path d="M211.046 139.761H96.0374V71H211.046V139.761ZM96.8956 138.734H210.188V72.0263H96.8956V138.734Z" fill="#3F3D56"/>
<path d="M174.985 99.6931H113.216V100.719H174.985V99.6931Z" fill="#3F3D56"/>
<path d="M174.985 110.469H113.216V111.496H174.985V110.469Z" fill="#3F3D56"/>
<path d="M174.985 121.245H113.216V122.271H174.985V121.245Z" fill="#3F3D56"/>
<path d="M267.768 225H227V276.827H267.768V225Z" fill="#F2F2F2"/>
<path d="M278.493 277.724H226.997V216.148H278.493V277.724ZM227.855 276.698H277.635V217.174H227.855V276.698Z" fill="#3F3D56"/>
<path d="M261.971 244.114H233.648V245.14H261.971V244.114Z" fill="#3F3D56"/>
<path d="M261.971 250.785H233.648V251.811H261.971V250.785Z" fill="#3F3D56"/>
<path d="M261.971 257.455H233.648V258.482H261.971V257.455Z" fill="#3F3D56"/>
<path d="M251.717 138.734H55.3666V139.761H251.717V138.734Z" fill="#3F3D56"/>
<path d="M306.602 276.698H198.888V277.724H306.602V276.698Z" fill="#3F3D56"/>
<path d="M126.629 364.958H0V365.984H126.629V364.958Z" fill="#3F3D56"/>
</svg>
