<svg width="555" height="429" viewBox="0 0 555 429" fill="none" xmlns="http://www.w3.org/2000/svg">
<path d="M131.669 296.487L175.942 228.601L76.7914 167.125L25.5872 245.639L107.597 296.487H131.669Z" fill="#459A4C"/>
<path d="M194.408 317.665H84.7416V296.14H194.408V317.665ZM86.1657 316.276H192.984V297.529H86.1657V316.276Z" fill="#3F3D56"/>
<path d="M180.878 313.846C184.811 313.846 187.999 310.737 187.999 306.902C187.999 303.068 184.811 299.959 180.878 299.959C176.945 299.959 173.756 303.068 173.756 306.902C173.756 310.737 176.945 313.846 180.878 313.846Z" fill="#56087B"/>
<path d="M160.938 313.846C164.871 313.846 168.059 310.737 168.059 306.902C168.059 303.068 164.871 299.959 160.938 299.959C157.005 299.959 153.817 303.068 153.817 306.902C153.817 310.737 157.005 313.846 160.938 313.846Z" fill="#56087B"/>
<path d="M140.999 313.846C144.932 313.846 148.121 310.737 148.121 306.902C148.121 303.068 144.932 299.959 140.999 299.959C137.066 299.959 133.878 303.068 133.878 306.902C133.878 310.737 137.066 313.846 140.999 313.846Z" fill="#56087B"/>
<path d="M121.059 313.846C124.992 313.846 128.181 310.737 128.181 306.902C128.181 303.068 124.992 299.959 121.059 299.959C117.126 299.959 113.938 303.068 113.938 306.902C113.938 310.737 117.126 313.846 121.059 313.846Z" fill="#56087B"/>
<path d="M101.121 313.846C105.054 313.846 108.242 310.737 108.242 306.902C108.242 303.068 105.054 299.959 101.121 299.959C97.1878 299.959 93.9995 303.068 93.9995 306.902C93.9995 310.737 97.1878 313.846 101.121 313.846Z" fill="#56087B"/>
<path d="M324.725 78.4615V25.6909H351.786V0H219.332V129.149H332.559V116.521C332.559 114.168 333.034 111.837 333.957 109.663C334.882 107.487 336.236 105.512 337.942 103.847C339.65 102.183 341.676 100.863 343.907 99.962C346.136 99.0612 348.527 98.5976 350.942 98.5976H351.786V78.4615H324.725Z" fill="#4CAC7D"/>
<path d="M471.421 333.288H383.119V351.34H471.421V333.288Z" fill="#4CAC7D"/>
<path d="M490.649 244.412H361.043V261.075H490.649V244.412Z" fill="#F0F0F0"/>
<path d="M554.026 427.024H0V428.413H554.026V427.024Z" fill="#3F3D56"/>
<path d="M512.856 428.414H350.942C345.878 428.408 341.025 426.445 337.446 422.954C333.865 419.463 331.852 414.732 331.846 409.795V116.521C331.852 111.586 333.865 106.853 337.445 103.363C341.025 99.8723 345.878 97.9089 350.942 97.9033H512.856C517.918 97.9089 522.772 99.8723 526.351 103.363C529.932 106.853 531.946 111.586 531.951 116.521V409.795C531.946 414.732 529.932 419.463 526.351 422.954C522.772 426.445 517.918 428.408 512.856 428.414ZM350.942 99.292C346.256 99.2972 341.765 101.114 338.452 104.344C335.14 107.574 333.276 111.954 333.27 116.521V409.795C333.276 414.363 335.14 418.743 338.452 421.972C341.765 425.203 346.256 427.02 350.942 427.025H512.856C517.541 427.02 522.033 425.203 525.345 421.972C528.658 418.743 530.522 414.363 530.527 409.795V116.521C530.522 111.954 528.658 107.574 525.345 104.344C522.033 101.114 517.541 99.2972 512.856 99.292H350.942Z" fill="#3F3D56"/>
<path d="M412.671 111.791C411.826 111.791 411 111.546 410.298 111.088C409.595 110.631 409.048 109.98 408.724 109.218C408.4 108.457 408.316 107.62 408.481 106.811C408.645 106.004 409.053 105.261 409.65 104.678C410.248 104.096 411.009 103.699 411.838 103.538C412.667 103.378 413.526 103.461 414.306 103.775C415.087 104.091 415.754 104.625 416.224 105.31C416.693 105.995 416.945 106.8 416.945 107.625C416.942 108.729 416.492 109.788 415.691 110.569C414.89 111.35 413.804 111.789 412.671 111.791ZM412.671 104.847C412.108 104.847 411.558 105.01 411.089 105.315C410.62 105.62 410.256 106.054 410.039 106.561C409.824 107.069 409.768 107.628 409.878 108.166C409.987 108.705 410.259 109.2 410.658 109.588C411.056 109.977 411.563 110.242 412.116 110.348C412.668 110.455 413.241 110.401 413.762 110.19C414.282 109.981 414.727 109.624 415.04 109.167C415.353 108.71 415.519 108.174 415.519 107.625C415.519 106.888 415.219 106.182 414.685 105.661C414.151 105.141 413.427 104.848 412.671 104.847Z" fill="#3F3D56"/>
<path d="M454.686 106.93H423.353V108.318H454.686V106.93Z" fill="#3F3D56"/>
<path d="M519.133 118.04V173.587C504.025 173.587 489.534 167.735 478.851 157.318C468.167 146.9 462.165 132.772 462.164 118.04H519.133Z" fill="#4CAC7D" fill-opacity="0.8"/>
<path d="M519.845 409.666H343.952V117.345H519.845V409.666ZM345.376 408.277H518.421V118.734H345.376V408.277Z" fill="#3F3D56"/>
<path opacity="0.1" d="M477.83 170.115C488.449 170.115 497.057 161.722 497.057 151.368C497.057 141.014 488.449 132.621 477.83 132.621C467.211 132.621 458.603 141.014 458.603 151.368C458.603 161.722 467.211 170.115 477.83 170.115Z" fill="black"/>
<path d="M474.982 172.199C485.601 172.199 494.209 163.805 494.209 153.452C494.209 143.097 485.601 134.703 474.982 134.703C464.363 134.703 455.755 143.097 455.755 153.452C455.755 163.805 464.363 172.199 474.982 172.199Z" fill="#0C0E1C"/>
<path d="M378.846 129.149H351.786V138.869H378.846V129.149Z" fill="#3F3D56"/>
<path d="M393.8 221.498H366.74V231.219H393.8V221.498Z" fill="#3F3D56"/>
<path d="M497.77 257.604H366.74V239.551H497.77V257.604ZM368.164 256.215H496.345V240.939H368.164V256.215Z" fill="#3F3D56"/>
<path d="M490.649 297.182H361.043V313.846H490.649V297.182Z" fill="#F0F0F0"/>
<path d="M393.8 274.269H366.74V283.989H393.8V274.269Z" fill="#3F3D56"/>
<path d="M497.77 310.374H366.74V292.321H497.77V310.374ZM368.164 308.986H496.345V293.71H368.164V308.986Z" fill="#3F3D56"/>
<path d="M477.117 347.174H387.391V327.733H477.117V347.174ZM388.815 345.786H475.693V329.121H388.815V345.786Z" fill="#3F3D56"/>
<path d="M494.209 250.66C494.208 252.09 493.756 253.484 492.913 254.653C492.069 255.823 490.877 256.71 489.497 257.193C488.117 257.677 486.619 257.735 485.205 257.357C483.791 256.979 482.531 256.185 481.597 255.084L481.59 255.077C480.91 254.271 480.423 253.327 480.168 252.314C479.913 251.299 479.897 250.243 480.117 249.223C480.339 248.202 480.794 247.242 481.448 246.417C482.102 245.591 482.939 244.92 483.895 244.452C484.853 243.984 485.904 243.733 486.975 243.717C488.045 243.702 489.105 243.921 490.076 244.359C491.047 244.798 491.904 245.444 492.585 246.25C493.264 247.056 493.748 248.001 494.002 249.014C494.002 249.015 494.002 249.016 494.003 249.017C494.003 249.018 494.003 249.019 494.004 249.019C494.005 249.02 494.005 249.02 494.006 249.021C494.007 249.021 494.009 249.021 494.01 249.021C494.14 249.559 494.208 250.108 494.209 250.66Z" fill="#A53DD6"/>
<path opacity="0.1" d="M494.209 250.66C494.208 252.09 493.756 253.484 492.913 254.653C492.069 255.823 490.877 256.71 489.497 257.193C488.118 257.677 486.619 257.735 485.205 257.357C483.791 256.979 482.531 256.185 481.597 255.083L481.59 255.076C481.458 254.539 481.392 253.99 481.391 253.437C481.391 252.008 481.844 250.614 482.686 249.445C483.53 248.275 484.723 247.388 486.102 246.904C487.482 246.42 488.981 246.363 490.395 246.741C491.809 247.119 493.069 247.912 494.002 249.014C494.002 249.015 494.002 249.016 494.003 249.017C494.003 249.018 494.004 249.019 494.004 249.019C494.005 249.02 494.005 249.02 494.007 249.021C494.008 249.021 494.009 249.021 494.01 249.021C494.141 249.558 494.208 250.108 494.209 250.66Z" fill="black"/>
<path d="M489.936 261.77C493.869 261.77 497.057 258.661 497.057 254.827C497.057 250.992 493.869 247.883 489.936 247.883C486.003 247.883 482.815 250.992 482.815 254.827C482.815 258.661 486.003 261.77 489.936 261.77Z" fill="#4CAC7D"/>
<path d="M494.209 303.431C494.208 304.86 493.756 306.254 492.913 307.424C492.069 308.593 490.877 309.481 489.497 309.964C488.117 310.448 486.619 310.505 485.205 310.127C483.791 309.749 482.531 308.956 481.597 307.854L481.59 307.847C480.91 307.042 480.423 306.097 480.168 305.084C479.913 304.07 479.897 303.014 480.117 301.993C480.339 300.972 480.794 300.014 481.448 299.187C482.102 298.362 482.939 297.69 483.895 297.222C484.853 296.755 485.904 296.504 486.975 296.489C488.045 296.472 489.105 296.691 490.076 297.13C491.047 297.568 491.904 298.214 492.585 299.021C493.264 299.826 493.748 300.772 494.002 301.785C494.002 301.786 494.002 301.787 494.003 301.788C494.003 301.789 494.003 301.79 494.004 301.79C494.005 301.791 494.005 301.791 494.006 301.792C494.007 301.792 494.009 301.792 494.01 301.792C494.14 302.329 494.208 302.879 494.209 303.431Z" fill="#A53DD6"/>
<path opacity="0.1" d="M494.209 303.431C494.208 304.86 493.756 306.255 492.913 307.425C492.069 308.594 490.877 309.481 489.497 309.965C488.118 310.449 486.619 310.505 485.205 310.127C483.791 309.75 482.531 308.956 481.597 307.854L481.59 307.847C481.458 307.31 481.392 306.76 481.391 306.208C481.391 304.778 481.844 303.384 482.686 302.215C483.53 301.046 484.723 300.159 486.102 299.675C487.482 299.191 488.981 299.133 490.395 299.512C491.809 299.89 493.069 300.683 494.002 301.786C494.002 301.786 494.002 301.787 494.003 301.788C494.003 301.789 494.004 301.79 494.004 301.79C494.005 301.791 494.005 301.792 494.007 301.792C494.008 301.792 494.009 301.792 494.01 301.792C494.141 302.329 494.208 302.878 494.209 303.431Z" fill="black"/>
<path d="M489.936 314.54C493.869 314.54 497.057 311.432 497.057 307.597C497.057 303.763 493.869 300.654 489.936 300.654C486.003 300.654 482.815 303.763 482.815 307.597C482.815 311.432 486.003 314.54 489.936 314.54Z" fill="#4CAC7D"/>
<path d="M370.301 33.3286H333.27V69.4348H370.301V33.3286Z" fill="#F0F0F0"/>
<path d="M477.83 59.7142C476.14 59.7142 474.488 59.2255 473.083 58.3099C471.677 57.3944 470.583 56.093 469.935 54.5705C469.288 53.0481 469.12 51.3727 469.449 49.7564C469.779 48.1402 470.593 46.6555 471.788 45.4903C472.983 44.325 474.506 43.5313 476.163 43.2099C477.821 42.8884 479.539 43.0534 481.101 43.6841C482.662 44.3147 483.996 45.3826 484.936 46.7528C485.875 48.123 486.375 49.734 486.375 51.382C486.373 53.591 485.472 55.709 483.87 57.271C482.269 58.8331 480.096 59.7117 477.83 59.7142ZM477.83 44.4385C476.422 44.4385 475.045 44.8457 473.874 45.6087C472.703 46.3716 471.791 47.456 471.251 48.7248C470.712 49.9935 470.571 51.3897 470.846 52.7366C471.121 54.0835 471.799 55.3207 472.795 56.2917C473.791 57.2629 475.06 57.9241 476.441 58.1921C477.822 58.46 479.254 58.3225 480.555 57.7969C481.856 57.2714 482.969 56.3814 483.751 55.2395C484.534 54.0977 484.951 52.7552 484.951 51.382C484.949 49.5411 484.198 47.7762 482.864 46.4745C481.528 45.1728 479.719 44.4406 477.83 44.4385Z" fill="#3F3D56"/>
<path d="M289.831 175.671H271.317V157.617H289.831V175.671ZM272.741 174.282H288.407V159.006H272.741V174.282Z" fill="#3F3D56"/>
<path d="M206.516 189.326L209.693 190.995L220.505 196.676L237.959 205.845L248.131 187.445C249.088 185.715 249.687 183.819 249.893 181.864C250.098 179.909 249.906 177.934 249.328 176.051C248.749 174.169 247.796 172.416 246.522 170.893C245.248 169.371 243.679 168.107 241.904 167.177C238.111 165.179 233.764 164.408 229.492 164.972C225.22 165.538 221.243 167.411 218.132 170.321L218.126 170.327C216.596 171.76 215.305 173.418 214.299 175.239L206.516 189.326Z" fill="#2F2E41"/>
<path d="M254.154 376.988L252.022 399.859L244.025 400.898L238.695 374.908L254.154 376.988Z" fill="#FFB8B8"/>
<path d="M241.893 400.9C241.893 400.9 252.022 395.701 254.154 399.859C254.154 399.859 252.555 412.335 258.952 413.894C265.35 415.454 268.015 426.369 258.952 427.41C249.89 428.449 244.025 425.33 240.827 425.33C237.628 425.33 240.827 414.414 240.827 414.414L241.893 400.9Z" fill="#2F2E41"/>
<path d="M189.648 376.988L191.781 399.859L199.777 400.898L205.108 374.908L189.648 376.988Z" fill="#FFB8B8"/>
<path d="M201.91 400.9C201.91 400.9 191.78 395.701 189.648 399.859C189.648 399.859 191.247 412.335 184.851 413.894C178.453 415.454 175.788 426.369 184.851 427.41C193.913 428.449 199.777 425.33 202.976 425.33C206.174 425.33 202.976 414.414 202.976 414.414L201.91 400.9Z" fill="#2F2E41"/>
<path d="M233.363 193.495C241.018 193.495 247.224 187.444 247.224 179.979C247.224 172.516 241.018 166.464 233.363 166.464C225.708 166.464 219.503 172.516 219.503 179.979C219.503 187.444 225.708 193.495 233.363 193.495Z" fill="#FFB8B8"/>
<path d="M189.115 206.49L200.31 223.644L213.638 222.604L235.495 224.163C235.495 224.163 237.559 220.14 239.243 216.226C240.166 214.271 240.875 212.228 241.36 210.128C241.893 206.49 234.429 202.851 234.429 202.851C234.429 202.851 234.137 202.799 233.646 202.685C232.995 202.534 231.993 202.285 230.895 201.921C228.416 201.099 225.436 199.706 224.833 197.653C223.767 194.015 231.764 188.816 231.764 188.816L222.168 179.98C222.168 179.98 213.644 191.525 203.29 194.155C202.69 194.309 202.081 194.431 201.467 194.519C201.435 194.524 201.408 194.529 201.376 194.534C190.181 196.093 189.115 206.49 189.115 206.49Z" fill="#FFB8B8"/>
<path d="M194.979 201.812L189.115 206.49C189.115 206.49 184.316 228.841 185.917 235.079C187.516 241.317 185.384 247.035 185.384 248.075C185.384 249.114 180.585 288.101 180.585 288.101C180.585 288.101 170.989 308.892 181.118 306.814C191.247 304.734 187.516 283.941 187.516 283.941L199.777 247.555V216.886L194.979 201.812Z" fill="#FFB8B8"/>
<path d="M237.095 205.97L241.36 209.089L243.492 252.753L259.485 290.179C259.485 290.179 271.215 308.373 263.751 308.892C256.287 309.412 251.489 290.179 251.489 290.179L237.095 254.312L234.962 219.485L237.095 205.97Z" fill="#FFB8B8"/>
<path d="M210.439 209.089C210.439 209.089 221.102 216.366 238.161 213.768C238.161 213.768 242.959 223.124 240.294 228.323C237.628 233.52 243.492 245.995 244.558 247.555C245.624 249.114 257.886 281.343 262.151 316.171C266.416 350.997 278.144 374.909 268.015 378.027C257.886 381.146 237.095 384.785 234.962 381.666C232.83 378.548 229.632 301.095 229.632 301.095L223.767 330.725C223.767 330.725 231.764 381.146 225.899 382.187C220.036 383.226 183.25 380.107 184.316 373.869C185.384 367.632 196.045 334.884 196.045 334.884C196.045 334.884 195.512 269.387 206.174 256.911C206.174 256.911 210.439 250.155 204.575 241.317C198.711 232.481 199.244 218.446 199.244 218.446C199.244 218.446 203.509 218.446 210.439 209.089Z" fill="#0C0E1C" fill-opacity="0.8"/>
<path d="M201.467 194.519L210.44 213.768L212.572 212.728L203.29 194.155L201.467 194.519Z" fill="#2F2E41"/>
<path d="M230.895 201.921L237.628 216.366L239.243 216.226L238.694 213.767L233.646 202.685C232.995 202.534 231.993 202.285 230.895 201.921Z" fill="#2F2E41"/>
<path d="M209.693 190.995C210.206 192.602 211.193 194.027 212.533 195.09C213.872 196.153 215.503 196.807 217.222 196.97C218.942 197.133 220.672 196.799 222.196 196.008C223.721 195.216 224.972 194.004 225.793 192.523C219.049 183.924 224.833 178.524 235.789 174.438C236.614 172.945 236.965 171.246 236.797 169.558C236.629 167.869 235.949 166.268 234.846 164.957C231.826 164.58 228.757 164.866 225.866 165.795C222.975 166.723 220.332 168.269 218.132 170.321L218.126 170.327L210.343 184.403C209.789 185.404 209.446 186.503 209.334 187.635C209.222 188.767 209.345 189.909 209.693 190.995Z" fill="#2F2E41"/>
<path d="M225.1 184.659C226.131 184.659 226.965 183.261 226.965 181.54C226.965 179.817 226.131 178.421 225.1 178.421C224.07 178.421 223.234 179.817 223.234 181.54C223.234 183.261 224.07 184.659 225.1 184.659Z" fill="#FFB8B8"/>
<path d="M230.66 176.45L246.686 183.531L249.624 177.209C249.117 174.899 248.058 172.739 246.531 170.904L235.501 166.033L230.66 176.45Z" fill="#2F2E41"/>
<path d="M269.18 315.93C273.113 315.93 276.301 312.821 276.301 308.986C276.301 305.151 273.113 302.042 269.18 302.042C265.247 302.042 262.059 305.151 262.059 308.986C262.059 312.821 265.247 315.93 269.18 315.93Z" fill="#56087B"/>
<path d="M40.56 357.206C43.1299 357.206 45.2133 355.174 45.2133 352.668C45.2133 350.162 43.1299 348.13 40.56 348.13C37.989 348.13 35.9056 350.162 35.9056 352.668C35.9056 355.174 37.989 357.206 40.56 357.206Z" fill="#FF6584"/>
<path d="M64.0727 376.318H62.6486V427.986H64.0727V376.318Z" fill="#3F3D56"/>
<path d="M63.3612 383.625C67.4992 383.625 70.8548 380.354 70.8548 376.318C70.8548 372.283 67.4992 369.011 63.3612 369.011C59.2221 369.011 55.8676 372.283 55.8676 376.318C55.8676 380.354 59.2221 383.625 63.3612 383.625Z" fill="#3F3D56"/>
<path d="M63.3612 408.163C63.3612 408.163 62.2906 385.713 40.345 388.322L63.3612 408.163Z" fill="#3F3D56"/>
</svg>
