<svg width="398" height="316" viewBox="0 0 398 316" fill="none" xmlns="http://www.w3.org/2000/svg">
<g opacity="0.5">
<path opacity="0.5" d="M219.283 -6.86946e-05L182.026 228.591L359.94 253.441L397.197 24.8495L219.283 -6.86946e-05Z" fill="url(#paint0_linear)"/>
</g>
<path d="M221.105 1.97116L184.839 225.54L358.211 249.87L394.478 26.3013L221.105 1.97116Z" fill="#F5F5F5"/>
<path d="M353.594 119.726L228.464 102.166L227.319 109.221L352.45 126.781L353.594 119.726Z" fill="#E0E0E0"/>
<path d="M350.734 137.359L225.603 119.798L224.459 126.853L349.589 144.413L350.734 137.359Z" fill="#E0E0E0"/>
<path d="M362.745 63.2955L298.283 54.2493L297.138 61.3038L361.601 70.3501L362.745 63.2955Z" fill="#E0E0E0"/>
<path d="M354.2 80.1342L301.112 72.6842L299.968 79.7387L353.056 87.1888L354.2 80.1342Z" fill="#0C0E1C"/>
<path d="M332.706 152.866L222.74 137.434L221.596 144.488L331.562 159.92L332.706 152.866Z" fill="#E0E0E0"/>
<path d="M314.674 168.372L219.877 155.069L218.733 162.123L313.529 175.426L314.674 168.372Z" fill="#E0E0E0"/>
<path d="M300.439 184.409L217.017 172.702L215.873 179.757L299.294 191.464L300.439 184.409Z" fill="#E0E0E0"/>
<path d="M320.328 205.237L214.157 190.337L213.013 197.392L319.184 212.291L320.328 205.237Z" fill="#E0E0E0"/>
<path d="M253.009 213.823L211.3 207.97L210.156 215.024L251.864 220.877L253.009 213.823Z" fill="#54499E"/>
<g opacity="0.5">
<path opacity="0.5" d="M286.065 63.9521C286.724 59.8881 286.24 55.7347 284.66 51.8963C283.081 48.0578 280.461 44.6649 277.054 42.0479C273.646 39.4309 269.569 37.6788 265.218 36.9623C260.867 36.2457 256.39 36.5891 252.224 37.9589C248.058 39.3288 244.344 41.6785 241.444 44.7793C238.544 47.8801 236.556 51.6264 235.675 55.6537C234.793 59.6809 235.047 63.8519 236.413 67.7607C237.778 71.6694 240.208 75.1829 243.466 77.959C243.466 77.9928 243.466 78.0308 243.466 78.0646C244.172 78.9214 245.053 79.6393 246.06 80.1766L246.11 80.0752C247.14 81.1861 251.886 83.3995 257.622 84.1894H257.749C261.382 84.7047 265.42 84.6583 269.166 83.3995C269.166 83.3995 269.207 83.3404 269.275 83.2306C270.216 82.9694 271.106 82.5686 271.909 82.0436L271.991 81.7817C275.714 80.0926 278.941 77.5873 281.392 74.4814C283.844 71.3756 285.448 67.7621 286.065 63.9521Z" fill="url(#paint1_linear)"/>
</g>
<path d="M285.192 62.9789C287.238 50.3678 277.905 38.6021 264.346 36.6993C250.787 34.7966 238.138 43.4774 236.092 56.0884C234.046 68.6995 243.379 80.4652 256.938 82.3679C270.497 84.2707 283.146 75.5899 285.192 62.9789Z" fill="#F5F5F5"/>
<path d="M249.325 67.1413C249.325 67.1413 243.421 66.7654 243.344 76.8946C244.029 77.7227 244.884 78.4161 245.86 78.9348L250.828 69.0379L249.325 67.1413Z" fill="#FDA57D"/>
<path d="M268.308 69.8066C268.308 69.8066 274.085 71.0738 270.933 80.768C270.016 81.3741 268.979 81.8049 267.881 82.0352L266.269 71.2175L268.308 69.8066Z" fill="#FDA57D"/>
<path d="M252.213 50.9379C252.213 50.9379 248.208 58.0807 246.804 57.1598C246.804 57.1598 259.548 70.9851 274.394 61.0291C273.239 58.3381 271.742 55.7855 269.934 53.4258L252.213 50.9379Z" fill="#333333"/>
<path d="M272.623 53.0852C273.53 47.4959 269.393 42.2813 263.384 41.438C257.375 40.5947 251.768 44.4421 250.861 50.0313C249.955 55.6206 254.091 60.8352 260.1 61.6785C266.11 62.5218 271.716 58.6745 272.623 53.0852Z" fill="#333333"/>
<path opacity="0.1" d="M268.195 69.7898L249.211 67.1287L246.296 73.942C246.296 73.942 244.725 77.0636 245.787 78.6856C246.85 80.3076 258.408 85.2708 268.04 82.0648C269.121 80.2903 269.545 78.235 269.248 76.2145C268.771 72.7762 269.035 75.9442 269.035 75.9442L268.195 69.7898Z" fill="black"/>
<path opacity="0.1" d="M268.449 69.8278L249.466 67.1666L246.555 73.9757C246.555 73.9757 244.983 77.0973 246.046 78.7193C247.109 80.3413 258.667 85.3046 268.299 82.0985C269.379 80.324 269.804 78.2688 269.507 76.2483C269.03 72.8099 269.294 75.9779 269.294 75.9779L268.449 69.8278Z" fill="black"/>
<path d="M268.308 69.8066L249.325 67.1455L246.409 73.9589C246.409 73.9589 244.838 77.0804 245.901 78.7024C246.963 80.3245 258.521 85.2877 268.154 82.0817C269.234 80.3072 269.658 78.2519 269.362 76.2314C268.885 72.793 269.148 75.961 269.148 75.961L268.308 69.8066Z" fill="#FDD835"/>
<path opacity="0.1" d="M256.092 62.1209L263.686 63.1865L262.652 69.5602C262.531 70.3057 262.097 70.976 261.444 71.4236C260.792 71.8713 259.975 72.0596 259.174 71.9471L257.62 71.729C256.819 71.6165 256.098 71.2125 255.617 70.6058C255.135 69.9991 254.933 69.2395 255.054 68.494L256.088 62.1202L256.092 62.1209Z" fill="black"/>
<path d="M256.129 61.8591L263.723 62.9248L262.689 69.2985C262.568 70.044 262.134 70.7143 261.481 71.1619C260.829 71.6095 260.012 71.7978 259.211 71.6853L257.661 71.4679C256.86 71.3554 256.139 70.9514 255.658 70.3447C255.177 69.738 254.974 68.9784 255.095 68.2328L256.129 61.8591Z" fill="#FDA57D"/>
<path opacity="0.1" d="M255.987 62.8581C258.296 64.0521 260.988 64.4372 263.576 63.9437L263.717 63.0778L256.124 62.0133L255.987 62.8581Z" fill="black"/>
<path d="M272.267 55.2804C273.173 49.6911 269.037 44.4765 263.028 43.6332C257.018 42.7899 251.412 46.6373 250.505 52.2265C249.599 57.8158 253.735 63.0304 259.744 63.8737C265.753 64.717 271.36 60.8697 272.267 55.2804Z" fill="#FDA57D"/>
<path d="M251.582 48.4415L272.336 51.3519C272.336 51.3519 271.828 43.3262 263.903 42.7053C255.978 42.0844 251.582 48.4415 251.582 48.4415Z" fill="#333333"/>
<path d="M251.807 51.9643C251.965 50.9886 251.641 50.1341 251.083 50.0558C250.525 49.9775 249.945 50.705 249.786 51.6808C249.628 52.6565 249.952 53.511 250.51 53.5893C251.068 53.6676 251.649 52.9401 251.807 51.9643Z" fill="#FDA57D"/>
<path d="M273.068 54.9496C273.226 53.9738 272.902 53.1193 272.344 53.041C271.786 52.9627 271.205 53.6902 271.047 54.666C270.889 55.6417 271.213 56.4962 271.771 56.5745C272.329 56.6528 272.909 55.9253 273.068 54.9496Z" fill="#FDA57D"/>
<path opacity="0.1" d="M251.55 48.7035L272.304 51.6138C272.304 51.6138 271.796 43.5882 263.871 42.9673C255.946 42.3463 251.55 48.7035 251.55 48.7035Z" fill="black"/>
<g opacity="0.5">
<path opacity="0.5" d="M178.13 32.941L0 59.5914L39.9557 288.454L218.086 261.803L178.13 32.941Z" fill="url(#paint2_linear)"/>
</g>
<path d="M175.436 34.1536L2.41003 60.5363L41.736 283.657L214.762 257.275L175.436 34.1536Z" fill="#F5F5F5"/>
<path d="M167.415 134.723L42.5354 153.764L43.7763 160.805L168.656 141.763L167.415 134.723Z" fill="#E0E0E0"/>
<path d="M170.517 152.323L45.637 171.364L46.8779 178.404L171.758 159.363L170.517 152.323Z" fill="#E0E0E0"/>
<path d="M157.494 78.4069L93.1603 88.2163L94.4012 95.2567L158.735 85.4473L157.494 78.4069Z" fill="#E0E0E0"/>
<path d="M154.917 96.8727L101.936 104.951L103.176 111.992L156.158 103.913L154.917 96.8727Z" fill="#087B14"/>
<path d="M158.484 172.229L48.7388 188.963L49.9797 196.004L159.725 179.27L158.484 172.229Z" fill="#E0E0E0"/>
<path d="M146.446 192.133L51.8398 206.558L53.0807 213.599L147.687 199.173L146.446 192.133Z" fill="#E0E0E0"/>
<path d="M138.197 211.466L54.9419 224.161L56.1828 231.201L139.437 218.507L138.197 211.466Z" fill="#E0E0E0"/>
<path d="M164.003 225.6L58.0441 241.756L59.285 248.796L165.243 232.64L164.003 225.6Z" fill="#E0E0E0"/>
<path d="M102.774 253.01L61.149 259.357L62.3899 266.398L104.015 260.051L102.774 253.01Z" fill="#087B14"/>
<g opacity="0.5">
<path opacity="0.5" d="M87.0645 99.4171C86.329 95.2478 84.4455 91.3266 81.5975 88.0351C78.7494 84.7436 75.0337 82.194 70.812 80.6343C66.5903 79.0747 62.0064 78.5581 57.5064 79.1349C53.0064 79.7117 48.7435 81.3623 45.1328 83.9259C41.522 86.4895 38.6863 89.8789 36.9016 93.7642C35.1169 97.6495 34.444 101.898 34.9484 106.097C35.4528 110.296 37.1173 114.302 39.7799 117.725C42.4426 121.148 46.0126 123.872 50.1427 125.631L50.179 125.737C51.1604 126.363 52.2656 126.803 53.4307 127.03V126.915C54.8158 127.701 60.211 128.474 66.0922 127.562H66.2193C69.9478 127 73.8807 125.767 77.1188 123.435C77.1188 123.435 77.1188 123.367 77.1642 123.241C77.9966 122.709 78.7312 122.056 79.3395 121.306C79.3395 121.21 79.3395 121.117 79.3395 121.027C82.4157 118.279 84.7265 114.875 86.0724 111.11C87.4182 107.345 87.7587 103.332 87.0645 99.4171Z" fill="url(#paint3_linear)"/>
</g>
<path d="M65.2333 126.795C79.1434 124.674 88.5712 112.466 86.2909 99.5278C84.0105 86.5899 70.8855 77.8209 56.9753 79.9419C43.0651 82.0629 33.6373 94.2707 35.9177 107.209C38.198 120.147 51.3231 128.916 65.2333 126.795Z" fill="#F5F5F5"/>
<path d="M51.8139 114.197C51.8139 114.197 45.9101 115.57 49.2707 125.496C50.2222 126.109 51.2951 126.54 52.427 126.763L53.9302 115.62L51.8139 114.197Z" fill="#4D8AF0"/>
<path d="M71.2876 111.227C71.2876 111.227 77.3686 110.767 77.5729 121.183C76.8785 122.037 76.0096 122.755 75.0161 123.295L69.7662 113.183L71.2876 111.227Z" fill="#4D8AF0"/>
<path d="M60.4811 105.678C66.6467 104.737 70.8254 99.3265 69.8147 93.5919C68.8039 87.8573 62.9864 83.9706 56.8209 84.9107C50.6554 85.8508 46.4766 91.2617 47.4873 96.9964C48.4981 102.731 54.3156 106.618 60.4811 105.678Z" fill="#333333"/>
<path d="M71.174 111.244L51.7003 114.201L51.1599 121.724C51.1599 121.724 50.7058 125.243 52.2726 126.514C53.8394 127.786 66.8596 129.251 75.1659 123.27C75.6205 121.217 75.3381 119.081 74.362 117.192C72.7271 113.969 74.0578 116.989 74.0578 116.989L71.174 111.244Z" fill="#4D8AF0"/>
<path d="M71.4329 111.206L51.9593 114.163L51.4188 121.686C51.4188 121.686 50.9647 125.205 52.5315 126.476C54.0983 127.748 67.1185 129.213 75.4248 123.232C75.8794 121.179 75.597 119.043 74.621 117.154C72.986 113.931 74.3167 116.951 74.3167 116.951L71.4329 111.206Z" fill="#4D8AF0"/>
<path d="M71.2875 111.227L51.8139 114.184L51.2734 121.72C51.2734 121.72 50.8193 125.238 52.3861 126.51C53.9529 127.781 66.9731 129.247 75.2794 123.266C75.734 121.213 75.4516 119.077 74.4756 117.188C72.8407 113.965 74.1713 116.985 74.1713 116.985L71.2875 111.227Z" fill="#4D8AF0"/>
<path opacity="0.1" d="M56.734 107.271L64.523 106.083L65.689 112.698C65.8201 113.442 65.6281 114.204 65.1552 114.816C64.6823 115.429 63.9672 115.841 63.1673 115.963L61.406 116.232C60.6061 116.354 59.7868 116.175 59.1285 115.735C58.4701 115.296 58.0266 114.63 57.8955 113.886L56.7295 107.271L56.734 107.271Z" fill="black"/>
<path d="M56.6873 107.002L64.4764 105.814L65.6423 112.43C65.7735 113.174 65.5815 113.936 65.1086 114.548C64.6357 115.16 63.9206 115.573 63.1207 115.695L61.3594 115.963C60.5595 116.085 59.7402 115.907 59.0819 115.467C58.4235 115.027 57.98 114.362 57.8488 113.618L56.6829 107.003L56.6873 107.002Z" fill="#FDA57D"/>
<path opacity="0.1" d="M56.8777 108.047C59.5417 108.538 62.3066 108.124 64.6708 106.881L64.5118 105.99L56.7233 107.181L56.8777 108.047Z" fill="black"/>
<path d="M60.8818 107.932C67.0473 106.992 71.2261 101.581 70.2153 95.8464C69.2046 90.1118 63.387 86.2251 57.2215 87.1652C51.056 88.1053 46.8772 93.5162 47.888 99.2509C48.8987 104.985 54.7162 108.872 60.8818 107.932Z" fill="#FDA57D"/>
<path opacity="0.1" d="M47.722 95.5013L69.0168 92.2573C69.0168 92.2573 65.7878 84.5358 57.8313 86.2761C49.8747 88.0164 47.722 95.5013 47.722 95.5013Z" fill="black"/>
<path d="M47.6722 95.2353L68.9851 91.987C68.9851 91.987 65.7562 84.2655 57.7996 86.0058C49.843 87.7461 47.6722 95.2353 47.6722 95.2353Z" fill="#333333"/>
<path d="M48.4908 101.208C49.0669 101.121 49.3923 100.236 49.2178 99.2318C49.0432 98.2272 48.4347 97.4829 47.8586 97.5695C47.2825 97.6561 46.9571 98.5407 47.1316 99.5454C47.3062 100.55 47.9147 101.294 48.4908 101.208Z" fill="#FDA57D"/>
<path d="M70.1668 97.2578C70.7411 97.1702 71.0635 96.2874 70.887 95.286C70.7105 94.2845 70.1019 93.5437 69.5276 93.6313C68.9534 93.7188 68.631 94.6016 68.8075 95.603C68.984 96.6045 69.5926 97.3453 70.1668 97.2578Z" fill="#FDA57D"/>
<g opacity="0.5">
<path opacity="0.5" d="M308.118 69.8531H128.205V301.063H308.118V69.8531Z" fill="url(#paint4_linear)"/>
</g>
<path d="M305.829 71.5554H130.494V297.655H305.829V71.5554Z" fill="white"/>
<g opacity="0.5">
<path opacity="0.5" d="M153.91 123.287C153.91 118.967 155.113 114.721 157.401 110.961C159.69 107.202 162.985 104.058 166.968 101.835C170.95 99.6113 175.483 98.3849 180.126 98.2746C184.769 98.1644 189.364 99.174 193.463 101.205C197.562 103.237 201.026 106.22 203.518 109.866C206.009 113.512 207.444 117.696 207.681 122.01C207.919 126.324 206.951 130.622 204.873 134.486C202.795 138.349 199.677 141.646 195.822 144.056V144.166C194.944 144.951 193.906 145.565 192.771 145.974L192.734 145.864C191.476 146.87 186.172 148.479 180.077 148.462H179.946C176.085 148.462 171.898 147.829 168.211 145.974C168.211 145.974 168.179 145.907 168.129 145.784C167.194 145.376 166.337 144.829 165.59 144.166L165.549 143.883C161.959 141.585 159.024 138.51 156.996 134.922C154.968 131.333 153.909 127.341 153.91 123.287Z" fill="url(#paint5_linear)"/>
</g>
<path d="M180.809 147.558C195.221 147.558 206.904 136.692 206.904 123.287C206.904 109.882 195.221 99.0157 180.809 99.0157C166.397 99.0157 154.714 109.882 154.714 123.287C154.714 136.692 166.397 147.558 180.809 147.558Z" fill="#F5F5F5"/>
<path d="M170.572 132.533C170.572 132.533 164.355 133.002 165.999 143.562C166.852 144.323 167.858 144.919 168.96 145.315L172.457 134.303L170.572 132.533Z" fill="#BE7C5E"/>
<path d="M190.75 132.533C190.75 132.533 196.967 133.002 195.323 143.562C194.47 144.323 193.464 144.919 192.362 145.315L188.879 134.269L190.75 132.533Z" fill="#BE7C5E"/>
<path d="M170.84 115.261C170.84 115.261 170.363 116.558 169.682 118.058C168.201 121.335 169.891 133.932 173.433 135.275C177.407 136.783 182.634 137.746 188.061 135.904C192.78 134.303 194.233 119.967 190.9 116.474C190.509 116.051 190.1 115.658 189.673 115.261H170.84Z" fill="#333333"/>
<path d="M180.827 125.272C187.215 125.272 192.394 120.456 192.394 114.514C192.394 108.572 187.215 103.755 180.827 103.755C174.438 103.755 169.26 108.572 169.26 114.514C169.26 120.456 174.438 125.272 180.827 125.272Z" fill="#333333"/>
<path opacity="0.1" d="M190.632 132.533H170.454L168.569 140.039C168.569 140.039 167.461 143.516 168.837 145.045C170.213 146.574 183.066 150.05 192.512 145.294C193.335 143.292 193.429 141.095 192.78 139.038C191.703 135.537 192.512 138.789 192.512 138.789L190.632 132.533Z" fill="black"/>
<path opacity="0.1" d="M190.899 132.533H170.713L168.828 140.039C168.828 140.039 167.72 143.516 169.096 145.045C170.472 146.574 183.324 150.05 192.771 145.294C193.594 143.292 193.688 141.095 193.038 139.038C191.962 135.537 192.771 138.789 192.771 138.789L190.899 132.533Z" fill="black"/>
<path d="M190.75 132.533H170.572L168.687 140.039C168.687 140.039 167.579 143.516 168.955 145.045C170.331 146.574 183.184 150.05 192.63 145.294C193.453 143.292 193.547 141.095 192.898 139.038C191.821 135.537 192.63 138.789 192.63 138.789L190.75 132.533Z" fill="#3AD29F"/>
<path opacity="0.1" d="M176.762 126.303H184.832V133.222C184.832 133.976 184.51 134.699 183.937 135.232C183.364 135.765 182.586 136.065 181.776 136.065H179.814C179.003 136.065 178.226 135.765 177.653 135.232C177.079 134.699 176.757 133.976 176.757 133.222V126.303H176.762Z" fill="black"/>
<path d="M176.762 126.024H184.832V132.943C184.832 133.697 184.51 134.42 183.937 134.953C183.364 135.486 182.586 135.786 181.776 135.786H179.814C179.003 135.786 178.226 135.486 177.653 134.953C177.079 134.42 176.757 133.697 176.757 132.943V126.024H176.762Z" fill="#BE7C5E"/>
<path opacity="0.1" d="M176.776 127.089C179.379 127.986 182.242 127.986 184.846 127.089V126.168H176.776V127.089Z" fill="black"/>
<path d="M180.827 127.608C187.215 127.608 192.394 122.791 192.394 116.85C192.394 110.908 187.215 106.091 180.827 106.091C174.438 106.091 169.26 110.908 169.26 116.85C169.26 122.791 174.438 127.608 180.827 127.608Z" fill="#BE7C5E"/>
<path d="M169.764 112.765H191.826C191.826 112.765 189.941 104.477 181.603 105.01C173.265 105.542 169.764 112.765 169.764 112.765Z" fill="#333333"/>
<path d="M169.5 118.269C170.095 118.269 170.577 117.429 170.577 116.393C170.577 115.358 170.095 114.518 169.5 114.518C168.906 114.518 168.424 115.358 168.424 116.393C168.424 117.429 168.906 118.269 169.5 118.269Z" fill="#BE7C5E"/>
<path d="M192.098 118.269C192.693 118.269 193.175 117.429 193.175 116.393C193.175 115.358 192.693 114.518 192.098 114.518C191.504 114.518 191.022 115.358 191.022 116.393C191.022 117.429 191.504 118.269 192.098 118.269Z" fill="#BE7C5E"/>
<path opacity="0.1" d="M169.764 113.04H191.826C191.826 113.04 189.941 104.752 181.603 105.284C173.265 105.816 169.764 113.04 169.764 113.04Z" fill="black"/>
<path d="M280.42 169.595H153.873V176.729H280.42V169.595Z" fill="#E0E0E0"/>
<path d="M280.42 187.429H153.873V194.563H280.42V187.429Z" fill="#E0E0E0"/>
<path d="M280.425 112.528H215.233V119.663H280.425V112.528Z" fill="#E0E0E0"/>
<path d="M274.671 130.362H220.982V137.497H274.671V130.362Z" fill="#0C0E1C"/>
<path d="M265.084 205.263H153.873V212.397H265.084V205.263Z" fill="#E0E0E0"/>
<path d="M249.743 223.096H153.873V230.231H249.743V223.096Z" fill="#E0E0E0"/>
<path d="M238.239 240.934H153.873V248.069H238.239V240.934Z" fill="#E0E0E0"/>
<path d="M261.246 258.768H153.873V265.903H261.246V258.768Z" fill="#E0E0E0"/>
<path d="M196.054 276.602H153.873V283.736H196.054V276.602Z" fill="#087B14"/>
<g opacity="0.5">
<path opacity="0.5" d="M295.984 315.894C317.15 315.894 334.309 299.934 334.309 280.247C334.309 260.56 317.15 244.601 295.984 244.601C274.817 244.601 257.658 260.56 257.658 280.247C257.658 299.934 274.817 315.894 295.984 315.894Z" fill="url(#paint6_linear)"/>
</g>
<path d="M295.984 313.795C315.903 313.795 332.051 298.775 332.051 280.247C332.051 261.72 315.903 246.7 295.984 246.7C276.064 246.7 259.916 261.72 259.916 280.247C259.916 298.775 276.064 313.795 295.984 313.795Z" fill="#69F0AE"/>
<path d="M280.329 275.77L293.854 287.302L313.014 261.096L319.781 266.338L293.854 297.786L274.693 277.869L280.329 275.77Z" fill="white"/>
<defs>
<linearGradient id="paint0_linear" x1="270.983" y1="241.016" x2="303.012" y2="11.6946" gradientUnits="userSpaceOnUse">
<stop stop-color="#808080" stop-opacity="0.25"/>
<stop offset="0.54" stop-color="#808080" stop-opacity="0.12"/>
<stop offset="1" stop-color="#808080" stop-opacity="0.1"/>
</linearGradient>
<linearGradient id="paint1_linear" x1="29996.4" y1="35021.3" x2="30750.2" y2="29650.1" gradientUnits="userSpaceOnUse">
<stop stop-color="#808080" stop-opacity="0.25"/>
<stop offset="0.54" stop-color="#808080" stop-opacity="0.12"/>
<stop offset="1" stop-color="#808080" stop-opacity="0.1"/>
</linearGradient>
<linearGradient id="paint2_linear" x1="100006" y1="75526.9" x2="81195.1" y2="-50203.3" gradientUnits="userSpaceOnUse">
<stop stop-color="#808080" stop-opacity="0.25"/>
<stop offset="0.54" stop-color="#808080" stop-opacity="0.12"/>
<stop offset="1" stop-color="#808080" stop-opacity="0.1"/>
</linearGradient>
<linearGradient id="paint3_linear" x1="20615.8" y1="-1888.62" x2="19754.5" y2="-7537.2" gradientUnits="userSpaceOnUse">
<stop stop-color="#808080" stop-opacity="0.25"/>
<stop offset="0.54" stop-color="#808080" stop-opacity="0.12"/>
<stop offset="1" stop-color="#808080" stop-opacity="0.1"/>
</linearGradient>
<linearGradient id="paint4_linear" x1="86614.2" y1="164886" x2="86614.2" y2="38328.2" gradientUnits="userSpaceOnUse">
<stop stop-color="#808080" stop-opacity="0.25"/>
<stop offset="0.54" stop-color="#808080" stop-opacity="0.12"/>
<stop offset="1" stop-color="#808080" stop-opacity="0.1"/>
</linearGradient>
<linearGradient id="paint5_linear" x1="27334.5" y1="21562" x2="27334.5" y2="15596.2" gradientUnits="userSpaceOnUse">
<stop stop-color="#808080" stop-opacity="0.25"/>
<stop offset="0.54" stop-color="#808080" stop-opacity="0.12"/>
<stop offset="1" stop-color="#808080" stop-opacity="0.1"/>
</linearGradient>
<linearGradient id="paint6_linear" x1="50238.9" y1="53567.5" x2="50238.9" y2="41535.4" gradientUnits="userSpaceOnUse">
<stop stop-color="#808080" stop-opacity="0.25"/>
<stop offset="0.54" stop-color="#808080" stop-opacity="0.12"/>
<stop offset="1" stop-color="#808080" stop-opacity="0.1"/>
</linearGradient>
</defs>
</svg>
