<svg width="651" height="459" viewBox="0 0 651 459" fill="none" xmlns="http://www.w3.org/2000/svg">
<circle cx="461" cy="190" r="190" fill="#ECE4F1"/>
<path d="M433.479 342.201H246.41V90H433.479V128.421H432.555V91.0449H247.334V341.156H432.555V250.98H433.479V342.201Z" fill="#3F3D56"/>
<path d="M214.475 458.524H27.4067V367.302H28.3303V457.479H213.551V207.367H28.3303V244.743H27.4067V206.322H214.475V458.524Z" fill="#3F3D56"/>
<path d="M332.779 107.754C323.201 107.754 315.436 117.504 315.436 129.53V144.81H319.589L321.994 139.148L321.393 144.81H348.092L350.278 139.663L349.731 144.81H352.737V132.812C352.737 118.973 343.802 107.754 332.779 107.754Z" fill="#2F2E41"/>
<path d="M308.618 222.656L316.948 267.315C316.948 267.315 316.948 284.114 318.759 289.44C320.569 294.766 325.639 312.384 325.639 312.384L332.52 310.336L331.072 292.718C331.072 292.718 330.709 276.739 328.537 272.642L327.812 230.851L308.618 222.656Z" fill="#FFB8B8"/>
<path d="M334.693 233.718L353.163 271.412C353.163 271.412 357.146 285.343 360.044 288.621L367.649 305.009L373.443 302.551L368.373 276.739C368.373 276.739 364.389 264.447 360.768 260.35C360.768 260.35 355.698 226.753 349.903 224.705C344.109 222.656 334.693 233.718 334.693 233.718Z" fill="#FFB8B8"/>
<path d="M333.245 306.648L323.829 309.106V321.398L318.397 334.918C318.397 334.918 316.706 339.312 319.483 340.245C322.088 341.12 330.274 344.542 331.434 336.967C331.673 335.281 332.174 333.656 332.912 332.167C335.121 327.813 335.88 322.708 335.051 317.776L333.245 306.648Z" fill="#2F2E41"/>
<path d="M374.53 299.683L365.831 301.091L367.649 322.217C368.152 322.906 368.411 323.783 368.373 324.676C368.373 326.315 367.649 333.28 373.081 332.87C378.513 332.46 380.324 329.592 380.324 327.953C380.324 326.314 377.427 315.252 377.427 315.252L374.53 299.683Z" fill="#2F2E41"/>
<path d="M329.985 139.893C335.586 139.893 340.125 134.757 340.125 128.421C340.125 122.085 335.586 116.949 329.985 116.949C324.385 116.949 319.845 122.085 319.845 128.421C319.845 134.757 324.385 139.893 329.985 139.893Z" fill="#FFB8B8"/>
<path d="M337.59 133.338C337.59 133.338 339.039 143.581 342.298 145.629C345.558 147.678 349.904 150.136 349.904 150.136C349.904 150.136 357.509 150.955 357.871 157.511L357.146 162.837L316.586 162.018L315.137 149.317L326.726 146.039C326.726 146.039 327.812 139.074 326.726 135.796C325.64 132.518 337.59 133.338 337.59 133.338Z" fill="#FFB8B8"/>
<path d="M315.137 160.789L294.86 162.382C290.406 162.732 286.436 158.898 286.312 153.849C286.223 152.524 286.556 151.207 287.252 150.136C290.149 146.039 303.911 130.06 303.911 130.06C303.911 130.06 313.326 123.504 315.137 123.914C316.948 124.324 311.516 134.157 308.256 134.977C304.997 135.796 307.894 134.567 307.894 134.567L294.133 152.185L311.154 150.136L315.137 160.789Z" fill="#FFB8B8"/>
<path d="M201.241 458.413C201.135 458.217 198.637 453.497 197.77 443.695C196.976 434.702 197.487 419.545 204.435 398.401C217.598 358.345 201.401 326.026 201.236 325.704L202.035 325.18C202.077 325.262 206.256 333.502 208.725 346.623C211.988 364.019 210.8 382.106 205.301 398.765C192.16 438.752 201.93 457.682 202.03 457.869L201.241 458.413Z" fill="#3F3D56"/>
<path d="M196.094 323.352C199.41 323.352 202.097 320.312 202.097 316.561C202.097 312.81 199.41 309.769 196.094 309.769C192.779 309.769 190.091 312.81 190.091 316.561C190.091 320.312 192.779 323.352 196.094 323.352Z" fill="#56087B"/>
<path d="M215.027 348.429C218.343 348.429 221.03 345.389 221.03 341.638C221.03 337.887 218.343 334.846 215.027 334.846C211.712 334.846 209.024 337.887 209.024 341.638C209.024 345.389 211.712 348.429 215.027 348.429Z" fill="#56087B"/>
<path d="M202.097 365.147C205.413 365.147 208.1 362.107 208.1 358.356C208.1 354.605 205.413 351.564 202.097 351.564C198.782 351.564 196.094 354.605 196.094 358.356C196.094 362.107 198.782 365.147 202.097 365.147Z" fill="#56087B"/>
<path d="M217.798 379.253C221.113 379.253 223.801 376.212 223.801 372.461C223.801 368.71 221.113 365.67 217.798 365.67C214.482 365.67 211.795 368.71 211.795 372.461C211.795 376.212 214.482 379.253 217.798 379.253Z" fill="#56087B"/>
<path d="M197.479 401.195C200.795 401.195 203.483 398.154 203.483 394.403C203.483 390.653 200.795 387.612 197.479 387.612C194.164 387.612 191.476 390.653 191.476 394.403C191.476 398.154 194.164 401.195 197.479 401.195Z" fill="#56087B"/>
<path d="M204.868 458.663C204.868 458.663 198.865 441.945 216.874 429.407L204.868 458.663Z" fill="#3F3D56"/>
<path d="M197.485 458.36C197.485 458.36 194.753 440.582 173.607 440.734L197.485 458.36Z" fill="#3F3D56"/>
<path d="M135.966 294.933L134.065 309.244L112.341 325.868C112.341 325.868 100.918 332.061 101.637 335.908C102.278 339.337 111.092 338.931 113.866 333.628L139.839 320.27L148.526 300.814L135.966 294.933Z" fill="#A0616A"/>
<path d="M138.85 431.377L139.811 446.601L149.103 445.876L147.501 431.377H138.85Z" fill="#A0616A"/>
<path d="M141.413 441.889C141.413 441.889 140.132 436.452 138.85 436.814L136.928 440.801C136.928 440.801 128.277 449.863 125.714 450.226C125.714 450.226 117.384 453.126 125.714 457.475H135.326C135.326 457.475 141.734 457.113 143.015 457.475C144.297 457.838 151.666 457.838 151.986 455.663C152.307 453.488 151.025 449.138 151.025 449.138C151.025 449.138 149.844 438.444 148.512 440.529C147.816 441.647 147.05 442.708 146.219 443.701L141.413 441.889Z" fill="#2F2E41"/>
<path d="M162.88 431.558L163.841 446.782L173.133 446.057L171.53 431.558H162.88Z" fill="#A0616A"/>
<path d="M165.443 442.07C165.443 442.07 164.161 436.633 162.88 436.995L160.957 440.983C160.957 440.983 152.307 450.045 149.744 450.407C149.744 450.407 141.413 453.307 149.744 457.657H159.356C159.356 457.657 165.763 456.932 167.045 457.294C168.327 457.657 175.696 457.657 176.016 455.482C176.336 453.307 175.055 449.32 175.055 449.32C175.055 449.32 173.873 438.626 172.542 440.71C171.846 441.829 171.079 442.889 170.249 443.882L165.443 442.07Z" fill="#2F2E41"/>
<path d="M126.355 338.039L124.753 340.577V345.651L135.006 388.786L136.928 398.21C136.928 398.21 136.928 434.458 138.85 434.458C140.773 434.458 149.423 435.546 149.423 433.371C149.423 431.196 148.783 381.899 148.783 381.899L157.433 400.385C157.433 400.385 161.278 433.008 162.559 433.371C163.841 433.733 172.812 433.371 173.453 431.196L171.53 410.535C171.53 410.535 171.851 387.336 166.404 382.262C166.404 382.262 165.443 376.099 164.482 373.562C163.521 371.025 161.919 369.575 162.88 367.762C163.841 365.95 161.598 346.014 161.598 346.014C161.598 346.014 162.239 339.852 160.957 338.039C159.676 336.227 126.355 338.039 126.355 338.039Z" fill="#2F2E41"/>
<path d="M146.86 255.757C152.346 255.757 156.792 250.726 156.792 244.52C156.792 238.315 152.346 233.284 146.86 233.284C141.375 233.284 136.928 238.315 136.928 244.52C136.928 250.726 141.375 255.757 146.86 255.757Z" fill="#A0616A"/>
<path d="M153.108 251.226L152.467 258.476L155.03 261.013L138.69 269.713C142.715 261.933 143.907 254.848 141.894 249.776L153.108 251.226Z" fill="#A0616A"/>
<path d="M141.894 262.101C141.894 262.101 139.331 267.9 142.535 266.45L152.467 258.476C152.467 258.476 163.36 263.188 167.205 268.625L164.001 307.048L161.438 334.233C161.438 334.233 163.04 337.496 162.72 337.858C162.399 338.221 162.079 337.496 162.399 338.583C162.72 339.671 163.681 338.583 162.72 339.671C161.758 340.758 160.797 339.671 161.758 340.758C162.72 341.845 161.758 342.208 161.758 342.208C161.758 342.208 160.477 333.508 149.263 340.033C138.049 346.558 133.243 348.37 124.913 340.396L134.525 299.073L135.301 283.488C135.56 278.282 136.379 273.132 137.74 268.15C138.474 265.459 139.754 262.815 141.894 261.376L141.894 262.101Z" fill="#D0CDE1"/>
<path d="M159.035 293.817L163.841 307.229L152.627 334.052C152.627 334.052 150.064 337.314 151.666 341.302C152.494 343.432 153.457 345.492 154.55 347.464C154.55 347.464 157.433 346.014 157.433 339.852L173.773 313.391L172.492 291.642L159.035 293.817Z" fill="#A0616A"/>
<path d="M158.394 269.894C157.029 271.648 156.078 273.764 155.629 276.046C155.181 278.327 155.251 280.7 155.831 282.943C157.754 290.918 159.355 297.08 159.355 297.08C159.355 297.08 167.045 290.555 173.453 294.542C173.453 294.542 172.492 270.981 167.045 268.806C161.598 266.632 158.394 269.894 158.394 269.894Z" fill="#D0CDE1"/>
<path d="M155.025 234.881C155.025 234.881 151.99 227.442 146.174 229.159C140.358 230.875 137.07 233.45 136.818 236.025C136.693 238.171 136.735 240.325 136.944 242.462C136.944 242.462 137.576 237.17 141.622 238.314C145.668 239.458 151.991 238.6 151.991 238.6L153.002 248.9C153.002 248.9 154.727 246.819 155.991 247.964C157.256 249.108 159.071 237.17 155.025 234.881Z" fill="#2F2E41"/>
<path d="M320.207 150.546L315.861 145.629L313.689 148.087L305.721 149.726C305.721 149.726 312.24 159.15 312.602 163.247L317.31 186.191C317.31 186.191 293.77 217.739 301.376 222.656C308.981 227.573 328.899 236.996 329.623 234.947C330.127 233.353 330.491 231.706 330.71 230.031C330.71 230.031 329.623 235.767 332.158 235.767C334.693 235.767 356.422 234.538 355.698 228.392C354.974 222.246 346.282 194.385 346.282 194.385L350.628 172.261C350.628 172.261 362.579 172.261 362.941 168.983L358.595 164.886L360.044 156.691L352.439 156.282L351.352 157.921L345.558 155.462L343.385 156.691L328.899 154.233L327.088 152.185H321.294L320.207 150.546Z" fill="#0C0E1C"/>
<path d="M276.564 325.049C279.053 335.46 287.58 341.908 287.58 341.908C287.58 341.908 292.071 331.476 289.581 321.064C287.092 310.653 278.565 304.205 278.565 304.205C278.565 304.205 274.074 314.637 276.564 325.049Z" fill="#56087B"/>
<path d="M280.222 322.811C287.053 330.334 287.887 341.899 287.887 341.899C287.887 341.899 277.646 341.267 270.815 333.743C263.984 326.22 263.15 314.655 263.15 314.655C263.15 314.655 273.391 315.288 280.222 322.811Z" fill="#3F3D56"/>
<path d="M337.71 113.753C336.875 112.485 335.794 111.452 334.549 110.733C333.304 110.014 331.93 109.63 330.533 109.609H330.192C323.627 109.609 318.305 116.33 318.305 124.621V124.621H320.505L320.86 121.562L321.381 124.621H334.428L335.521 122.033L335.248 124.621H337.815C339.012 131.351 337.291 138.08 332.652 144.81H337.024L339.21 139.633L338.664 144.81H346.999L348.638 132.904C348.638 123.987 344.059 116.426 337.71 113.753Z" fill="#2F2E41"/>
<path d="M351.895 241.708V223.197C351.895 207.038 358.127 191.542 369.245 181.399C377.556 173.818 389.593 168.149 406.836 169.416L400.267 139.688L457 183.604L401.462 227.52L407.135 199.481C407.135 199.481 372.498 192.049 351.895 241.708Z" fill="#4CAC7D"/>
<g filter="url(#filter0_d)">
<path d="M109.105 360.836V342.325C109.105 326.166 102.873 310.669 91.7548 300.527C83.4444 292.946 71.4073 287.277 54.1636 288.544L60.7326 258.816L4 302.732L59.5383 346.648L53.865 318.609C53.865 318.609 88.5018 311.177 109.105 360.836Z" fill="#0C0E1C"/>
</g>
<path d="M357.871 164.476L357.509 189.469L359.319 218.969C359.319 218.969 362.217 235.767 355.698 232.899C349.179 230.031 351.714 217.33 351.714 217.33L351.352 187.42V164.886L357.871 164.476Z" fill="#FFB8B8"/>
<path d="M350.085 163.509V172.25C352.748 172.154 355.396 171.739 357.982 171.013L358.052 162.633L350.085 163.509Z" fill="#2F2E41"/>
<defs>
<filter id="filter0_d" x="0" y="258.816" width="113.105" height="110.02" filterUnits="userSpaceOnUse" color-interpolation-filters="sRGB">
<feFlood flood-opacity="0" result="BackgroundImageFix"/>
<feColorMatrix in="SourceAlpha" type="matrix" values="0 0 0 0 0 0 0 0 0 0 0 0 0 0 0 0 0 0 127 0"/>
<feOffset dy="4"/>
<feGaussianBlur stdDeviation="2"/>
<feColorMatrix type="matrix" values="0 0 0 0 0 0 0 0 0 0 0 0 0 0 0 0 0 0 0.25 0"/>
<feBlend mode="normal" in2="BackgroundImageFix" result="effect1_dropShadow"/>
<feBlend mode="normal" in="SourceGraphic" in2="effect1_dropShadow" result="shape"/>
</filter>
</defs>
</svg>
