<svg width="624" height="567" viewBox="0 0 624 567" fill="none" xmlns="http://www.w3.org/2000/svg">
<path fill-rule="evenodd" clip-rule="evenodd" d="M141.114 0L624 0V538.551C582.098 552.441 536.993 560 490 560C268.534 560 89 392.107 89 185C89 117.726 107.943 54.5888 141.114 0Z" fill="#ECE4F1" fill-opacity="0.1"/>
<path d="M575 405.471C575 475.893 532.163 500.482 479.32 500.482C426.477 500.482 383.64 475.893 383.64 405.471C383.64 335.048 479.32 245.46 479.32 245.46C479.32 245.46 575 335.049 575 405.471Z" fill="#4CAC7D"/>
<path d="M475.835 489.709L476.814 430.772L517.596 357.859L476.968 421.527L477.408 395.026L505.514 342.274L477.525 388.013V388.014L478.317 340.351L508.414 298.353L478.441 332.856L478.937 245.46L475.826 361.156L476.082 356.384L445.482 310.61L475.591 365.546L472.74 418.776L472.655 417.364L437.379 369.193L472.548 422.355L472.191 429.012L472.127 429.112L472.157 429.658L464.923 564.709H474.588L475.747 494.953L510.83 441.921L475.835 489.709Z" fill="#3F3D56"/>
<path d="M51.7483 522.139C51.7483 541.183 40.1641 547.833 25.8742 547.833C11.5843 547.833 0 541.183 0 522.139C0 503.096 25.8742 478.869 25.8742 478.869C25.8742 478.869 51.7483 503.096 51.7483 522.139Z" fill="#6FBB96"/>
<path d="M3.64685 565.267H524.552" stroke="#3F3D56" stroke-width="2" stroke-miterlimit="10"/>
<path d="M524.83 548.132C524.83 561.013 516.995 565.511 507.329 565.511C507.105 565.511 506.881 565.508 506.658 565.504C506.21 565.494 505.767 565.473 505.329 565.444C496.605 564.841 489.828 560.112 489.828 548.132C489.828 535.735 506.039 520.092 507.256 518.934L507.259 518.932C507.306 518.887 507.329 518.865 507.329 518.865C507.329 518.865 524.83 535.252 524.83 548.132Z" fill="#087B14" fill-opacity="0.8"/>
<path d="M506.691 563.54L513.092 554.8L506.675 564.5L506.658 565.504C506.211 565.494 505.767 565.473 505.329 565.444L506.019 552.557L506.013 552.457L506.025 552.438L506.09 551.221L499.657 541.497L506.11 550.308L506.125 550.567L506.647 540.83L501.139 530.781L506.714 539.121L507.257 518.934L507.259 518.865V518.932L507.168 534.85L512.651 528.54L507.146 536.222L507.001 544.94L512.12 536.573L506.979 546.222L506.898 551.069L514.33 539.424L506.871 552.76L506.691 563.54Z" fill="#F2F2F2"/>
<path d="M338.233 254.211H334.873C334.13 254.211 333.529 254.8 333.529 255.525V301.639C333.529 302.364 334.13 302.952 334.873 302.952H338.233C338.976 302.952 339.578 302.364 339.578 301.639V255.525C339.578 254.8 338.976 254.211 338.233 254.211Z" fill="#3F3D56"/>
<path d="M134.944 216.027H133.312C132.825 216.027 132.431 216.413 132.431 216.889V231.211C132.431 231.687 132.825 232.073 133.312 232.073H134.944C135.431 232.073 135.826 231.687 135.826 231.211V216.889C135.826 216.413 135.431 216.027 134.944 216.027Z" fill="#3F3D56"/>
<path d="M135.14 245.404H133.301C132.752 245.404 132.307 245.839 132.307 246.376V272.362C132.307 272.899 132.752 273.334 133.301 273.334H135.14C135.689 273.334 136.134 272.899 136.134 272.362V246.376C136.134 245.839 135.689 245.404 135.14 245.404Z" fill="#3F3D56"/>
<path d="M135.065 283.106H133.315C132.792 283.106 132.369 283.52 132.369 284.031V310.352C132.369 310.863 132.792 311.277 133.315 311.277H135.065C135.587 311.277 136.011 310.863 136.011 310.352V284.031C136.011 283.52 135.587 283.106 135.065 283.106Z" fill="#3F3D56"/>
<path d="M315.855 163H155.292C143.728 163 134.354 172.162 134.354 183.463V544.625C134.354 555.926 143.728 565.088 155.292 565.088H315.855C327.419 565.088 336.793 555.926 336.793 544.625V183.463C336.793 172.162 327.419 163 315.855 163Z" fill="#0C0E1C"/>
<path d="M324.292 189.188V538.904C324.291 543.07 322.596 547.066 319.581 550.012C316.566 552.958 312.477 554.612 308.213 554.612H162.934C158.671 554.612 154.582 552.958 151.566 550.012C148.551 547.066 146.856 543.07 146.855 538.904V189.188C146.855 187.124 147.271 185.081 148.079 183.174C148.887 181.268 150.071 179.535 151.564 178.076C153.058 176.617 154.83 175.459 156.781 174.67C158.732 173.88 160.823 173.474 162.934 173.474H184.674V176.203C184.675 179.634 186.07 182.925 188.553 185.351C191.036 187.777 194.403 189.141 197.914 189.142H271.796C275.308 189.142 278.675 187.779 281.158 185.352C283.641 182.926 285.036 179.634 285.036 176.203V173.474H308.213C310.324 173.474 312.415 173.88 314.366 174.67C316.317 175.459 318.09 176.617 319.583 178.076C321.076 179.535 322.26 181.268 323.068 183.174C323.876 185.081 324.292 187.124 324.292 189.188Z" fill="white"/>
<path d="M324.392 254.546H146.65V454.05H324.392V254.546Z" fill="white"/>
<path d="M161.453 414.642L160.517 413.817C157.194 410.836 155.001 408.9 155.001 406.49C154.992 406.031 155.078 405.575 155.253 405.15C155.429 404.724 155.689 404.337 156.02 404.012C156.351 403.686 156.746 403.429 157.18 403.256C157.614 403.082 158.08 402.995 158.55 403C159.103 403.003 159.65 403.124 160.152 403.354C160.653 403.584 161.097 403.918 161.453 404.333C161.809 403.918 162.253 403.584 162.755 403.354C163.256 403.124 163.803 403.003 164.357 403C164.826 402.995 165.292 403.082 165.726 403.256C166.161 403.429 166.555 403.686 166.886 404.012C167.217 404.337 167.478 404.724 167.653 405.15C167.828 405.575 167.914 406.031 167.906 406.49C167.906 408.9 165.712 410.836 162.389 413.817L161.453 414.642Z" fill="#4CAC7D"/>
<path d="M195.379 411.592L197.187 412.097C197.51 411.182 198.056 410.357 198.778 409.694C199.501 409.031 200.377 408.55 201.332 408.292C202.287 408.035 203.292 408.008 204.26 408.215C205.228 408.422 206.129 408.856 206.887 409.48L204.125 412.097H211.021V405.545L208.242 408.149C207.248 407.297 206.054 406.7 204.766 406.41C203.478 406.12 202.137 406.147 200.862 406.488C199.588 406.829 198.42 407.474 197.462 408.365C196.505 409.256 195.789 410.365 195.379 411.592L195.379 411.592Z" fill="#F2F2F2"/>
<path d="M158.382 239.641C162.918 239.641 166.595 236.048 166.595 231.615C166.595 227.182 162.918 223.589 158.382 223.589C153.847 223.589 150.17 227.182 150.17 231.615C150.17 236.048 153.847 239.641 158.382 239.641Z" fill="#389583"/>
<path d="M249.306 227.029H173.047V236.201H249.306V227.029Z" fill="#389583"/>
<path d="M231.259 428.313H155.001V437.486H231.259V428.313Z" fill="#F2F2F2"/>
<path d="M316.317 448.309H155.001V457.482H316.317V448.309Z" fill="#F2F2F2"/>
<path d="M187.85 414.062L185.83 410.606C186.313 409.472 186.361 408.206 185.965 407.04C185.569 405.874 184.756 404.887 183.674 404.261C182.593 403.634 181.317 403.41 180.08 403.63C178.843 403.85 177.73 404.498 176.943 405.457C176.157 406.415 175.751 407.619 175.801 408.846C175.85 410.074 176.351 411.243 177.212 412.138C178.073 413.033 179.236 413.594 180.486 413.718C181.737 413.843 182.991 413.521 184.019 412.814L187.85 414.062Z" fill="#F2F2F2"/>
<path d="M42.6672 398.455L42.0676 402.979C41.8646 404.511 41.6616 406.044 41.5523 407.584C41.1887 412.709 41.8665 417.855 41.6881 422.989C41.5508 426.942 40.9063 430.892 41.2176 434.836C41.493 438.324 42.5088 441.71 43.5189 445.066L44.9627 449.863C44.9745 450.007 45.02 450.146 45.0956 450.269C45.1712 450.392 45.2749 450.497 45.3987 450.575C45.5224 450.653 45.6629 450.702 45.8091 450.718C45.9554 450.734 46.1034 450.717 46.2418 450.668L52.631 450.102C52.2218 448.269 51.7667 446.357 51.5468 444.493C51.3729 443.019 51.2684 441.538 51.1593 440.058C50.8193 435.444 50.4344 430.833 50.0495 426.222L49.3733 418.123C49.08 414.609 48.7832 411.075 47.8781 407.663C46.9761 404.208 45.1819 401.038 42.6672 398.455Z" fill="#4CAC7D"/>
<path d="M54.0494 553.58C53.6731 554.3 53.3457 555.044 53.0692 555.806C52.3356 557.911 52.2248 560.167 52.1204 562.388C52.0703 562.817 52.111 563.251 52.2399 563.663C52.5535 564.462 53.4574 564.866 54.3024 565.088C57.841 566.018 61.5722 565.143 65.2221 564.824C68.8044 564.51 72.4537 564.737 75.9625 563.965C76.4811 563.869 76.9823 563.699 77.4499 563.46C78.3394 562.895 79.003 562.048 79.3293 561.061C79.436 560.809 79.5078 560.544 79.5427 560.273C79.6586 559.104 78.6164 558.089 77.4812 557.705C76.3461 557.321 75.1118 557.384 73.9168 557.264C71.4586 557.017 69.1522 555.986 67.3546 554.329C65.5569 552.671 64.3683 550.482 63.9726 548.098C63.9302 547.843 58.0637 547.993 57.4463 548.324C56.7236 548.712 56.2861 549.679 55.879 550.332C55.2211 551.388 54.6112 552.471 54.0494 553.58Z" fill="#3F3D56"/>
<path opacity="0.1" d="M54.0494 553.58C53.6731 554.3 53.3457 555.044 53.0692 555.806C52.3356 557.911 52.2248 560.167 52.1204 562.388C52.0703 562.817 52.111 563.251 52.2399 563.663C52.5535 564.462 53.4574 564.866 54.3024 565.088C57.841 566.018 61.5722 565.143 65.2221 564.824C68.8044 564.51 72.4537 564.737 75.9625 563.965C76.4811 563.869 76.9823 563.699 77.4499 563.46C78.3394 562.895 79.003 562.048 79.3293 561.061C79.436 560.809 79.5078 560.544 79.5427 560.273C79.6586 559.104 78.6164 558.089 77.4812 557.705C76.3461 557.321 75.1118 557.384 73.9168 557.264C71.4586 557.017 69.1522 555.986 67.3546 554.329C65.5569 552.671 64.3683 550.482 63.9726 548.098C63.9302 547.843 58.0637 547.993 57.4463 548.324C56.7236 548.712 56.2861 549.679 55.879 550.332C55.2211 551.388 54.6112 552.471 54.0494 553.58Z" fill="black"/>
<path d="M63.7762 554.123C63.3999 554.844 63.0725 555.587 62.796 556.35C62.0624 558.454 61.9516 560.71 61.8472 562.931C61.7971 563.36 61.8378 563.794 61.9667 564.206C62.2803 565.005 63.1842 565.409 64.0292 565.631C67.5678 566.561 71.299 565.686 74.9489 565.367C78.5313 565.054 82.1805 565.28 85.6893 564.508C86.2079 564.413 86.7091 564.242 87.1767 564.003C88.0662 563.438 88.7298 562.591 89.0561 561.605C89.1628 561.352 89.2346 561.087 89.2695 560.816C89.3854 559.648 88.3432 558.632 87.208 558.248C86.0729 557.864 84.8386 557.928 83.6436 557.808C81.1855 557.561 78.879 556.529 77.0814 554.872C75.2837 553.215 74.0951 551.025 73.6994 548.641C73.657 548.386 67.7906 548.536 67.1731 548.867C66.4504 549.255 66.0129 550.222 65.6058 550.876C64.9479 551.932 64.3381 553.014 63.7762 554.123Z" fill="#3F3D56"/>
<path d="M89.1458 497.532C89.2215 509.044 85.7955 520.297 81.7773 531.119C80.1864 535.403 78.4983 539.65 76.7129 543.859C75.6559 546.354 74.4649 549.121 75.5975 551.584C72.338 550.372 69.0006 549.656 65.5595 550.216C66.8694 547.607 66.7461 544.569 66.8045 541.664C66.9183 537.721 67.3527 533.792 68.1036 529.915C69.2563 524.017 71.2339 518.301 73.9807 512.929C74.5376 511.796 74.9214 510.59 75.1198 509.349C75.4765 506.587 75.3124 503.786 74.6356 501.083C73.38 495.094 70.9965 489.386 67.6064 484.249C67.5956 484.363 67.5848 484.479 67.5719 484.593C67.3668 486.305 67.0717 488.006 66.6878 489.688C65.9183 493.254 65.0213 496.822 65.1553 500.407C65.2996 504.209 65.0585 508.016 64.4355 511.772C64.2377 513.247 63.8446 514.691 63.2661 516.068C62.89 516.892 62.3994 517.667 62.1032 518.521C61.8095 519.507 61.656 520.529 61.6472 521.556C61.2084 530.226 61.6407 541.319 63.4542 549.817C60.3981 549.68 57.3613 550.356 54.6677 551.774C52.4759 545.73 51.0796 537.146 50.0356 530.781C48.8533 523.262 49.0936 515.595 50.7445 508.161C51.258 505.681 51.4504 503.147 51.3173 500.62C51.0839 495.586 49.8173 490.662 48.5593 485.776C47.9195 483.296 47.2797 480.815 46.6398 478.334C45.7299 474.8 44.8184 471.265 43.9055 467.73C43.3003 465.378 42.6886 462.977 42.8788 460.558C43.0125 459.232 43.2974 457.925 43.7283 456.66C45.09 452.358 47.1258 448.289 49.7632 444.596C60.266 445.173 70.8962 444.212 81.3838 443.424C81.8938 443.325 82.423 443.413 82.871 443.671C83.227 444.026 83.439 444.495 83.4676 444.991C84.7817 452.264 86.0952 459.538 87.408 466.811C88.0473 469.848 88.4225 472.932 88.5298 476.031C88.5493 479.12 88.037 482.198 88.1559 485.284C88.3158 489.441 89.1199 493.372 89.1458 497.532Z" fill="#0C0E1C"/>
<path opacity="0.1" d="M67.5719 484.593C67.3669 486.305 67.0718 488.006 66.6879 489.688C64.4032 485.827 61.9412 482.062 59.8381 478.104C59.2955 477.083 58.779 476.051 58.2602 475.02C57.7436 473.989 57.227 472.958 56.7104 471.927C56.4207 471.348 56.1289 470.767 55.8674 470.174C55.4401 469.319 55.1124 468.419 54.8904 467.493C55.6555 467.356 57.5404 469.371 58.1067 469.897C59.2684 471.016 60.3652 472.198 61.3921 473.437C62.6347 474.812 63.7753 476.271 64.8052 477.804C66.1214 479.894 67.0575 482.191 67.5719 484.593Z" fill="black"/>
<path d="M76.3239 378.621C76.3239 378.621 70.4878 387.705 71.5686 389.606C72.6493 391.507 53.1958 387.916 53.1958 387.916C53.1958 387.916 63.7872 378.832 62.7064 375.03C61.6257 371.228 76.3239 378.621 76.3239 378.621Z" fill="#EFB7B9"/>
<path d="M71.1362 381.367C78.4182 381.367 84.3214 375.598 84.3214 368.481C84.3214 361.365 78.4182 355.596 71.1362 355.596C63.8543 355.596 57.951 361.365 57.951 368.481C57.951 375.598 63.8543 381.367 71.1362 381.367Z" fill="#EFB7B9"/>
<path d="M76.5193 388.146C75.108 386.226 73.1921 384.716 70.9743 383.773C69.6977 383.327 68.3778 383.009 67.0351 382.823L61.7747 381.92C60.4854 381.698 59.1056 381.486 57.9095 382.006C57.2982 382.308 56.7416 382.705 56.262 383.183C54.4336 384.838 52.6618 386.658 50.3694 387.613C49.7418 387.874 49.0855 388.066 48.4589 388.33C45.894 389.409 43.9763 391.663 42.8868 394.175C41.7437 396.811 41.7106 399.669 41.8009 402.53C41.798 403.518 41.8974 404.503 42.0974 405.471C42.3628 406.392 42.6963 407.293 43.0952 408.167C43.8216 410.034 44.43 411.943 44.9169 413.882C46.2797 418.981 47.4127 424.131 48.3159 429.333C48.3946 430.081 48.6197 430.807 48.9788 431.471C49.4864 432.133 50.1006 432.71 50.7974 433.179C51.3492 433.625 51.8592 434.119 52.3214 434.654C52.5469 434.883 52.7122 435.161 52.803 435.466C52.9737 436.235 52.2782 436.894 51.7137 437.455C50.5412 438.624 49.6936 440.067 49.2514 441.646C48.9759 441.97 48.8361 442.383 48.8602 442.804C48.9732 443.095 49.0152 443.408 48.9831 443.718C48.8748 444 48.7057 444.257 48.4873 444.471C48.2358 444.791 48.057 445.159 47.9626 445.552C47.8683 445.945 47.8607 446.353 47.9402 446.749C52.0272 448.484 56.401 449.485 60.8515 449.703C61.9414 449.752 63.0355 449.753 64.1183 449.883C64.8906 449.976 65.6535 450.135 66.4264 450.223C67.5507 450.326 68.6809 450.354 69.8091 450.308C75.6777 450.194 81.7186 450.045 87.1076 447.771C87.6152 445.07 86.5215 442.318 85.8355 439.655C84.7445 435.419 84.4696 431.026 83.6578 426.731C83.1022 423.791 82.2953 420.898 81.8326 417.943C81.3699 414.988 81.2613 411.924 82.0926 409.047C82.8292 406.498 83.0516 403.902 83.8151 401.361C84.5786 398.819 85.1136 396.063 84.2517 393.551C83.1829 390.437 79.8757 387.974 76.5193 388.146Z" fill="#4CAC7D"/>
<path d="M82.9944 361.65C83.6356 359.362 82.3747 356.981 80.8662 355.122C79.2453 353.125 77.151 351.323 74.5938 350.821C72.5155 350.414 70.3621 350.906 68.2491 350.742C66.3761 350.597 64.5815 349.94 62.7182 349.705C61.0327 349.528 59.3298 349.591 57.6629 349.892C56.0783 350.118 54.5296 350.541 53.0546 351.15C47.4419 353.58 44.1532 359.583 43.3901 365.536C42.627 371.489 43.9651 377.487 45.2952 383.344L46.4976 388.638C47.7491 394.149 49.0048 399.689 49.3396 405.324C49.6744 410.959 49.0497 416.744 46.6777 421.891C54.3468 417.865 60.2889 411.29 63.4295 403.355C64.2825 401.176 64.9139 398.915 65.8586 396.772C66.6714 394.929 67.712 393.183 68.4325 391.303C69.245 389.179 69.6351 386.923 69.5819 384.656C69.5409 382.953 69.2492 381.257 69.3001 379.554C69.3509 377.851 69.7942 376.073 70.999 374.841C72.07 373.747 73.5917 373.22 74.9718 372.531C77.1421 371.442 79.0381 369.896 80.5231 368.004C81.392 366.898 81.4383 366.425 81.6593 365.149C81.8743 363.907 82.6568 362.855 82.9944 361.65Z" fill="#2F2E41"/>
<path d="M83.0126 458.455C83.1461 459.779 82.8999 461.137 83.1964 462.437C83.4192 463.413 83.9369 464.3 84.2412 465.256C84.5435 466.363 84.699 467.503 84.7039 468.649C84.7479 469.609 84.6724 470.778 83.8029 471.228C83.421 471.426 82.9629 471.429 82.5654 471.595C82.1679 471.761 81.8269 472.232 82.0545 472.591C82.2459 472.893 82.6803 472.897 83.0363 472.968C83.3924 473.04 83.7841 473.4 83.5775 473.692C83.4945 473.788 83.384 473.857 83.2603 473.89C82.8963 473.997 82.5517 474.159 82.2389 474.37C82.0839 474.478 81.9625 474.626 81.8883 474.797C81.8141 474.968 81.7899 475.156 81.8185 475.34C81.8399 475.429 81.8816 475.511 81.9406 475.582C81.9995 475.652 82.074 475.709 82.1586 475.747C82.2431 475.785 82.3354 475.804 82.4285 475.802C82.5215 475.8 82.6129 475.777 82.6957 475.735C82.5362 476.068 82.449 476.43 82.4398 476.798C83.8311 477.382 85.3973 476.618 86.7067 475.874C87.2745 475.566 87.8227 475.225 88.3483 474.853C89.4028 474.057 90.2422 473.022 90.7937 471.837C91.3452 470.651 91.5919 469.352 91.5125 468.053C91.4518 467.399 91.3492 466.749 91.2052 466.108C91.0022 464.992 90.7342 463.889 90.4026 462.803C90.0283 461.658 89.5138 460.562 89.0725 459.439C88.1323 457.048 87.527 454.545 86.6803 452.12C86.6682 452.004 86.6317 451.892 86.5732 451.791C86.5146 451.689 86.4353 451.601 86.3401 451.531C86.2449 451.461 86.136 451.411 86.0201 451.384C85.9041 451.357 85.7838 451.353 85.6665 451.374C84.7125 451.325 83.7562 451.411 82.8273 451.629C82.2659 451.789 81.3451 452.142 81.0934 452.717C80.8667 453.234 81.2467 453.698 81.4878 454.141C82.2773 455.469 82.7952 456.934 83.0126 458.455Z" fill="#EFB7B9"/>
<path opacity="0.1" d="M82.1206 393.719C82.402 393.998 82.6376 394.319 82.8191 394.668C84.6925 397.996 84.7162 401.979 84.8043 405.776C84.9034 410.05 85.1428 414.319 85.3821 418.588L86.0978 431.354C86.1662 432.574 86.2348 433.795 86.4098 435.005C87.2517 435.212 87.2866 436.276 87.189 437.119C86.5863 442.329 85.0866 447.692 86.6572 452.705C86.7172 452.963 86.8436 453.202 87.0244 453.4C86.2328 453.155 85.3853 453.144 84.5872 453.367C83.8043 453.529 83.0516 453.808 82.2715 453.982C81.2788 454.203 80.1535 454.298 79.4763 455.041C78.711 452.788 78.1017 450.487 77.6523 448.154C77.2805 446.035 77.1793 443.83 76.2955 441.861C75.9386 441.065 75.4618 440.328 75.0267 439.57C72.7377 435.586 71.617 431.079 70.5217 426.637C70.0299 424.53 69.9121 422.357 70.1732 420.212C70.3287 419.233 70.4201 418.245 70.4467 417.255C70.3769 416.21 70.2368 415.171 70.0273 414.144C69.5649 411.132 69.7815 408.058 70.6619 405.137C71.4822 402.424 72.2014 399.57 73.9167 397.291C75.6321 395.013 79.2263 393.757 82.1206 393.719Z" fill="black"/>
<path d="M82.7691 393.296C83.0505 393.576 83.286 393.896 83.4675 394.246C85.3409 397.573 85.3647 401.556 85.4527 405.353C85.5519 409.627 85.7912 413.897 86.0305 418.165L86.7463 430.932C86.8146 432.151 86.8832 433.373 87.0582 434.582C87.9002 434.79 87.935 435.853 87.8374 436.696C87.2347 441.906 85.735 447.269 87.3056 452.282C87.3656 452.541 87.492 452.78 87.6728 452.977C86.8813 452.733 86.0337 452.722 85.2356 452.945C84.4528 453.106 83.7 453.386 82.9199 453.559C81.9273 453.78 80.802 453.875 80.1247 454.618C79.3595 452.365 78.7501 450.065 78.3007 447.732C77.9289 445.612 77.8277 443.408 76.9439 441.438C76.587 440.642 76.1102 439.905 75.6751 439.148C73.3861 435.163 72.2654 430.656 71.1701 426.214C70.6784 424.108 70.5605 421.934 70.8216 419.789C70.9772 418.81 71.0685 417.822 71.0951 416.832C71.0254 415.787 70.8853 414.748 70.6757 413.721C70.2133 410.71 70.4299 407.636 71.3104 404.714C72.1306 402.002 72.8498 399.147 74.5652 396.869C76.2805 394.59 79.8747 393.335 82.7691 393.296Z" fill="#4CAC7D"/>
<path opacity="0.1" d="M80.8662 355.122C79.2454 353.125 77.1511 351.323 74.5938 350.821C72.5156 350.414 70.3622 350.906 68.2491 350.742C66.3762 350.597 64.5815 349.94 62.7183 349.705C61.0328 349.528 59.3299 349.591 57.663 349.892C56.0784 350.118 54.5297 350.541 53.0546 351.15C52.2576 351.497 51.4968 351.919 50.7832 352.409C52.0982 351.923 53.4625 351.575 54.853 351.371C56.5199 351.07 58.2228 351.007 59.9083 351.183C61.7716 351.419 63.5662 352.075 65.4392 352.221C67.5522 352.384 69.7056 351.892 71.7838 352.3C74.3411 352.801 76.4354 354.603 78.0563 356.6C79.5648 358.459 80.8257 360.841 80.1845 363.129C79.8469 364.334 79.0644 365.386 78.8494 366.627C78.6284 367.904 78.5821 368.376 77.7132 369.483C76.5948 370.906 75.2419 372.137 73.71 373.126C74.1328 372.929 74.5586 372.738 74.9719 372.531C77.1422 371.442 79.0382 369.896 80.5231 368.004C81.3921 366.898 81.4383 366.425 81.6594 365.149C81.8743 363.907 82.6568 362.855 82.9945 361.65C83.6357 359.362 82.3748 356.981 80.8662 355.122Z" fill="black"/>
<path opacity="0.1" d="M70.999 374.841C71.2256 374.612 71.4722 374.403 71.7362 374.216C70.4763 374.812 69.1509 375.337 68.189 376.32C66.9842 377.552 66.5409 379.329 66.49 381.033C66.4392 382.736 66.7309 384.432 66.7719 386.135C66.8251 388.402 66.4349 390.658 65.6224 392.781C64.902 394.661 63.8614 396.407 63.0486 398.251C62.1039 400.394 61.4725 402.655 60.6195 404.834C57.8952 411.712 53.0572 417.596 46.7711 421.677C46.7391 421.748 46.7103 421.82 46.6776 421.891C54.3468 417.865 60.2889 411.29 63.4295 403.355C64.2824 401.176 64.9138 398.915 65.8585 396.772C66.6714 394.929 67.712 393.183 68.4324 391.303C69.2449 389.179 69.635 386.923 69.5818 384.656C69.5408 382.953 69.2492 381.257 69.3 379.554C69.3508 377.851 69.7942 376.073 70.999 374.841Z" fill="black"/>
<path d="M360.566 564.235C359.938 564.976 358.864 565.125 357.891 565.222C356.635 565.4 355.361 565.424 354.099 565.293C352.599 565.075 351.701 565.908 350.33 565.267C349.502 564.88 348.226 565.655 347.397 565.267C346.261 564.736 342.339 564.626 341.647 563.589C340.956 562.552 341.026 560.914 342.119 560.302C342.429 560.158 342.75 560.035 343.077 559.935C344.908 559.223 348.617 553.852 350.564 553.577C351.531 553.533 352.49 553.754 353.335 554.215C355.256 555.048 358.647 555.706 359.485 557.821C360.138 559.468 361.924 562.625 360.566 564.235Z" fill="#2F2E41"/>
<path d="M374.362 563.81C374.99 564.551 376.065 564.7 377.037 564.797C378.293 564.975 379.567 564.999 380.83 564.868C382.329 564.65 384.156 565.908 385.527 565.267C386.355 564.88 387.631 565.082 388.46 564.694C389.596 564.163 394.936 565.348 395.628 564.311C396.319 563.273 396.249 561.635 395.155 561.023C394.845 560.879 394.525 560.757 394.198 560.657C392.367 559.945 386.312 553.427 384.364 553.152C383.398 553.108 382.438 553.329 381.593 553.79C379.673 554.623 376.282 555.281 375.444 557.396C374.791 559.043 373.005 562.2 374.362 563.81Z" fill="#2F2E41"/>
<path d="M380.428 446.748C381.028 447.875 381.552 449.039 381.997 450.232C387.323 464 387.768 479.045 387.988 493.762C387.97 496.155 388.11 498.546 388.407 500.922C388.63 502.428 388.983 503.95 388.755 505.456C388.559 506.758 387.932 508.042 388.182 509.335C388.294 509.915 388.578 510.452 388.69 511.033C388.777 511.668 388.759 512.314 388.637 512.944L387.923 518.136C387.517 521.093 386.578 523.941 386.629 526.925C386.664 528.96 386.699 530.999 386.931 533.021C387.166 535.075 387.605 537.113 387.627 539.18C387.644 540.727 387.427 542.267 387.287 543.809C387.089 545.986 387.045 548.173 387.153 550.356C387.236 552.038 387.434 553.785 388.347 555.213C387.324 556.647 386.312 557.931 384.674 558.632C381.347 560.058 377.53 559.574 373.934 559.064C374.134 558.416 374.442 557.681 374.154 557.065C373.985 556.767 373.778 556.491 373.537 556.244C372.752 555.153 372.208 553.915 371.937 552.608C371.502 551.058 371.066 549.39 371.96 547.902C372.268 547.373 372.404 546.764 372.35 546.157C371.605 536.397 369.384 526.299 371.43 516.721C371.648 515.699 371.908 514.682 372.03 513.645C372.14 512.152 372.159 510.655 372.085 509.16L372.042 507.079C371.936 504.859 372.028 502.584 371.572 500.388C371.246 498.815 370.637 497.235 371.388 495.632C371.552 495.265 371.627 494.865 371.607 494.465C371.588 494.065 371.475 493.674 371.276 493.323C369.697 490.619 368.427 487.753 367.489 484.778C367.294 483.946 367.027 483.132 366.691 482.345C366.233 481.515 365.706 480.724 365.117 479.978C363.335 477.453 362.27 474.523 361.224 471.631C361.335 471.366 361.25 470.997 360.959 471.035C360.671 471.107 360.424 471.287 360.273 471.536C358.84 473.418 358.719 475.929 358.655 478.274C358.546 480.453 358.584 482.637 358.769 484.811C358.892 485.95 359.095 487.08 359.199 488.221C359.336 490.35 359.302 492.485 359.096 494.608L358.364 505.056C358.265 505.92 358.318 506.794 358.522 507.64C358.991 509.104 359.22 510.632 359.2 512.166C359.007 518.477 359.565 524.788 360.863 530.973C361.22 532.681 361.634 534.378 361.937 536.095C362.651 540.143 362.749 544.268 362.845 548.374C362.904 550.899 362.947 553.514 361.929 555.836C361.531 556.552 361.239 557.319 361.062 558.115C361.058 558.525 361.002 558.933 360.896 559.33C360.597 560.081 359.7 560.401 358.894 560.573C357.38 560.895 355.826 561.003 354.281 560.894C353.918 560.888 353.56 560.81 353.229 560.666C352.652 560.374 352.346 559.755 351.908 559.287C350.962 558.278 349.39 557.968 348.528 556.889C347.451 555.54 347.903 553.585 348.544 551.992C349.185 550.399 349.979 548.67 349.427 547.045C348.777 545.131 346.47 544.1 345.851 542.176C347.618 534.415 343.279 526.388 343.65 518.446C343.737 516.596 344.066 514.759 344.072 512.907C344.089 508.137 341.975 503.495 342.323 498.737C343.206 486.645 338.992 474.573 337.207 462.577C336.869 460.786 336.742 458.963 336.831 457.144C337.096 454.142 338.522 451.347 340.237 448.842C341.467 447.048 342.945 445.291 344.981 444.452C346.657 443.76 348.536 443.763 350.355 443.777C354.895 443.811 359.435 443.846 363.975 443.926C367.064 443.883 370.149 444.153 373.182 444.731C375.637 445.28 377.935 446.399 380.428 446.748Z" fill="#0C0E1C"/>
<path d="M395.102 435.651C395.366 436.319 395.563 437.011 395.692 437.716C396.454 441.328 396.935 444.99 397.409 448.649C397.535 449.626 397.662 450.604 397.701 451.587C397.835 453.923 397.343 456.252 396.274 458.345C395.188 460.443 393.34 462.07 391.092 462.909C390.399 463.149 389.431 463.193 389.129 462.538C389.021 462.236 389.024 461.906 389.136 461.605C389.409 460.63 389.965 459.756 390.326 458.809C390.862 457.395 390.951 455.856 390.583 454.391C390.44 453.831 390.141 453.206 389.562 453.095C389.851 454.386 389.607 455.737 388.884 456.854C388.719 457.165 388.436 457.4 388.094 457.508C387.855 457.532 387.614 457.475 387.412 457.347C387.21 457.22 387.058 457.029 386.981 456.806C386.84 456.356 386.809 455.879 386.892 455.415C387.077 453.068 387.443 450.738 387.985 448.444C388.631 445.927 389.654 443.443 389.589 440.848C389.529 438.497 388.571 436.188 388.839 433.851C388.843 433.706 388.891 433.566 388.976 433.449C389.06 433.366 389.163 433.305 389.276 433.268C389.948 432.997 390.639 432.773 391.343 432.599C391.76 432.496 393.182 432.014 393.581 432.23C393.904 432.405 394.003 433.452 394.165 433.806C394.451 434.434 394.831 435.016 395.102 435.651Z" fill="#A1616A"/>
<path d="M347.627 365.997C353.052 365.997 357.451 361.699 357.451 356.396C357.451 351.094 353.052 346.795 347.627 346.795C342.201 346.795 337.803 351.094 337.803 356.396C337.803 361.699 342.201 365.997 347.627 365.997Z" fill="#A1616A"/>
<path d="M356.429 363.345C356.428 363.957 356.477 364.568 356.578 365.171C356.713 365.782 356.905 366.38 357.15 366.957C357.479 367.896 357.942 368.784 358.526 369.595C359.12 370.412 360.008 370.977 361.012 371.178C354.297 374.254 347.129 376.279 339.771 377.178C340.93 376.424 341.895 375.418 342.589 374.238C342.957 373.48 343.208 372.674 343.335 371.844C343.962 368.373 343.643 364.803 342.412 361.49C342.29 361.163 342.171 360.762 342.402 360.498C342.5 360.4 342.619 360.324 342.75 360.276C345.668 359.069 348.819 358.495 351.986 358.593C352.795 358.599 353.604 358.634 354.411 358.69C354.845 358.721 355.804 358.632 356.149 358.943C356.561 359.314 356.355 360.465 356.368 360.967L356.429 363.345Z" fill="#A1616A"/>
<path d="M338.699 358.746C337.378 358.051 337.726 356.164 337.502 354.714C337.04 351.732 333.592 349.963 332.782 347.053C333.712 347.164 334.656 347.034 335.518 346.674C335.684 345.708 335.488 344.715 334.966 343.878C337.802 342.752 340.097 340.543 342.977 339.528C346.598 338.252 350.631 339.036 354.284 340.222C356.107 340.814 358.003 341.582 359.105 343.12C360.316 344.808 360.297 347.031 360.232 349.091C360.13 352.323 360 355.671 358.527 358.567C356.653 362.254 351.345 365.668 346.96 364.67C345.136 364.254 344.6 363.135 343.831 361.586C343.353 360.622 343.173 359.503 342.096 359.002C341.043 358.512 339.767 359.308 338.699 358.746Z" fill="#2F2E41"/>
<path opacity="0.1" d="M378.536 427.584C378.548 427.839 378.555 428.096 378.558 428.354C378.545 428.1 378.538 427.843 378.536 427.584Z" fill="black"/>
<path opacity="0.1" d="M335.985 437.229C336.632 438.885 336.607 440.709 336.574 442.481C336.565 442.944 336.556 443.407 336.547 443.869C336.506 442.914 336.316 441.969 335.985 441.069C335.717 440.384 335.339 439.743 335.098 439.048C334.683 437.835 334.698 436.521 335.141 435.317C335.383 435.969 335.732 436.58 335.985 437.229Z" fill="black"/>
<path opacity="0.1" d="M335.518 345.278L335.508 345.281C335.419 344.785 335.235 344.309 334.966 343.878C335.133 343.812 335.297 343.742 335.46 343.669C335.589 344.196 335.609 344.743 335.518 345.278Z" fill="black"/>
<path d="M25.9378 325.705L23.6223 323.664C15.3997 316.286 9.97131 311.497 9.97131 305.532C9.95094 304.397 10.1638 303.27 10.5972 302.217C11.0306 301.164 11.6758 300.206 12.4947 299.401C13.3135 298.596 14.2892 297.96 15.3642 297.53C16.4391 297.1 17.5914 296.885 18.7528 296.898C20.1235 296.905 21.4761 297.204 22.7169 297.773C23.9576 298.342 25.0566 299.169 25.9378 300.195C26.8188 299.169 27.9179 298.342 29.1586 297.773C30.3994 297.204 31.752 296.905 33.1227 296.898C34.2841 296.885 35.4364 297.1 36.5113 297.53C37.5863 297.96 38.562 298.596 39.3809 299.401C40.1997 300.206 40.8449 301.164 41.2783 302.217C41.7118 303.27 41.9246 304.397 41.9042 305.532C41.9042 311.498 36.4757 316.286 28.2532 323.664L25.9378 325.705Z" fill="#4CAC7D" fill-opacity="0.8"/>
<path d="M361.627 370.33C360.182 368.52 358.158 367.235 355.879 366.68C353.6 366.125 351.196 366.331 349.051 367.267C344.375 369.449 342.072 374.687 337.96 377.768C337.024 378.452 336.028 379.052 334.982 379.561C334.364 379.894 333.706 380.149 333.022 380.319C332.253 380.484 331.451 380.461 330.686 380.641C329.227 381.06 327.985 382.002 327.208 383.279C326.823 383.946 326.397 384.59 325.93 385.206C325.501 385.704 324.967 386.107 324.512 386.585C322.877 388.302 322.433 390.768 322.06 393.085C320.78 394.402 319.384 395.606 317.888 396.682C317.417 397.036 316.895 397.318 316.338 397.52C314.899 397.975 313.313 397.395 312.086 396.53C310.86 395.664 309.861 394.524 308.652 393.635C307.541 395.187 306.38 396.744 305.197 398.243C305.018 398.529 304.746 398.747 304.424 398.862C304.202 399.593 304.735 400.35 305.134 401.006L307.276 404.524C307.984 405.804 308.853 406.994 309.862 408.064C310.885 409.141 312.283 409.806 313.782 409.928C314.728 409.919 315.665 409.744 316.547 409.411C320.629 408.069 324.377 405.927 328.26 404.107C328.963 403.715 329.751 403.489 330.56 403.448C330.965 403.438 331.362 403.557 331.69 403.788C332.018 404.019 332.26 404.349 332.378 404.727C332.824 406.925 333.266 409.114 333.878 411.273C334.456 413.309 334.992 415.356 335.487 417.413C335.818 418.672 336.055 419.953 336.195 421.245C336.259 421.979 336.265 422.717 336.272 423.453L336.355 432.354C336.364 433.312 335.805 433.91 335.375 434.771C334.715 436.107 334.616 437.642 335.098 439.049C335.339 439.743 335.717 440.384 335.985 441.069C336.632 442.725 336.607 444.549 336.574 446.322L336.496 450.383C336.477 450.552 336.508 450.722 336.586 450.873C336.84 451.26 337.451 451.033 337.838 450.771L339.781 449.455C342.381 449.805 345.008 449.929 347.63 449.826C355.088 449.72 362.548 450.01 369.989 450.519C372.472 450.689 375.038 450.873 377.385 450.064C378.576 449.653 379.673 448.996 380.89 448.667C381.392 448.591 381.869 448.399 382.281 448.107C382.962 447.492 382.781 446.411 382.503 445.546C382.26 444.789 381.984 444.043 381.675 443.308C381.357 442.633 381.098 441.933 380.901 441.215C380.528 439.595 380.89 437.723 379.858 436.404C377.548 433.451 379.183 428.907 378.214 425.313C377.9 424.15 377.437 423.029 377.143 421.861C376.958 421.128 376.841 420.38 376.725 419.634C376.421 418.019 376.27 416.381 376.274 414.739C376.303 413.918 376.408 413.101 376.514 412.286L377.248 406.623C378.165 408.298 378.803 410.105 379.137 411.976C379.805 414.771 380.627 417.528 381.6 420.236C382.154 421.869 382.707 423.502 383.305 425.12C383.683 426.041 383.975 426.994 384.175 427.966C384.308 428.751 384.311 429.551 384.404 430.341C384.605 432.035 385.212 433.659 386.175 435.081C386.353 435.411 386.647 435.666 387.003 435.8C387.244 435.844 387.491 435.834 387.728 435.771C390.321 435.271 392.831 434.422 395.187 433.249C395.688 433.047 396.124 432.715 396.446 432.288C397.081 431.281 396.372 430.022 396.063 428.878C395.733 427.652 395.81 426.177 394.822 425.356C391.382 422.494 393.09 416.685 391.368 412.604C391.065 411.888 390.713 411.191 390.453 410.459C390.253 409.899 390.109 409.323 389.964 408.748C388.762 403.994 387.475 399.261 386.104 394.55C384.683 389.666 384.835 384.578 383.045 379.81C382.709 378.811 382.27 377.847 381.734 376.935C381.129 375.981 380.32 375.167 379.362 374.547C376.765 372.869 374.144 371.44 371.093 370.831C368.043 370.222 364.74 370.316 361.627 370.33Z" fill="#D0CDE1"/>
<path d="M307.076 391.623C306.636 389.519 307.467 387.269 306.817 385.219C306.583 384.479 306.007 383.711 305.215 383.732C304.446 383.753 303.925 384.489 303.243 384.838C302.144 385.4 300.808 384.889 299.71 384.326C298.611 383.763 297.386 383.126 296.195 383.463C296.054 384.193 296.558 384.888 297.107 385.402C297.714 385.85 298.217 386.42 298.581 387.073C298.76 387.779 298.828 388.507 298.783 389.233C298.907 390.899 299.987 392.334 301.066 393.63C302.804 395.718 304.65 397.718 306.596 399.623C306.593 399.62 309.549 396.045 309.492 395.421C309.439 394.832 308.444 394.281 308.083 393.806C307.588 393.159 307.244 392.413 307.076 391.623Z" fill="#A1616A"/>
<path d="M164.8 307.8H175.76C178.827 307.8 181.467 308.36 183.68 309.48C185.893 310.6 187.587 312.213 188.76 314.32C189.933 316.427 190.52 318.947 190.52 321.88C190.52 324.813 189.933 327.347 188.76 329.48C187.613 331.587 185.933 333.2 183.72 334.32C181.507 335.44 178.853 336 175.76 336H164.8V307.8ZM175.32 330.96C181.32 330.96 184.32 327.933 184.32 321.88C184.32 315.853 181.32 312.84 175.32 312.84H171.04V330.96H175.32ZM212.508 327.32H199.708C199.894 328.893 200.401 330.04 201.228 330.76C202.081 331.453 203.281 331.8 204.828 331.8C205.841 331.8 206.841 331.64 207.828 331.32C208.841 330.973 209.761 330.493 210.588 329.88L212.188 333.92C211.228 334.667 210.054 335.253 208.668 335.68C207.308 336.107 205.934 336.32 204.548 336.32C201.241 336.32 198.628 335.413 196.708 333.6C194.814 331.76 193.868 329.267 193.868 326.12C193.868 324.12 194.281 322.347 195.108 320.8C195.934 319.253 197.081 318.053 198.548 317.2C200.014 316.32 201.681 315.88 203.548 315.88C206.294 315.88 208.468 316.773 210.068 318.56C211.694 320.347 212.508 322.773 212.508 325.84V327.32ZM203.708 320.04C202.561 320.04 201.641 320.413 200.948 321.16C200.281 321.88 199.868 322.933 199.708 324.32H207.428C207.348 322.907 206.988 321.84 206.348 321.12C205.734 320.4 204.854 320.04 203.708 320.04ZM235.285 316.4L226.645 336H221.525L213.005 316.4H219.285L224.245 328.88L229.365 316.4H235.285Z" fill="black"/>
<path d="M250.853 336.36C247.999 336.36 245.506 335.76 243.373 334.56C241.266 333.36 239.639 331.667 238.493 329.48C237.373 327.293 236.813 324.76 236.813 321.88C236.813 319 237.373 316.467 238.493 314.28C239.639 312.093 241.266 310.413 243.373 309.24C245.506 308.04 247.999 307.44 250.853 307.44C252.719 307.44 254.506 307.733 256.213 308.32C257.919 308.88 259.319 309.667 260.413 310.68L258.413 315.12C257.186 314.187 255.959 313.507 254.733 313.08C253.533 312.653 252.279 312.44 250.973 312.44C248.466 312.44 246.533 313.24 245.173 314.84C243.839 316.44 243.173 318.787 243.173 321.88C243.173 324.973 243.839 327.333 245.173 328.96C246.533 330.56 248.466 331.36 250.973 331.36C252.279 331.36 253.533 331.147 254.733 330.72C255.959 330.293 257.186 329.613 258.413 328.68L260.413 333.12C259.319 334.133 257.919 334.933 256.213 335.52C254.506 336.08 252.719 336.36 250.853 336.36ZM273.291 336.32C271.211 336.32 269.385 335.907 267.811 335.08C266.238 334.227 265.025 333.04 264.171 331.52C263.318 329.973 262.891 328.16 262.891 326.08C262.891 324 263.318 322.2 264.171 320.68C265.025 319.133 266.238 317.947 267.811 317.12C269.385 316.293 271.211 315.88 273.291 315.88C275.371 315.88 277.198 316.293 278.771 317.12C280.345 317.947 281.558 319.133 282.411 320.68C283.265 322.2 283.691 324 283.691 326.08C283.691 328.16 283.265 329.973 282.411 331.52C281.558 333.04 280.345 334.227 278.771 335.08C277.198 335.907 275.371 336.32 273.291 336.32ZM273.291 331.72C276.225 331.72 277.691 329.84 277.691 326.08C277.691 324.187 277.305 322.773 276.531 321.84C275.785 320.907 274.705 320.44 273.291 320.44C270.358 320.44 268.891 322.32 268.891 326.08C268.891 329.84 270.358 331.72 273.291 331.72ZM299.687 315.88C302.034 315.88 303.78 316.573 304.927 317.96C306.074 319.32 306.647 321.387 306.647 324.16V336H300.607V324.44C300.607 323.107 300.354 322.133 299.847 321.52C299.367 320.907 298.607 320.6 297.567 320.6C296.314 320.6 295.3 321 294.527 321.8C293.78 322.6 293.407 323.667 293.407 325V336H287.367V316.36H293.247V319.16C293.94 318.093 294.834 317.28 295.927 316.72C297.047 316.16 298.3 315.88 299.687 315.88Z" fill="#4CAC7D" fill-opacity="0.8"/>
</svg>
