<svg width="588" height="336" viewBox="0 0 588 336" fill="none" xmlns="http://www.w3.org/2000/svg">
<path opacity="0.1" d="M250.151 12.8949C226.25 5.48083 200.992 -0.71232 175.208 0.0662474C137.298 1.20756 100.905 18.6059 83.0836 44.1526C67.9627 65.7977 66.0969 91.1675 59.5832 115.188C51.5672 144.778 36.1859 172.908 19.7634 200.41C10.9446 215.185 1.63779 230.279 0.189694 246.474C-1.81703 268.96 12.268 291.366 34.3582 306.322C56.4484 321.279 85.7845 329.17 115.229 330.891C130.898 331.807 147.272 330.958 161.188 325.393C175.913 319.505 186.647 308.866 201.431 303.062C215.131 297.683 231.158 296.931 246.539 297.63C266.622 298.542 286.447 301.759 305.428 307.185C326.927 313.342 346.919 322.265 368.342 328.511C389.765 334.757 413.759 338.243 435.681 333.032C456.29 328.135 472.561 316.244 487.232 304.203C511.221 284.549 533.208 263.336 552.976 240.772C566.215 225.639 578.538 209.673 584.39 192.036C595.584 158.315 580.181 120.271 546.018 97.2412C517.712 78.1619 479.726 69.8808 442.542 64.8555C408.633 60.2725 369.426 59.9894 338.214 48.0455C308.449 36.6412 281.364 22.5828 250.151 12.8949Z" fill="#39035B"/>
<path d="M343.084 273.821V289.893H348.687L347.602 272.64L343.084 273.821Z" fill="#AAABB0"/>
<path d="M258.927 270.579V286.65H264.535L263.45 269.398L258.927 270.579Z" fill="#AAABB0"/>
<path d="M356.822 246.987C356.822 245.358 355.204 244.037 353.207 244.037C351.211 244.037 349.593 245.358 349.593 246.987V269.694C349.593 271.324 351.211 272.645 353.207 272.645C355.204 272.645 356.822 271.324 356.822 269.694V246.987Z" fill="#AAABB0"/>
<path d="M264.079 240.644C264.079 239.014 262.461 237.693 260.464 237.693C258.468 237.693 256.849 239.014 256.849 240.644V269.69C256.849 271.319 258.468 272.64 260.464 272.64C262.461 272.64 264.079 271.319 264.079 269.69V240.644Z" fill="#AAABB0"/>
<path d="M366.048 72.8402C366.048 72.8402 373.277 70.332 374.362 72.8402C375.447 75.3485 375.989 97.0245 375.989 97.0245H369.117L366.048 72.8402Z" fill="#AAABB0"/>
<path d="M286.863 72.8402C286.863 72.8402 279.628 70.332 278.544 72.8402C277.459 75.3485 276.917 97.0245 276.917 97.0245H283.788L286.863 72.8402Z" fill="#AAABB0"/>
<path d="M287.943 51.31L286.858 69.3011H291.739V50.8677L287.943 51.31Z" fill="#AAABB0"/>
<path d="M283.788 97.0244L285.236 71.0707C285.236 71.0707 284.694 65.3199 301.865 67.0894C319.036 68.8589 369.302 72.3978 369.302 72.3978V97.0244H283.788Z" fill="#33323D"/>
<path d="M352.489 233.716L349.777 273.379C349.777 273.379 310 291.37 261.731 274.264L266.069 232.535L352.489 233.716Z" fill="#33323D"/>
<path d="M314.703 77.5559L315.603 103.213H371.65L368.396 69.3013L314.703 77.5559Z" fill="#444053"/>
<path d="M320.397 216.756H267.604V271.313H320.397V216.756Z" fill="#4C4981"/>
<path d="M300.965 239.024C300.965 239.024 308.558 234.158 309.821 235.632C311.085 237.105 305.309 243.448 302.955 242.709C300.601 241.971 300.965 239.024 300.965 239.024Z" fill="#FFB9B9"/>
<path d="M511.703 95.547H165.153V237.105H511.703V95.547Z" fill="#504F60"/>
<path d="M283.967 50.2794C283.967 50.2794 281.255 29.6341 283.967 27.1303C286.679 24.6265 332.237 0.880192 374.362 28.7494C374.362 28.7494 378.337 28.8998 377.616 36.2696C377.191 40.9341 377.22 45.6187 377.703 50.2794C377.703 50.2794 287.042 55.5878 283.967 50.2794Z" fill="#33323D"/>
<path opacity="0.1" d="M283.967 50.2794C283.967 50.2794 281.255 29.6341 283.967 27.1303C286.679 24.6265 332.237 0.880192 374.362 28.7494C374.362 28.7494 378.337 28.8998 377.616 36.2696C377.191 40.9341 377.22 45.6187 377.703 50.2794C377.703 50.2794 287.042 55.5878 283.967 50.2794Z" fill="black"/>
<path d="M283.967 52.9336C283.967 52.9336 281.255 32.2883 283.967 29.7845C286.679 27.2807 332.237 3.53437 374.362 31.4036C374.362 31.4036 378.337 31.554 377.616 38.9238C377.191 43.5883 377.22 48.2729 377.703 52.9336C377.703 52.9336 287.042 58.242 283.967 52.9336Z" fill="#33323D"/>
<path d="M379.243 43.4979C379.243 43.4979 382.134 52.3453 381.234 53.8184C380.333 55.2915 380.496 59.4232 380.496 59.4232C380.496 59.4232 380.691 62.0774 379.243 62.3693C377.795 62.6613 376.531 62.8117 377.703 63.6965C378.874 64.5812 377.703 65.9083 377.703 65.9083C377.703 65.9083 377.068 67.9741 377.703 69.3013C378.337 70.6284 373.993 71.1813 374.362 72.8402C374.731 74.4991 375.946 79.1793 374.362 79.3297C372.778 79.4801 374.904 85.2265 373.478 85.2265C372.051 85.2265 371.037 95.5469 371.037 95.5469C371.037 95.5469 361.004 88.6195 354.316 90.5349C354.316 90.5349 354.859 84.7841 357.028 82.7183C359.198 80.6524 358.541 75.3484 358.541 75.3484L369.302 48.9523L379.243 43.4979Z" fill="#4CAC7D"/>
<path d="M325.55 165.494C323.201 167.613 320.669 156.297 320.669 156.297C320.669 156.297 313.981 163.818 309.642 158.806C306.638 155.333 309.008 145.495 310.727 139.784C311.497 137.245 312.148 135.519 312.148 135.519L321.911 134.192C321.911 134.192 321.943 135.926 322.16 138.032C322.453 140.876 323.087 144.407 324.438 145.251C326.819 146.716 327.904 163.358 325.55 165.494Z" fill="#AE6E79"/>
<path opacity="0.1" d="M320.49 33.0271C320.49 33.0271 303.492 32.8811 299.338 40.251C295.183 47.6208 294.999 50.1335 293.372 51.3102C291.745 52.4869 311.085 58.6845 311.085 58.6845L311.991 84.0454C311.991 84.0454 315.787 80.909 321.932 82.329C328.077 83.749 335.855 82.329 335.855 82.329C335.855 82.329 335.491 81.7938 340.557 82.329C345.622 82.8643 361.709 75.9368 361.709 75.9368C361.709 75.9368 361.974 64.8422 361.617 62.48C361.259 60.1177 373.093 42.7592 373.093 42.7592C373.093 42.7592 382.313 35.5353 372.735 33.0271C372.735 33.0271 369.345 28.86 360.624 28.8998C351.903 28.9396 320.49 33.0271 320.49 33.0271Z" fill="black"/>
<path d="M320.49 32.5847C320.49 32.5847 303.492 32.4388 299.338 39.8086C295.183 47.1785 294.999 49.6911 293.372 50.8678C291.745 52.0445 311.085 58.2421 311.085 58.2421L311.991 83.603C311.991 83.603 315.787 80.4666 321.932 81.8866C328.077 83.3066 335.855 81.8866 335.855 81.8866C335.855 81.8866 335.491 81.3514 340.557 81.8866C345.622 82.4219 361.709 75.4944 361.709 75.4944C361.709 75.4944 368.033 67.0894 367.675 64.7316C367.317 62.3738 380.328 44.5287 380.328 44.5287C380.328 44.5287 382.318 35.093 372.735 32.5847C372.735 32.5847 369.345 28.4176 360.624 28.4574C351.903 28.4972 320.49 32.5847 320.49 32.5847Z" fill="#4CAC7D"/>
<path opacity="0.1" d="M322.203 138.019C318.477 137.072 312.631 139.16 310.771 139.788C311.541 137.249 312.191 135.524 312.191 135.524L321.954 134.197C321.954 134.197 321.97 135.931 322.203 138.019Z" fill="black"/>
<path d="M298.611 50.8677H293.372C293.372 50.8677 292.287 59.8654 293.372 62.5196C294.456 65.1739 294.999 64.789 294.635 66.7531C294.272 68.7172 297.168 71.7253 297.168 71.7253C297.168 71.7253 297.526 79.1394 299.338 81.8998C301.149 84.6602 297.347 97.0376 297.347 97.0376C298.384 99.1743 299.918 101.127 301.865 102.788C304.94 105.292 306.567 114.582 305.661 118.121C304.756 121.66 308.194 122.987 308.194 122.987C308.194 122.987 309.642 139.505 310.185 139.505C310.727 139.505 321.211 135.081 324.465 138.912L321.932 123.726L322.117 94.3834C322.117 94.3834 318.678 90.6941 320.489 87.4515C322.301 84.209 319.041 76.5383 319.041 76.5383L314.339 59.4363L298.611 50.8677Z" fill="#4CAC7D"/>
<path d="M266.069 283.996C266.069 283.996 258.476 282.669 258.297 283.996C258.118 285.323 249.256 298.89 260.288 302.872C271.319 306.853 300.78 315.404 348.692 304.345C348.692 304.345 351.762 305.229 351.04 299.775C350.319 294.321 350.319 288.274 350.319 288.274C350.319 288.274 343.084 286.65 337.661 287.243C332.237 287.836 285.052 295.648 266.069 283.996Z" fill="#33323D"/>
<path opacity="0.1" d="M266.069 283.996C266.069 283.996 258.476 282.669 258.297 283.996C258.118 285.323 249.256 298.89 260.288 302.872C271.319 306.853 300.78 315.404 348.692 304.345C348.692 304.345 351.762 305.229 351.04 299.775C350.319 294.321 350.319 288.274 350.319 288.274C350.319 288.274 343.084 286.65 337.661 287.243C332.237 287.836 285.052 295.648 266.069 283.996Z" fill="black"/>
<path d="M266.069 282.226C266.069 282.226 258.476 280.899 258.297 282.226C258.118 283.553 249.256 297.121 260.288 301.102C271.319 305.083 300.78 313.634 348.692 302.575C348.692 302.575 351.762 303.46 351.04 298.005C350.319 292.551 350.319 286.504 350.319 286.504C350.319 286.504 343.084 284.88 337.661 285.473C332.237 286.066 285.052 293.878 266.069 282.226Z" fill="#33323D"/>
<path d="M310.347 56.1673C309.881 58.3305 308.823 60.4096 308.661 62.5994C308.498 64.7891 309.534 67.2796 312.013 68.1378C312.704 68.3063 313.374 68.5285 314.014 68.8014C314.968 69.3278 315.359 70.3187 315.56 71.2477C315.826 72.447 315.89 73.6704 315.749 74.8839C315.614 76.1049 315.294 77.4187 316.031 78.4848C317.328 80.3737 320.707 80.095 323.277 79.5642L322.393 85.1513C322.323 85.5936 322.279 86.0935 322.675 86.3943C322.862 86.5018 323.074 86.5776 323.297 86.6171C323.521 86.6566 323.752 86.6591 323.977 86.6244C326.211 86.5094 328.511 86.2572 330.426 85.2973C332.34 84.3373 333.766 82.5502 333.403 80.7497C332.98 78.6617 330.333 77.0029 330.691 74.906C330.968 73.2825 332.915 72.2518 334.195 71.0044C336.511 68.7217 336.636 65.2536 334.819 62.6701C333.002 60.0867 329.493 58.4853 325.881 58.1934C323.879 58.0297 321.797 58.2288 319.915 57.6625C319.26 57.4666 318.669 57.1499 318.19 56.737C317.71 56.3241 317.354 55.8264 317.149 55.2826" fill="#444053"/>
<path d="M247.271 252.884L249.164 249.522C249.164 249.522 259.382 241.758 261.731 241.214C264.079 240.67 273.662 238.299 275.111 238.299C276.559 238.299 302.955 237.118 302.955 237.118L306.025 243.019L272.898 248.951L261.731 255.587L247.271 252.884Z" fill="#767D9F"/>
<path d="M326.862 162.345L325.132 173.205L324.465 177.385L316.693 178.27C316.693 178.27 315.852 176.801 314.665 174.545C311.058 167.697 304.268 153.577 308.205 151.139C313.439 147.892 314.714 158.66 314.714 158.66L320.679 156.297L326.862 162.345Z" fill="#FFB9B9"/>
<path d="M325.566 182.547H286.316V230.912H325.566V182.547Z" fill="white"/>
<path opacity="0.1" d="M325.566 182.547H286.316V230.912H325.566V182.547Z" fill="black"/>
<path d="M343.207 185.166L304.379 180.484L295.706 228.328L334.535 233.01L343.207 185.166Z" fill="white"/>
<path d="M328.019 187.457L308.034 185.047L303.57 209.671L323.556 212.081L328.019 187.457Z" fill="#0C0E1C"/>
<path d="M325.641 219.599L301.428 216.679L300.458 222.026L324.672 224.946L325.641 219.599Z" fill="#716776"/>
<path opacity="0.1" d="M335.855 60.5247C348.384 60.5247 358.541 52.2401 358.541 42.0205C358.541 31.8009 348.384 23.5162 335.855 23.5162C323.325 23.5162 313.168 31.8009 313.168 42.0205C313.168 52.2401 323.325 60.5247 335.855 60.5247Z" fill="black"/>
<path d="M335.855 60.0824C348.384 60.0824 358.541 51.7977 358.541 41.5781C358.541 31.3585 348.384 23.0739 335.855 23.0739C323.325 23.0739 313.168 31.3585 313.168 41.5781C313.168 51.7977 323.325 60.0824 335.855 60.0824Z" fill="#AE6E79"/>
<path d="M317.149 55.2915C316.994 54.8149 317.05 54.3092 317.306 53.8626C318.168 52.3984 320.625 52.2701 322.616 52.3453C327.296 52.5223 332.432 52.5444 336.093 50.1335C337.612 49.1426 339.309 46.652 341.517 47.1254C343.48 47.5456 344.299 49.7176 346.344 50.1998C347.824 50.5493 349.359 49.9919 350.867 49.7575C353.036 49.408 355.26 49.7 357.462 49.7132C359.664 49.7265 362.056 49.3859 363.558 48.072C365.587 46.3026 365.256 43.5378 365.077 41.1136C364.854 37.9822 365.115 34.8404 365.852 31.7619C366.59 28.7007 367.724 25.2768 365.652 22.6536C363.678 20.1542 359.588 19.4685 356.795 17.5531C354.181 15.7836 352.798 12.948 350.037 11.3068C346.561 9.24097 341.837 9.53736 337.563 9.89568L328.289 10.7008C325.897 10.9087 323.408 11.1432 321.439 12.3066C317.886 14.4034 317.398 18.7607 314.036 21.0566C312.539 22.0741 310.624 22.5784 308.916 23.3392C307.207 24.1001 305.559 25.3034 305.363 26.8782C305.201 28.2053 306.079 29.4307 306.508 30.7091C307.522 33.7614 305.938 36.9022 304.924 39.9767C303.91 43.0512 303.715 46.7847 306.66 48.8241C307.256 49.2399 307.95 49.5584 308.531 49.9919C310.521 51.4738 310.792 53.9732 310.331 56.132" fill="#444053"/>
<path d="M337.704 64.6917C338.004 64.6917 338.246 64.1966 338.246 63.5858C338.246 62.975 338.004 62.4799 337.704 62.4799C337.404 62.4799 337.162 62.975 337.162 63.5858C337.162 64.1966 337.404 64.6917 337.704 64.6917Z" fill="#444053"/>
<path d="M337.704 69.3013C338.004 69.3013 338.246 68.8062 338.246 68.1954C338.246 67.5846 338.004 67.0895 337.704 67.0895C337.404 67.0895 337.162 67.5846 337.162 68.1954C337.162 68.8062 337.404 69.3013 337.704 69.3013Z" fill="#444053"/>
<path d="M325.674 165.463C326.255 164.919 326.64 163.521 326.862 161.677L320.397 155.103C320.397 155.103 323.136 167.848 325.674 165.463Z" fill="#AE6E79"/>
<path opacity="0.1" d="M332.964 274.118C332.964 274.118 322.355 287.495 289.212 286.062C257.988 284.734 242.748 272.202 243.475 267.778C244.202 263.355 241.484 252.588 248.172 249.491C252.049 247.699 257.153 248.761 260.754 249.973C261.999 250.385 263.36 250.501 264.682 250.308C266.004 250.115 267.232 249.62 268.223 248.881C271.515 246.461 277.654 243.736 287.346 245.881C288.593 246.153 289.909 246.133 291.143 245.824C295.178 244.82 304.783 243.077 311.752 246.947C312.854 247.567 314.148 247.917 315.485 247.959C316.822 248.001 318.146 247.731 319.302 247.182L319.399 247.133C322.654 245.51 337.84 260.847 337.84 260.847C337.84 260.847 338.566 272.645 332.964 274.118Z" fill="black"/>
<path d="M332.964 274.56C332.964 274.56 322.355 287.937 289.212 286.504C257.988 285.177 242.748 272.645 243.475 268.221C244.202 263.797 241.484 253.03 248.172 249.933C252.049 248.142 257.153 249.203 260.754 250.416C261.999 250.828 263.36 250.944 264.682 250.75C266.004 250.557 267.232 250.062 268.223 249.323C271.515 246.903 277.654 244.178 287.346 246.324C288.593 246.595 289.909 246.575 291.143 246.266C295.178 245.262 304.783 243.519 311.752 247.39C312.854 248.009 314.148 248.36 315.485 248.401C316.822 248.443 318.146 248.173 319.302 247.624L319.399 247.576C322.654 245.952 337.84 261.289 337.84 261.289C337.84 261.289 338.566 273.087 332.964 274.56Z" fill="#767D9F"/>
<path opacity="0.1" d="M289.212 279.798C301.145 279.798 310.819 271.907 310.819 262.174C310.819 252.44 301.145 244.55 289.212 244.55C277.278 244.55 267.604 252.44 267.604 262.174C267.604 271.907 277.278 279.798 289.212 279.798Z" fill="black"/>
<path d="M289.212 280.24C301.145 280.24 310.819 272.35 310.819 262.616C310.819 252.883 301.145 244.992 289.212 244.992C277.278 244.992 267.604 252.883 267.604 262.616C267.604 272.35 277.278 280.24 289.212 280.24Z" fill="#FFB9B9"/>
<path d="M283.018 247.381C280.751 247.881 278.517 248.836 277.41 250.407C276.743 251.353 276.51 252.49 275.544 253.278C274.178 254.397 271.873 254.419 270.023 255.047C268.174 255.675 266.953 257.887 268.765 258.586C266.878 258.666 265.478 260.086 265.245 261.497C265.012 262.908 265.668 264.315 266.303 265.66C268.374 270.012 270.604 274.556 275.17 277.652C282.611 282.704 293.827 282.47 303.823 281.934C304.64 281.956 305.449 281.804 306.171 281.492C307.256 280.908 307.392 279.789 307.571 278.807C308.325 274.613 311.112 270.804 312.935 266.801C314.757 262.797 315.505 258.095 312.436 254.552C307.918 249.296 290.622 245.7 283.018 247.381Z" fill="#B96B6B"/>
<path opacity="0.1" d="M325.132 173.205L324.465 177.385L316.693 178.27C316.693 178.27 315.852 176.801 314.665 174.545L325.007 172.961L325.132 173.205Z" fill="black"/>
<path d="M333.322 265.567L337.845 261.289L336.939 237.698C337.385 235.996 337.687 234.271 337.845 232.535C338.024 230.027 335.583 224.427 335.583 224.427C335.962 223.305 336.476 222.218 337.118 221.18C338.203 219.41 335.589 215.429 335.589 215.429C335.589 215.429 331.695 205.108 333.322 199.946C334.949 194.783 332.926 191.837 332.926 191.837C332.926 191.837 331.337 186.086 331.516 183.729C331.695 181.371 327.898 179.155 327.898 179.155L325.007 173.404L313.439 175.173V195.08C313.439 195.08 314.16 214.102 313.439 217.791C312.718 221.48 314.882 225.015 314.882 225.015C314.882 225.015 313.618 230.469 314.703 232.535C315.787 234.601 317.957 239.613 317.957 239.613C317.554 241.404 317.679 243.248 318.32 244.992C319.405 247.576 318.32 249.049 318.32 249.049L333.322 265.567Z" fill="#767D9F"/>
<g opacity="0.1">
<path opacity="0.1" d="M365.869 30.3065C365.257 32.896 364.982 35.5309 365.05 38.1674C365.096 35.9751 365.377 33.7904 365.89 31.6381C366.367 29.6739 366.975 27.5594 366.845 25.5997C366.645 27.1843 366.319 28.7565 365.869 30.3065Z" fill="black"/>
<path opacity="0.1" d="M308.547 48.5675C307.967 48.1251 307.272 47.8155 306.676 47.3952C305.092 46.2937 304.425 44.6968 304.295 42.9716C304.137 45.1834 304.691 47.3245 306.676 48.7223C307.272 49.1426 307.967 49.4611 308.547 49.8946C309.76 50.8738 310.463 52.1969 310.51 53.5884C310.667 51.7304 310.206 49.7973 308.547 48.5675Z" fill="black"/>
<path opacity="0.1" d="M306.817 32.0495C306.911 31.1152 306.812 30.1745 306.524 29.267C306.209 28.3203 305.645 27.3958 305.439 26.4447C305.439 26.5464 305.396 26.6526 305.379 26.7632C305.222 28.0903 306.101 29.3157 306.524 30.5941C306.68 31.0702 306.778 31.5577 306.817 32.0495Z" fill="black"/>
<path opacity="0.1" d="M363.574 46.6166C362.072 47.9437 359.68 48.271 357.478 48.2578C355.276 48.2445 353.047 47.9525 350.883 48.3064C349.375 48.5542 347.841 49.1071 346.36 48.7488C344.315 48.2666 343.496 46.0946 341.538 45.6743C339.309 45.1966 337.612 47.6871 336.115 48.678C332.454 51.0668 327.318 51.0447 322.637 50.8899C320.647 50.8147 318.19 50.943 317.333 52.4116C317.072 52.857 317.016 53.3642 317.176 53.8405L310.548 54.6898C310.523 55.1348 310.463 55.5781 310.369 56.0169L317.176 55.1322C317.016 54.656 317.072 54.1487 317.333 53.7033C318.19 52.2347 320.647 52.1064 322.637 52.1816C327.318 52.3585 332.454 52.3806 336.115 49.9697C337.633 48.9788 339.331 46.4883 341.538 46.9661C343.496 47.3819 344.315 49.5583 346.36 50.0405C347.841 50.3856 349.375 49.8326 350.883 49.5982C353.053 49.2443 355.276 49.5362 357.478 49.5495C359.68 49.5628 362.072 49.2221 363.574 47.9083C365.077 46.5945 365.294 44.6348 365.201 42.7238C365.136 44.2057 364.762 45.577 363.574 46.6166Z" fill="black"/>
</g>
<g opacity="0.1">
<path opacity="0.1" d="M313.368 67.8636C312.73 67.5893 312.059 67.367 311.367 67.2001C310.19 66.7638 309.256 65.9843 308.748 65.0148C309.154 66.5409 310.185 67.93 311.91 68.5272C312.602 68.6941 313.272 68.9164 313.911 69.1907C314.319 69.426 314.649 69.7408 314.871 70.1064C314.654 69.2394 314.258 68.3547 313.368 67.8636Z" fill="black"/>
<path opacity="0.1" d="M322.632 78.6263C320.132 79.1439 316.867 79.4137 315.495 77.6841C315.537 78.1009 315.685 78.506 315.928 78.8741C317.1 80.5772 319.964 80.5197 322.399 80.0994L322.632 78.6263Z" fill="black"/>
<path opacity="0.1" d="M332.763 79.8385C333.11 81.6345 331.678 83.4261 329.78 84.3684C327.882 85.3106 325.566 85.5716 323.332 85.6955C322.976 85.7329 322.615 85.6996 322.279 85.5981C322.178 85.7851 322.145 85.9923 322.185 86.1943C322.225 86.3963 322.337 86.5844 322.506 86.7355C322.675 86.8866 322.894 86.9942 323.137 87.0452C323.38 87.0962 323.636 87.0883 323.874 87.0226C326.108 86.9075 328.408 86.6554 330.323 85.6955C332.237 84.7355 333.669 82.9484 333.3 81.1479C333.196 80.6933 333.015 80.2527 332.763 79.8385Z" fill="black"/>
<path opacity="0.1" d="M335.171 63.8248C335.502 64.9004 335.528 66.0234 335.246 67.1082C334.964 68.193 334.382 69.2109 333.544 70.0843C332.264 71.3495 330.317 72.3625 330.041 73.986C329.948 74.7324 330.137 75.484 330.583 76.1404C330.534 75.8661 330.534 75.5874 330.583 75.3131C330.859 73.6896 332.807 72.6589 334.086 71.4114C336.191 69.3367 336.484 66.28 335.171 63.8248Z" fill="black"/>
</g>
<g opacity="0.1">
<path opacity="0.1" d="M270.029 255.728C271.873 255.105 274.178 255.083 275.55 253.959C276.515 253.172 276.748 252.035 277.416 251.092C278.5 249.518 280.751 248.566 283.018 248.067C290.611 246.386 307.923 249.978 312.436 255.184C313.758 256.76 314.479 258.619 314.507 260.528C314.681 258.324 313.954 256.135 312.441 254.304C307.929 249.097 290.633 245.505 283.024 247.186C280.757 247.686 278.522 248.637 277.421 250.212C276.754 251.154 276.521 252.291 275.555 253.079C274.183 254.198 271.878 254.22 270.034 254.848C268.629 255.321 267.588 256.719 267.968 257.657C268.119 257.233 268.382 256.841 268.738 256.508C269.094 256.175 269.534 255.909 270.029 255.728Z" fill="black"/>
<path opacity="0.1" d="M265.256 262.156C265.484 260.74 266.883 259.324 268.776 259.245C268.577 259.177 268.399 259.074 268.256 258.943C268.112 258.812 268.006 258.657 267.946 258.488C267.226 258.706 266.593 259.081 266.115 259.571C265.637 260.062 265.332 260.649 265.234 261.271C265.183 261.631 265.183 261.995 265.234 262.355C265.256 262.288 265.256 262.222 265.256 262.156Z" fill="black"/>
</g>
<path d="M380.143 101.846H330.789V154.342H380.143V101.846Z" fill="white"/>
<path opacity="0.1" d="M380.143 101.846H330.789V154.342H380.143V101.846Z" fill="black"/>
<path d="M399 104.926L350.36 111.75L361.271 163.486L409.911 156.662L399 104.926Z" fill="white"/>
<path d="M373.577 145.415L362.149 147.019L364.712 159.173L376.14 157.57L373.577 145.415Z" fill="#8A7E8F"/>
<path d="M389.39 143.194L377.962 144.798L380.526 156.952L391.953 155.349L389.39 143.194Z" fill="#938C96"/>
<path d="M400.565 125.387L360.488 131L363.059 143.21L403.136 137.597L400.565 125.387Z" fill="#0C0E1C"/>
<path d="M397.224 110.814L357.148 116.427L357.721 119.151L397.798 113.538L397.224 110.814Z" fill="#56087B"/>
<path d="M398.539 115.825L358.462 121.438L359.036 124.162L399.112 118.549L398.539 115.825Z" fill="#0C0E1C"/>
<path d="M358.541 87.5844C358.541 87.5844 335.855 106.164 347.244 110.884C358.634 115.604 366.048 95.1798 366.048 95.1798L367.848 90.535L358.541 87.5844Z" fill="#AE6E79"/>
<path opacity="0.1" d="M356.556 85.9431L353.752 90.995C353.752 90.995 367.582 92.5787 370.473 95.9893L368.759 87.0756L366.726 83.2712L356.556 85.9431Z" fill="black"/>
<path d="M357.099 85.5008L354.295 90.5526C354.295 90.5526 368.125 92.1363 371.016 95.5469L369.302 86.6332L367.268 82.8289L357.099 85.5008Z" fill="#4C4981"/>
<path d="M440.817 178.385L440.519 178.553L440.931 178.703L441.375 178.672L441.43 178.42L440.817 178.385Z" fill="#464A5F"/>
<path opacity="0.1" d="M440.817 178.385L440.519 178.553L440.931 178.703L441.375 178.672L441.43 178.42L440.817 178.385Z" fill="black"/>
<path d="M440.817 178.385L440.513 178.544L440.275 178.305L440.421 178.111L440.557 178.075L440.817 178.385Z" fill="#9C9CA1"/>
<path opacity="0.1" d="M440.817 178.385L440.513 178.544L440.275 178.305L440.421 178.111L440.557 178.075L440.817 178.385Z" fill="black"/>
<path d="M494.201 147.813L471.997 121.656C471.8 121.422 471.549 121.223 471.258 121.068C470.966 120.914 470.641 120.808 470.299 120.757C469.958 120.706 469.607 120.71 469.267 120.769C468.928 120.828 468.606 120.942 468.32 121.103L418.824 148.813C418.245 149.137 417.848 149.635 417.719 150.198C417.589 150.761 417.739 151.343 418.136 151.816L440.28 178.305L494.201 147.813Z" fill="#9C9CA1"/>
<path opacity="0.1" d="M494.201 147.813L471.997 121.656C471.8 121.422 471.549 121.223 471.258 121.068C470.966 120.914 470.641 120.808 470.299 120.757C469.958 120.706 469.607 120.71 469.267 120.769C468.928 120.828 468.606 120.942 468.32 121.103L418.824 148.813C418.245 149.137 417.848 149.635 417.719 150.198C417.589 150.761 417.739 151.343 418.136 151.816L440.28 178.305L494.201 147.813Z" fill="black"/>
<path d="M494.744 147.875L472.539 121.717C472.342 121.484 472.091 121.284 471.799 121.13C471.507 120.976 471.181 120.87 470.839 120.819C470.497 120.767 470.146 120.771 469.806 120.831C469.466 120.89 469.143 121.003 468.857 121.164L419.367 148.892C418.788 149.216 418.39 149.714 418.26 150.277C418.13 150.84 418.278 151.422 418.673 151.896L440.817 178.398L494.744 147.875Z" fill="#9C9CA1"/>
<path d="M513.303 153.046L494.863 148.215L440.931 178.708L459.664 183.707C460.083 183.818 460.528 183.847 460.964 183.794C461.4 183.74 461.815 183.604 462.175 183.397L513.455 153.864C513.551 153.82 513.628 153.754 513.677 153.673C513.725 153.592 513.742 153.501 513.726 153.412C513.709 153.324 513.66 153.241 513.584 153.175C513.509 153.11 513.411 153.065 513.303 153.046Z" fill="#464A5F"/>
<path opacity="0.1" d="M513.303 153.046L494.863 148.215L440.931 178.708L459.664 183.707C460.083 183.818 460.528 183.847 460.964 183.794C461.4 183.74 461.815 183.604 462.175 183.397L513.455 153.864C513.551 153.82 513.628 153.754 513.677 153.673C513.725 153.592 513.742 153.501 513.726 153.412C513.709 153.324 513.66 153.241 513.584 153.175C513.509 153.11 513.411 153.065 513.303 153.046Z" fill="black"/>
<path d="M513.189 152.741L494.749 147.906L440.817 178.398L459.55 183.388C459.969 183.501 460.414 183.532 460.85 183.479C461.286 183.426 461.701 183.291 462.061 183.083L513.341 153.55C513.433 153.505 513.507 153.439 513.553 153.359C513.599 153.28 513.615 153.191 513.598 153.104C513.582 153.017 513.534 152.936 513.462 152.871C513.389 152.807 513.294 152.761 513.189 152.741Z" fill="#464A5F"/>
<g opacity="0.1">
<path opacity="0.1" d="M486.033 146.707L484.672 145.114C484.59 145.022 484.468 144.959 484.33 144.938C484.193 144.918 484.051 144.941 483.934 145.004L481.911 146.105C481.798 146.17 481.719 146.269 481.692 146.38C481.665 146.491 481.691 146.606 481.765 146.702L483.018 148.273C483.096 148.367 483.216 148.433 483.352 148.457C483.489 148.48 483.631 148.461 483.75 148.401L485.881 147.308C485.997 147.244 486.078 147.145 486.106 147.033C486.135 146.92 486.108 146.804 486.033 146.707Z" fill="black"/>
<path opacity="0.1" d="M482.399 148.759L481.033 147.171C480.951 147.079 480.829 147.016 480.691 146.995C480.554 146.975 480.412 146.998 480.295 147.061L478.278 148.171C478.163 148.236 478.084 148.334 478.055 148.445C478.027 148.556 478.052 148.672 478.126 148.768L479.379 150.339C479.456 150.434 479.576 150.5 479.712 150.525C479.848 150.55 479.991 150.531 480.111 150.471L482.248 149.379C482.308 149.347 482.36 149.305 482.4 149.256C482.441 149.208 482.469 149.153 482.483 149.095C482.497 149.037 482.497 148.978 482.483 148.92C482.468 148.863 482.44 148.808 482.399 148.759Z" fill="black"/>
<path opacity="0.1" d="M478.581 150.914L477.214 149.326C477.133 149.233 477.01 149.17 476.873 149.15C476.735 149.129 476.594 149.152 476.477 149.215L474.454 150.325C474.339 150.391 474.259 150.49 474.232 150.602C474.205 150.714 474.232 150.831 474.307 150.927L475.56 152.497C475.639 152.592 475.759 152.657 475.895 152.681C476.031 152.705 476.174 152.685 476.292 152.626L478.424 151.533C478.485 151.501 478.537 151.46 478.578 151.411C478.619 151.363 478.648 151.308 478.662 151.25C478.677 151.193 478.677 151.133 478.663 151.075C478.649 151.018 478.622 150.963 478.581 150.914Z" fill="black"/>
<path opacity="0.1" d="M474.714 153.099L473.348 151.506C473.266 151.415 473.145 151.353 473.009 151.332C472.872 151.312 472.732 151.335 472.615 151.396L470.592 152.511C470.479 152.576 470.4 152.674 470.373 152.785C470.346 152.897 470.372 153.012 470.446 153.108L471.699 154.678C471.776 154.772 471.895 154.838 472.03 154.862C472.165 154.887 472.307 154.869 472.426 154.811L474.563 153.714C474.622 153.682 474.673 153.64 474.713 153.592C474.753 153.544 474.781 153.489 474.795 153.432C474.809 153.375 474.809 153.316 474.796 153.259C474.782 153.202 474.754 153.147 474.714 153.099Z" fill="black"/>
<path opacity="0.1" d="M470.853 155.28L469.486 153.692C469.404 153.6 469.282 153.536 469.144 153.516C469.007 153.495 468.865 153.519 468.748 153.581L466.731 154.692C466.616 154.756 466.537 154.854 466.508 154.965C466.48 155.077 466.505 155.192 466.579 155.289L467.832 156.859C467.909 156.954 468.029 157.021 468.165 157.045C468.302 157.07 468.444 157.051 468.564 156.992L470.701 155.895C470.76 155.863 470.812 155.821 470.852 155.773C470.892 155.725 470.919 155.67 470.933 155.613C470.948 155.556 470.948 155.497 470.934 155.44C470.92 155.383 470.892 155.328 470.853 155.28Z" fill="black"/>
<path opacity="0.1" d="M467.159 157.66L465.462 155.687C465.444 155.665 465.42 155.646 465.393 155.632C465.366 155.617 465.336 155.607 465.304 155.602C465.273 155.597 465.24 155.597 465.208 155.603C465.177 155.608 465.147 155.619 465.12 155.634L462.636 157.001C462.609 157.015 462.585 157.034 462.567 157.056C462.548 157.077 462.535 157.102 462.529 157.128C462.522 157.154 462.522 157.181 462.528 157.207C462.535 157.233 462.547 157.257 462.565 157.279L464.122 159.23C464.158 159.275 464.213 159.307 464.277 159.318C464.341 159.33 464.408 159.321 464.464 159.292L467.089 157.965C467.12 157.951 467.147 157.931 467.169 157.906C467.19 157.882 467.204 157.855 467.211 157.826C467.217 157.797 467.216 157.767 467.207 157.738C467.198 157.71 467.182 157.683 467.159 157.66Z" fill="black"/>
<path opacity="0.1" d="M463.298 159.841L461.589 157.868C461.571 157.846 461.547 157.827 461.52 157.812C461.492 157.798 461.461 157.787 461.429 157.783C461.397 157.778 461.364 157.778 461.332 157.783C461.3 157.789 461.269 157.8 461.242 157.815L458.758 159.182C458.705 159.212 458.668 159.258 458.656 159.31C458.644 159.362 458.657 159.416 458.693 159.46L460.25 161.411C460.266 161.434 460.289 161.454 460.315 161.47C460.342 161.486 460.372 161.497 460.404 161.503C460.436 161.509 460.469 161.509 460.501 161.504C460.534 161.499 460.564 161.488 460.591 161.473L463.211 160.146C463.244 160.133 463.274 160.114 463.297 160.091C463.321 160.067 463.337 160.04 463.345 160.011C463.354 159.981 463.354 159.951 463.346 159.921C463.337 159.892 463.321 159.864 463.298 159.841Z" fill="black"/>
<path opacity="0.1" d="M459.875 161.774L458.178 159.819C458.14 159.776 458.083 159.747 458.019 159.738C457.955 159.729 457.89 159.74 457.836 159.77L455.352 161.132C455.298 161.163 455.26 161.21 455.247 161.262C455.234 161.315 455.246 161.37 455.282 161.416L456.838 163.366C456.875 163.41 456.93 163.441 456.994 163.453C457.058 163.464 457.124 163.456 457.18 163.428L459.805 162.101C459.841 162.087 459.873 162.067 459.897 162.041C459.921 162.015 459.937 161.984 459.944 161.952C459.951 161.92 459.948 161.887 459.936 161.856C459.925 161.825 459.904 161.797 459.875 161.774Z" fill="black"/>
<path opacity="0.1" d="M456.046 163.933L454.349 161.96C454.311 161.917 454.254 161.888 454.19 161.879C454.126 161.87 454.061 161.881 454.007 161.911L451.523 163.274C451.496 163.288 451.472 163.307 451.453 163.33C451.435 163.352 451.422 163.377 451.416 163.403C451.409 163.429 451.409 163.457 451.415 163.483C451.422 163.509 451.434 163.534 451.453 163.557L453.009 165.507C453.046 165.551 453.101 165.582 453.165 165.594C453.228 165.605 453.295 165.597 453.351 165.569L455.976 164.242C456.007 164.227 456.035 164.207 456.056 164.182C456.077 164.158 456.091 164.13 456.098 164.101C456.105 164.071 456.104 164.041 456.095 164.012C456.086 163.983 456.069 163.956 456.046 163.933Z" fill="black"/>
<path opacity="0.1" d="M452.337 166.012L450.639 164.039C450.621 164.017 450.598 163.998 450.571 163.984C450.544 163.969 450.514 163.959 450.482 163.954C450.45 163.949 450.417 163.949 450.386 163.955C450.354 163.96 450.324 163.971 450.297 163.986L447.813 165.353C447.786 165.367 447.762 165.386 447.744 165.407C447.726 165.429 447.713 165.454 447.706 165.48C447.7 165.506 447.699 165.533 447.706 165.559C447.712 165.585 447.725 165.609 447.743 165.631L449.299 167.582C449.335 167.627 449.391 167.659 449.455 167.67C449.519 167.682 449.586 167.672 449.641 167.644L452.266 166.317C452.298 166.302 452.325 166.282 452.346 166.258C452.367 166.234 452.381 166.207 452.388 166.178C452.395 166.149 452.394 166.119 452.385 166.09C452.376 166.061 452.359 166.035 452.337 166.012Z" fill="black"/>
<path opacity="0.1" d="M448.627 168.126L446.946 166.149C446.908 166.106 446.851 166.077 446.787 166.068C446.723 166.059 446.658 166.071 446.604 166.1L444.12 167.463C444.092 167.477 444.069 167.497 444.05 167.519C444.032 167.541 444.019 167.566 444.012 167.592C444.006 167.619 444.006 167.646 444.012 167.672C444.018 167.698 444.031 167.724 444.049 167.746L445.606 169.697C445.643 169.741 445.698 169.772 445.762 169.783C445.825 169.795 445.892 169.786 445.948 169.759L448.573 168.432C448.603 168.416 448.629 168.395 448.648 168.37C448.668 168.346 448.681 168.318 448.686 168.289C448.691 168.26 448.688 168.231 448.678 168.202C448.668 168.174 448.651 168.148 448.627 168.126Z" fill="black"/>
<path opacity="0.1" d="M444.917 170.219L443.22 168.246C443.202 168.224 443.178 168.205 443.151 168.19C443.124 168.176 443.094 168.166 443.062 168.161C443.031 168.156 442.998 168.156 442.966 168.162C442.935 168.167 442.904 168.178 442.878 168.193L440.394 169.551C440.367 169.565 440.343 169.584 440.325 169.606C440.306 169.627 440.293 169.652 440.287 169.678C440.28 169.704 440.28 169.731 440.286 169.757C440.293 169.783 440.305 169.807 440.323 169.829L441.88 171.78C441.916 171.825 441.971 171.857 442.035 171.868C442.099 171.88 442.166 171.871 442.222 171.842L444.847 170.515C444.876 170.5 444.902 170.481 444.922 170.457C444.942 170.434 444.956 170.408 444.963 170.38C444.969 170.352 444.969 170.323 444.961 170.295C444.953 170.268 444.938 170.241 444.917 170.219Z" fill="black"/>
<path opacity="0.1" d="M483.593 143.827L482.226 142.234C482.144 142.142 482.022 142.079 481.884 142.058C481.747 142.038 481.605 142.061 481.488 142.124L479.487 143.239C479.373 143.303 479.293 143.401 479.265 143.512C479.236 143.624 479.262 143.739 479.335 143.836L480.588 145.406C480.666 145.5 480.786 145.566 480.923 145.59C481.059 145.614 481.201 145.594 481.32 145.535L483.457 144.442C483.575 144.375 483.655 144.273 483.681 144.157C483.706 144.042 483.674 143.923 483.593 143.827Z" fill="black"/>
<path opacity="0.1" d="M478.25 137.532L476.884 135.931C476.802 135.84 476.681 135.777 476.545 135.757C476.408 135.736 476.268 135.759 476.151 135.82L474.128 136.931C474.014 136.995 473.934 137.093 473.906 137.204C473.878 137.316 473.903 137.431 473.977 137.528L475.229 139.098C475.307 139.193 475.426 139.26 475.563 139.284C475.699 139.309 475.842 139.29 475.962 139.231L478.099 138.138C478.216 138.073 478.298 137.974 478.326 137.86C478.354 137.747 478.327 137.629 478.25 137.532Z" fill="black"/>
<path opacity="0.1" d="M479.953 145.88L478.587 144.292C478.505 144.2 478.384 144.138 478.248 144.118C478.111 144.097 477.971 144.12 477.854 144.181L475.831 145.291C475.718 145.357 475.639 145.455 475.612 145.566C475.585 145.677 475.611 145.793 475.685 145.889L476.932 147.459C477.01 147.554 477.13 147.62 477.266 147.645C477.402 147.67 477.545 147.651 477.665 147.592L479.802 146.499C479.862 146.467 479.914 146.425 479.954 146.377C479.995 146.328 480.023 146.273 480.037 146.215C480.051 146.158 480.051 146.098 480.037 146.041C480.022 145.983 479.994 145.928 479.953 145.88Z" fill="black"/>
<path opacity="0.1" d="M476.135 148.034L474.768 146.446C474.687 146.354 474.564 146.29 474.427 146.27C474.289 146.249 474.148 146.273 474.031 146.335L472.013 147.432C471.897 147.497 471.817 147.596 471.788 147.708C471.76 147.82 471.786 147.937 471.861 148.034L473.114 149.604C473.193 149.698 473.313 149.764 473.449 149.788C473.585 149.812 473.728 149.792 473.846 149.733L475.983 148.64C476.101 148.575 476.182 148.476 476.211 148.362C476.239 148.249 476.212 148.131 476.135 148.034Z" fill="black"/>
<path opacity="0.1" d="M472.268 150.219L470.907 148.627C470.825 148.534 470.703 148.471 470.565 148.451C470.428 148.43 470.286 148.453 470.169 148.516L468.146 149.644C468.033 149.709 467.954 149.808 467.927 149.919C467.9 150.03 467.926 150.145 468 150.241L469.253 151.812C469.331 151.906 469.451 151.971 469.587 151.995C469.724 152.019 469.866 151.999 469.985 151.94L472.116 150.847C472.178 150.815 472.232 150.773 472.273 150.724C472.314 150.674 472.343 150.618 472.357 150.56C472.372 150.501 472.371 150.44 472.356 150.382C472.34 150.323 472.311 150.268 472.268 150.219Z" fill="black"/>
<path opacity="0.1" d="M474.698 139.686L473.331 138.098C473.25 138.007 473.128 137.945 472.992 137.924C472.856 137.904 472.715 137.927 472.599 137.988L470.576 139.098C470.462 139.163 470.382 139.261 470.354 139.372C470.326 139.483 470.351 139.599 470.424 139.695L471.677 141.266C471.755 141.361 471.874 141.427 472.011 141.452C472.147 141.477 472.29 141.457 472.409 141.398L474.546 140.306C474.607 140.274 474.658 140.232 474.699 140.183C474.739 140.135 474.767 140.08 474.782 140.022C474.796 139.964 474.796 139.905 474.781 139.847C474.767 139.79 474.739 139.735 474.698 139.686Z" fill="black"/>
<path opacity="0.1" d="M470.88 141.845L469.513 140.253C469.431 140.16 469.309 140.097 469.171 140.077C469.034 140.056 468.892 140.079 468.775 140.142L466.758 141.239C466.643 141.304 466.564 141.402 466.536 141.513C466.507 141.624 466.533 141.74 466.606 141.836L467.859 143.407C467.937 143.501 468.057 143.567 468.193 143.591C468.33 143.614 468.472 143.595 468.591 143.535L470.728 142.442C470.842 142.378 470.922 142.28 470.95 142.169C470.978 142.057 470.953 141.942 470.88 141.845Z" fill="black"/>
<path opacity="0.1" d="M467.013 144.026L465.646 142.438C465.565 142.346 465.444 142.283 465.308 142.262C465.172 142.24 465.031 142.262 464.914 142.323L462.891 143.451C462.777 143.516 462.699 143.615 462.672 143.726C462.644 143.837 462.67 143.952 462.744 144.048L463.997 145.619C464.075 145.713 464.194 145.78 464.331 145.805C464.467 145.83 464.61 145.81 464.729 145.751L466.861 144.654C466.923 144.622 466.976 144.58 467.017 144.531C467.059 144.481 467.087 144.425 467.102 144.367C467.116 144.308 467.115 144.248 467.1 144.189C467.085 144.13 467.055 144.075 467.013 144.026Z" fill="black"/>
<path opacity="0.1" d="M468.407 152.4L467.04 150.812C466.959 150.72 466.838 150.657 466.702 150.636C466.566 150.614 466.425 150.636 466.308 150.697L464.301 151.812C464.187 151.877 464.109 151.975 464.082 152.086C464.054 152.198 464.081 152.313 464.155 152.409L465.386 153.979C465.463 154.073 465.582 154.139 465.717 154.164C465.852 154.188 465.993 154.17 466.112 154.112L468.249 153.015C468.309 152.983 468.361 152.942 468.402 152.894C468.442 152.846 468.47 152.791 468.485 152.734C468.5 152.677 468.5 152.618 468.487 152.561C468.473 152.503 468.446 152.449 468.407 152.4Z" fill="black"/>
<path opacity="0.1" d="M464.545 154.581L463.178 152.993C463.097 152.901 462.974 152.837 462.837 152.817C462.699 152.796 462.557 152.82 462.441 152.882L460.423 153.993C460.309 154.057 460.229 154.155 460.201 154.266C460.173 154.378 460.198 154.493 460.271 154.59L461.524 156.16C461.602 156.255 461.721 156.322 461.858 156.346C461.994 156.371 462.137 156.352 462.256 156.293L464.393 155.2C464.454 155.168 464.505 155.127 464.546 155.078C464.586 155.029 464.614 154.974 464.629 154.917C464.643 154.859 464.643 154.8 464.628 154.742C464.614 154.684 464.586 154.63 464.545 154.581Z" fill="black"/>
<path opacity="0.1" d="M460.852 156.961L459.154 154.988C459.136 154.966 459.113 154.947 459.086 154.933C459.059 154.918 459.029 154.908 458.997 154.903C458.965 154.898 458.932 154.898 458.901 154.904C458.869 154.909 458.839 154.92 458.812 154.935L456.328 156.302C456.301 156.316 456.277 156.335 456.259 156.357C456.241 156.378 456.228 156.403 456.221 156.429C456.215 156.455 456.215 156.482 456.221 156.508C456.227 156.534 456.24 156.558 456.258 156.58L457.814 158.531C457.831 158.554 457.854 158.574 457.881 158.589C457.907 158.604 457.937 158.615 457.969 158.621C458.001 158.627 458.034 158.627 458.066 158.623C458.098 158.618 458.129 158.608 458.156 158.593L460.781 157.266C460.813 157.252 460.84 157.232 460.861 157.207C460.882 157.183 460.896 157.156 460.903 157.127C460.91 157.098 460.909 157.068 460.9 157.039C460.891 157.011 460.874 156.984 460.852 156.961Z" fill="black"/>
<path opacity="0.1" d="M457.429 158.894L455.732 156.917C455.694 156.874 455.637 156.845 455.573 156.836C455.509 156.827 455.444 156.838 455.39 156.868L452.911 158.231C452.857 158.261 452.819 158.308 452.806 158.361C452.793 158.413 452.805 158.468 452.841 158.514L454.397 160.465C454.434 160.508 454.49 160.539 454.553 160.551C454.617 160.562 454.683 160.554 454.739 160.526L457.364 159.199C457.397 159.186 457.425 159.166 457.447 159.142C457.469 159.117 457.483 159.089 457.489 159.06C457.496 159.03 457.494 159 457.483 158.971C457.473 158.942 457.454 158.916 457.429 158.894Z" fill="black"/>
<path opacity="0.1" d="M453.6 161.053L451.903 159.08C451.865 159.037 451.808 159.008 451.744 158.999C451.68 158.99 451.615 159.002 451.561 159.031L449.077 160.394C449.05 160.408 449.026 160.427 449.008 160.448C448.989 160.47 448.976 160.495 448.97 160.521C448.963 160.547 448.963 160.574 448.969 160.6C448.976 160.626 448.988 160.65 449.006 160.672L450.563 162.628C450.6 162.672 450.655 162.702 450.719 162.714C450.782 162.725 450.849 162.717 450.905 162.69L453.53 161.362C453.561 161.347 453.589 161.327 453.61 161.302C453.631 161.278 453.645 161.25 453.652 161.221C453.659 161.191 453.658 161.161 453.649 161.132C453.64 161.103 453.623 161.076 453.6 161.053Z" fill="black"/>
<path opacity="0.1" d="M449.891 163.15L448.193 161.177C448.175 161.155 448.152 161.136 448.125 161.121C448.098 161.107 448.068 161.097 448.036 161.092C448.004 161.087 447.971 161.087 447.94 161.093C447.908 161.098 447.878 161.109 447.851 161.124L445.367 162.473C445.34 162.487 445.316 162.506 445.298 162.528C445.28 162.549 445.267 162.574 445.26 162.6C445.254 162.626 445.253 162.653 445.26 162.679C445.266 162.705 445.279 162.73 445.297 162.752L446.853 164.702C446.889 164.747 446.945 164.779 447.009 164.79C447.073 164.802 447.14 164.793 447.195 164.764L449.82 163.437C449.848 163.422 449.873 163.403 449.892 163.381C449.911 163.358 449.924 163.332 449.93 163.306C449.937 163.279 449.937 163.251 449.93 163.224C449.923 163.198 449.91 163.172 449.891 163.15Z" fill="black"/>
<path opacity="0.1" d="M473.592 145.039L472.225 143.451C472.143 143.36 472.022 143.298 471.886 143.277C471.75 143.256 471.609 143.279 471.493 143.34L469.47 144.455C469.356 144.52 469.278 144.619 469.25 144.73C469.223 144.841 469.249 144.956 469.323 145.052L470.576 146.623C470.654 146.716 470.773 146.781 470.908 146.805C471.043 146.828 471.184 146.809 471.303 146.751L473.44 145.658C473.5 145.626 473.552 145.585 473.592 145.536C473.633 145.487 473.661 145.432 473.675 145.375C473.689 145.317 473.689 145.258 473.675 145.2C473.66 145.142 473.632 145.088 473.592 145.039Z" fill="black"/>
<path opacity="0.1" d="M469.725 147.224L468.358 145.632C468.276 145.539 468.154 145.476 468.016 145.456C467.879 145.435 467.737 145.459 467.62 145.521L465.603 146.636C465.488 146.701 465.409 146.799 465.38 146.91C465.352 147.021 465.377 147.137 465.451 147.233L466.704 148.804C466.781 148.898 466.901 148.965 467.037 148.99C467.173 149.015 467.316 148.995 467.436 148.936L469.573 147.839C469.632 147.807 469.684 147.766 469.723 147.717C469.763 147.669 469.791 147.615 469.805 147.558C469.819 147.5 469.82 147.442 469.806 147.384C469.792 147.327 469.764 147.273 469.725 147.224Z" fill="black"/>
<path opacity="0.1" d="M465.868 149.405L464.502 147.817C464.42 147.725 464.297 147.662 464.16 147.641C464.023 147.62 463.881 147.644 463.764 147.707L461.741 148.817C461.628 148.882 461.549 148.981 461.522 149.092C461.495 149.203 461.521 149.318 461.595 149.414L462.847 150.984C462.925 151.079 463.044 151.146 463.181 151.171C463.317 151.195 463.46 151.176 463.58 151.117L465.711 150.02C465.771 149.988 465.823 149.947 465.863 149.899C465.904 149.851 465.932 149.797 465.947 149.739C465.961 149.682 465.962 149.623 465.949 149.566C465.935 149.509 465.908 149.454 465.868 149.405Z" fill="black"/>
<path opacity="0.1" d="M462.001 151.586L460.635 149.998C460.553 149.907 460.432 149.845 460.296 149.824C460.159 149.803 460.019 149.826 459.902 149.887L457.879 150.998C457.766 151.063 457.687 151.161 457.66 151.273C457.633 151.384 457.659 151.499 457.733 151.595L458.986 153.183C459.063 153.277 459.182 153.343 459.317 153.367C459.452 153.392 459.594 153.374 459.713 153.316L461.85 152.223C461.913 152.191 461.968 152.149 462.01 152.098C462.052 152.048 462.082 151.991 462.096 151.932C462.11 151.872 462.109 151.81 462.093 151.751C462.077 151.691 462.045 151.635 462.001 151.586Z" fill="black"/>
<path opacity="0.1" d="M458.335 153.966L456.638 151.993C456.62 151.971 456.596 151.952 456.569 151.938C456.542 151.923 456.512 151.913 456.48 151.908C456.449 151.903 456.416 151.904 456.384 151.909C456.352 151.914 456.322 151.925 456.296 151.94L453.812 153.307C453.758 153.337 453.72 153.382 453.707 153.435C453.694 153.487 453.706 153.541 453.741 153.586L455.298 155.541C455.315 155.563 455.338 155.582 455.365 155.597C455.392 155.612 455.422 155.623 455.454 155.628C455.486 155.634 455.519 155.634 455.55 155.629C455.582 155.623 455.613 155.613 455.64 155.598L458.265 154.271C458.296 154.257 458.323 154.237 458.344 154.213C458.366 154.189 458.38 154.161 458.387 154.132C458.393 154.103 458.392 154.073 458.383 154.044C458.374 154.016 458.358 153.989 458.335 153.966Z" fill="black"/>
<path opacity="0.1" d="M454.891 155.899L453.194 153.922C453.154 153.879 453.097 153.85 453.032 153.841C452.967 153.832 452.901 153.843 452.846 153.873L450.368 155.236C450.313 155.266 450.276 155.313 450.262 155.366C450.249 155.418 450.262 155.473 450.297 155.519L451.854 157.47C451.889 157.514 451.945 157.546 452.009 157.558C452.073 157.569 452.14 157.56 452.196 157.532L454.821 156.204C454.852 156.19 454.879 156.17 454.9 156.146C454.921 156.122 454.936 156.094 454.943 156.065C454.949 156.036 454.948 156.006 454.939 155.978C454.93 155.949 454.914 155.922 454.891 155.899Z" fill="black"/>
<path opacity="0.1" d="M451.062 158.049L449.365 156.072C449.326 156.029 449.268 156 449.203 155.991C449.138 155.981 449.072 155.993 449.018 156.023L446.534 157.385C446.48 157.417 446.443 157.463 446.43 157.516C446.417 157.568 446.429 157.623 446.463 157.669L448.025 159.619C448.061 159.664 448.116 159.696 448.18 159.707C448.244 159.719 448.311 159.71 448.367 159.681L450.986 158.354C451.019 158.341 451.047 158.321 451.07 158.297C451.092 158.274 451.107 158.246 451.114 158.217C451.122 158.187 451.121 158.157 451.112 158.128C451.103 158.099 451.086 158.072 451.062 158.049Z" fill="black"/>
<path opacity="0.1" d="M447.352 160.155L445.655 158.182C445.636 158.16 445.613 158.141 445.585 158.126C445.558 158.112 445.527 158.102 445.495 158.097C445.462 158.092 445.429 158.092 445.397 158.098C445.365 158.103 445.335 158.114 445.308 158.129L442.824 159.496C442.77 159.526 442.734 159.572 442.722 159.624C442.71 159.676 442.723 159.73 442.759 159.774L444.315 161.725C444.332 161.748 444.354 161.768 444.38 161.784C444.407 161.8 444.437 161.811 444.469 161.817C444.501 161.823 444.535 161.823 444.567 161.818C444.599 161.813 444.63 161.802 444.657 161.787L447.276 160.46C447.309 160.446 447.338 160.427 447.36 160.403C447.382 160.379 447.397 160.352 447.405 160.322C447.412 160.293 447.411 160.263 447.402 160.234C447.393 160.205 447.376 160.178 447.352 160.155Z" fill="black"/>
<path opacity="0.1" d="M446.181 165.242L444.483 163.269C444.445 163.226 444.388 163.198 444.325 163.188C444.261 163.179 444.195 163.191 444.142 163.22L441.658 164.583C441.63 164.597 441.607 164.616 441.588 164.638C441.57 164.66 441.557 164.684 441.551 164.71C441.544 164.736 441.544 164.763 441.55 164.789C441.556 164.815 441.569 164.84 441.587 164.862L443.144 166.817C443.18 166.861 443.236 166.892 443.299 166.903C443.363 166.915 443.43 166.906 443.485 166.879L446.11 165.552C446.142 165.537 446.169 165.516 446.19 165.492C446.212 165.467 446.226 165.439 446.233 165.41C446.239 165.381 446.238 165.35 446.229 165.321C446.22 165.293 446.204 165.265 446.181 165.242Z" fill="black"/>
<path opacity="0.1" d="M442.471 167.339L440.774 165.366C440.756 165.344 440.732 165.325 440.705 165.311C440.678 165.296 440.648 165.286 440.616 165.281C440.585 165.276 440.552 165.276 440.52 165.282C440.488 165.287 440.458 165.298 440.432 165.313L437.948 166.68C437.92 166.694 437.897 166.713 437.879 166.735C437.86 166.756 437.847 166.781 437.841 166.807C437.834 166.833 437.834 166.86 437.84 166.886C437.847 166.912 437.859 166.936 437.877 166.958L439.434 168.909C439.469 168.954 439.525 168.986 439.589 168.997C439.653 169.009 439.72 168.999 439.776 168.971L442.401 167.644C442.432 167.629 442.459 167.609 442.48 167.585C442.501 167.561 442.516 167.534 442.523 167.505C442.529 167.476 442.528 167.446 442.519 167.417C442.51 167.389 442.494 167.362 442.471 167.339Z" fill="black"/>
<path opacity="0.1" d="M448.296 154.802L446.669 152.944C446.618 152.886 446.541 152.847 446.455 152.835C446.369 152.822 446.28 152.838 446.208 152.878L443.865 154.165C443.828 154.185 443.797 154.21 443.773 154.24C443.748 154.269 443.731 154.303 443.723 154.337C443.714 154.372 443.714 154.408 443.723 154.443C443.731 154.478 443.748 154.512 443.773 154.541L445.237 156.377C445.26 156.407 445.29 156.434 445.325 156.454C445.361 156.475 445.401 156.49 445.443 156.498C445.486 156.505 445.53 156.506 445.572 156.5C445.615 156.494 445.656 156.48 445.693 156.461L448.171 155.191C448.212 155.174 448.248 155.149 448.277 155.119C448.305 155.09 448.326 155.056 448.338 155.019C448.35 154.982 448.352 154.944 448.345 154.907C448.338 154.87 448.321 154.834 448.296 154.802Z" fill="black"/>
<path opacity="0.1" d="M444.586 156.899L442.986 155.041C442.962 155.012 442.931 154.986 442.894 154.967C442.858 154.948 442.817 154.934 442.774 154.928C442.731 154.921 442.687 154.921 442.644 154.929C442.602 154.936 442.561 154.95 442.525 154.97L440.182 156.28C440.146 156.299 440.115 156.324 440.091 156.353C440.066 156.382 440.049 156.415 440.041 156.45C440.032 156.484 440.032 156.52 440.041 156.555C440.049 156.589 440.066 156.622 440.09 156.651L441.555 158.492C441.602 158.551 441.677 158.593 441.762 158.609C441.847 158.624 441.936 158.612 442.01 158.576L444.489 157.306C444.531 157.286 444.567 157.26 444.595 157.228C444.623 157.196 444.642 157.159 444.652 157.121C444.661 157.082 444.66 157.042 444.649 157.004C444.637 156.966 444.616 156.93 444.586 156.899Z" fill="black"/>
<path opacity="0.1" d="M440.877 158.996L439.277 157.133C439.225 157.076 439.149 157.036 439.063 157.024C438.977 157.012 438.888 157.027 438.816 157.067L436.473 158.354C436.436 158.374 436.405 158.399 436.38 158.429C436.356 158.458 436.339 158.492 436.33 158.527C436.322 158.562 436.322 158.598 436.33 158.633C436.339 158.668 436.356 158.701 436.38 158.73L437.845 160.566C437.867 160.597 437.897 160.623 437.933 160.644C437.968 160.664 438.008 160.679 438.051 160.687C438.093 160.695 438.137 160.695 438.18 160.689C438.223 160.683 438.264 160.67 438.3 160.65L440.779 159.381C440.817 159.361 440.851 159.336 440.877 159.306C440.902 159.276 440.921 159.241 440.93 159.205C440.939 159.169 440.939 159.132 440.93 159.096C440.921 159.06 440.902 159.026 440.877 158.996Z" fill="black"/>
<path opacity="0.1" d="M437.216 161.146L435.518 159.168C435.48 159.126 435.423 159.097 435.359 159.088C435.296 159.079 435.23 159.09 435.176 159.12L432.692 160.482C432.638 160.513 432.6 160.559 432.587 160.612C432.574 160.665 432.586 160.72 432.622 160.765L434.178 162.716C434.215 162.76 434.271 162.791 434.334 162.802C434.398 162.814 434.464 162.805 434.52 162.778L437.145 161.451C437.178 161.438 437.207 161.418 437.229 161.394C437.252 161.37 437.267 161.342 437.274 161.313C437.28 161.283 437.279 161.253 437.269 161.224C437.259 161.195 437.24 161.168 437.216 161.146Z" fill="black"/>
<path opacity="0.1" d="M481.114 140.73L479.644 139.027C479.562 138.936 479.439 138.873 479.302 138.854C479.164 138.834 479.023 138.858 478.907 138.921L473.169 142.199C473.057 142.265 472.981 142.363 472.955 142.473C472.929 142.583 472.955 142.697 473.028 142.792L474.411 144.535C474.45 144.583 474.501 144.624 474.561 144.657C474.62 144.689 474.687 144.711 474.757 144.722C474.827 144.733 474.899 144.733 474.969 144.721C475.039 144.71 475.105 144.687 475.164 144.654L480.989 141.332C481.101 141.264 481.176 141.164 481.199 141.052C481.222 140.94 481.192 140.825 481.114 140.73Z" fill="black"/>
<path opacity="0.1" d="M443.632 162.185L441.831 160.111C441.813 160.088 441.789 160.069 441.761 160.055C441.734 160.04 441.703 160.03 441.67 160.026C441.638 160.021 441.605 160.022 441.573 160.028C441.541 160.035 441.511 160.046 441.484 160.062L435.29 163.601C435.238 163.631 435.201 163.676 435.189 163.727C435.177 163.778 435.19 163.832 435.225 163.875L436.917 166.012C436.935 166.035 436.959 166.055 436.987 166.07C437.014 166.086 437.046 166.096 437.079 166.102C437.112 166.107 437.145 166.107 437.178 166.101C437.211 166.096 437.242 166.085 437.27 166.069L443.567 162.473C443.622 162.442 443.659 162.394 443.672 162.34C443.684 162.286 443.67 162.231 443.632 162.185Z" fill="black"/>
<path opacity="0.1" d="M463.336 146.318L461.676 144.336C461.639 144.292 461.582 144.263 461.518 144.253C461.455 144.243 461.389 144.253 461.334 144.283L447.58 151.856C447.526 151.886 447.488 151.932 447.475 151.984C447.462 152.036 447.474 152.09 447.51 152.135L449.207 154.258C449.225 154.281 449.249 154.301 449.277 154.316C449.304 154.332 449.336 154.343 449.368 154.348C449.401 154.353 449.435 154.353 449.468 154.348C449.501 154.342 449.532 154.331 449.56 154.316L463.271 146.601C463.298 146.586 463.321 146.566 463.339 146.544C463.357 146.521 463.369 146.496 463.375 146.47C463.381 146.444 463.381 146.417 463.374 146.391C463.367 146.364 463.354 146.34 463.336 146.318Z" fill="black"/>
</g>
<path d="M486.397 146.76L485.03 145.167C484.948 145.075 484.826 145.012 484.688 144.991C484.551 144.971 484.409 144.994 484.292 145.057L482.275 146.172C482.16 146.236 482.081 146.334 482.052 146.445C482.024 146.557 482.049 146.672 482.123 146.769L483.376 148.339C483.453 148.434 483.573 148.501 483.709 148.525C483.846 148.55 483.988 148.531 484.108 148.472L486.245 147.375C486.304 147.343 486.356 147.301 486.396 147.253C486.435 147.205 486.463 147.15 486.477 147.093C486.492 147.036 486.492 146.977 486.478 146.92C486.464 146.863 486.436 146.808 486.397 146.76Z" fill="#464A5F"/>
<path d="M482.741 148.812L481.374 147.224C481.293 147.133 481.171 147.071 481.035 147.05C480.899 147.03 480.758 147.052 480.642 147.114L478.619 148.224C478.505 148.289 478.425 148.387 478.397 148.498C478.369 148.609 478.394 148.725 478.467 148.821L479.72 150.392C479.798 150.486 479.917 150.553 480.054 150.578C480.19 150.603 480.333 150.583 480.452 150.524L482.589 149.432C482.65 149.4 482.702 149.358 482.742 149.309C482.782 149.261 482.81 149.206 482.825 149.148C482.839 149.09 482.839 149.031 482.824 148.973C482.81 148.916 482.782 148.861 482.741 148.812Z" fill="#464A5F"/>
<path d="M478.945 150.971L477.578 149.383C477.496 149.291 477.374 149.228 477.236 149.207C477.099 149.187 476.957 149.21 476.84 149.273L474.823 150.387C474.708 150.452 474.629 150.55 474.6 150.661C474.572 150.772 474.597 150.888 474.671 150.985L475.924 152.555C476.002 152.649 476.122 152.715 476.258 152.739C476.395 152.763 476.537 152.743 476.656 152.683L478.793 151.591C478.853 151.559 478.905 151.517 478.945 151.468C478.986 151.419 479.014 151.365 479.028 151.307C479.042 151.249 479.042 151.19 479.028 151.132C479.013 151.075 478.985 151.02 478.945 150.971Z" fill="#464A5F"/>
<path d="M475.072 153.152L473.706 151.56C473.624 151.468 473.502 151.406 473.366 151.386C473.23 151.365 473.09 151.388 472.973 151.449L470.95 152.564C470.891 152.597 470.84 152.639 470.801 152.688C470.761 152.737 470.734 152.792 470.721 152.849C470.708 152.907 470.709 152.966 470.724 153.023C470.739 153.081 470.768 153.135 470.809 153.183L472.062 154.753C472.14 154.848 472.259 154.915 472.396 154.94C472.532 154.964 472.675 154.945 472.794 154.886L474.926 153.789C474.989 153.757 475.043 153.714 475.085 153.664C475.127 153.613 475.155 153.556 475.169 153.497C475.183 153.437 475.181 153.375 475.165 153.316C475.148 153.257 475.117 153.201 475.072 153.152Z" fill="#464A5F"/>
<path d="M471.211 155.333L469.844 153.745C469.762 153.654 469.641 153.592 469.505 153.571C469.369 153.55 469.228 153.573 469.112 153.634L467.089 154.745C466.975 154.81 466.897 154.908 466.87 155.02C466.842 155.131 466.868 155.246 466.942 155.342L468.19 156.912C468.267 157.007 468.387 157.074 468.523 157.099C468.66 157.123 468.802 157.104 468.922 157.045L471.059 155.948C471.118 155.916 471.17 155.874 471.21 155.826C471.25 155.778 471.277 155.723 471.292 155.666C471.306 155.609 471.306 155.55 471.292 155.493C471.278 155.436 471.25 155.382 471.211 155.333Z" fill="#464A5F"/>
<path d="M467.517 157.713L465.82 155.74C465.802 155.718 465.778 155.699 465.751 155.685C465.725 155.67 465.694 155.66 465.662 155.655C465.631 155.65 465.598 155.65 465.566 155.656C465.535 155.661 465.505 155.672 465.478 155.687L462.994 157.054C462.967 157.068 462.943 157.087 462.925 157.109C462.906 157.131 462.893 157.155 462.887 157.181C462.88 157.207 462.88 157.234 462.886 157.26C462.893 157.286 462.905 157.311 462.923 157.333L464.48 159.283C464.516 159.328 464.571 159.36 464.635 159.371C464.699 159.383 464.766 159.374 464.822 159.345L467.447 158.018C467.478 158.004 467.506 157.984 467.527 157.96C467.548 157.935 467.562 157.908 467.569 157.879C467.575 157.85 467.574 157.82 467.565 157.791C467.557 157.763 467.54 157.736 467.517 157.713Z" fill="#464A5F"/>
<path d="M463.656 159.894L461.958 157.921C461.94 157.899 461.916 157.88 461.888 157.865C461.861 157.851 461.83 157.841 461.798 157.836C461.766 157.831 461.733 157.831 461.701 157.837C461.668 157.842 461.638 157.853 461.611 157.868L459.132 159.235C459.105 159.249 459.081 159.268 459.063 159.29C459.045 159.311 459.032 159.336 459.025 159.362C459.019 159.388 459.019 159.415 459.025 159.441C459.031 159.467 459.044 159.491 459.062 159.513L460.618 161.469C460.636 161.491 460.659 161.51 460.686 161.525C460.712 161.54 460.743 161.551 460.774 161.556C460.806 161.561 460.839 161.562 460.871 161.556C460.903 161.551 460.933 161.541 460.96 161.526L463.585 160.199C463.616 160.184 463.643 160.164 463.663 160.14C463.684 160.116 463.698 160.088 463.704 160.059C463.711 160.031 463.71 160.001 463.702 159.972C463.693 159.944 463.678 159.917 463.656 159.894Z" fill="#464A5F"/>
<path d="M460.233 161.827L458.536 159.85C458.498 159.807 458.441 159.778 458.377 159.769C458.313 159.76 458.248 159.771 458.194 159.801L455.71 161.146C455.656 161.176 455.618 161.223 455.605 161.276C455.592 161.328 455.604 161.383 455.64 161.429L457.196 163.38C457.233 163.424 457.288 163.455 457.352 163.466C457.415 163.478 457.482 163.469 457.538 163.442L460.163 162.115C460.191 162.1 460.215 162.081 460.234 162.058C460.253 162.035 460.267 162.01 460.273 161.983C460.28 161.956 460.28 161.928 460.273 161.902C460.266 161.875 460.253 161.849 460.233 161.827Z" fill="#464A5F"/>
<path d="M456.404 163.99L454.707 162.03C454.669 161.988 454.612 161.959 454.548 161.95C454.484 161.941 454.419 161.952 454.365 161.982L451.881 163.344C451.853 163.359 451.83 163.378 451.811 163.4C451.793 163.422 451.78 163.447 451.773 163.474C451.767 163.5 451.767 163.527 451.773 163.554C451.779 163.58 451.792 163.605 451.81 163.627L453.367 165.578C453.404 165.622 453.459 165.653 453.523 165.665C453.586 165.676 453.653 165.667 453.709 165.64L456.334 164.313C456.369 164.299 456.399 164.278 456.423 164.253C456.446 164.227 456.462 164.198 456.469 164.166C456.476 164.135 456.474 164.102 456.462 164.072C456.451 164.041 456.431 164.013 456.404 163.99Z" fill="#464A5F"/>
<path d="M452.695 166.083L450.997 164.11C450.979 164.088 450.956 164.069 450.929 164.054C450.902 164.04 450.872 164.03 450.84 164.025C450.808 164.02 450.775 164.02 450.744 164.026C450.712 164.031 450.682 164.042 450.655 164.057L448.171 165.423C448.144 165.438 448.12 165.456 448.102 165.478C448.084 165.5 448.071 165.525 448.064 165.551C448.058 165.577 448.058 165.603 448.064 165.629C448.07 165.655 448.083 165.68 448.101 165.702L449.657 167.653C449.675 167.676 449.697 167.695 449.724 167.711C449.75 167.726 449.78 167.737 449.812 167.743C449.844 167.749 449.877 167.749 449.909 167.744C449.941 167.74 449.972 167.73 449.999 167.715L452.624 166.388C452.656 166.373 452.683 166.353 452.704 166.329C452.725 166.305 452.739 166.278 452.746 166.249C452.753 166.22 452.752 166.19 452.743 166.161C452.734 166.132 452.717 166.106 452.695 166.083Z" fill="#464A5F"/>
<path d="M448.985 168.179L447.287 166.202C447.249 166.159 447.192 166.13 447.128 166.121C447.065 166.112 446.999 166.124 446.946 166.153L444.462 167.516C444.407 167.546 444.369 167.593 444.356 167.646C444.343 167.698 444.356 167.753 444.391 167.799L445.948 169.75C445.984 169.794 446.04 169.825 446.103 169.836C446.167 169.848 446.233 169.839 446.289 169.812L448.914 168.484C448.946 168.47 448.973 168.45 448.994 168.426C449.015 168.402 449.03 168.374 449.036 168.345C449.043 168.316 449.042 168.286 449.033 168.258C449.024 168.229 449.008 168.202 448.985 168.179Z" fill="#464A5F"/>
<path d="M445.275 170.272L443.578 168.299C443.56 168.277 443.536 168.258 443.509 168.243C443.482 168.229 443.452 168.219 443.42 168.214C443.389 168.209 443.356 168.209 443.324 168.215C443.293 168.22 443.263 168.231 443.236 168.246L440.752 169.613C440.725 169.627 440.701 169.646 440.683 169.667C440.664 169.689 440.651 169.714 440.645 169.74C440.638 169.766 440.638 169.793 440.644 169.819C440.651 169.845 440.663 169.869 440.681 169.891L442.238 171.842C442.255 171.865 442.278 171.884 442.304 171.9C442.331 171.915 442.361 171.926 442.393 171.932C442.425 171.938 442.458 171.938 442.49 171.933C442.522 171.929 442.552 171.919 442.58 171.904L445.205 170.577C445.236 170.562 445.263 170.542 445.285 170.518C445.306 170.494 445.32 170.467 445.327 170.438C445.333 170.409 445.332 170.379 445.323 170.35C445.314 170.321 445.298 170.295 445.275 170.272Z" fill="#464A5F"/>
<path d="M483.951 143.893L482.584 142.301C482.502 142.21 482.381 142.147 482.245 142.127C482.109 142.106 481.968 142.129 481.852 142.19L479.829 143.305C479.715 143.37 479.637 143.469 479.61 143.58C479.582 143.691 479.608 143.806 479.682 143.902L480.93 145.473C481.007 145.567 481.127 145.634 481.263 145.659C481.4 145.684 481.542 145.664 481.662 145.605L483.799 144.508C483.858 144.476 483.91 144.435 483.95 144.386C483.99 144.338 484.017 144.284 484.032 144.227C484.046 144.169 484.046 144.111 484.032 144.053C484.018 143.996 483.99 143.942 483.951 143.893Z" fill="#464A5F"/>
<path d="M478.608 137.585L477.242 135.997C477.16 135.906 477.039 135.844 476.903 135.823C476.766 135.803 476.626 135.825 476.51 135.886L474.487 136.997C474.373 137.062 474.294 137.16 474.267 137.272C474.24 137.383 474.266 137.498 474.34 137.594L475.593 139.164C475.67 139.258 475.789 139.324 475.924 139.349C476.059 139.373 476.201 139.355 476.32 139.297L478.457 138.204C478.517 138.172 478.569 138.131 478.609 138.082C478.65 138.033 478.678 137.978 478.692 137.921C478.706 137.863 478.706 137.804 478.692 137.746C478.677 137.688 478.649 137.634 478.608 137.585Z" fill="#464A5F"/>
<path d="M480.311 145.933L478.945 144.336C478.863 144.245 478.742 144.182 478.606 144.162C478.469 144.141 478.329 144.164 478.213 144.225L476.19 145.336C476.076 145.401 475.997 145.499 475.97 145.61C475.943 145.721 475.969 145.837 476.043 145.933L477.296 147.503C477.373 147.597 477.492 147.663 477.627 147.687C477.762 147.712 477.904 147.694 478.023 147.636L480.16 146.543C480.278 146.478 480.361 146.378 480.39 146.263C480.418 146.149 480.39 146.03 480.311 145.933Z" fill="#464A5F"/>
<path d="M476.493 148.087L475.148 146.499C475.067 146.408 474.945 146.345 474.809 146.325C474.673 146.304 474.532 146.327 474.416 146.388L472.393 147.499C472.278 147.564 472.199 147.663 472.171 147.775C472.144 147.888 472.171 148.004 472.247 148.1L473.494 149.671C473.572 149.765 473.692 149.831 473.829 149.854C473.965 149.878 474.107 149.858 474.226 149.799L476.363 148.706C476.422 148.673 476.472 148.63 476.51 148.581C476.548 148.531 476.574 148.476 476.586 148.419C476.599 148.361 476.597 148.302 476.581 148.245C476.565 148.188 476.535 148.135 476.493 148.087Z" fill="#464A5F"/>
<path d="M472.632 150.272L471.265 148.68C471.183 148.587 471.061 148.524 470.923 148.504C470.786 148.483 470.644 148.507 470.527 148.569L468.51 149.684C468.395 149.749 468.316 149.847 468.287 149.958C468.259 150.069 468.284 150.185 468.358 150.281L469.611 151.852C469.688 151.946 469.808 152.013 469.944 152.038C470.081 152.063 470.223 152.043 470.343 151.984L472.48 150.887C472.539 150.855 472.591 150.814 472.631 150.765C472.67 150.717 472.698 150.663 472.712 150.606C472.727 150.548 472.727 150.49 472.713 150.432C472.699 150.375 472.671 150.321 472.632 150.272Z" fill="#464A5F"/>
<path d="M475.056 139.739L473.689 138.143C473.608 138.051 473.486 137.989 473.35 137.969C473.214 137.948 473.073 137.971 472.957 138.032L470.934 139.142C470.82 139.208 470.742 139.306 470.715 139.417C470.688 139.528 470.714 139.644 470.788 139.739L472.04 141.31C472.118 141.404 472.236 141.469 472.371 141.494C472.507 141.519 472.648 141.5 472.767 141.443L474.904 140.35C475.023 140.285 475.106 140.185 475.134 140.07C475.163 139.956 475.134 139.837 475.056 139.739Z" fill="#464A5F"/>
<path d="M471.238 141.898L469.871 140.306C469.789 140.215 469.668 140.152 469.532 140.132C469.396 140.111 469.255 140.134 469.139 140.195L467.116 141.31C467.001 141.375 466.922 141.473 466.894 141.584C466.865 141.695 466.891 141.811 466.964 141.907L468.217 143.478C468.294 143.572 468.414 143.639 468.55 143.664C468.687 143.689 468.83 143.669 468.949 143.61L471.086 142.513C471.146 142.481 471.197 142.44 471.237 142.391C471.277 142.343 471.305 142.289 471.319 142.231C471.333 142.174 471.333 142.115 471.319 142.058C471.305 142.001 471.278 141.947 471.238 141.898Z" fill="#464A5F"/>
<path d="M467.376 144.079L466.009 142.491C465.928 142.399 465.805 142.336 465.668 142.315C465.53 142.294 465.389 142.318 465.272 142.38L463.254 143.491C463.14 143.555 463.06 143.654 463.032 143.765C463.004 143.876 463.029 143.992 463.102 144.088L464.355 145.663C464.433 145.758 464.552 145.824 464.689 145.849C464.825 145.874 464.968 145.855 465.087 145.796L467.219 144.698C467.28 144.667 467.332 144.625 467.373 144.577C467.414 144.528 467.443 144.474 467.457 144.416C467.472 144.358 467.472 144.299 467.458 144.241C467.444 144.183 467.416 144.128 467.376 144.079Z" fill="#464A5F"/>
<path d="M468.765 152.453L467.398 150.865C467.316 150.774 467.195 150.712 467.059 150.691C466.923 150.671 466.782 150.693 466.666 150.755L464.643 151.856C464.529 151.921 464.451 152.02 464.424 152.131C464.396 152.242 464.422 152.357 464.496 152.453L465.749 154.024C465.827 154.117 465.945 154.183 466.08 154.208C466.215 154.232 466.357 154.214 466.476 154.156L468.613 153.059C468.73 152.994 468.812 152.895 468.84 152.781C468.869 152.668 468.841 152.55 468.765 152.453Z" fill="#464A5F"/>
<path d="M464.903 154.634L463.536 153.046C463.455 152.955 463.333 152.893 463.197 152.872C463.061 152.851 462.92 152.874 462.804 152.935L460.781 154.068C460.667 154.132 460.587 154.231 460.559 154.342C460.531 154.453 460.556 154.569 460.629 154.665L461.882 156.235C461.96 156.33 462.079 156.397 462.215 156.422C462.352 156.446 462.495 156.427 462.614 156.368L464.751 155.276C464.815 155.243 464.871 155.201 464.914 155.15C464.957 155.1 464.986 155.042 465 154.982C465.015 154.922 465.013 154.86 464.997 154.8C464.98 154.74 464.948 154.683 464.903 154.634Z" fill="#464A5F"/>
<path d="M461.21 157.014L459.512 155.041C459.494 155.019 459.471 155 459.444 154.986C459.417 154.971 459.387 154.961 459.355 154.956C459.323 154.951 459.29 154.951 459.259 154.957C459.227 154.962 459.197 154.973 459.17 154.988L456.708 156.355C456.681 156.369 456.657 156.388 456.639 156.41C456.62 156.432 456.608 156.456 456.601 156.482C456.594 156.508 456.594 156.535 456.601 156.561C456.607 156.587 456.619 156.612 456.638 156.634L458.194 158.584C458.211 158.607 458.234 158.627 458.26 158.642C458.287 158.658 458.317 158.668 458.349 158.674C458.381 158.68 458.414 158.681 458.446 158.676C458.478 158.671 458.509 158.661 458.536 158.646L461.161 157.319C461.19 157.303 461.215 157.281 461.233 157.257C461.252 157.232 461.263 157.204 461.268 157.175C461.273 157.147 461.27 157.117 461.26 157.09C461.25 157.062 461.233 157.036 461.21 157.014Z" fill="#464A5F"/>
<path d="M457.793 158.934L456.095 156.956C456.056 156.913 455.998 156.884 455.934 156.875C455.869 156.866 455.802 156.878 455.748 156.908L453.264 158.27C453.211 158.301 453.174 158.348 453.161 158.401C453.148 158.453 453.159 158.508 453.193 158.553L454.755 160.504C454.791 160.549 454.847 160.581 454.911 160.592C454.975 160.604 455.042 160.594 455.097 160.566L457.717 159.239C457.749 159.225 457.778 159.206 457.8 159.182C457.822 159.158 457.838 159.131 457.845 159.101C457.852 159.072 457.851 159.042 457.842 159.013C457.833 158.984 457.816 158.957 457.793 158.934Z" fill="#464A5F"/>
<path d="M453.958 161.11L452.261 159.133C452.223 159.09 452.166 159.061 452.102 159.052C452.038 159.043 451.973 159.055 451.919 159.084L449.435 160.447C449.381 160.477 449.343 160.524 449.33 160.577C449.316 160.63 449.329 160.685 449.364 160.73L450.921 162.681C450.958 162.725 451.013 162.756 451.077 162.767C451.14 162.779 451.207 162.77 451.263 162.743L453.888 161.416C453.921 161.402 453.95 161.383 453.972 161.359C453.994 161.335 454.009 161.307 454.016 161.277C454.023 161.248 454.021 161.217 454.011 161.188C454.001 161.159 453.983 161.133 453.958 161.11Z" fill="#464A5F"/>
<path d="M450.254 163.203L448.573 161.23C448.555 161.208 448.532 161.189 448.505 161.174C448.478 161.16 448.447 161.15 448.416 161.145C448.384 161.14 448.351 161.14 448.319 161.146C448.288 161.151 448.258 161.162 448.231 161.177L445.747 162.544C445.693 162.573 445.655 162.619 445.642 162.671C445.629 162.723 445.641 162.778 445.677 162.822L447.233 164.773C447.269 164.818 447.324 164.85 447.388 164.861C447.452 164.873 447.519 164.863 447.575 164.835L450.2 163.508C450.231 163.493 450.257 163.472 450.277 163.448C450.297 163.423 450.311 163.395 450.316 163.366C450.321 163.337 450.318 163.307 450.307 163.279C450.297 163.25 450.278 163.224 450.254 163.203Z" fill="#464A5F"/>
<path d="M473.95 145.097L472.588 143.504C472.507 143.412 472.384 143.349 472.247 143.328C472.109 143.307 471.967 143.331 471.851 143.394L469.828 144.508C469.714 144.574 469.636 144.672 469.608 144.783C469.581 144.894 469.607 145.01 469.681 145.106L470.934 146.676C471.013 146.77 471.132 146.836 471.269 146.86C471.405 146.884 471.547 146.864 471.666 146.804L473.798 145.712C473.857 145.679 473.909 145.638 473.949 145.59C473.988 145.541 474.016 145.487 474.03 145.43C474.045 145.373 474.045 145.314 474.031 145.257C474.017 145.199 473.989 145.145 473.95 145.097Z" fill="#464A5F"/>
<path d="M470.088 147.277L468.721 145.689C468.64 145.598 468.519 145.534 468.383 145.513C468.247 145.492 468.106 145.514 467.989 145.574L465.966 146.689C465.853 146.754 465.774 146.853 465.747 146.964C465.72 147.075 465.746 147.19 465.82 147.286L467.073 148.857C467.15 148.95 467.268 149.016 467.404 149.041C467.539 149.066 467.68 149.047 467.799 148.989L469.936 147.892C469.996 147.86 470.047 147.819 470.087 147.77C470.127 147.722 470.155 147.668 470.169 147.611C470.183 147.554 470.183 147.495 470.169 147.438C470.155 147.38 470.128 147.326 470.088 147.277Z" fill="#464A5F"/>
<path d="M466.226 149.458L464.843 147.875C464.762 147.782 464.639 147.719 464.502 147.699C464.364 147.678 464.223 147.702 464.106 147.764L462.132 148.87C462.017 148.935 461.938 149.033 461.909 149.144C461.881 149.255 461.906 149.371 461.98 149.467L463.233 151.038C463.31 151.132 463.43 151.199 463.566 151.224C463.702 151.249 463.845 151.229 463.965 151.17L466.102 150.078C466.16 150.044 466.209 150.001 466.247 149.951C466.285 149.902 466.31 149.847 466.322 149.789C466.334 149.732 466.331 149.673 466.315 149.616C466.298 149.559 466.268 149.506 466.226 149.458Z" fill="#464A5F"/>
<path d="M462.359 151.639L460.993 150.051C460.911 149.96 460.79 149.898 460.654 149.877C460.517 149.857 460.377 149.879 460.26 149.941L458.238 151.051C458.124 151.116 458.045 151.215 458.018 151.326C457.991 151.437 458.017 151.552 458.091 151.648L459.344 153.218C459.421 153.312 459.54 153.378 459.675 153.403C459.81 153.427 459.952 153.409 460.071 153.351L462.208 152.259C462.268 152.226 462.32 152.185 462.36 152.136C462.401 152.087 462.429 152.033 462.443 151.975C462.457 151.917 462.457 151.858 462.443 151.8C462.428 151.743 462.4 151.688 462.359 151.639Z" fill="#464A5F"/>
<path d="M458.671 154.019L456.974 152.046C456.955 152.024 456.932 152.005 456.904 151.991C456.877 151.976 456.846 151.966 456.814 151.961C456.781 151.956 456.748 151.956 456.716 151.962C456.684 151.967 456.654 151.978 456.627 151.993L454.143 153.36C454.089 153.39 454.051 153.436 454.038 153.488C454.025 153.54 454.037 153.594 454.072 153.639L455.629 155.594C455.647 155.616 455.67 155.636 455.697 155.651C455.725 155.666 455.755 155.676 455.788 155.682C455.82 155.687 455.853 155.687 455.885 155.682C455.918 155.677 455.948 155.666 455.976 155.651L458.595 154.324C458.627 154.31 458.655 154.29 458.677 154.267C458.698 154.243 458.713 154.215 458.721 154.186C458.728 154.157 458.727 154.127 458.719 154.098C458.71 154.069 458.694 154.042 458.671 154.019Z" fill="#464A5F"/>
<path d="M455.249 155.952L453.551 153.979C453.534 153.957 453.51 153.939 453.483 153.924C453.456 153.909 453.426 153.899 453.394 153.894C453.362 153.889 453.33 153.89 453.298 153.895C453.266 153.901 453.236 153.911 453.21 153.926L450.742 155.289C450.688 155.319 450.65 155.366 450.637 155.419C450.624 155.471 450.636 155.526 450.672 155.572L452.228 157.523C452.265 157.567 452.32 157.597 452.384 157.609C452.447 157.621 452.514 157.612 452.57 157.585L455.195 156.257C455.225 156.242 455.251 156.221 455.27 156.196C455.29 156.172 455.303 156.144 455.308 156.115C455.313 156.086 455.31 156.056 455.3 156.028C455.29 156 455.273 155.974 455.249 155.952Z" fill="#464A5F"/>
<path d="M451.42 158.115L449.723 156.138C449.683 156.095 449.626 156.066 449.561 156.057C449.496 156.048 449.43 156.06 449.375 156.089L446.897 157.452C446.842 157.482 446.805 157.529 446.791 157.582C446.778 157.635 446.791 157.69 446.826 157.735L448.383 159.686C448.419 159.731 448.474 159.762 448.538 159.774C448.602 159.785 448.669 159.776 448.725 159.748L451.35 158.421C451.381 158.406 451.408 158.386 451.429 158.362C451.451 158.338 451.465 158.31 451.472 158.281C451.478 158.252 451.477 158.222 451.468 158.194C451.459 158.165 451.443 158.138 451.42 158.115Z" fill="#464A5F"/>
<path d="M447.71 160.208L446.013 158.235C445.994 158.213 445.971 158.194 445.943 158.179C445.916 158.165 445.885 158.155 445.853 158.15C445.82 158.145 445.787 158.145 445.755 158.151C445.723 158.156 445.693 158.167 445.666 158.182L443.187 159.549C443.16 159.563 443.136 159.582 443.118 159.604C443.099 159.625 443.087 159.65 443.08 159.676C443.073 159.702 443.073 159.729 443.08 159.755C443.086 159.781 443.098 159.806 443.117 159.828L444.673 161.783C444.691 161.805 444.714 161.824 444.74 161.839C444.767 161.854 444.797 161.865 444.829 161.87C444.861 161.875 444.894 161.876 444.926 161.87C444.958 161.865 444.988 161.855 445.015 161.84L447.64 160.513C447.671 160.498 447.697 160.478 447.718 160.454C447.738 160.43 447.752 160.402 447.759 160.373C447.766 160.345 447.765 160.315 447.756 160.286C447.748 160.258 447.732 160.231 447.71 160.208Z" fill="#464A5F"/>
<path d="M446.544 165.3L444.847 163.322C444.808 163.279 444.75 163.25 444.685 163.241C444.621 163.232 444.554 163.244 444.5 163.273L442.016 164.636C441.961 164.667 441.924 164.713 441.91 164.766C441.897 164.819 441.91 164.874 441.945 164.919L443.502 166.87C443.538 166.914 443.594 166.945 443.658 166.956C443.721 166.968 443.788 166.959 443.844 166.932L446.469 165.605C446.501 165.591 446.53 165.572 446.552 165.548C446.574 165.524 446.589 165.496 446.597 165.467C446.604 165.438 446.603 165.407 446.594 165.378C446.585 165.349 446.568 165.322 446.544 165.3Z" fill="#464A5F"/>
<path d="M442.835 167.392L441.137 165.419C441.118 165.397 441.095 165.378 441.067 165.363C441.04 165.349 441.009 165.339 440.977 165.334C440.945 165.329 440.912 165.329 440.879 165.335C440.847 165.34 440.817 165.351 440.79 165.366L438.306 166.733C438.252 166.762 438.214 166.808 438.201 166.86C438.188 166.912 438.2 166.967 438.235 167.011L439.792 168.962C439.81 168.985 439.833 169.005 439.86 169.02C439.887 169.036 439.917 169.047 439.95 169.052C439.982 169.058 440.015 169.059 440.048 169.054C440.08 169.049 440.111 169.039 440.139 169.024L442.759 167.697C442.791 167.684 442.82 167.664 442.842 167.64C442.864 167.616 442.879 167.589 442.887 167.559C442.894 167.53 442.893 167.5 442.884 167.471C442.875 167.442 442.858 167.415 442.835 167.392Z" fill="#464A5F"/>
<path d="M448.654 154.86L447.054 152.997C447.003 152.94 446.926 152.9 446.84 152.888C446.754 152.876 446.665 152.891 446.593 152.931L444.234 154.218C444.161 154.259 444.111 154.321 444.094 154.391C444.076 154.461 444.094 154.534 444.142 154.594L445.606 156.435C445.655 156.494 445.73 156.536 445.816 156.551C445.903 156.566 445.993 156.553 446.067 156.514L448.54 155.245C448.58 155.226 448.615 155.202 448.642 155.172C448.67 155.142 448.689 155.109 448.7 155.072C448.711 155.036 448.712 154.999 448.704 154.962C448.696 154.926 448.679 154.891 448.654 154.86Z" fill="#464A5F"/>
<path d="M444.944 156.952L443.344 155.094C443.32 155.065 443.288 155.04 443.252 155.02C443.216 155.001 443.175 154.987 443.132 154.981C443.089 154.974 443.045 154.974 443.002 154.982C442.96 154.989 442.919 155.003 442.883 155.023L440.54 156.315C440.468 156.355 440.418 156.416 440.401 156.485C440.383 156.555 440.401 156.627 440.448 156.687L441.912 158.527C441.961 158.587 442.036 158.629 442.122 158.644C442.208 158.66 442.298 158.648 442.374 158.611L444.852 157.341C444.89 157.321 444.922 157.295 444.947 157.264C444.972 157.233 444.989 157.199 444.998 157.162C445.006 157.126 445.006 157.089 444.997 157.053C444.988 157.017 444.97 156.983 444.944 156.952Z" fill="#464A5F"/>
<path d="M441.235 159.049L439.608 157.187C439.557 157.129 439.482 157.09 439.396 157.078C439.311 157.065 439.223 157.081 439.152 157.12L436.804 158.408C436.731 158.448 436.681 158.51 436.664 158.58C436.646 158.651 436.663 158.724 436.711 158.784L438.176 160.624C438.224 160.684 438.3 160.726 438.386 160.741C438.473 160.755 438.562 160.742 438.637 160.703L441.115 159.434C441.156 159.416 441.191 159.392 441.219 159.362C441.247 159.333 441.267 159.299 441.278 159.263C441.29 159.227 441.292 159.189 441.284 159.152C441.276 159.115 441.26 159.08 441.235 159.049Z" fill="#464A5F"/>
<path d="M437.579 161.203L435.882 159.226C435.843 159.183 435.785 159.154 435.72 159.145C435.655 159.136 435.589 159.147 435.534 159.177L433.05 160.54C432.997 160.571 432.96 160.618 432.948 160.671C432.936 160.723 432.949 160.778 432.985 160.823L434.542 162.774C434.578 162.818 434.633 162.85 434.697 162.862C434.761 162.873 434.828 162.864 434.884 162.836L437.509 161.508C437.54 161.494 437.567 161.474 437.588 161.45C437.61 161.426 437.624 161.398 437.631 161.369C437.637 161.34 437.636 161.31 437.627 161.282C437.618 161.253 437.602 161.226 437.579 161.203Z" fill="#464A5F"/>
<path d="M481.477 140.797L480.029 139.089C479.947 138.998 479.824 138.935 479.687 138.916C479.549 138.896 479.408 138.92 479.292 138.983L473.521 142.261C473.41 142.327 473.333 142.425 473.307 142.535C473.281 142.645 473.307 142.759 473.38 142.854L474.768 144.597C474.808 144.645 474.859 144.686 474.919 144.719C474.978 144.751 475.045 144.773 475.115 144.784C475.185 144.795 475.257 144.795 475.327 144.783C475.397 144.772 475.463 144.749 475.522 144.716L481.342 141.394C481.454 141.327 481.53 141.228 481.555 141.117C481.58 141.006 481.553 140.892 481.477 140.797Z" fill="#464A5F"/>
<path d="M443.99 162.238L442.189 160.164C442.171 160.142 442.147 160.123 442.119 160.108C442.092 160.093 442.061 160.084 442.028 160.079C441.996 160.075 441.963 160.075 441.931 160.082C441.899 160.088 441.869 160.099 441.842 160.115L435.648 163.654C435.595 163.684 435.559 163.731 435.546 163.783C435.534 163.835 435.547 163.888 435.583 163.933L437.281 166.065C437.299 166.088 437.322 166.108 437.35 166.123C437.378 166.139 437.409 166.149 437.442 166.155C437.475 166.16 437.509 166.16 437.542 166.155C437.575 166.149 437.606 166.138 437.633 166.122L443.93 162.526C443.984 162.494 444.021 162.446 444.032 162.392C444.043 162.338 444.028 162.283 443.99 162.238Z" fill="#464A5F"/>
<path d="M463.694 146.371L462.067 144.402C462.029 144.358 461.972 144.327 461.907 144.316C461.842 144.305 461.775 144.316 461.719 144.345L447.971 151.909C447.943 151.923 447.92 151.942 447.901 151.964C447.883 151.986 447.87 152.01 447.864 152.036C447.857 152.062 447.857 152.089 447.863 152.115C447.869 152.141 447.882 152.166 447.9 152.188L449.592 154.311C449.61 154.334 449.634 154.354 449.662 154.37C449.689 154.385 449.721 154.396 449.754 154.401C449.787 154.406 449.82 154.406 449.853 154.401C449.886 154.395 449.917 154.384 449.945 154.369L463.656 146.654C463.706 146.62 463.738 146.571 463.745 146.519C463.753 146.466 463.734 146.413 463.694 146.371Z" fill="#464A5F"/>
<path opacity="0.1" d="M463.759 139.611L456.448 130.945C456.246 130.704 455.935 130.539 455.583 130.484C455.232 130.429 454.868 130.49 454.571 130.653L434.433 141.682C434.285 141.763 434.158 141.868 434.06 141.99C433.961 142.112 433.893 142.249 433.859 142.392C433.825 142.535 433.827 142.683 433.863 142.826C433.899 142.969 433.969 143.105 434.07 143.225L441.522 152.139C441.622 152.26 441.751 152.364 441.901 152.444C442.05 152.524 442.218 152.58 442.394 152.607C442.57 152.634 442.751 152.633 442.926 152.602C443.101 152.572 443.267 152.514 443.415 152.431L463.412 141.146C463.558 141.064 463.684 140.959 463.78 140.838C463.877 140.716 463.944 140.58 463.976 140.438C464.008 140.295 464.006 140.149 463.968 140.007C463.931 139.865 463.86 139.731 463.759 139.611Z" fill="black"/>
<path d="M464.095 139.664L456.784 130.998C456.581 130.758 456.27 130.593 455.919 130.539C455.568 130.484 455.205 130.544 454.907 130.706L434.797 141.743C434.647 141.824 434.519 141.929 434.42 142.051C434.32 142.172 434.251 142.309 434.217 142.453C434.183 142.596 434.184 142.744 434.22 142.887C434.256 143.03 434.327 143.166 434.428 143.287L441.858 152.192C441.958 152.313 442.087 152.417 442.237 152.497C442.386 152.577 442.554 152.633 442.73 152.66C442.906 152.687 443.087 152.686 443.262 152.655C443.437 152.625 443.604 152.567 443.751 152.484L463.759 141.199C463.904 141.117 464.029 141.011 464.125 140.889C464.22 140.767 464.286 140.631 464.317 140.489C464.348 140.346 464.345 140.2 464.307 140.058C464.269 139.917 464.197 139.783 464.095 139.664Z" fill="#939498"/>
<path d="M509.431 153.67L493.919 149.449L444.169 177.637L459.566 181.729C459.981 181.84 460.422 181.87 460.854 181.818C461.286 181.765 461.698 181.632 462.056 181.428L509.572 154.479C509.664 154.435 509.738 154.369 509.785 154.29C509.831 154.211 509.848 154.123 509.833 154.036C509.818 153.949 509.772 153.868 509.7 153.803C509.628 153.738 509.535 153.691 509.431 153.67Z" fill="#0C0E1C"/>
</svg>
