<svg width="605" height="452" viewBox="0 0 605 452" fill="none" xmlns="http://www.w3.org/2000/svg">
<path d="M557.003 109.87C488.381 13.7674 343.421 -25.2158 200.858 16.77C125.489 38.9667 52.8192 83.441 16.8059 169.558C-47.5717 323.5 87.5972 372.666 175.983 388.335C218.722 395.912 258.974 408.64 295.757 425.969C361.933 457.145 479.07 484.77 567.398 354.908C631.419 260.783 602.711 173.883 557.003 109.87Z" fill="#ECE4F1"/>
<path d="M159.158 128.883C158.966 127.356 158.577 125.86 158.003 124.433C157.929 124.163 157.801 123.912 157.626 123.695C157.451 123.478 157.232 123.299 156.985 123.172C156.655 123.085 156.308 123.081 155.976 123.161L150.792 123.959C150.358 123.979 149.943 124.141 149.61 124.421C148.934 125.136 149.599 126.286 149.579 127.272C149.555 128.381 148.577 129.28 147.515 129.578C146.432 129.798 145.315 129.784 144.237 129.537L136.989 128.404C139.124 127.718 141.024 126.442 142.472 124.721C143.426 123.584 143.934 121.461 142.555 120.922C142.146 120.809 141.718 120.775 141.296 120.821C138.012 120.846 135.428 118.087 132.354 116.925C130.387 116.229 128.251 116.177 126.252 116.777C124.254 117.377 122.495 118.597 121.227 120.263L125.088 120.451C125.451 120.43 125.811 120.527 126.116 120.727C126.962 121.426 125.91 122.77 126.03 123.866C126.185 125.289 128.062 125.593 129.478 125.737C130.894 125.881 132.69 127.039 132.009 128.296C124.894 130.763 117.653 123.475 110.181 124.372C108.289 124.599 106.504 125.346 104.657 125.817C93.3776 128.689 81.7166 121.026 70.1939 122.649C67.6323 123.088 65.1146 123.756 62.6708 124.645C61.1026 125.164 59.4668 125.724 58.3273 126.925C57.1878 128.127 56.7542 130.183 57.8336 131.439C54.8583 131.686 51.8631 131.399 48.9872 130.593C49.7649 131.028 50.4119 131.666 50.8602 132.439C51.3086 133.213 51.5417 134.094 51.5353 134.989C46.8896 135.751 42.367 137.139 38.0891 139.115C38.8875 140.452 39.8201 141.702 40.8721 142.846L34.9908 146.649C36.9778 147.153 38.0051 149.88 36.8496 151.583C38.9099 150.66 40.1867 148.274 42.3899 147.79C43.8332 147.473 45.3018 148.067 46.671 148.626C48.0402 149.184 49.5451 149.725 50.9626 149.306C52.38 148.887 53.4255 147.038 52.5248 145.859C58.5833 144.08 64.8446 143.096 71.1535 142.93C71.6402 142.868 72.1338 142.963 72.5643 143.199C73.3856 143.773 73.1695 145.011 73.1253 146.016C73.081 147.021 73.8593 148.342 74.7518 147.889C73.7018 148.806 74.5994 150.531 75.6068 151.494C76.6142 152.458 77.8283 153.787 77.2116 155.041C77.0506 155.368 76.7776 155.63 76.6228 155.96C76.1656 156.934 76.8914 158.07 77.7476 158.717C78.6037 159.364 79.6524 159.817 80.2471 160.713C80.8418 161.609 80.5718 163.177 79.5083 163.302L76.4856 159.44C75.4529 160.518 74.7449 161.868 74.4438 163.334C77.6491 165.971 78.1312 171.339 75.4477 174.512C74.0764 176.133 72.1263 177.118 70.4243 178.383C68.7222 179.648 67.1473 181.448 67.1516 183.578C67.159 187.256 66.8604 190.674 68.23 194.084C70.7557 200.373 73.6716 206.495 76.9607 212.416C77.8244 213.97 78.9406 215.674 80.6903 215.942C78.479 210.524 76.4885 205.022 74.7186 199.436C75.8713 199.441 77.2035 199.533 77.8793 200.473C78.4389 201.251 78.3187 202.309 78.4925 203.254C78.7137 204.169 79.0825 205.041 79.5842 205.837L90.1437 224.767C91.0191 226.336 92.0232 228.021 93.6961 228.656C94.7658 229.062 96.0033 228.986 96.9878 229.571C97.7595 230.029 98.2792 230.843 99.0659 231.275C101.29 232.496 104.384 230.154 106.462 231.612C107.057 232.029 107.435 232.692 107.983 233.169C109.902 234.842 113.052 233.723 115.268 234.971C116.697 235.776 117.437 237.384 118.199 238.842C120.107 242.495 123.195 246.073 127.285 246.363C128.57 246.455 129.882 246.21 131.138 246.497C132.394 246.785 133.63 247.888 133.428 249.168C133.083 251.363 134.16 253.766 133.871 255.969C133.344 259.982 127.688 261.745 127.202 265.763C127.096 266.643 127.262 267.551 127.054 268.412C126.799 269.468 126.012 270.327 125.732 271.376C125.201 273.364 126.617 275.343 128.171 276.68C129.726 278.018 131.581 279.171 132.431 281.043C133.329 283.022 132.888 285.33 133.18 287.485C133.818 292.192 137.857 295.681 142.014 297.93C143.28 298.616 144.64 299.279 145.46 300.468C146.529 302.02 146.423 304.066 146.78 305.92C147.655 310.462 151.454 314.204 151.562 318.828C151.638 322.115 149.823 325.097 148.738 328.199C147.721 331.171 147.354 334.328 147.66 337.456C147.966 340.583 148.938 343.608 150.511 346.323C151.323 347.702 152.293 349.001 152.867 350.496C153.891 353.163 153.559 356.195 154.503 358.892C155.752 362.458 159.182 365.403 158.854 369.169C160.411 372.424 163.85 374.023 167.309 374.992L173.506 376.728C174.693 377.061 175.933 377.396 177.142 377.155C178.35 376.914 179.503 375.905 179.472 374.665C176.433 373.975 173.296 373.242 170.791 371.378C168.285 369.514 166.569 366.195 167.519 363.208C167.96 361.824 168.898 360.225 168.006 359.081C167.496 358.425 166.562 358.254 165.987 357.657C165.089 356.724 165.397 355.158 166.043 354.034C166.688 352.91 167.622 351.905 167.882 350.634C168.014 349.922 167.926 349.187 167.63 348.527C167.335 347.868 166.846 347.314 166.23 346.942C167.379 346.506 168.424 345.831 169.297 344.961C170.104 344.034 170.477 342.605 169.842 341.55C171.727 341.791 173.952 341.909 175.189 340.458C176.177 339.299 176.109 337.567 175.718 336.092C175.328 334.617 174.668 333.184 174.648 331.657C178.995 331.865 183.352 331.716 187.676 331.213C187.05 329.094 185.63 327.303 183.715 326.22C185.673 325.887 187.457 323.528 188.075 321.628C188.694 319.729 188.536 317.66 188.154 315.699C188.007 315.194 187.987 314.66 188.095 314.146C188.316 313.439 189.006 313.007 189.645 312.638L199.364 307.02C199.944 306.728 200.47 306.337 200.918 305.866C201.936 304.662 201.786 302.845 201.264 301.353C200.743 299.862 199.908 298.46 199.707 296.892C199.106 292.202 204.094 288.838 205.777 284.424C206.438 282.691 206.572 280.808 206.7 278.957C206.838 276.969 206.848 274.66 205.331 273.379C203.877 272.151 201.605 272.425 200.084 271.282C198.689 270.235 198.208 268.201 196.684 267.355C195.3 266.587 193.565 267.076 192.026 266.714C189.316 266.078 187.611 262.935 184.843 262.644C183.282 262.48 181.514 263.248 180.235 262.333C179.107 261.526 179.062 259.905 178.847 258.53C178.471 256.392 177.453 254.422 175.93 252.884C174.407 251.347 172.453 250.316 170.33 249.931C168.72 249.671 166.967 249.769 165.598 248.879C164.211 247.977 163.575 246.289 162.486 245.041C160.73 243.028 157.964 242.313 155.374 241.7L144.837 239.207C142.967 238.765 140.556 238.53 139.552 240.179C139.255 240.807 139.044 241.473 138.927 242.158C138.551 243.398 137.794 244.485 136.765 245.265C135.736 246.044 134.488 246.475 133.2 246.496C132.317 244.98 130.886 243.866 129.207 243.386C128.138 243.086 126.994 243.053 125.975 242.612C125.42 242.34 124.927 241.956 124.524 241.485C124.122 241.013 123.819 240.464 123.635 239.871C123.45 239.278 123.388 238.653 123.452 238.035C123.516 237.417 123.704 236.818 124.006 236.276C124.614 235.187 124.848 233.928 124.674 232.692C124.499 231.456 123.925 230.312 123.041 229.436C121.249 227.817 118.657 227.426 116.254 227.588C115.625 226.206 116.677 224.647 117.811 223.643C118.945 222.639 120.321 221.651 120.568 220.152C120.957 217.793 117.966 216.001 115.695 216.704C113.424 217.408 111.975 219.628 111.017 221.816C110.467 223.071 110 224.393 109.133 225.452C108.266 226.51 106.869 227.268 105.549 226.929C103.679 226.448 102.957 224.212 102.543 222.315C101.988 219.77 101.429 217.189 101.546 214.586C101.662 211.982 102.534 209.309 104.441 207.547C107.55 204.675 112.318 204.957 116.513 205.415C115.521 204.291 115.766 202.397 116.827 201.34C117.387 200.839 118.059 200.483 118.786 200.304C119.513 200.124 120.273 200.125 121 200.308C122.264 200.573 123.402 201.258 124.233 202.253C125.425 203.716 125.764 205.691 126.665 207.351C127.566 209.011 129.592 210.427 131.25 209.536C132.682 208.767 132.909 206.768 132.553 205.174C132.197 203.58 131.439 202.03 131.569 200.401C131.815 197.293 135.016 195.423 137.841 194.143C140.666 192.863 143.9 191.141 144.348 188.056C144.363 187.452 144.476 186.855 144.683 186.287C144.996 185.786 145.432 185.374 145.948 185.09C154.192 179.607 162.573 174.057 171.996 171.061C172.486 170.905 172.544 171.078 173.044 170.956C173.743 170.549 173.28 169.424 172.609 168.971C171.939 168.518 171.043 168.17 170.873 167.376C170.748 166.791 171.09 166.218 171.178 165.627C171.397 164.176 169.671 162.835 168.331 163.416C167.574 162.407 169.072 161.235 170.283 160.899C173.919 159.892 177.652 159.278 181.418 159.068C181.853 158.999 182.298 159.075 182.685 159.285C183.318 159.726 183.237 160.738 182.789 161.367C182.341 161.996 181.643 162.392 181.085 162.924C180.474 163.522 180.039 164.278 179.826 165.108C179.614 165.939 179.631 166.812 179.878 167.633C181.844 168.639 183.982 169.675 186.159 169.321C188.336 168.966 190.269 166.504 189.246 164.537C188.292 162.706 185.43 162.293 184.937 160.286C184.361 157.936 187.666 155.846 186.922 153.545C186.595 152.537 185.597 151.944 184.831 151.216C183.926 150.323 183.311 149.177 183.066 147.926C182.821 146.675 182.957 145.379 183.457 144.208C182.209 144.428 180.927 144.345 179.718 143.964C178.509 143.583 177.408 142.916 176.508 142.019C174.846 140.331 173.52 137.668 171.16 137.744C168.994 137.813 167.129 140.356 165.103 139.58C164.605 139.389 164.08 139.001 163.597 139.228C163.439 139.332 163.306 139.47 163.209 139.633C163.112 139.795 163.052 139.978 163.035 140.167C162.521 142.643 163.406 145.465 162.065 147.605C160.606 149.933 157.23 150.256 155.461 152.356C154.501 153.496 154.129 155.032 153.246 156.233C152.363 157.435 150.49 158.199 149.43 157.152C149.951 156.075 150.093 154.851 149.834 153.682C149.574 152.513 148.928 151.468 148.002 150.716C147.018 150.07 145.958 149.551 144.846 149.171C143.603 148.642 142.421 147.979 141.32 147.194C140.769 146.859 140.321 146.376 140.026 145.8C139.793 145.078 139.825 144.296 140.115 143.596C140.652 142.046 141.6 140.673 142.855 139.626C144.111 138.578 145.627 137.896 147.24 137.652C148.651 137.459 150.292 137.527 151.226 136.445C151.72 135.873 151.979 135.008 152.696 134.775C153.154 134.683 153.63 134.742 154.053 134.944L159.318 136.808C159.905 137.075 160.552 137.183 161.193 137.121C161.511 137.078 161.801 136.915 162.005 136.666C162.209 136.416 162.312 136.098 162.293 135.776C162.124 134.896 160.779 134.474 160.901 133.586C160.97 133.299 161.124 133.039 161.342 132.841C163.242 130.806 165.566 129.218 168.146 128.193C170.727 127.167 173.501 126.728 176.27 126.908C176.935 128.006 175.884 129.307 175.009 130.244C174.135 131.182 173.432 132.857 174.49 133.579C174.923 133.802 175.405 133.911 175.892 133.897C177.188 134.073 178.447 134.458 179.623 135.036C181.442 135.833 183.226 136.704 184.975 137.651C184.821 136.49 184.673 135.267 185.111 134.182C185.548 133.096 186.79 132.245 187.876 132.668C188.922 133.075 189.458 134.469 190.572 134.597C192.059 134.767 192.645 132.557 192.025 131.187C191.404 129.817 190.174 128.67 190.072 127.168C190.003 126.155 190.386 124.898 189.581 124.284C189.295 124.1 188.97 123.985 188.632 123.949L168.549 120.23C167.356 120.009 165.633 120.178 165.58 121.397C165.551 122.078 166.155 122.751 165.887 123.377C165.602 124.045 164.664 123.984 163.981 124.22C162.92 124.587 162.388 125.853 162.49 126.977C162.677 128.093 163.106 129.154 163.748 130.084C162.442 129.534 160.464 129.433 159.158 128.883Z" fill="#706BA8"/>
<path d="M143.133 111.725C141.867 111.303 140.502 111.284 139.224 111.669C137.946 112.054 136.817 112.825 135.989 113.878C135.658 114.317 135.381 114.921 135.658 115.395C136.055 116.075 137.066 115.807 137.811 115.563C138.907 115.169 140.1 115.141 141.214 115.482C141.914 115.724 142.54 116.151 143.243 116.384C143.586 116.528 143.96 116.576 144.328 116.522C144.695 116.468 145.04 116.314 145.327 116.077C145.81 115.582 145.84 114.812 145.841 114.118C145.875 113.886 145.856 113.649 145.787 113.425C145.718 113.201 145.6 112.996 145.442 112.823C145.161 112.659 144.844 112.565 144.519 112.549C143.792 112.413 143.134 112.026 142.66 111.455" fill="#706BA8"/>
<path d="M150.375 109.696C150.091 109.681 149.809 109.739 149.554 109.865C149.299 109.991 149.081 110.181 148.921 110.416C148.76 110.652 148.662 110.925 148.637 111.21C148.612 111.494 148.659 111.78 148.776 112.041C149.646 112.28 150.555 112.34 151.449 112.216C151.895 112.147 152.31 111.946 152.643 111.639C152.976 111.332 153.21 110.933 153.318 110.492C152.266 110.685 151.18 110.476 150.272 109.907" fill="#706BA8"/>
<path d="M174.671 106.307C172.302 106.814 170.001 107.601 167.816 108.651C168.846 109.05 169.722 109.771 170.314 110.708C170.906 111.646 171.184 112.75 171.105 113.858C171.013 114.283 171.024 114.725 171.137 115.145C171.388 115.76 172.118 115.99 172.76 116.148C173.912 116.501 175.115 116.655 176.319 116.605C176.921 116.573 177.506 116.391 178.02 116.075C178.535 115.758 178.963 115.318 179.265 114.793C179.44 114.295 179.644 113.808 179.878 113.335C181.416 110.979 185.983 113.828 187.634 111.55C188.216 110.748 188.162 109.54 188.921 108.904C189.313 108.627 189.767 108.453 190.243 108.397C193.563 107.733 196.916 107.252 200.288 106.957C201.886 106.817 203.968 106.239 203.982 104.626C197.964 103.436 191.724 104.281 186.232 107.029C184.254 108.026 181.637 110.124 179.731 108.802C179.017 108.307 179.053 106.973 178.071 106.417C177.066 105.848 175.737 106.079 174.671 106.307Z" fill="#706BA8"/>
<path d="M194.352 110.011L197.176 110.557C196.656 110.534 196.138 110.623 195.654 110.817C195.171 111.012 194.735 111.308 194.374 111.686C194.014 112.064 193.737 112.515 193.564 113.009C193.39 113.502 193.323 114.028 193.367 114.55C196.012 115.439 198.896 114.574 201.683 114.692C204.47 114.81 207.712 116.813 207.236 119.579C207.092 120.416 206.612 121.251 206.862 122.062C207.037 122.63 207.535 123.033 207.816 123.557C208.402 124.647 207.934 126.027 207.194 127.018C206.455 128.009 205.461 128.8 204.811 129.854C203.197 132.474 204.114 135.861 205.076 138.788C205.354 139.894 205.867 140.926 206.581 141.813C208.006 143.338 210.328 143.47 212.407 143.501C213.921 143.523 215.655 143.448 216.612 142.268C217.861 140.727 216.988 138.323 217.81 136.515C218.557 134.872 220.461 134.168 222.186 133.668C225.346 132.753 228.566 131.974 231.553 130.591C235.262 128.874 238.729 126.198 242.806 125.977C243.95 125.915 245.122 126.051 246.224 125.736C247.325 125.42 248.372 124.462 248.289 123.312C248.217 122.33 247.392 121.608 246.746 120.868C246.101 120.127 245.594 118.988 246.187 118.205L256.874 116.196C256.116 114.118 255.526 111.382 257.267 110.03C257.895 109.542 258.736 109.347 259.27 108.757C260.182 107.751 259.723 106.02 258.671 105.165C257.619 104.31 256.197 104.111 254.849 103.998C250.163 103.607 245.451 103.866 240.756 104.125C231.579 104.631 222.401 105.137 213.224 105.643C211.376 105.745 209.243 105.59 207.549 106.224C206.114 106.761 205.094 107.747 203.454 108.093C200.425 108.732 197.092 108.3 194.352 110.011Z" fill="#706BA8"/>
<path d="M244.959 132.483C244.671 132.437 244.376 132.504 244.136 132.67C243.978 132.846 243.883 133.071 243.869 133.309C243.686 134.355 243.903 135.432 244.477 136.325C244.769 136.762 245.172 137.113 245.644 137.341C246.117 137.569 246.641 137.666 247.163 137.621C248.435 137.458 249.373 136.366 250.542 135.833C252.344 135.012 259.998 133.733 254.704 130.854C252.879 129.862 251.7 130.738 250.262 131.391C248.626 132.233 246.792 132.611 244.959 132.483Z" fill="#706BA8"/>
<path d="M291.334 108.386C290.716 108.64 290.198 109.093 289.863 109.674C289.709 109.969 289.673 110.313 289.763 110.634C289.853 110.955 290.062 111.229 290.348 111.399C290.579 111.483 290.823 111.522 291.069 111.514L293.583 111.59C294.651 111.622 295.985 111.851 296.272 112.886C296.485 113.656 296.008 114.644 296.583 115.193C296.83 115.386 297.127 115.502 297.438 115.529C298.266 115.743 299.131 115.771 299.971 115.611C301.8 115.118 300.839 113.994 301.415 112.994C302.297 111.463 302.144 112.39 303.697 111.512C304.844 110.864 306.326 109.689 305.369 108.038C303.704 105.166 293.791 107.152 291.334 108.386Z" fill="#706BA8"/>
<path d="M340.951 106.942L339.491 107.138C336.2 107.58 332.889 108.026 329.719 109.021C331.091 109.567 332.531 109.923 333.999 110.078C334.807 110.118 335.609 110.233 336.396 110.421C337.796 110.841 339.208 111.924 340.56 111.369C341.399 111.025 341.673 110.146 342.368 109.68C342.848 109.358 344.667 108.838 344.871 108.513C346.515 105.888 342.215 106.772 340.951 106.942Z" fill="#706BA8"/>
<path d="M347.361 113.619C345.411 114.716 343.602 116.05 341.974 117.589C341.288 118.238 340.588 119.045 340.65 119.991C340.733 121.247 342.063 121.976 343.215 122.467L347.881 124.455C348.447 123.652 347.929 122.543 347.344 121.754C346.759 120.965 346.064 120.052 346.322 119.103C346.617 118.019 347.93 117.65 349.031 117.463C350.825 117.159 355.663 117.183 355.082 114.274C354.397 110.846 349.162 112.606 347.361 113.619Z" fill="#706BA8"/>
<path d="M346.423 307.616C345.978 308.911 345.936 310.435 346.705 311.566C347.567 312.834 349.293 313.306 350.786 312.985C352.273 312.587 353.598 311.729 354.575 310.533C355.468 309.531 356.203 308.397 356.754 307.17C357.523 305.258 358.065 303.261 358.369 301.221L359.818 293.565C360.142 291.854 360.13 286.608 357.005 288.318C356.151 288.784 354.175 292.471 353.28 293.516C351.668 295.4 351.454 297.229 350.605 299.511C349.542 302.37 347.406 304.753 346.423 307.616Z" fill="#706BA8"/>
<path d="M511.464 346.794C510.442 346.393 509.449 345.917 508.495 345.372C507.538 348.02 507.029 350.81 506.99 353.628L513.986 349.643C515.039 349.044 516.232 348.211 516.209 346.994C516.218 346.844 516.187 346.694 516.119 346.56C516.051 346.426 515.949 346.312 515.822 346.232C515.667 346.169 515.497 346.149 515.332 346.174C514.294 346.261 513.348 346.775 512.369 347.132C511.391 347.49 510.246 347.678 509.348 347.148" fill="#706BA8"/>
<path d="M548.372 349.16C547.605 349.37 546.854 349.641 546.129 349.97C544.523 350.792 543.431 352.354 541.986 353.437C540.603 354.473 538.939 355.042 537.305 355.595C536.824 356.023 537.045 356.884 537.567 357.26C538.128 357.581 538.771 357.726 539.415 357.678C541.112 357.715 542.901 357.732 544.388 356.907C545.225 356.36 546.009 355.733 546.729 355.036C548.467 353.577 550.555 352.614 552.621 351.683C553.374 351.397 554.069 350.978 554.675 350.447C555.974 349.159 556.065 347.173 554.193 346.735C552.68 346.381 549.813 348.691 548.372 349.16Z" fill="#706BA8"/>
<path d="M564.68 338.439C564.764 337.553 564.647 336.66 564.338 335.826C564.029 334.992 563.535 334.24 562.895 333.626C562.875 335.399 562.822 337.287 561.831 338.753C561.126 339.797 560.019 340.503 559.246 341.498C558.472 342.493 558.129 344.07 559.036 344.942C559.616 345.386 560.322 345.631 561.051 345.641C562.856 345.855 564.946 345.974 566.212 344.661C566.904 343.945 567.24 342.883 568.083 342.356C568.397 342.224 568.677 342.022 568.903 341.765C569.252 341.209 568.698 340.475 568.076 340.274C567.453 340.073 566.767 340.168 566.142 339.977C565.516 339.786 564.942 339.078 565.263 338.505" fill="#706BA8"/>
<path d="M535.696 273.448C534.749 273.68 533.768 273.738 532.8 273.62C531.193 273.323 529.942 272.104 528.644 271.104C525.559 268.74 521.809 267.421 517.932 267.337C514.406 267.27 510.847 268.232 507.383 267.561C507.61 268.827 508.687 269.777 509.836 270.342C510.985 270.907 512.253 271.191 513.408 271.744C515.257 272.639 516.723 274.174 517.539 276.069C517.911 276.943 518.145 277.894 518.708 278.656C519.859 280.215 522.042 280.558 523.968 280.43C526.479 280.264 529.101 279.537 531.437 280.479C533.224 281.199 534.504 282.773 535.996 283.997C537.488 285.221 539.59 286.13 541.303 285.247C539.523 284.667 537.974 283.53 536.882 282.001C535.79 280.472 535.212 278.633 535.232 276.75C536.913 276.906 541.753 276.845 541.492 273.972C541.272 271.536 537.139 273.185 535.696 273.448Z" fill="#706BA8"/>
<path d="M513.712 293.264C514.01 291.617 515.642 290.162 515.134 288.568C514.782 287.466 513.512 286.922 512.362 286.894C511.212 286.867 510.082 287.212 508.932 287.244C508.184 287.204 507.433 287.215 506.686 287.277C504.404 287.654 502.996 290.062 500.845 290.918C499.537 291.439 498.067 291.34 496.707 291.699C493.619 292.516 491.665 295.453 489.506 297.821C486.018 301.63 481.474 304.297 476.462 305.477C474.706 305.886 472.819 306.148 471.423 307.296C469.575 308.815 469.12 311.421 468.709 313.787C467.573 320.322 465.836 326.736 463.522 332.948L470.855 333.89C472.249 334.069 473.694 334.245 475.037 333.829C476.014 333.459 476.938 332.963 477.788 332.354C481.054 330.314 484.709 328.986 488.517 328.457C490.438 328.191 492.451 328.143 494.253 328.861C496.055 329.58 497.601 331.209 497.752 333.153C498.531 332.909 499.362 332.883 500.155 333.077C500.948 333.271 501.674 333.679 502.254 334.255C503.403 335.433 504.155 336.944 504.404 338.574C504.597 339.584 504.791 340.794 505.721 341.217C506.481 341.563 507.352 341.191 508.183 341.124C511.002 340.897 513.342 344.205 516.113 343.635C519.085 343.024 519.814 338.545 522.714 337.648C524.379 337.132 526.714 337.759 527.512 336.2C528.215 334.826 526.812 333.241 526.957 331.702C527.135 329.808 529.355 329.004 531.067 328.195C536.968 325.409 539.769 317.415 536.909 311.52C535.215 308.027 531.881 305.277 531.265 301.44C530.792 298.488 531.948 295.045 530.078 292.721C529.126 291.539 527.515 290.887 526.949 289.476C526.593 288.588 526.736 287.581 526.544 286.643C526.352 285.705 525.539 284.724 524.619 284.967C521.948 285.673 521.095 293.978 519.665 295.996C517.491 299.064 513.027 297.043 513.712 293.264Z" fill="#706BA8"/>
<path d="M464.333 276.586C463.42 276.329 462.423 276.075 461.549 276.443C460.674 276.811 460.163 278.104 460.865 278.745C466.358 278.53 471.884 278.316 477.329 279.066C483.603 279.931 489.813 282.074 496.115 281.443C492.515 280.375 488.856 279.52 485.156 278.884L478.987 277.698C477.332 277.349 475.66 277.089 473.977 276.919C470.458 276.627 467.794 277.563 464.333 276.586Z" fill="#706BA8"/>
<path d="M469.832 257.335C469.376 257.297 468.811 257.264 468.575 257.658C468.35 258.035 468.608 258.533 468.487 258.956C468.321 259.533 467.57 259.681 466.978 259.602C466.385 259.524 465.745 259.335 465.221 259.623C464.954 259.805 464.755 260.07 464.651 260.377C464.547 260.684 464.545 261.017 464.645 261.325C464.859 261.937 465.206 262.494 465.66 262.954C466.436 263.938 467.32 264.83 468.295 265.614C470.183 267.016 472.74 267.692 473.929 269.728C474.097 270.122 474.355 270.472 474.682 270.747C475.252 271.111 475.997 270.834 476.611 270.552L478.765 269.561C479.153 269.42 479.5 269.183 479.772 268.872C480.264 268.2 479.962 267.244 479.549 266.52C479.136 265.796 478.607 265.047 478.696 264.217C478.854 262.737 480.745 262.171 481.522 260.905C482.306 259.628 481.796 257.984 481.886 256.486C481.992 254.735 483.085 252.457 481.326 251.148C479.831 250.036 478.401 251.063 477.328 252.291C475.064 254.88 473.993 257.685 469.832 257.335Z" fill="#706BA8"/>
<path d="M482.907 231.166C483.643 232.583 485.176 233.428 485.978 234.808C486.847 236.304 486.748 238.237 487.691 239.687C488.658 241.175 490.605 241.964 491.148 243.656C491.74 245.504 490.396 247.749 491.468 249.363C491.667 249.627 491.919 249.846 492.208 250.007C492.496 250.167 492.815 250.266 493.143 250.296C493.471 250.326 493.802 250.288 494.115 250.183C494.427 250.078 494.715 249.908 494.959 249.686C495.411 249.191 495.652 248.538 495.633 247.866C495.613 247.194 495.333 246.557 494.853 246.09C494.219 245.508 493.308 245.256 492.778 244.576C492.503 244.184 492.319 243.734 492.241 243.259C491.952 241.892 491.999 240.474 492.376 239.128C492.518 238.786 492.554 238.41 492.479 238.047C492.241 237.35 491.302 237.3 490.644 236.976C489.148 236.242 489.184 234.117 489.445 232.462C489.271 233.564 485.373 231.69 484.964 231.066C484.153 229.827 484.595 227.436 484.434 226.066C482.683 226.915 482.008 229.433 482.907 231.166Z" fill="#706BA8"/>
<path d="M443.63 252.97C442.91 252.159 441.826 251.311 440.861 251.8C440.125 252.173 439.923 253.198 440.211 253.975C440.563 254.729 441.104 255.378 441.781 255.858C443.792 257.527 445.957 259.033 447.711 260.973C450.849 264.444 452.512 269.128 455.926 272.326C456.612 273.068 457.52 273.563 458.512 273.735C459.507 273.828 460.624 273.188 460.738 272.189C460.832 271.367 460.262 270.63 459.706 270.021C458.38 268.569 456.928 267.233 455.676 265.716C455.098 265.134 454.734 264.37 454.646 263.551C454.64 262.735 455.38 261.88 456.166 262.082C455.21 261.836 454.501 260.233 453.097 259.931C451.924 259.68 451.641 260.41 450.245 259.808C447.583 258.659 445.494 255.07 443.63 252.97Z" fill="#706BA8"/>
<path d="M506.183 174.028C505.419 173.8 504.668 173.53 503.933 173.22C501.957 172.623 499.342 174.085 499.605 176.145C499.78 177.514 501.046 178.436 501.745 179.624C502.781 181.384 502.505 183.617 501.96 185.589C501.827 186.199 501.572 186.777 501.212 187.286C500.709 187.824 500.108 188.259 499.441 188.568C496.772 190.075 494.418 192.087 492.509 194.495C492.302 194.717 492.157 194.992 492.091 195.289C491.996 195.985 492.691 196.491 493.084 197.072C493.956 198.36 493.326 200.094 493.412 201.651C493.399 201.871 493.442 202.091 493.536 202.29C493.631 202.489 493.775 202.66 493.954 202.787C494.48 203.056 495.103 202.599 495.388 202.079C496.334 200.355 495.621 197.587 497.396 196.755C497.731 196.598 498.138 196.532 498.362 196.235C498.717 195.764 498.374 195.067 498.555 194.505C498.825 193.66 499.973 193.622 500.854 193.659C502.372 193.723 503.889 193.52 505.337 193.059C505.905 192.923 506.421 192.622 506.821 192.194C507.351 191.528 507.304 190.58 507.198 189.733C506.667 185.511 505.338 181.43 503.283 177.71C504.842 177.91 506.537 178.084 507.882 177.266C508.635 176.809 509.538 175.44 509.165 174.508C508.574 173.035 507.507 174.275 506.183 174.028Z" fill="#706BA8"/>
<path d="M306.37 197.252C306.556 198.259 306.74 199.319 306.412 200.288C306.084 201.258 305.053 202.068 304.079 201.771C303.323 201.54 302.887 200.775 302.35 200.192C299.365 196.95 292.632 198.827 290.788 194.815C290.036 193.178 290.547 191.216 290.034 189.488C289.71 188.489 289.066 187.627 288.202 187.036C287.338 186.446 286.304 186.161 285.262 186.226C284.312 186.364 283.387 186.642 282.517 187.051C276.687 189.4 270.568 190.941 264.326 191.63C263.139 191.703 261.966 191.917 260.83 192.27C258.267 193.205 256.516 195.596 255.27 198.037C254.023 200.477 253.103 203.119 251.433 205.287C249.677 207.565 247.216 209.161 244.92 210.887C244.036 211.46 243.3 212.237 242.772 213.153C242.275 214.181 242.303 215.377 242.341 216.52L242.81 230.402C242.871 232.188 242.946 234.037 243.741 235.635C244.732 237.63 246.691 238.937 248.05 240.7C249.437 242.511 250.159 244.749 250.095 247.035C250.066 247.954 249.975 249.041 250.686 249.618C251.119 249.901 251.625 250.047 252.141 250.039L270.8 251.576C274.082 251.847 277.72 252.291 279.862 254.808C280.874 255.996 281.686 257.704 283.235 257.831C283.9 257.886 284.546 257.611 285.211 257.558C286.888 257.425 288.361 258.705 289.29 260.116C290.697 262.266 291.336 264.834 291.101 267.398C290.949 269.007 290.453 270.572 290.346 272.185C289.94 278.322 295.109 283.654 295.21 289.805C295.268 293.422 293.562 296.802 291.898 300.01C294.583 304.103 292.385 309.555 293.454 314.34C294.468 318.881 298.23 322.435 299.167 326.992C299.596 329.079 299.621 331.646 301.449 332.72C302.251 333.114 303.14 333.293 304.031 333.241C309.404 333.305 314.715 332.088 319.531 329.689C321.791 328.56 324.134 326.875 324.529 324.367C324.847 322.344 323.828 320.082 324.865 318.32C326.087 316.244 329.219 316.408 331.018 314.812C333.936 312.222 331.66 307.282 332.843 303.552C333.905 300.198 337.564 298.417 339.377 295.407C340.091 294.113 340.603 292.716 340.896 291.266C341.726 287.799 342.243 284.263 342.44 280.702C342.489 278.538 342.647 276.379 342.915 274.232C344.87 262.007 356.878 253.822 360.777 242.078C361.149 240.957 361.324 239.463 360.333 238.828C359.745 238.546 359.078 238.476 358.445 238.63L349.844 239.721C348.775 239.856 347.643 239.983 346.662 239.537C345.68 239.09 344.977 237.841 345.498 236.892C346.959 234.229 343.954 230.864 342.618 228.134C339.023 220.785 334.741 213.797 329.831 207.264C329.517 206.928 329.32 206.498 329.271 206.039L331.712 206.121C330.888 203.145 329.528 199.888 326.655 198.8C325.036 198.186 323.244 198.398 321.517 198.493C316.57 198.765 311.266 198.014 306.37 197.252Z" fill="#706BA8"/>
<path d="M321.521 130.19C322.815 131.574 324.266 133.04 326.139 133.282C329.447 133.707 331.826 130.265 333.34 127.274C333.396 128.036 333.745 128.747 334.314 129.254C334.882 129.761 335.625 130.025 336.384 129.99C337.2 129.851 337.98 129.545 338.673 129.089C345.227 125.484 352.569 123.574 360.038 123.53C359.967 122.961 360.107 122.385 360.432 121.913C360.758 121.442 361.245 121.109 361.8 120.977C363.319 120.674 364.687 121.996 365.42 123.369C366.152 124.741 366.609 126.332 367.773 127.36C368.937 128.387 371.19 128.342 371.65 126.855C372.092 125.426 370.613 124.208 369.384 123.366C368.156 122.524 366.861 120.965 367.688 119.722C373.964 118.324 380.279 116.921 386.701 116.643C387.794 116.681 388.884 116.492 389.901 116.088C390.881 115.604 391.659 114.506 391.396 113.441C389.994 113.772 388.527 113.676 387.18 113.165C385.833 112.654 384.668 111.75 383.833 110.57C392.744 109.83 402.221 109.199 410.118 113.419C411.066 115.466 406.236 117.17 407.528 119.016C407.94 119.605 408.766 119.674 409.482 119.688C414.97 119.79 420.489 119.891 425.915 119.057C427.898 118.752 429.9 118.322 431.891 118.569C435.207 118.981 438.043 121.207 441.305 121.933C442.633 122.229 444.121 122.239 445.24 121.462C446.36 120.684 446.841 118.915 445.924 117.904C448.995 114.875 454.093 115.626 458.144 117.076C462.196 118.526 466.035 120.865 470.324 121.189C473.399 121.421 476.517 120.588 479.556 121.117C481.465 121.45 483.242 122.305 485.109 122.83C488.638 123.823 492.372 123.614 496.037 123.662C505.389 123.788 514.637 125.638 523.326 129.119C524.457 129.489 525.492 130.105 526.36 130.923C527.168 131.794 527.581 133.148 527.037 134.207L518.059 132.887C518.905 134.563 521.093 134.849 522.871 135.427C524.648 136.005 526.491 137.98 525.423 139.522C523.497 138.905 521.752 140.843 520.779 142.626C519.806 144.409 518.621 146.544 516.603 146.652C514.796 146.75 512.61 145.201 511.432 146.584C513.059 148.65 514.453 150.892 515.587 153.269C516.751 155.709 517.58 158.783 516.007 160.978C515.759 161.37 515.384 161.663 514.945 161.807C513.66 162.134 512.826 160.553 511.905 159.594C510.744 158.386 508.988 158.044 507.416 157.477C505.844 156.911 504.188 155.796 504.065 154.12C503.988 153.078 504.535 152.108 504.938 151.145C505.616 149.52 505.912 147.761 505.804 146.002C505.716 144.588 505.322 143.116 504.312 142.128C503.303 141.14 501.56 140.826 500.476 141.731C499.971 142.154 499.566 142.829 498.909 142.855C497.749 142.899 496.858 140.864 495.925 141.558C496.034 142.299 495.882 143.054 495.494 143.693C492.708 146.131 488.429 145.1 484.838 145.961C483.131 146.453 481.496 147.171 479.977 148.098C479.408 148.342 478.925 148.751 478.587 149.272C478.139 150.148 478.633 151.271 479.423 151.854C480.261 152.371 481.203 152.694 482.18 152.801C486.558 153.635 490.999 154.927 494.456 157.757C497.912 160.587 500.178 165.265 499.085 169.612L490.451 161.31C490.779 164.796 490.965 168.291 491.01 171.796C491.066 172.481 490.972 173.169 490.736 173.813C490.121 175.181 488.452 175.642 486.991 175.944C486.584 176.021 486.199 176.185 485.859 176.423C485.52 176.662 485.234 176.97 485.022 177.327C484.809 177.684 484.674 178.083 484.625 178.496C484.576 178.91 484.615 179.329 484.739 179.726C485.258 181.43 486.553 182.758 487.739 184.082C488.924 185.405 490.091 186.91 490.246 188.685C490.402 190.46 489.071 192.461 487.304 192.337C485.965 192.244 484.972 191.037 484.401 189.815C483.83 188.592 483.49 187.231 482.631 186.192C480.034 183.048 474.2 184.395 471.873 181.043C471.279 181.72 470.868 182.539 470.678 183.421C470.487 184.303 470.524 185.219 470.784 186.083C471.867 185.401 473.349 186.035 474.162 187.026C474.976 188.017 475.359 189.287 475.998 190.4C476.86 191.902 478.232 193.234 478.352 194.964C478.32 195.618 478.331 196.274 478.385 196.927C478.598 197.975 479.479 198.728 480.089 199.604C481.51 201.643 481.44 204.444 480.524 206.758C479.609 209.071 477.964 211.004 476.335 212.879C473.489 216.152 470.585 219.407 467.212 222.125C466.249 222.901 465.222 223.664 464.622 224.748C464.023 225.833 463.992 227.355 464.913 228.18C464.254 228.213 463.072 228.539 462.413 228.573C462.181 225.911 462.13 223.237 462.262 220.569C459.66 219.311 456.859 222.678 457.195 225.563C457.531 228.447 459.604 230.762 461.08 233.258C462.159 235.083 462.961 237.211 462.601 239.304C462.241 241.396 460.385 243.327 458.282 243.142C454.938 242.849 453.539 238.017 450.228 237.464C449.936 237.395 449.629 237.426 449.357 237.551C448.865 237.823 448.78 238.485 448.752 239.048C448.616 241.815 448.499 244.691 449.572 247.241C451.142 250.973 455.197 254.106 454.346 258.067C449.764 255.923 447.381 250.751 446.3 245.783C445.218 240.815 445.037 235.6 443.098 230.904C441.626 232.803 438.531 231.233 437.186 229.24C435.91 227.351 435.125 225.166 433.887 223.251C432.65 221.337 430.754 219.622 428.487 219.517C426.111 219.407 424.049 221.048 422.236 222.599C420.746 223.875 419.215 225.2 418.344 226.963C417.076 229.529 417.408 232.553 417.346 235.418C417.28 238.515 416.628 241.783 414.531 244.05C412.434 246.317 408.562 247.107 406.249 245.064C405.041 243.997 404.456 242.403 403.936 240.873C401.425 233.498 399.334 225.986 397.673 218.371C397.284 220.109 395.768 222.349 394.319 221.325C393.994 221.05 393.731 220.709 393.546 220.324C390.844 215.715 385.841 212.95 380.785 211.293C375.729 209.635 370.41 208.862 365.41 207.04C362.608 206.019 359.932 204.677 357.434 203.042C356.798 203.983 356.426 205.081 356.358 206.217C356.291 207.354 356.53 208.488 357.051 209.499C358.16 211.476 360.67 212.619 362.818 211.928C363.928 211.571 364.866 210.796 365.967 210.413C367.069 210.03 368.547 210.218 369.029 211.286C369.49 212.308 368.793 213.545 369.139 214.612C369.665 216.238 372.102 216.363 372.954 217.843C373.588 218.943 373.066 220.405 372.161 221.293C371.256 222.182 370.048 222.669 368.944 223.287C365.359 225.293 362.81 228.718 359.677 231.382C356.544 234.047 352.124 235.992 348.39 234.283C349.28 229.748 343.912 226.418 342.924 221.903C342.599 220.417 342.768 218.838 342.304 217.39C341.632 215.293 339.783 213.851 338.267 212.263C336.428 210.314 334.995 208.015 334.053 205.501C333.111 202.986 332.679 200.307 332.783 197.622C332.865 195.756 333.205 193.86 332.783 192.041C332.36 190.222 330.864 188.462 329.01 188.544C324.775 188.732 319.441 189.049 317.219 185.416C316.426 184.12 316.081 182.22 317.227 181.227C318.036 180.526 319.23 180.592 320.292 180.697L329.833 181.642C332.065 181.863 334.477 182.045 336.392 180.871C338.307 179.697 339.137 176.58 337.364 175.199C336.068 174.19 333.747 174.244 333.37 172.64C333.057 171.303 334.527 169.787 333.733 168.67C333.163 167.869 331.884 168.091 331.108 168.691C330.333 169.292 329.77 170.17 328.902 170.624C327.38 171.422 325.56 170.663 323.922 170.147C322.284 169.631 320.088 169.587 319.294 171.119C318.405 172.831 320.082 175.075 319.2 176.791C318.034 179.059 314.086 177.768 312.449 179.719C310.57 181.958 313.727 185.297 313.093 188.158C312.284 188.561 311.385 188.746 310.484 188.695C309.583 188.644 308.71 188.359 307.951 187.867C307.205 187.356 306.61 186.651 306.23 185.827C305.849 185.003 305.698 184.09 305.793 183.187C305.949 181.9 306.616 180.586 306.169 179.37C305.808 178.387 304.827 177.802 303.916 177.295L294.644 172.138C293.783 173.745 294.871 175.738 296.232 176.945C297.593 178.152 299.298 179.061 300.192 180.65C300.758 181.75 300.885 183.027 300.547 184.219C300.209 185.41 299.432 186.427 298.374 187.061C298.241 187.153 298.091 187.215 297.932 187.243C297.773 187.271 297.611 187.264 297.455 187.223C297.307 187.135 297.178 187.019 297.076 186.88C296.973 186.742 296.899 186.584 296.859 186.416C295.223 182.203 292.767 178.048 288.84 175.847C284.913 173.646 279.27 174.099 276.695 177.807C276.083 178.687 275.673 179.691 275.14 180.622C272.309 185.569 266.24 187.911 260.57 187.758C260.015 187.789 259.464 187.659 258.981 187.382C258.064 186.745 258.106 185.394 258.246 184.282L258.841 179.563C258.961 178.616 259.134 177.568 259.879 176.977C260.929 176.143 262.445 176.669 263.782 176.65C264.796 176.602 265.77 176.242 266.573 175.618C267.377 174.994 267.97 174.137 268.272 173.162C268.543 172.178 268.541 171.139 268.267 170.155C267.994 169.172 267.459 168.283 266.72 167.583C266.107 167.003 265.284 166.275 265.608 165.494C265.737 165.278 265.912 165.093 266.12 164.952C266.328 164.811 266.564 164.718 266.811 164.679C269.214 163.976 271.753 163.792 274.116 162.964C276.479 162.135 278.77 160.44 279.33 157.985C279.501 157.233 279.579 156.322 280.25 155.949C280.587 155.806 280.949 155.732 281.315 155.73C282.596 155.547 283.762 154.888 284.584 153.882C285.406 152.877 285.824 151.598 285.757 150.297C286.889 149.501 288.475 150.087 289.571 150.934C290.666 151.781 291.633 152.9 292.966 153.265C295.45 153.945 297.851 151.732 300.425 151.721C301.508 151.717 302.629 152.102 303.647 151.733C304.68 151.359 305.296 150.324 306.089 149.56C306.881 148.796 308.272 148.33 309.003 149.153L308.38 144.508C309.635 144.827 310.943 144.872 312.217 144.64C313.491 144.409 314.7 143.905 315.765 143.164L307.712 140.426C307.431 140.355 307.172 140.216 306.958 140.02C306.373 139.386 306.955 138.397 307.431 137.676C308.57 135.951 308.761 133.108 306.888 132.249C305.609 131.663 304.142 132.367 302.915 133.055L297.037 136.354C296.85 137.478 298.217 138.115 299.063 138.873C299.575 139.331 299.938 139.935 300.103 140.604C300.268 141.273 300.229 141.977 299.989 142.624C299.749 143.27 299.321 143.828 298.761 144.225C298.2 144.622 297.533 144.838 296.848 144.847C297.235 145.353 297.504 145.941 297.635 146.566C297.766 147.191 297.755 147.838 297.604 148.459L293.649 148.745C293.205 148.835 292.744 148.744 292.366 148.493C291.944 148.115 292.001 147.452 291.903 146.892C291.666 145.538 290.349 144.59 289.006 144.347C287.662 144.103 286.287 144.415 284.956 144.723C284.391 144.928 283.771 144.913 283.216 144.682C282.898 144.474 282.656 144.167 282.527 143.808C281.944 142.384 282.489 140.711 283.426 139.493C284.363 138.276 285.646 137.386 286.798 136.373C289.552 133.94 291.576 130.781 292.641 127.251C294.818 126.333 297.072 125.086 299.249 124.168C302.605 122.458 306.369 121.724 310.118 122.049L317.491 122.19C319.673 122.232 321.915 122.286 323.934 123.124C325.952 123.961 327.726 125.773 327.865 127.965C327.907 128.214 327.886 128.468 327.803 128.706C327.72 128.944 327.579 129.156 327.392 129.324C327.107 129.481 326.784 129.554 326.46 129.536C324.424 129.608 323.556 130.118 321.521 130.19Z" fill="#706BA8"/>
<path d="M262.754 153.445C263.042 153.17 263.25 152.821 263.354 152.436C263.457 152.051 263.454 151.644 263.343 151.261C262.642 150.989 261.879 150.919 261.141 151.059C260.403 151.2 259.718 151.545 259.164 152.055C258.727 152.5 258.351 153.001 258.045 153.545C257.076 155.135 256.219 157.036 256.78 158.814C256.826 159.008 256.91 159.19 257.027 159.351C257.144 159.512 257.291 159.648 257.461 159.751C257.713 159.852 257.984 159.895 258.254 159.876C259.322 159.874 260.388 159.808 261.447 159.678C262.098 159.598 262.854 159.413 263.105 158.804C263.435 158.003 262.636 157.097 262.869 156.262C263.022 155.889 263.255 155.554 263.55 155.28C263.697 155.143 263.809 154.972 263.879 154.783C263.949 154.594 263.974 154.391 263.952 154.19C263.858 153.799 263.262 153.577 263.047 153.917" fill="#706BA8"/>
<path d="M268.289 146.224C267.341 146.005 266.363 145.943 265.395 146.041C265.181 146.034 264.969 146.083 264.779 146.182C264.594 146.319 264.461 146.513 264.399 146.735C264.194 147.396 264.245 148.109 264.54 148.734C264.835 149.359 265.352 149.849 265.99 150.107C266.338 150.187 266.671 150.322 266.977 150.506C267.795 151.145 267.274 152.451 267.429 153.481C267.603 154.639 268.716 155.61 268.512 156.763C268.351 157.67 267.387 158.389 267.542 159.298C267.705 160.25 268.905 160.536 269.862 160.612C270.416 160.71 270.987 160.644 271.505 160.423C272.024 160.065 272.394 159.527 272.542 158.912C272.934 157.738 273.098 156.5 273.027 155.265C273.023 154.703 272.882 154.15 272.618 153.655C272.33 153.263 272.011 152.895 271.663 152.555C269.83 150.409 271.76 147.208 268.289 146.224Z" fill="#706BA8"/>
<path opacity="0.8" d="M509.319 314.316C509.319 314.316 368.933 233.215 308.495 248.582C308.495 248.582 180.408 262.454 165.564 292.974C165.564 292.974 124.847 164.92 110.003 160.651" stroke="#087B14" stroke-width="2" stroke-miterlimit="10"/>
<path opacity="0.8" d="M165.564 292.974C189.103 229.8 401.166 159.797 401.166 159.797C371.053 167.481 308.495 248.581 308.495 248.581C308.495 248.581 176.167 151.687 110.003 160.651C110.003 160.651 401.378 170.255 509.319 314.316" stroke="#087B14" stroke-width="2" stroke-miterlimit="10"/>
<path d="M110.003 166.84C113.399 166.84 116.153 164.069 116.153 160.651C116.153 157.233 113.399 154.462 110.003 154.462C106.607 154.462 103.853 157.233 103.853 160.651C103.853 164.069 106.607 166.84 110.003 166.84Z" fill="#56087B"/>
<path d="M165.564 299.163C168.96 299.163 171.714 296.392 171.714 292.973C171.714 289.555 168.96 286.784 165.564 286.784C162.167 286.784 159.414 289.555 159.414 292.973C159.414 296.392 162.167 299.163 165.564 299.163Z" fill="#56087B"/>
<path d="M401.166 165.987C404.563 165.987 407.316 163.216 407.316 159.797C407.316 156.379 404.563 153.608 401.166 153.608C397.77 153.608 395.017 156.379 395.017 159.797C395.017 163.216 397.77 165.987 401.166 165.987Z" fill="#56087B"/>
<path d="M509.319 320.505C512.715 320.505 515.469 317.734 515.469 314.316C515.469 310.898 512.715 308.127 509.319 308.127C505.922 308.127 503.169 310.898 503.169 314.316C503.169 317.734 505.922 320.505 509.319 320.505Z" fill="#56087B"/>
<path d="M308.495 254.771C311.891 254.771 314.644 252 314.644 248.582C314.644 245.163 311.891 242.392 308.495 242.392C305.098 242.392 302.345 245.163 302.345 248.582C302.345 252 305.098 254.771 308.495 254.771Z" fill="#56087B"/>
</svg>
