<svg width="569" height="518" viewBox="0 0 569 518" fill="none" xmlns="http://www.w3.org/2000/svg">
<path d="M69.3944 403.327L63.0394 377.819C51.7711 372.96 40.2425 368.75 28.5083 365.212L27.7059 377.066L24.4522 364.006C9.8999 359.778 0 357.915 0 357.915C0 357.915 13.3725 409.664 41.4203 449.227L74.1022 455.069L48.7125 458.794C52.2422 463.115 56.0354 467.206 60.0697 471.042C100.871 509.583 146.317 527.266 161.575 510.538C176.833 493.81 156.126 449.005 115.324 410.464C102.675 398.516 86.7853 388.928 70.8798 381.381L69.3944 403.327Z" fill="#0C0E1C"/>
<path d="M129.835 375.626L137.351 350.448C130.174 340.36 122.442 330.693 114.195 321.491L107.487 331.217L111.335 318.325C101.025 307.051 93.4968 300.248 93.4968 300.248C93.4968 300.248 78.6591 351.582 82.5739 400.203L107.584 422.396L83.9568 412.229C84.7835 417.785 85.9528 423.282 87.4578 428.689C102.809 483.144 132.731 522.187 154.289 515.893C175.848 509.599 180.879 460.352 165.528 405.896C160.769 389.014 152.037 372.448 142.254 357.621L129.835 375.626Z" fill="#0C0E1C"/>
<path d="M487.639 478.613L492.367 473.416C491.795 470.115 491.04 466.849 490.106 463.634L487.358 465.186L489.779 462.525C488.585 458.562 487.548 456.014 487.548 456.014C487.548 456.014 478.025 466.668 473.355 478.91L476.847 487.276L472.301 481.987C471.859 483.431 471.507 484.902 471.247 486.391C468.673 501.414 471.407 514.448 477.355 515.503C483.302 516.558 490.21 505.236 492.784 490.213C493.491 485.414 493.472 480.533 492.726 475.739L487.639 478.613Z" fill="#0C0E1C"/>
<path d="M557.598 488.892L564.286 486.93C565.473 483.803 566.486 480.61 567.319 477.367L564.178 477.25L567.602 476.246C568.594 472.225 569 469.498 569 469.498C569 469.498 555.436 473.609 545.221 481.632L543.96 490.631L542.755 483.712C541.643 484.716 540.595 485.79 539.616 486.928C529.781 498.434 525.502 511.03 530.057 515.061C534.612 519.093 546.277 513.034 556.111 501.529C559.154 497.792 561.617 493.603 563.413 489.108L557.598 488.892Z" fill="#0C0E1C"/>
<path d="M183.354 2.5H166.062H166.062C157.582 2.49891 149.44 5.9251 143.429 12.0395C137.417 18.1553 134.03 26.4599 134.028 35.1292L183.354 2.5ZM183.354 2.5C182.979 4.38824 182.885 6.32938 183.081 8.25825C183.397 11.3802 184.462 14.3782 186.186 16.9886C187.91 19.5992 190.24 21.7435 192.976 23.2292C195.712 24.7151 198.768 25.4956 201.875 25.4996H201.878L298.83 25.4996L298.833 25.4996C301.94 25.4956 304.996 24.7151 307.732 23.2293C310.468 21.7436 312.798 19.5993 314.522 16.9887C316.246 14.3783 317.311 11.3802 317.627 8.25824C317.823 6.32939 317.729 4.38825 317.354 2.50001H336.114C336.114 2.50001 336.114 2.50001 336.114 2.50001C344.592 2.5019 352.73 5.92939 358.738 12.0434C364.748 18.159 368.132 26.462 368.134 35.1292C368.134 35.1294 368.134 35.1296 368.134 35.1297V480.441L183.354 2.5ZM358.738 503.528C364.748 497.412 368.132 489.109 368.134 480.442L358.738 503.528ZM358.738 503.528C352.73 509.642 344.591 513.069 336.114 513.071M358.738 503.528L336.114 513.071M336.114 513.071H166.062M336.114 513.071H166.062M166.062 513.071C157.582 513.072 149.44 509.646 143.429 503.532M166.062 513.071L143.429 503.532M143.429 503.532C137.417 497.416 134.03 489.111 134.028 480.442M143.429 503.532L134.028 480.442M134.028 480.442C134.028 480.442 134.028 480.441 134.028 480.441M134.028 480.442V480.441M134.028 480.441V35.13V480.441Z" fill="white" stroke="#0C0E1C" stroke-width="5"/>
<path d="M227.12 184.436C227.119 181.385 227.908 178.388 229.407 175.746C230.906 173.104 233.062 170.911 235.659 169.386C233.063 167.86 230.117 167.056 227.119 167.055C224.121 167.055 221.175 167.857 218.578 169.383C215.981 170.908 213.825 173.102 212.325 175.744C210.826 178.387 210.037 181.384 210.037 184.436C210.037 187.487 210.826 190.484 212.325 193.127C213.825 195.769 215.981 197.963 218.578 199.488C221.175 201.014 224.121 201.816 227.119 201.816C230.117 201.815 233.063 201.011 235.659 199.485C233.062 197.96 230.906 195.767 229.407 193.125C227.908 190.483 227.119 187.486 227.12 184.436Z" fill="#C7B6D1"/>
<path d="M248.59 184.436C248.59 181.385 249.379 178.388 250.878 175.746C252.377 173.104 254.533 170.911 257.13 169.386C254.534 167.86 251.588 167.056 248.59 167.055C245.591 167.055 242.646 167.857 240.049 169.383C237.452 170.908 235.296 173.102 233.796 175.744C232.297 178.387 231.507 181.384 231.507 184.436C231.507 187.487 232.297 190.484 233.796 193.127C235.296 195.769 237.452 197.963 240.049 199.488C242.646 201.014 245.591 201.816 248.59 201.816C251.588 201.815 254.534 201.011 257.13 199.485C254.533 197.96 252.377 195.767 250.878 193.125C249.379 190.483 248.59 187.486 248.59 184.436Z" fill="#C7B6D1"/>
<path d="M269.572 201.816C279.005 201.816 286.651 194.035 286.651 184.436C286.651 174.837 279.005 167.056 269.572 167.056C260.14 167.056 252.494 174.837 252.494 184.436C252.494 194.035 260.14 201.816 269.572 201.816Z" fill="#0C0E1C"/>
<path d="M327.489 298.181H174.828V299.636H327.489V298.181Z" fill="#C7B6D1"/>
<path d="M179.649 289.096C182.311 289.096 184.47 286.9 184.47 284.19C184.47 281.481 182.311 279.284 179.649 279.284C176.986 279.284 174.828 281.481 174.828 284.19C174.828 286.9 176.986 289.096 179.649 289.096Z" fill="#0C0E1C"/>
<path d="M327.489 347.24H174.828V348.695H327.489V347.24Z" fill="#C7B6D1"/>
<path d="M179.649 338.156C182.311 338.156 184.47 335.959 184.47 333.25C184.47 330.54 182.311 328.344 179.649 328.344C176.986 328.344 174.828 330.54 174.828 333.25C174.828 335.959 176.986 338.156 179.649 338.156Z" fill="#0C0E1C"/>
<path d="M298.114 238.72H198.577C197.63 238.719 196.721 238.335 196.051 237.653C195.381 236.972 195.004 236.047 195.003 235.083V133.789C195.004 132.825 195.381 131.9 196.051 131.218C196.721 130.536 197.63 130.153 198.577 130.152H298.114C299.062 130.153 299.97 130.536 300.641 131.218C301.311 131.9 301.687 132.825 301.689 133.789V235.083C301.687 236.047 301.311 236.972 300.641 237.653C299.97 238.335 299.062 238.719 298.114 238.72ZM198.577 131.606C198.009 131.607 197.464 131.837 197.062 132.246C196.66 132.656 196.433 133.21 196.433 133.789V235.083C196.433 235.661 196.66 236.216 197.062 236.625C197.464 237.034 198.009 237.264 198.577 237.265H298.114C298.683 237.264 299.228 237.034 299.63 236.625C300.032 236.216 300.258 235.661 300.259 235.083V133.789C300.258 133.21 300.032 132.656 299.63 132.246C299.228 131.837 298.683 131.607 298.114 131.606H198.577Z" fill="#C7B6D1"/>
<path d="M324.63 379.856H276.515C274.936 379.856 273.656 381.159 273.656 382.766V399.841C273.656 401.448 274.936 402.751 276.515 402.751H324.63C326.209 402.751 327.489 401.448 327.489 399.841V382.766C327.489 381.159 326.209 379.856 324.63 379.856Z" fill="#0C0E1C"/>
<path d="M569 514.859H0.568115V516.314H569V514.859Z" fill="#3F3D56"/>
<path d="M460.719 236.478C460.719 236.478 458.74 249.232 460.719 251.246C462.698 253.259 448.186 270.041 448.186 270.041L436.313 253.259C436.313 253.259 441.59 244.533 439.611 237.149L460.719 236.478Z" fill="#FFB8B8"/>
<path d="M417.186 332.469L408.608 425.775L411.903 498.273L427.734 493.574L428.397 428.461L446.869 372.075L458.08 433.161L456.758 494.918L476.548 495.59L477.869 427.12L480.187 331.491L417.186 332.469Z" fill="#0C0E1C"/>
<path d="M457.421 492.904V507.672C457.421 507.672 454.123 518.412 464.677 517.741C475.231 517.07 474.571 512.371 474.571 512.371L470.614 494.246L457.421 492.904Z" fill="#2F2E41"/>
<path d="M427.078 492.904V507.672C427.078 507.672 430.376 518.412 419.822 517.741C409.268 517.07 409.927 512.371 409.927 512.371L413.885 494.246L427.078 492.904Z" fill="#2F2E41"/>
<path d="M449.505 243.861C457.884 243.861 464.677 236.949 464.677 228.422C464.677 219.895 457.884 212.983 449.505 212.983C441.126 212.983 434.334 219.895 434.334 228.422C434.334 236.949 441.126 243.861 449.505 243.861Z" fill="#FFB8B8"/>
<path d="M448.846 262.657L450.165 255.944H453.463L459.841 246.608L465.337 251.917L466.656 283.466H431.036L434.334 249.903L439.137 246.608C439.137 246.608 438.292 257.958 447.527 257.958L448.846 262.657Z" fill="#575A89"/>
<path d="M434.993 255.273C434.993 255.273 440.456 262.311 448.609 261.813C456.761 261.315 464.677 254.602 464.677 254.602L475.891 341.867C475.891 341.867 463.358 343.21 459.4 336.497L429.057 335.826L429.716 254.602L434.993 255.273Z" fill="#4A594B" fill-opacity="0.8"/>
<path d="M439.447 245.45L410.587 259.972L417.843 301.591C417.843 301.591 420.482 317.03 417.843 323.072C415.205 329.113 412.566 369.389 412.566 369.389C412.566 369.389 442.249 372.746 438.292 325.085C434.334 277.425 439.447 245.45 439.447 245.45Z" fill="#0C0E1C"/>
<path d="M421.801 345.895L425.758 349.923C425.758 349.923 437.632 370.732 442.909 363.348C448.186 355.964 433.674 343.21 433.674 343.21L427.078 337.84L421.801 345.895Z" fill="#FFB8B8"/>
<path d="M459.856 245.45L488.423 259.972L478.529 309.646C478.529 309.646 479.189 325.757 482.487 334.483C485.785 343.21 484.466 368.718 484.466 368.718C484.466 368.718 480.508 384.157 471.933 345.895C463.357 307.632 459.856 245.45 459.856 245.45Z" fill="#0C0E1C"/>
<path d="M481.827 321.729H475.89C475.89 321.729 456.102 319.044 457.421 327.099C458.74 335.155 477.21 333.141 477.21 333.141L484.466 332.47L481.827 321.729Z" fill="#FFB8B8"/>
<path d="M414.545 257.958L409.928 259.972C409.928 259.972 405.31 270.041 404.651 273.398C403.991 276.754 396.075 317.03 398.054 321.729C400.033 326.428 419.822 351.265 419.822 351.265L431.036 339.182L414.545 316.359L419.162 287.494L414.545 257.958Z" fill="#0C0E1C"/>
<path d="M478.529 258.63L487.257 259.379L489.083 259.972C489.083 259.972 507.553 310.989 503.595 319.044C499.637 327.1 482.487 341.867 482.487 341.867L477.869 321.058L486.445 313.003L477.869 286.152L478.529 258.63Z" fill="#0C0E1C"/>
<path d="M462.341 216.517C462.341 216.517 466.31 208.938 457.578 208.249C457.578 208.249 449.64 203.426 443.29 208.938C443.29 208.938 437.733 207.56 436.145 211.694C436.145 211.694 435.351 209.627 437.733 208.249C437.733 208.249 432.176 206.871 432.176 213.761C432.176 213.761 429.795 220.651 432.176 226.853C434.558 233.054 435.351 233.743 435.351 233.743C435.351 233.743 431.438 220.741 440.964 220.052C450.49 219.363 461.15 213.417 461.944 220.996C462.738 228.575 464.326 230.642 464.326 230.642C464.326 230.642 471.47 219.618 462.341 216.517Z" fill="#2F2E41"/>
</svg>
