<svg xmlns="http://www.w3.org/2000/svg" width="50" height="50" viewBox="0 0 50 50">
  <g id="Logo-red" transform="translate(0 0)">
    <g id="Layer_1" data-name="Layer 1" transform="translate(0 0)">
      <path id="Path_1" data-name="Path 1" d="M91.5,73.17a6.72,6.72,0,0,1,1.737.794q5.616,3.091,11.233,6.168a2.357,2.357,0,0,1,1.374,2.224q-.013,5.992,0,11.983a2.356,2.356,0,0,1-1.364,2.207q-5.956,3.254-11.886,6.536a2.816,2.816,0,0,1-2.949,0q-5.95-3.293-11.919-6.548a2.329,2.329,0,0,1-1.344-2.168q.008-6.019,0-12.034a2.338,2.338,0,0,1,1.344-2.185q5.978-3.27,11.944-6.555a9.32,9.32,0,0,1,1.048-.421Zm-7.87,8.983c.089.055.153.1.222.134l7.066,3.888a.351.351,0,0,0,.394,0q3.53-1.949,7.067-3.89c.066-.036.134-.081.206-.128-.054-.036-.081-.058-.112-.075q-3.6-1.976-7.185-3.954a.356.356,0,0,0-.4.03q-2.22,1.226-4.444,2.445Zm-2.328,4c0,.086-.011.142-.011.2v6.7a.32.32,0,0,0,.21.313q3.454,1.891,6.9,3.792c.067.036.134.066.237.113.008-.1.019-.176.019-.249V90.4a.34.34,0,0,0-.216-.337q-3.456-1.891-6.9-3.792C81.478,86.23,81.406,86.2,81.3,86.154ZM93.576,97.272c.106-.051.177-.083.246-.121l6.906-3.79a.336.336,0,0,0,.2-.341q-.008-3.313,0-6.624c0-.071-.008-.144-.013-.243-.1.048-.175.079-.243.117q-3.452,1.9-6.9,3.792a.337.337,0,0,0-.21.34q.008,3.3,0,6.6c0,.081.013.161.02.273Z" transform="translate(-66.114 -63.335)"/>
      <path id="Path_2" data-name="Path 2" d="M130.32,113.778l2.823-1.548,4.444-2.445a.356.356,0,0,1,.4-.03q3.589,1.983,7.185,3.954c.031.017.058.039.112.075-.077.047-.134.091-.206.128q-3.535,1.944-7.067,3.89a.351.351,0,0,1-.394,0l-7.074-3.89C130.473,113.877,130.411,113.833,130.32,113.778Z" transform="translate(-112.804 -94.961)" fill="#dd4660"/>
      <path id="Path_3" data-name="Path 3" d="M112.938,169.77c.1.047.172.077.239.113q3.452,1.9,6.9,3.792a.34.34,0,0,1,.216.337v6.624c0,.073-.011.145-.019.249-.1-.047-.169-.077-.237-.113q-3.452-1.9-6.9-3.792a.32.32,0,0,1-.21-.313q.008-3.35,0-6.7A1.186,1.186,0,0,0,112.938,169.77Z" transform="translate(-97.75 -146.951)" fill="#dd4660"/>
      <path id="Path_4" data-name="Path 4" d="M204.239,180.906c0-.112-.016-.192-.016-.269v-6.6a.337.337,0,0,1,.21-.34q3.456-1.891,6.9-3.792c.069-.038.141-.069.243-.117,0,.1.013.172.013.243v6.624a.336.336,0,0,1-.2.341q-3.458,1.89-6.906,3.79C204.416,180.822,204.345,180.855,204.239,180.906Z" transform="translate(-176.773 -146.969)" fill="#dd4660"/>
      <path id="Path_5" data-name="Path 5" d="M25.009,50A25,25,0,1,1,50,24.97,25.057,25.057,0,0,1,25.009,50Zm.015-45.161a20.128,20.128,0,1,0,14.259,5.912A20.161,20.161,0,0,0,25.024,4.839Z" transform="translate(0 0)" fill="#dd4660"/>
    </g>
  </g>
</svg>
