<svg xmlns="http://www.w3.org/2000/svg" viewBox="0 0 371.99 371.99"><defs><style>.cls-1{fill:#4cac7d;}</style></defs><g id="Layer_2" data-name="Layer 2"><g id="Layer_1-2" data-name="Layer 1"><path d="M188.87,73.17c4.79,1.08,8.78,3.64,12.92,5.91q41.78,23,83.57,45.89c7,3.8,10.23,9.17,10.22,16.55q-.1,44.58,0,89.15c0,7.31-3.26,12.65-10.15,16.42Q241.12,271.3,197,295.72c-7.46,4.13-14.48,4.14-21.94,0Q130.79,271.22,86.38,247c-6.74-3.69-10-9-10-16.13q.06-44.78,0-89.53c0-7.24,3.24-12.54,10-16.26q44.48-24.33,88.86-48.77a69.33,69.33,0,0,1,7.8-3.13ZM130.32,140c.66.41,1.14.74,1.65,1q26.28,14.46,52.57,28.93a2.61,2.61,0,0,0,2.93,0q26.26-14.5,52.58-28.94c.49-.27,1-.6,1.53-.95-.4-.27-.6-.43-.83-.56q-26.75-14.7-53.46-29.42a2.65,2.65,0,0,0-3,.22q-16.52,9.12-33.06,18.19ZM113,169.77c0,.64-.08,1.06-.08,1.47q0,24.91,0,49.84a2.38,2.38,0,0,0,1.56,2.33q25.7,14.07,51.37,28.21c.5.27,1,.49,1.76.84.06-.77.14-1.31.14-1.85,0-16.43,0-32.86,0-49.28a2.53,2.53,0,0,0-1.61-2.51q-25.71-14.07-51.37-28.21C114.31,170.34,113.77,170.12,113,169.77Zm91.32,82.72c.79-.38,1.32-.62,1.83-.9q25.68-14.1,51.38-28.2a2.5,2.5,0,0,0,1.51-2.54q-.06-24.65,0-49.28c0-.53-.06-1.07-.1-1.81-.76.36-1.3.59-1.81.87q-25.68,14.12-51.37,28.21a2.51,2.51,0,0,0-1.56,2.53q.06,24.56,0,49.09C204.23,251.06,204.3,251.66,204.35,252.49Z"/><path class="cls-1" d="M130.32,140l21-11.52q16.54-9.09,33.06-18.19a2.65,2.65,0,0,1,3-.22q26.7,14.75,53.46,29.42c.23.13.43.29.83.56-.57.35-1,.68-1.53.95q-26.3,14.46-52.58,28.94a2.61,2.61,0,0,1-2.93,0Q158.28,155.45,132,141C131.46,140.74,131,140.41,130.32,140Z"/><path class="cls-1" d="M113,169.77c.74.35,1.28.57,1.78.84q25.68,14.12,51.37,28.21a2.53,2.53,0,0,1,1.61,2.51c0,16.42,0,32.85,0,49.28,0,.54-.08,1.08-.14,1.85-.73-.35-1.26-.57-1.76-.84q-25.68-14.12-51.37-28.21a2.38,2.38,0,0,1-1.56-2.33q.06-24.92,0-49.84C113,170.83,113,170.41,113,169.77Z"/><path class="cls-1" d="M204.35,252.49c0-.83-.12-1.43-.12-2q0-24.54,0-49.09a2.51,2.51,0,0,1,1.56-2.53q25.71-14.07,51.37-28.21c.51-.28,1.05-.51,1.81-.87,0,.74.1,1.28.1,1.81q0,24.63,0,49.28a2.5,2.5,0,0,1-1.51,2.54q-25.73,14.06-51.38,28.2C205.67,251.87,205.14,252.11,204.35,252.49Z"/><path class="cls-1" d="M186.07,372C83.62,372.05,0,288.4,0,185.94S83.66-.09,186.16,0C288.45.09,371.83,83.44,372,185.78S288.53,371.94,186.07,372Zm.11-336A150,150,0,1,0,336,186.18,149.75,149.75,0,0,0,186.18,36Z"/></g></g></svg>