<svg width="372" height="372" viewBox="0 0 372 372" fill="none" xmlns="http://www.w3.org/2000/svg">
<g clip-path="url(#clip0)">
<path d="M188.87 73.17C193.66 74.25 197.65 76.81 201.79 79.08C229.643 94.4134 257.5 109.71 285.36 124.97C292.36 128.77 295.59 134.14 295.58 141.52C295.513 171.24 295.513 200.957 295.58 230.67C295.58 237.98 292.32 243.32 285.43 247.09C255.89 263.23 226.413 279.44 197 295.72C189.54 299.85 182.52 299.86 175.06 295.72C145.547 279.387 115.987 263.147 86.3799 247C79.6399 243.31 76.3799 238 76.3799 230.87C76.4199 201.017 76.4199 171.173 76.3799 141.34C76.3799 134.1 79.6199 128.8 86.3799 125.08C116.033 108.86 145.653 92.6034 175.24 76.31C177.774 75.1099 180.379 74.0647 183.04 73.18L188.87 73.17ZM130.32 140C130.98 140.41 131.46 140.74 131.97 141C149.49 150.64 167.013 160.283 184.54 169.93C184.972 170.223 185.483 170.38 186.005 170.38C186.527 170.38 187.038 170.223 187.47 169.93C204.977 160.263 222.503 150.617 240.05 140.99C240.54 140.72 241.05 140.39 241.58 140.04C241.18 139.77 240.98 139.61 240.75 139.48C222.917 129.68 205.097 119.873 187.29 110.06C186.826 109.788 186.291 109.664 185.756 109.703C185.22 109.742 184.709 109.944 184.29 110.28C173.277 116.36 162.257 122.423 151.23 128.47L130.32 140ZM113 169.77C113 170.41 112.92 170.83 112.92 171.24C112.92 187.847 112.92 204.46 112.92 221.08C112.9 221.584 113.04 222.08 113.32 222.499C113.601 222.918 114.007 223.237 114.48 223.41C131.613 232.79 148.737 242.193 165.85 251.62C166.35 251.89 166.85 252.11 167.61 252.46C167.67 251.69 167.75 251.15 167.75 250.61C167.75 234.18 167.75 217.75 167.75 201.33C167.782 200.795 167.643 200.264 167.354 199.813C167.065 199.362 166.639 199.014 166.14 198.82C149 189.44 131.877 180.037 114.77 170.61C114.31 170.34 113.77 170.12 113 169.77ZM204.32 252.49C205.11 252.11 205.64 251.87 206.15 251.59C223.27 242.19 240.397 232.79 257.53 223.39C258.019 223.182 258.429 222.824 258.7 222.367C258.972 221.91 259.091 221.379 259.04 220.85C259 204.417 259 187.99 259.04 171.57C259.04 171.04 258.98 170.5 258.94 169.76C258.18 170.12 257.64 170.35 257.13 170.63C240.01 180.043 222.887 189.447 205.76 198.84C205.264 199.041 204.846 199.394 204.565 199.849C204.285 200.304 204.157 200.837 204.2 201.37C204.24 217.743 204.24 234.107 204.2 250.46C204.23 251.06 204.3 251.66 204.35 252.49H204.32Z" fill="#FBF9F9"/>
<path d="M130.32 140L151.32 128.48C162.346 122.42 173.366 116.357 184.38 110.29C184.799 109.954 185.31 109.752 185.846 109.713C186.381 109.674 186.916 109.798 187.38 110.07C205.18 119.903 223 129.71 240.84 139.49C241.07 139.62 241.27 139.78 241.67 140.05C241.1 140.4 240.67 140.73 240.14 141C222.606 150.64 205.08 160.287 187.56 169.94C187.128 170.233 186.617 170.39 186.095 170.39C185.572 170.39 185.062 170.233 184.63 169.94C167.063 160.28 149.52 150.633 132 141C131.46 140.74 131 140.41 130.32 140Z" fill="#4CAC7D"/>
<path d="M113 169.77C113.74 170.12 114.28 170.34 114.78 170.61C131.9 180.023 149.023 189.427 166.15 198.82C166.65 199.014 167.075 199.362 167.364 199.813C167.654 200.264 167.792 200.795 167.76 201.33C167.76 217.75 167.76 234.18 167.76 250.61C167.76 251.15 167.68 251.69 167.62 252.46C166.89 252.11 166.36 251.89 165.86 251.62C148.74 242.207 131.617 232.803 114.49 223.41C114.017 223.237 113.611 222.918 113.331 222.499C113.05 222.08 112.91 221.584 112.93 221.08C112.97 204.467 112.97 187.853 112.93 171.24C113 170.83 113 170.41 113 169.77Z" fill="#4CAC7D"/>
<path d="M204.35 252.49C204.35 251.66 204.23 251.06 204.23 250.49C204.23 234.13 204.23 217.767 204.23 201.4C204.187 200.867 204.315 200.334 204.595 199.879C204.876 199.424 205.294 199.071 205.79 198.87C222.93 189.49 240.053 180.087 257.16 170.66C257.67 170.38 258.21 170.15 258.97 169.79C258.97 170.53 259.07 171.07 259.07 171.6C259.07 188.02 259.07 204.447 259.07 220.88C259.121 221.409 259.002 221.94 258.73 222.397C258.459 222.854 258.049 223.212 257.56 223.42C240.407 232.793 223.28 242.193 206.18 251.62C205.67 251.87 205.14 252.11 204.35 252.49Z" fill="#4CAC7D"/>
<path d="M186.07 372C83.62 372.05 0 288.4 0 185.94C0 83.48 83.66 -0.0900494 186.16 -4.94449e-05C288.45 0.0899506 371.83 83.44 372 185.78C372.17 288.12 288.53 371.94 186.07 372ZM186.18 36C156.513 35.9644 127.501 44.7269 102.814 61.1795C78.1271 77.6321 58.8732 101.036 47.4871 128.431C36.1011 155.826 33.0944 185.983 38.8473 215.087C44.6002 244.191 58.8542 270.935 79.8069 291.939C100.76 312.942 127.47 327.26 156.56 333.082C185.65 338.905 215.814 335.971 243.236 324.651C270.659 313.33 294.109 294.133 310.62 269.485C327.132 244.837 335.964 215.847 336 186.18C336.057 166.472 332.223 146.948 324.718 128.725C317.213 110.502 306.185 93.9399 292.267 79.9878C278.348 66.0358 261.813 54.9682 243.608 47.4199C225.403 39.8715 205.888 35.9907 186.18 36V36Z" fill="#4CAC7D"/>
</g>
<defs>
<clipPath id="clip0">
<rect width="371.99" height="371.99" fill="white"/>
</clipPath>
</defs>
</svg>
