<svg width="22" height="24" viewBox="0 0 22 24" fill="none" xmlns="http://www.w3.org/2000/svg">
<path d="M22 21.75C22 22.9927 21.0766 24 19.9375 24H2.0625C0.923398 24 0 22.9927 0 21.75V9.40895C3.79936e-06 9.06776 0.0711344 8.73104 0.208011 8.42426C0.344887 8.11749 0.543925 7.84869 0.790066 7.63819C1.86055 6.72277 2.74519 5.98046 7.84554 1.94237C8.56848 1.36735 10.003 -0.0162583 11 0.000147907C11.9968 -0.0164458 13.4319 1.36759 14.1545 1.94232C19.2543 5.97999 20.1401 6.72334 21.2099 7.63819C21.4561 7.84869 21.6551 8.11749 21.792 8.42426C21.9289 8.73104 22 9.06776 22 9.40895V21.75ZM19.1784 12.5341C19.0683 12.3594 18.8476 12.3188 18.6912 12.4448C17.7096 13.2357 16.3081 14.3528 14.1545 16.0578C13.4315 16.6328 11.997 18.0163 11 17.9999C10.0027 18.016 8.56973 16.6338 7.84554 16.0578C5.6922 14.353 4.29056 13.2358 3.30881 12.4448C3.15245 12.3188 2.93171 12.3594 2.82159 12.5341L2.43177 13.1527C2.38125 13.2328 2.36124 13.3313 2.37599 13.4272C2.39073 13.5231 2.43907 13.609 2.51079 13.6668C3.49422 14.4589 4.89358 15.5741 7.03553 17.27C7.90668 17.9628 9.4643 19.5112 11 19.5C12.535 19.5113 14.0921 17.9638 14.9644 17.27C17.1064 15.5741 18.5058 14.4589 19.4892 13.6668C19.5609 13.609 19.6092 13.5231 19.624 13.4272C19.6387 13.3313 19.6187 13.2328 19.5682 13.1527L19.1784 12.5341Z" fill="white"/>
</svg>
