<svg width="22" height="24" viewBox="0 0 22 24" fill="none" xmlns="http://www.w3.org/2000/svg">
<path d="M19.25 0H2.75C1.23177 0 0 1.00781 0 2.25V21.75C0 22.9922 1.23177 24 2.75 24H19.25C20.7682 24 22 22.9922 22 21.75V2.25C22 1.00781 20.7682 0 19.25 0ZM8.25 1.5H13.75C14.2542 1.5 14.6667 1.8375 14.6667 2.25C14.6667 2.6625 14.2542 3 13.75 3H8.25C7.74583 3 7.33333 2.6625 7.33333 2.25C7.33333 1.8375 7.74583 1.5 8.25 1.5ZM11 7.5C13.0224 7.5 14.6667 8.84531 14.6667 10.5C14.6667 12.1547 13.0224 13.5 11 13.5C8.9776 13.5 7.33333 12.1547 7.33333 10.5C7.33333 8.84531 8.9776 7.5 11 7.5ZM17.4167 18.6C17.4167 19.0969 16.8438 19.5 16.1333 19.5H5.86667C5.15625 19.5 4.58333 19.0969 4.58333 18.6V17.7C4.58333 16.2094 6.30781 15 8.43333 15H8.71979C9.42448 15.2391 10.1922 15.375 11 15.375C11.8078 15.375 12.5813 15.2391 13.2802 15H13.5667C15.6922 15 17.4167 16.2094 17.4167 17.7V18.6Z" fill="white"/>
</svg>
