<svg width="1440" height="1024" viewBox="0 0 1440 1024" fill="none" xmlns="http://www.w3.org/2000/svg">
<g clip-path="url(#clip0)">
<rect width="1440" height="1024" fill="white"/>
<path fill-rule="evenodd" clip-rule="evenodd" d="M1112.27 1023.98H0V-4.98537C16.255 -5.6595 32.599 -6 49.0248 -6C108.245 441.307 385.105 587.41 679.784 742.917C827.904 821.082 980.525 901.622 1112.27 1023.98Z" fill="#56087B"/>
<path d="M118.225 3.13687C121.531 5.66056 130.687 11.7094 131.704 12.0499C132.005 12.1501 129.3 9.56628 125.785 6.40165L123.404 4.23848L120.86 3.65763C118.248 3.03672 118.063 2.99666 118.225 3.13687Z" fill="#F3BB4E"/>
<path d="M117.346 4.15856C117.439 4.71938 117.624 5.84102 117.762 6.68225L118.017 8.20448L121.138 8.34469C122.872 8.4248 124.306 8.44483 124.352 8.40478C124.398 8.36472 123.473 7.66369 122.294 6.82246C121.115 6.00126 119.496 4.83956 118.687 4.23868L117.208 3.15709L117.346 4.15856Z" fill="#F6D530"/>
<path d="M97.0692 5.01977C94.6415 5.3803 93.7398 5.58059 94.0635 5.70077C98.6182 7.3632 128.953 18.0589 128.999 17.9988C129.045 17.9787 127.612 17.0975 125.831 16.076C124.051 15.0545 122.479 14.0931 122.317 13.9328C122.016 13.6324 101 4.43892 100.699 4.47898C100.584 4.49901 98.9651 4.73936 97.0692 5.01977Z" fill="#F7B940"/>
<path d="M95.9825 8.26468C97.1617 9.26615 98.2021 10.0273 98.3177 9.96717C98.4102 9.92711 102.78 11.0888 108.052 12.551C113.323 14.0131 117.67 15.1748 117.716 15.1347C118.017 14.9144 116.421 14.2735 109.069 11.6897C104.63 10.1074 99.4969 8.28471 97.6934 7.64377C95.89 7.00283 94.2947 6.46204 94.1097 6.46204C93.9479 6.48207 94.7802 7.28324 95.9825 8.26468Z" fill="#FCD637"/>
<path d="M118.202 10.1471C118.202 11.2287 118.271 11.5091 118.618 11.6092C118.826 11.6693 120.652 12.4304 122.641 13.2917C124.629 14.173 126.317 14.874 126.363 14.874C126.479 14.874 125.254 9.30587 125.115 9.18569C125.069 9.14564 123.496 9.04549 121.624 8.96537L118.202 8.82517V10.1471Z" fill="#F77D4C"/>
<path d="M126.062 9.7468C126.062 10.0472 127.195 14.9144 127.288 14.9945C127.311 15.0145 128.351 14.5538 129.577 13.993L131.843 12.9315L129.068 11.2089C127.542 10.2475 126.247 9.46639 126.178 9.46639C126.109 9.46639 126.062 9.58657 126.062 9.7468Z" fill="#FE9D4E"/>
<path d="M98.919 11.1085C99.2889 12.2101 99.9594 13.0714 100.399 13.0714C100.653 13.0714 100.861 13.1515 100.861 13.2316C100.861 13.3318 101.277 13.5721 101.786 13.7724C102.295 13.9727 102.826 14.2531 102.965 14.3933C103.104 14.5536 103.312 14.6337 103.404 14.5736C103.497 14.5335 106.318 14.7138 109.647 14.9742C113 15.2546 115.751 15.4549 115.797 15.4148C115.89 15.3547 99.2427 10.6679 98.919 10.6679C98.8265 10.6679 98.8265 10.8682 98.919 11.1085Z" fill="#DA7465"/>
<path d="M149.576 14.1931L146.409 16.2962L144.767 19.1403L143.126 21.9645L143.519 23.046C143.727 23.6469 144.074 24.4882 144.305 24.9288L144.698 25.75L145.322 24.5282L145.946 23.3064L150.131 21.9044C152.42 21.1232 154.386 20.4823 154.478 20.4823C154.594 20.4823 154.964 19.601 155.31 18.5194C155.68 17.4579 156.05 16.4364 156.143 16.2561C156.351 15.8956 155.334 14.4935 153.761 13.0314L152.767 12.09L149.576 14.1931Z" fill="#77D48E"/>
<path d="M154.548 12.8312C155.403 13.8727 158.987 17.478 159.149 17.478C159.264 17.478 159.357 17.3378 159.357 17.1776C159.357 17.0174 159.472 16.6769 159.611 16.4165C159.842 15.9959 160.49 15.7755 165.206 14.6539C168.166 13.9529 170.408 13.352 170.2 13.3119C169.992 13.2719 167.819 13.5723 165.368 13.9729C162.894 14.3535 160.651 14.6739 160.374 14.6739C160.097 14.6739 158.686 14.1732 157.253 13.5723C155.796 12.9714 154.524 12.4707 154.432 12.4707C154.316 12.4707 154.386 12.6309 154.548 12.8312Z" fill="#4BC497"/>
<path d="M132.953 13.4121C133.068 13.6124 133.461 14.8141 133.808 16.096L134.455 18.4194L138.016 19.9416C139.958 20.8029 141.623 21.4839 141.692 21.4839C141.854 21.4839 141.23 20.863 137.6 17.478C136.374 16.3163 134.872 14.8542 134.27 14.2132C133.253 13.1116 132.513 12.671 132.953 13.4121Z" fill="#EF9D47"/>
<path d="M131.034 14.0131C130.409 14.2935 129.415 14.7342 128.86 15.0346L127.82 15.5353L130.548 16.7171C132.051 17.378 133.323 17.8587 133.392 17.7986C133.531 17.6985 132.583 14.1733 132.328 13.7327C132.236 13.5725 131.843 13.6726 131.034 14.0131Z" fill="#FAB651"/>
<path d="M118.664 15.1947C118.664 15.2347 119.219 16.116 119.889 17.1375C120.56 18.139 121.67 19.8615 122.363 20.9431C123.589 22.8659 123.751 23.0061 125.022 23.1463C125.6 23.2064 130.155 19.1805 129.716 19.0203C125.3 17.4179 118.664 15.1145 118.664 15.1947Z" fill="#F9BE3C"/>
<path d="M104.098 15.395C104.098 15.4751 106.433 18.4194 107.774 20.0218C107.982 20.2621 108.306 20.4624 108.491 20.4624C109.022 20.4624 114.34 17.7384 114.063 17.5982C113.947 17.5381 111.889 17.0774 109.485 16.5767C107.103 16.076 104.907 15.5752 104.629 15.4751C104.329 15.375 104.098 15.3349 104.098 15.395Z" fill="#F5BA38"/>
<path d="M125.832 15.3748C125.832 15.4349 126.271 15.7153 126.826 16.0158C127.358 16.3162 131.357 18.6196 135.704 21.1233C140.051 23.6269 143.658 25.6899 143.727 25.6899C143.796 25.6899 143.565 25.0089 143.218 24.1677L142.594 22.6255L136.93 20.1819C133.808 18.8199 130.04 17.1775 128.56 16.4965C127.057 15.8355 125.832 15.3148 125.832 15.3748Z" fill="#EC5E52"/>
<path d="M111.196 16.2764C114.641 17.0375 114.733 17.0775 116.398 18.2192C120.537 21.1034 122.224 22.165 122.039 21.7844C121.924 21.484 118.756 16.5367 118.571 16.3364C118.525 16.2764 108.56 15.4752 108.121 15.4952C107.89 15.5152 109.254 15.8557 111.196 16.2764Z" fill="#F7914F"/>
<path d="M156.744 16.6166C156.582 16.877 155.403 20.5224 155.472 20.5624C155.518 20.6025 156.05 20.8629 156.674 21.1633C158.015 21.7842 158.015 21.7842 158.547 19.8614C158.825 18.92 158.871 18.3992 158.709 18.1389C158.339 17.578 156.883 16.4163 156.744 16.6166Z" fill="#7BDF87"/>
<path d="M112.583 19.2605C110.618 20.2619 110.387 20.4422 110.849 20.5423C112.444 20.9029 121.3 22.4852 121.346 22.4251C121.438 22.365 115.288 18.1989 115.011 18.1388C114.918 18.1188 113.832 18.6195 112.583 19.2605Z" fill="#F47B4E"/>
<path d="M131.496 19.7211C131.542 19.9815 131.82 21.2033 132.074 22.4651C132.352 23.707 132.698 24.8687 132.883 25.0089C133.045 25.1491 134.039 26.3108 135.08 27.5926C136.12 28.8545 137.022 29.9361 137.114 29.9761C137.369 30.1163 143.704 26.8115 143.611 26.5912C143.565 26.471 140.791 24.7885 137.461 22.8257C132.606 20.0015 131.38 19.3606 131.496 19.7211Z" fill="#F3814F"/>
<path d="M129.161 20.7426C128.421 21.4236 127.45 22.3049 127.034 22.7055L126.271 23.4265L128.837 23.8872C130.248 24.1276 131.473 24.2878 131.542 24.2077C131.704 24.0675 130.941 19.8613 130.71 19.641C130.617 19.5609 129.924 20.0416 129.161 20.7426Z" fill="#F59A49"/>
<path d="M113.855 25.0092L118.664 29.1953L121.808 26.4713L124.93 23.7674L117.554 22.4054C113.485 21.6643 109.924 21.0033 109.624 20.9432C109.254 20.8831 110.71 22.2652 113.855 25.0092Z" fill="#F9CB30"/>
<path d="M151.311 22.1449C149.623 22.7057 148.328 23.2265 148.42 23.3066C148.86 23.6671 152.328 24.7086 152.767 24.6085C153.137 24.5284 153.391 24.1078 153.854 22.8459C154.201 21.9446 154.455 21.1835 154.432 21.1634C154.409 21.1434 152.998 21.5841 151.311 22.1449Z" fill="#5EC4F4"/>
<path d="M154.848 22.2452C154.64 22.8861 154.339 23.7474 154.178 24.188L153.877 24.9892L155.819 26.0307C156.906 26.6116 157.807 27.0923 157.877 27.0923C157.946 27.0923 157.946 26.0307 157.923 24.7489L157.854 22.4054L156.536 21.7645L155.218 21.1235L154.848 22.2452Z" fill="#54A8E8"/>
<path d="M146.941 23.647C146.802 23.7271 146.386 24.3481 145.993 25.009L145.276 26.2508L147.357 26.8918L149.461 27.5327L150.709 26.4712C151.38 25.8903 151.888 25.3695 151.842 25.2894C151.796 25.2093 150.825 24.8488 149.715 24.4883C148.605 24.1077 147.565 23.7472 147.449 23.6671C147.311 23.5869 147.079 23.5669 146.941 23.647Z" fill="#6AE2FD"/>
<path d="M125.831 24.0077C125.831 24.0478 125.415 25.7102 124.907 27.6931C124.074 30.9178 123.982 31.5788 123.982 34.0023V36.7063H124.976C125.508 36.7063 126.664 36.7664 127.542 36.8465C129.068 36.9667 129.138 36.9467 128.976 36.5861C128.49 35.5847 128.328 35.6247 134.663 35.4044L140.582 35.2041L139.334 33.7019C138.64 32.8807 137.877 32.0595 137.669 31.8993C137.23 31.5788 135.773 29.7962 135.773 29.5959C135.773 29.4957 133.207 26.2911 132.213 25.1494C132.12 25.0492 125.831 23.9276 125.831 24.0077Z" fill="#EE6C56"/>
<path d="M122.201 27.1323C120.768 28.4542 119.635 29.5959 119.704 29.676C119.82 29.8563 123.288 30.7776 123.404 30.6775C123.496 30.5773 124.906 24.8089 124.837 24.7688C124.814 24.7488 123.612 25.8103 122.201 27.1323Z" fill="#F3A954"/>
<path d="M151.819 26.5111L150.478 27.6929H153.923C156.027 27.6929 157.276 27.6128 157.16 27.5126C157.021 27.4125 156.096 26.8717 155.056 26.3309L153.183 25.3294L151.819 26.5111Z" fill="#6DD0FA"/>
<path d="M146.131 28.6343C146.756 29.4955 147.704 30.8175 148.259 31.5986C148.813 32.3597 149.345 33.0808 149.461 33.201C149.553 33.3011 149.646 32.2396 149.646 30.8575V28.3338L147.496 27.7129C146.34 27.3724 145.299 27.092 145.184 27.092C145.091 27.092 145.507 27.7931 146.131 28.6343Z" fill="#55A6E8"/>
<path d="M144.027 28.4339C143.496 29.856 141.97 34.9435 142.062 35.0035C142.247 35.1638 148.837 33.7417 148.79 33.5614C148.744 33.3812 144.698 27.7529 144.467 27.5526C144.42 27.4926 144.212 27.8931 144.027 28.4339Z" fill="#64C4F4"/>
<path d="M140.513 29.115C138.987 29.8961 137.716 30.537 137.692 30.5771C137.577 30.6772 140.814 34.5229 141.022 34.5029C141.114 34.5029 141.346 34.1423 141.507 33.7417C142.016 32.4999 143.45 27.8731 143.357 27.793C143.311 27.7329 142.016 28.3338 140.513 29.115Z" fill="#E7396C"/>
<path d="M150.339 30.8174C150.339 33.2009 150.362 33.3411 150.756 33.0807C151.819 32.3597 153.623 31.0578 155.38 29.7358L157.299 28.2937H153.831H150.339V30.8174Z" fill="#5FBDF0"/>
<path d="M154.085 31.5185L150.316 34.3427L150.871 34.9636C151.172 35.3241 152.189 36.4858 153.114 37.5674L154.825 39.5503L156.397 36.8263L157.993 34.0823L157.923 31.3984L157.854 28.6944L154.085 31.5185Z" fill="#56A5E7"/>
<path d="M145.507 35.024C143.542 35.4045 141.877 35.7651 141.831 35.8051C141.762 35.8652 141.808 36.0855 141.923 36.3059C142.201 36.8266 145.946 40.9126 146.155 40.9126C146.247 40.9126 147.01 39.4304 147.842 37.6078C148.675 35.7851 149.299 34.3029 149.23 34.323C149.137 34.323 147.472 34.6434 145.507 35.024Z" fill="#9433E2"/>
<path d="M149.692 35.2441C149.253 36.0252 147.056 40.9324 147.126 40.9925C147.172 41.0125 148.744 40.7722 150.594 40.4317L153.969 39.8108L152.027 37.4072C150.964 36.1053 150.039 34.9837 149.993 34.9436C149.946 34.9036 149.808 35.0438 149.692 35.2441Z" fill="#8C20EF"/>
<path d="M132.351 36.0453L129.508 36.1254L130.178 37.1669C130.571 37.7478 131.288 38.8895 131.797 39.7307L132.721 41.2529L136.49 38.6691C138.571 37.2471 140.328 36.0253 140.374 35.9852C140.467 35.9051 138.132 35.9251 132.351 36.0453Z" fill="#EF4760"/>
<path d="M137.114 38.9695C135.126 40.3114 133.484 41.4731 133.484 41.5332C133.461 41.5933 134.525 41.8537 135.843 42.094C137.137 42.3344 138.409 42.5748 138.663 42.6348C139.033 42.715 139.126 42.6348 139.172 42.1742C139.195 41.8737 139.565 40.4717 140.004 39.0496C140.444 37.6475 140.79 36.5059 140.767 36.5059C140.767 36.5059 139.103 37.6075 137.114 38.9695Z" fill="#C55AF8"/>
<path d="M141.137 37.8079C140.652 39.3702 139.704 42.6951 139.704 42.7952C139.704 42.8353 140.675 42.655 141.854 42.3746C143.01 42.0942 144.374 41.7737 144.837 41.6736L145.692 41.4733L144.328 40.0312C143.588 39.25 142.617 38.2486 142.178 37.8079L141.369 37.0068L141.137 37.8079Z" fill="#6C11C4"/>
<path d="M150.039 41.1125C148.397 41.4129 147.033 41.7134 146.987 41.7534C146.918 41.7935 147.218 42.8951 147.611 44.197C148.004 45.4789 148.397 46.4603 148.49 46.3802C149.322 45.579 153.808 40.7119 153.808 40.6318C153.808 40.4315 153.16 40.5316 150.039 41.1125Z" fill="#822ACE"/>
<path d="M132.837 42.4546C132.906 42.6549 133.669 45.8396 134.502 49.525C135.334 53.2104 136.074 56.375 136.166 56.5352C136.236 56.7355 136.398 56.6153 136.652 56.1346C136.86 55.7541 137.461 54.6525 137.993 53.7111L138.964 51.9886L139.126 47.7624L139.288 43.5362L138.756 43.3359C138.455 43.2157 137.161 42.9353 135.889 42.715C134.617 42.4746 133.392 42.2343 133.161 42.1742C132.814 42.0941 132.745 42.1542 132.837 42.4546Z" fill="#A746E5"/>
<path d="M142.548 42.8751L139.935 43.5761V44.8179C139.935 45.4989 139.889 47.1814 139.819 48.5434C139.727 50.346 139.75 50.9469 139.935 50.7266C141.068 49.3646 145.6 42.0939 145.322 42.134C145.23 42.134 143.958 42.4745 142.548 42.8751Z" fill="#B64BE9"/>
<path d="M143.449 46.7611C142.016 49.0845 140.883 51.0073 140.929 51.0474C140.998 51.1275 147.056 47.8427 147.403 47.5423C147.611 47.362 146.617 43.3161 146.201 42.7553C146.108 42.6151 145.021 44.1773 143.449 46.7611Z" fill="#822ACE"/>
<path d="M129.207 51.6483C127.565 56.215 126.271 60.0005 126.34 60.0406C126.433 60.1207 132.536 54.9331 132.536 54.7528C132.536 54.6928 132.999 54.2321 133.554 53.7313L134.571 52.83L133.508 48.1832C132.906 45.6395 132.375 43.4964 132.305 43.4363C132.236 43.3762 130.849 47.0816 129.207 51.6483Z" fill="#ED66FE"/>
<path d="M133.669 54.6124C133.23 54.9729 132.883 55.3535 132.929 55.4737C132.976 55.5738 132.236 59.2191 131.265 63.5455C130.317 67.8918 129.554 71.5171 129.577 71.5973C129.623 71.6974 131.034 70.035 132.698 67.9119L135.75 64.0462V61.4424C135.773 59.4996 135.635 58.2377 135.218 56.4751C134.918 55.1732 134.617 54.0716 134.594 54.0316C134.548 53.9915 134.132 54.2519 133.669 54.6124Z" fill="#D85DF3"/>
<path d="M137.438 56.1948L136.467 58.0375L136.49 61.6427C136.49 64.5871 136.583 65.4283 136.929 66.2495C137.299 67.1508 137.346 67.1909 137.461 66.7502C137.646 66.0292 138.617 55.0331 138.502 54.6725C138.479 54.4923 137.993 55.1933 137.438 56.1948Z" fill="#842FD2"/>
<path d="M214.952 50.3851V63.8081H216.624H218.297V50.3851V36.9622H216.624H214.952V50.3851Z" fill="black"/>
<path d="M225.616 37.4092C224.573 38.1967 224.672 40.0759 225.793 40.7918C226.088 40.9707 226.659 41.0781 227.288 41.0781C228.154 41.0781 228.43 40.9886 228.961 40.5591C229.571 40.0759 229.61 39.9506 229.59 39.002C229.551 38.0714 229.492 37.9103 228.941 37.4629C228.095 36.7649 226.482 36.747 225.616 37.4092Z" fill="black"/>
<path d="M236.201 50.3849V63.8078H237.874H239.546V62.5371V61.2664L240.451 62.0002C242.163 63.3604 244.229 63.9868 247.023 63.9868C250.112 63.9868 252.414 63.1993 254.381 61.4812C256.526 59.6199 257.451 57.4901 257.451 54.4834C257.451 52.1388 257.175 50.8681 256.368 49.3826C254.696 46.2864 251.292 44.4788 247.141 44.4788C244.386 44.4788 242.064 45.1947 240.49 46.5191C240.097 46.8412 239.723 47.0739 239.664 47.0202C239.605 46.9665 239.546 44.6756 239.546 41.9374V36.9619H237.874H236.201V50.3849ZM248.813 47.5213C251.115 48.1835 252.709 49.6153 253.535 51.7809C254.066 53.0874 254.106 55.7541 253.634 56.5594C253.456 56.8458 253.319 57.2037 253.319 57.329C253.319 57.7944 251.686 59.5483 250.702 60.1389C248.479 61.4633 246.059 61.6065 243.737 60.5863C240.786 59.2619 239.133 56.2373 239.703 53.1948C240.274 50.2059 241.946 48.3446 244.819 47.5034C246.295 47.0739 247.298 47.0918 248.813 47.5213Z" fill="black"/>
<path d="M273.427 37.6957C273.466 37.9104 274.627 38.859 276.536 40.1834L279.586 42.3132L281.317 42.3311C282.911 42.3311 283.048 42.2953 282.989 41.991C282.95 41.812 281.75 40.6845 280.314 39.4854L277.677 37.3198H275.513C273.447 37.3198 273.368 37.3377 273.427 37.6957Z" fill="black"/>
<path d="M173.024 38.4831C170.25 39.0021 167.77 40.2012 165.842 41.9373C164.681 42.9932 163.206 44.944 163.206 45.4451C163.206 45.5525 163.127 45.7315 163.029 45.821C162.753 46.0894 162.065 48.8993 161.907 50.2953C161.592 53.481 162.852 57.132 165.134 59.6556C166.629 61.3021 169.836 63.0561 172.453 63.6467C174.106 64.0225 179.103 63.9688 180.717 63.5751C183.314 62.9129 186.816 60.9084 186.816 60.0672C186.816 59.6377 185.203 58.2596 184.691 58.2596C184.455 58.2596 183.648 58.6712 182.901 59.1723C177.372 62.8413 169.679 61.0337 166.551 55.3065C165.705 53.7674 165.665 53.6242 165.586 51.8345C165.508 49.5794 165.744 48.4161 166.708 46.6263C169.62 41.2035 177.49 39.4495 182.901 43.029C183.648 43.5301 184.475 43.9417 184.711 43.9417C185.222 43.9417 186.816 42.5637 186.816 42.1162C186.816 41.2929 183.314 39.2527 180.815 38.6442C179.202 38.2504 174.735 38.143 173.024 38.4831Z" fill="black"/>
<path d="M196.064 44.7472C193.565 45.2125 190.751 46.5011 190.751 47.1991C190.751 47.396 190.987 47.9508 191.302 48.434C191.952 49.5078 192.306 49.5436 193.683 48.7025C195.729 47.4497 198.838 46.8769 200.805 47.396C203.088 48.0045 204.229 49.311 204.465 51.566L204.583 52.7115H200.471C194.568 52.7115 192.758 53.1589 191.243 54.9665C190.082 56.3446 189.827 59.2977 190.712 60.8905C191.283 61.8749 192.719 63.0024 194.077 63.4856C195.021 63.8078 195.572 63.8794 197.835 63.8794C200.825 63.8973 201.848 63.6825 203.54 62.6445L204.524 62.0359V62.9308V63.8078H206.295H208.066V57.7406C208.066 49.6868 207.771 48.1298 205.96 46.4116C205.154 45.6599 203.462 44.9082 201.966 44.6577C200.569 44.4071 197.618 44.4608 196.064 44.7472ZM204.524 56.5773C204.524 57.7764 204.465 58.0091 203.934 58.7071C202.989 59.942 201.829 60.7294 200.333 61.159C197.992 61.8033 195.651 61.338 194.391 59.9957C193.801 59.3693 193.703 59.1366 193.703 58.367C193.703 57.3469 194.175 56.4878 195.001 56.0046C195.985 55.414 197.264 55.235 200.943 55.235L204.524 55.2171V56.5773Z" fill="black"/>
<path d="M262.763 54.1436V63.8081H264.436H266.108V59.0116C266.108 53.374 266.265 52.157 267.131 50.5641C268.194 48.6849 270.358 47.5216 272.857 47.5216H273.781V46.0003V44.479H272.817C270.515 44.479 268.312 45.1949 266.934 46.394L266.108 47.1099V45.7855V44.479H264.436H262.763V54.1436Z" fill="black"/>
<path d="M225.577 54.2331V63.8081H227.249H228.921V54.2331V44.658H227.249H225.577V54.2331Z" fill="black"/>
<path d="M278.503 54.2331V63.8081H280.176H281.848V54.2331V44.658H280.176H278.503V54.2331Z" fill="black"/>
<path d="M220.394 612.327L214.039 586.819C202.771 581.96 191.242 577.751 179.508 574.212L178.706 586.066L175.452 573.007C160.9 568.778 151 566.915 151 566.915C151 566.915 164.372 618.664 192.42 658.227L225.102 664.069L199.713 667.794C203.242 672.115 207.035 676.206 211.07 680.042C251.871 718.583 297.317 736.266 312.575 719.538C327.833 702.81 307.126 658.005 266.324 619.464C253.675 607.516 237.785 597.928 221.88 590.382L220.394 612.327Z" fill="#C7B6D1"/>
<path d="M280.835 584.626L288.351 559.448C281.174 549.36 273.443 539.693 265.195 530.491L258.487 540.217L262.335 527.326C252.026 516.051 244.497 509.249 244.497 509.249C244.497 509.249 229.659 560.582 233.574 609.204L258.584 631.396L234.957 621.23C235.784 626.785 236.953 632.282 238.458 637.689C253.809 692.144 283.731 731.187 305.289 724.893C326.848 718.599 331.88 669.352 316.528 614.896C311.769 598.014 303.037 581.448 293.254 566.621L280.835 584.626Z" fill="#B49BC4"/>
<path d="M638.639 687.613L643.367 682.416C642.795 679.115 642.04 675.849 641.106 672.634L638.358 674.186L640.779 671.525C639.585 667.562 638.548 665.014 638.548 665.014C638.548 665.014 629.025 675.668 624.355 687.91L627.847 696.276L623.301 690.987C622.859 692.431 622.507 693.902 622.247 695.391C619.673 710.414 622.407 723.448 628.355 724.503C634.302 725.558 641.21 714.236 643.784 699.213C644.491 694.414 644.472 689.533 643.726 684.739L638.639 687.613Z" fill="#C7B6D1"/>
<path d="M708.598 697.892L715.286 695.93C716.473 692.803 717.486 689.61 718.319 686.367L715.178 686.25L718.602 685.246C719.594 681.225 720 678.498 720 678.498C720 678.498 706.436 682.609 696.221 690.632L694.96 699.631L693.755 692.712C692.643 693.716 691.595 694.79 690.616 695.928C680.781 707.434 676.502 720.03 681.057 724.061C685.612 728.093 697.277 722.034 707.111 710.529C710.154 706.792 712.617 702.603 714.413 698.108L708.598 697.892Z" fill="#C7B6D1"/>
<mask id="path-61-inside-1" fill="white">
<path d="M521.634 244.129V689.442C521.632 698.758 517.995 707.692 511.521 714.28C505.048 720.868 496.269 724.569 487.114 724.571H317.062C307.905 724.572 299.123 720.872 292.646 714.284C286.17 707.696 282.53 698.76 282.528 689.442V244.129C282.53 234.811 286.17 225.875 292.646 219.287C299.123 212.699 307.905 208.999 317.062 209H337.69C336.678 211.535 336.292 214.284 336.568 217.006C336.844 219.728 337.772 222.34 339.272 224.611C340.772 226.882 342.797 228.744 345.169 230.032C347.542 231.321 350.189 231.996 352.878 232H449.83C452.519 231.996 455.166 231.321 457.539 230.032C459.911 228.744 461.936 226.882 463.436 224.611C464.936 222.34 465.864 219.728 466.14 217.006C466.416 214.284 466.03 211.535 465.017 209H487.114C496.269 209.002 505.048 212.704 511.521 219.291C517.995 225.879 521.632 234.813 521.634 244.129V244.129Z"/>
</mask>
<path d="M521.634 244.129V689.442C521.632 698.758 517.995 707.692 511.521 714.28C505.048 720.868 496.269 724.569 487.114 724.571H317.062C307.905 724.572 299.123 720.872 292.646 714.284C286.17 707.696 282.53 698.76 282.528 689.442V244.129C282.53 234.811 286.17 225.875 292.646 219.287C299.123 212.699 307.905 208.999 317.062 209H337.69C336.678 211.535 336.292 214.284 336.568 217.006C336.844 219.728 337.772 222.34 339.272 224.611C340.772 226.882 342.797 228.744 345.169 230.032C347.542 231.321 350.189 231.996 352.878 232H449.83C452.519 231.996 455.166 231.321 457.539 230.032C459.911 228.744 461.936 226.882 463.436 224.611C464.936 222.34 465.864 219.728 466.14 217.006C466.416 214.284 466.03 211.535 465.017 209H487.114C496.269 209.002 505.048 212.704 511.521 219.291C517.995 225.879 521.632 234.813 521.634 244.129V244.129Z" fill="white"/>
<path d="M521.634 689.442L526.634 689.443V689.442H521.634ZM487.114 724.571L487.114 729.571L487.115 729.571L487.114 724.571ZM317.062 724.571L317.062 719.571L317.061 719.571L317.062 724.571ZM282.528 689.442L277.528 689.442L277.528 689.443L282.528 689.442ZM282.528 244.129L277.528 244.128V244.129H282.528ZM317.062 209L317.061 214H317.062V209ZM337.69 209L342.334 210.855L345.073 204H337.69V209ZM352.878 232L352.871 237H352.878V232ZM449.83 232L449.83 237L449.836 237L449.83 232ZM465.017 209V204H457.635L460.374 210.855L465.017 209ZM487.114 209L487.115 204H487.114V209ZM516.634 244.129V689.442H526.634V244.129H516.634ZM516.634 689.441C516.632 697.459 513.501 705.132 507.955 710.775L515.088 717.784C522.489 710.253 526.632 700.057 526.634 689.443L516.634 689.441ZM507.955 710.775C502.412 716.416 494.914 719.57 487.113 719.571L487.115 729.571C497.624 729.569 507.684 725.319 515.088 717.784L507.955 710.775ZM487.114 719.571H317.062V729.571H487.114V719.571ZM317.061 719.571C309.259 719.572 301.757 716.42 296.212 710.779L289.081 717.789C296.488 725.324 306.551 729.573 317.063 729.571L317.061 719.571ZM296.212 710.779C290.663 705.135 287.53 697.461 287.528 689.44L277.528 689.443C277.531 700.06 281.677 710.258 289.081 717.789L296.212 710.779ZM287.528 689.442V244.129H277.528V689.442H287.528ZM287.528 244.131C287.53 236.11 290.663 228.436 296.212 222.792L289.081 215.782C281.677 223.313 277.531 233.511 277.528 244.128L287.528 244.131ZM296.212 222.792C301.757 217.151 309.259 213.999 317.061 214L317.063 204C306.551 203.999 296.488 208.247 289.081 215.782L296.212 222.792ZM317.062 214H337.69V204H317.062V214ZM333.047 207.145C331.735 210.43 331.236 213.988 331.593 217.51L341.542 216.502C341.348 214.58 341.62 212.64 342.334 210.855L333.047 207.145ZM331.593 217.51C331.95 221.032 333.152 224.417 335.1 227.366L343.444 221.856C342.392 220.263 341.737 218.425 341.542 216.502L331.593 217.51ZM335.1 227.366C337.047 230.316 339.684 232.743 342.783 234.426L347.555 225.638C345.91 224.745 344.496 223.449 343.444 221.856L335.1 227.366ZM342.783 234.426C345.883 236.11 349.347 236.995 352.871 237L352.884 227C351.03 226.997 349.2 226.532 347.555 225.638L342.783 234.426ZM352.878 237H449.83V227H352.878V237ZM449.836 237C453.36 236.995 456.825 236.11 459.925 234.426L455.152 225.638C453.508 226.532 451.678 226.997 449.824 227L449.836 237ZM459.925 234.426C463.024 232.743 465.66 230.316 467.608 227.366L459.263 221.856C458.212 223.449 456.798 224.745 455.152 225.638L459.925 234.426ZM467.608 227.366C469.556 224.417 470.758 221.032 471.114 217.51L461.165 216.502C460.971 218.425 460.315 220.263 459.263 221.856L467.608 227.366ZM471.114 217.51C471.471 213.988 470.973 210.43 469.66 207.145L460.374 210.855C461.087 212.64 461.36 214.58 461.165 216.502L471.114 217.51ZM465.017 214H487.114V204H465.017V214ZM487.113 214C494.914 214.002 502.412 217.155 507.955 222.796L515.088 215.787C507.684 208.252 497.624 204.002 487.115 204L487.113 214ZM507.955 222.796C513.501 228.439 516.632 236.112 516.634 244.13L526.634 244.128C526.632 233.514 522.489 223.318 515.088 215.787L507.955 222.796Z" fill="#4B036D" mask="url(#path-61-inside-1)"/>
<path d="M378.12 393.436C378.119 390.385 378.908 387.388 380.407 384.746C381.906 382.104 384.062 379.911 386.659 378.387C384.063 376.86 381.118 376.056 378.119 376.056C375.121 376.055 372.175 376.858 369.578 378.383C366.981 379.908 364.825 382.102 363.326 384.745C361.826 387.387 361.037 390.385 361.037 393.436C361.037 396.487 361.826 399.485 363.326 402.127C364.825 404.769 366.981 406.963 369.578 408.489C372.175 410.014 375.121 410.817 378.119 410.816C381.118 410.815 384.063 410.011 386.659 408.485C384.062 406.961 381.906 404.767 380.407 402.125C378.908 399.484 378.119 396.487 378.12 393.436V393.436Z" fill="#C7B6D1"/>
<path d="M399.59 393.436C399.59 390.385 400.378 387.388 401.878 384.746C403.377 382.104 405.533 379.911 408.13 378.387C405.533 376.86 402.588 376.056 399.59 376.056C396.591 376.055 393.646 376.858 391.049 378.383C388.452 379.908 386.295 382.102 384.796 384.745C383.297 387.387 382.507 390.385 382.507 393.436C382.507 396.487 383.297 399.485 384.796 402.127C386.295 404.769 388.452 406.963 391.049 408.489C393.646 410.014 396.591 410.817 399.59 410.816C402.588 410.815 405.533 410.011 408.13 408.485C405.533 406.961 403.377 404.767 401.878 402.125C400.378 399.484 399.59 396.487 399.59 393.436V393.436Z" fill="#C7B6D1"/>
<path d="M420.573 410.816C430.005 410.816 437.651 403.035 437.651 393.436C437.651 383.837 430.005 376.056 420.573 376.056C411.14 376.056 403.494 383.837 403.494 393.436C403.494 403.035 411.14 410.816 420.573 410.816Z" fill="#56087B"/>
<path d="M478.489 507.181H325.828V508.636H478.489V507.181Z" fill="#C7B6D1"/>
<path d="M330.649 498.096C333.311 498.096 335.47 495.9 335.47 493.19C335.47 490.481 333.311 488.284 330.649 488.284C327.986 488.284 325.828 490.481 325.828 493.19C325.828 495.9 327.986 498.096 330.649 498.096Z" fill="#56087B"/>
<path d="M478.489 556.24H325.828V557.695H478.489V556.24Z" fill="#C7B6D1"/>
<path d="M330.649 547.156C333.311 547.156 335.47 544.959 335.47 542.25C335.47 539.54 333.311 537.344 330.649 537.344C327.986 537.344 325.828 539.54 325.828 542.25C325.828 544.959 327.986 547.156 330.649 547.156Z" fill="#56087B"/>
<path d="M449.114 447.72H349.577C348.63 447.719 347.721 447.335 347.051 446.653C346.381 445.971 346.004 445.047 346.003 444.083V342.789C346.004 341.824 346.381 340.9 347.051 340.218C347.721 339.536 348.63 339.153 349.577 339.151H449.114C450.062 339.153 450.97 339.536 451.641 340.218C452.311 340.9 452.687 341.824 452.689 342.789V444.083C452.687 445.047 452.311 445.971 451.641 446.653C450.97 447.335 450.062 447.719 449.114 447.72V447.72ZM349.577 340.606C349.009 340.607 348.464 340.837 348.062 341.246C347.66 341.655 347.433 342.21 347.433 342.789V444.083C347.433 444.661 347.66 445.216 348.062 445.625C348.464 446.034 349.009 446.264 349.577 446.265H449.114C449.683 446.264 450.228 446.034 450.63 445.625C451.032 445.216 451.258 444.661 451.259 444.083V342.789C451.258 342.21 451.032 341.655 450.63 341.246C450.228 340.837 449.683 340.607 449.114 340.606H349.577Z" fill="#C7B6D1"/>
<path d="M475.63 588.856H427.515C425.936 588.856 424.656 590.159 424.656 591.766V608.841C424.656 610.448 425.936 611.751 427.515 611.751H475.63C477.209 611.751 478.489 610.448 478.489 608.841V591.766C478.489 590.159 477.209 588.856 475.63 588.856Z" fill="#56087B"/>
<path d="M720 723.858H151.568V725.313H720V723.858Z" fill="#3F3D56"/>
<path d="M611.719 445.478C611.719 445.478 609.74 458.232 611.719 460.246C613.698 462.259 599.186 479.041 599.186 479.041L587.313 462.259C587.313 462.259 592.59 453.533 590.611 446.149L611.719 445.478Z" fill="#FFB8B8"/>
<path d="M568.186 541.469L559.608 634.776L562.903 707.273L578.734 702.574L579.397 637.461L597.869 581.075L609.08 642.161L607.758 703.918L627.548 704.59L628.869 636.121L631.188 540.491L568.186 541.469Z" fill="#838391"/>
<path d="M608.421 701.904V716.672C608.421 716.672 605.123 727.412 615.677 726.741C626.231 726.07 625.571 721.371 625.571 721.371L621.614 703.246L608.421 701.904Z" fill="#2F2E41"/>
<path d="M578.078 701.904V716.672C578.078 716.672 581.376 727.412 570.822 726.741C560.268 726.07 560.927 721.371 560.927 721.371L564.885 703.246L578.078 701.904Z" fill="#2F2E41"/>
<path d="M600.505 452.861C608.884 452.861 615.677 445.949 615.677 437.422C615.677 428.895 608.884 421.983 600.505 421.983C592.127 421.983 585.334 428.895 585.334 437.422C585.334 445.949 592.127 452.861 600.505 452.861Z" fill="#FFB8B8"/>
<path d="M599.846 471.657L601.165 464.944H604.463L610.841 455.608L616.337 460.917L617.656 492.466H582.036L585.334 458.903L590.137 455.608C590.137 455.608 589.292 466.958 598.527 466.958L599.846 471.657Z" fill="#575A89"/>
<path d="M585.993 464.273C585.993 464.273 591.456 471.311 599.608 470.813C607.761 470.315 615.677 463.602 615.677 463.602L626.89 550.868C626.89 550.868 614.357 552.21 610.4 545.497L580.057 544.826L580.716 463.602L585.993 464.273Z" fill="#56087B"/>
<path d="M590.447 454.45L561.587 468.972L568.843 510.591C568.843 510.591 571.482 526.03 568.843 532.072C566.205 538.113 563.566 578.389 563.566 578.389C563.566 578.389 593.249 581.746 589.292 534.085C585.334 486.425 590.447 454.45 590.447 454.45Z" fill="#AEAEBE"/>
<path d="M572.801 554.895L576.758 558.923C576.758 558.923 588.632 579.732 593.909 572.348C599.186 564.964 584.674 552.21 584.674 552.21L578.078 546.84L572.801 554.895Z" fill="#FFB8B8"/>
<path d="M610.856 454.45L639.423 468.972L629.529 518.646C629.529 518.646 630.189 534.757 633.487 543.483C636.785 552.21 635.466 577.718 635.466 577.718C635.466 577.718 631.508 593.157 622.933 554.895C614.357 516.632 610.856 454.45 610.856 454.45Z" fill="#AEAEBE"/>
<path d="M632.827 530.729H626.89C626.89 530.729 607.102 528.044 608.421 536.1C609.74 544.155 628.21 542.141 628.21 542.141L635.466 541.47L632.827 530.729Z" fill="#FFB8B8"/>
<path d="M565.545 466.958L560.928 468.972C560.928 468.972 556.31 479.041 555.651 482.398C554.991 485.754 547.075 526.031 549.054 530.729C551.033 535.428 570.822 560.265 570.822 560.265L582.036 548.183L565.545 525.359L570.162 496.495L565.545 466.958Z" fill="#AEAEBE"/>
<path d="M629.529 467.629L638.257 468.379L640.083 468.972C640.083 468.972 658.553 519.989 654.595 528.044C650.637 536.099 633.487 550.867 633.487 550.867L628.869 530.058L637.445 522.003L628.869 495.152L629.529 467.629Z" fill="#AEAEBE"/>
<path d="M613.341 425.517C613.341 425.517 617.31 417.938 608.578 417.249C608.578 417.249 600.64 412.426 594.29 417.938C594.29 417.938 588.733 416.56 587.145 420.694C587.145 420.694 586.351 418.627 588.733 417.249C588.733 417.249 583.176 415.871 583.176 422.761C583.176 422.761 580.795 429.652 583.176 435.853C585.558 442.054 586.351 442.743 586.351 442.743C586.351 442.743 582.438 429.742 591.964 429.053C601.49 428.364 612.15 422.417 612.944 429.996C613.738 437.575 615.326 439.643 615.326 439.643C615.326 439.643 622.47 428.618 613.341 425.517Z" fill="#2F2E41"/>
</g>
<defs>
<clipPath id="clip0">
<rect width="1440" height="1024" fill="white"/>
</clipPath>
</defs>
</svg>
