<svg width="22" height="21" viewBox="0 0 22 21" fill="none" xmlns="http://www.w3.org/2000/svg">
<path d="M21.3096 4.59098L17.1904 0.659016C16.7483 0.237058 16.1488 3.12036e-06 15.5237 0H2.35714C1.05531 0 0 1.00734 0 2.25V18.75C0 19.9927 1.05531 21 2.35714 21H19.6429C20.9447 21 22 19.9927 22 18.75V6.18197C22 5.58523 21.7517 5.01294 21.3096 4.59098ZM11 18C9.26426 18 7.85714 16.6568 7.85714 15C7.85714 13.3432 9.26426 12 11 12C12.7357 12 14.1429 13.3432 14.1429 15C14.1429 16.6568 12.7357 18 11 18ZM15.7143 3.72563V8.4375C15.7143 8.74814 15.4504 9 15.125 9H3.73214C3.40671 9 3.14286 8.74814 3.14286 8.4375V3.5625C3.14286 3.25186 3.40671 3 3.73214 3H14.9541C15.1104 3 15.2603 3.05925 15.3708 3.16477L15.5417 3.32789C15.5964 3.38012 15.6398 3.44212 15.6694 3.51037C15.6991 3.57861 15.7143 3.65176 15.7143 3.72563Z" fill="white"/>
</svg>
