<svg width="30" height="30" viewBox="0 0 30 30" fill="none" xmlns="http://www.w3.org/2000/svg">
<path d="M29.592 25.9369L23.7498 20.0957C23.4861 19.832 23.1286 19.6856 22.7536 19.6856H21.7985C23.4158 17.6174 24.3768 15.0161 24.3768 12.1863C24.3768 5.45455 18.9213 0 12.1884 0C5.45548 0 0 5.45455 0 12.1863C0 18.9181 5.45548 24.3726 12.1884 24.3726C15.0187 24.3726 17.6204 23.4118 19.6889 21.7947V22.7497C19.6889 23.1247 19.8354 23.4821 20.0991 23.7457L25.9414 29.587C26.4922 30.1377 27.3829 30.1377 27.9278 29.587L29.5861 27.9289C30.137 27.3782 30.137 26.4876 29.592 25.9369ZM12.1884 19.6856C8.04551 19.6856 4.68784 16.3343 4.68784 12.1863C4.68784 8.04414 8.03965 4.68704 12.1884 4.68704C16.3313 4.68704 19.6889 8.03828 19.6889 12.1863C19.6889 16.3285 16.3371 19.6856 12.1884 19.6856Z" fill="white" fill-opacity="0.3"/>
</svg>
