<svg width="1440" height="320" viewBox="0 0 1440 320" fill="none" xmlns="http://www.w3.org/2000/svg">
<g clip-path="url(#clip0)">
<path d="M0 256L48 240C96 224 192 192 288 181.3C384 171 480 181 576 192C672 203 768 213 864 192C960 171 1056 117 1152 106.7C1248 96 1344 128 1392 144L1440 160V320H1392C1344 320 1248 320 1152 320C1056 320 960 320 864 320C768 320 672 320 576 320C480 320 384 320 288 320C192 320 96 320 48 320H0V256Z" fill="#0C0E1C"/>
</g>
<defs>
<clipPath id="clip0">
<rect width="1440" height="320" fill="white"/>
</clipPath>
</defs>
</svg>
