<svg width="1440" height="800" viewBox="0 0 1440 800" fill="none" xmlns="http://www.w3.org/2000/svg">
<path fill-rule="evenodd" clip-rule="evenodd" d="M0 40.8736L48 25.0584C96 9.24329 192 -22.387 288 25.0584C384 72.5038 480 199.025 576 293.916C672 388.807 768 452.067 864 483.697C960 515.328 1056 515.328 1152 436.252C1248 357.176 1344 199.025 1392 119.949L1440 40.8736V800H1392C1344 800 1248 800 1152 800C1056 800 960 800 864 800C768 800 672 800 576 800C480 800 384 800 288 800C192 800 96 800 48 800H0V40.8736Z" fill="#4CAC7D"/>
</svg>
